<?xml version="1.0" encoding="UTF-8" standalone="no"?><!DOCTYPE svg PUBLIC "-//W3C//DTD SVG 1.1//EN" "http://www.w3.org/Graphics/SVG/1.1/DTD/svg11.dtd"><svg width="100%" height="100%" viewBox="0 0 199 19" version="1.1" xmlns="http://www.w3.org/2000/svg" xmlns:xlink="http://www.w3.org/1999/xlink" xml:space="preserve" xmlns:serif="http://www.serif.com/" style="fill-rule:evenodd;clip-rule:evenodd;stroke-linejoin:round;stroke-miterlimit:1.41421;"><g><path d="M198.309,9.803l0,0.741l-6.971,0c0.066,1.044 0.379,1.84 0.94,2.39c0.565,0.544 1.351,0.816 2.356,0.816c0.582,0 1.145,-0.072 1.689,-0.215c0.55,-0.143 1.093,-0.357 1.632,-0.642l0,1.433c-0.544,0.231 -1.102,0.407 -1.673,0.528c-0.571,0.121 -1.151,0.181 -1.739,0.181c-1.472,0 -2.639,-0.429 -3.501,-1.285c-0.857,-0.857 -1.286,-2.016 -1.286,-3.478c0,-1.51 0.407,-2.708 1.22,-3.592c0.818,-0.89 1.92,-1.335 3.304,-1.335c1.241,0 2.222,0.401 2.941,1.203c0.726,0.797 1.088,1.881 1.088,3.255Zm-1.516,-0.445c-0.011,-0.83 -0.245,-1.492 -0.7,-1.986c-0.451,-0.494 -1.05,-0.742 -1.797,-0.742c-0.846,0 -1.524,0.239 -2.035,0.717c-0.505,0.478 -0.796,1.151 -0.873,2.019l5.405,-0.008l0,0Zm-7.622,-2.373c-0.17,-0.099 -0.357,-0.171 -0.56,-0.215c-0.198,-0.049 -0.418,-0.074 -0.659,-0.074c-0.857,0 -1.516,0.28 -1.978,0.841c-0.456,0.555 -0.684,1.354 -0.684,2.398l0,4.861l-1.524,0l0,-9.229l1.524,0l0,1.434c0.319,-0.56 0.734,-0.975 1.244,-1.244c0.511,-0.275 1.132,-0.412 1.863,-0.412c0.104,0 0.219,0.008 0.346,0.025c0.126,0.011 0.266,0.03 0.42,0.057l0.008,1.558l0,0Zm-7.836,2.818l0,0.741l-6.971,0c0.066,1.044 0.379,1.84 0.94,2.39c0.565,0.544 1.351,0.816 2.356,0.816c0.582,0 1.146,-0.072 1.689,-0.215c0.55,-0.143 1.094,-0.357 1.632,-0.642l0,1.433c-0.544,0.231 -1.102,0.407 -1.673,0.528c-0.571,0.121 -1.151,0.181 -1.738,0.181c-1.473,0 -2.64,-0.429 -3.502,-1.285c-0.857,-0.857 -1.286,-2.016 -1.286,-3.478c0,-1.51 0.407,-2.708 1.22,-3.592c0.818,-0.89 1.92,-1.335 3.304,-1.335c1.241,0 2.222,0.401 2.942,1.203c0.725,0.797 1.087,1.881 1.087,3.255Zm-1.516,-0.445c-0.011,-0.83 -0.244,-1.492 -0.7,-1.986c-0.451,-0.494 -1.05,-0.742 -1.797,-0.742c-0.846,0 -1.524,0.239 -2.035,0.717c-0.505,0.478 -0.796,1.151 -0.873,2.019l5.405,-0.008l0,0Zm-19.001,-6.864l1.665,0l0,5.043l6.048,0l0,-5.043l1.664,0l0,12.302l-1.664,0l0,-5.858l-6.048,0l0,5.858l-1.665,0l0,-12.302Zm-8.355,3.345l0,1.434c-0.428,-0.22 -0.873,-0.384 -1.335,-0.494c-0.461,-0.11 -0.939,-0.165 -1.434,-0.165c-0.752,0 -1.318,0.115 -1.697,0.346c-0.373,0.231 -0.56,0.577 -0.56,1.038c0,0.352 0.134,0.629 0.404,0.832c0.269,0.198 0.81,0.388 1.623,0.569l0.519,0.115c1.077,0.231 1.84,0.558 2.291,0.981c0.455,0.417 0.683,1.002 0.683,1.755c0,0.857 -0.34,1.535 -1.021,2.035c-0.676,0.5 -1.607,0.75 -2.794,0.75c-0.494,0 -1.01,-0.049 -1.549,-0.148c-0.532,-0.094 -1.096,-0.237 -1.689,-0.429l0,-1.565c0.56,0.291 1.113,0.51 1.656,0.659c0.544,0.143 1.083,0.214 1.615,0.214c0.714,0 1.264,-0.121 1.648,-0.363c0.385,-0.247 0.577,-0.593 0.577,-1.038c0,-0.412 -0.14,-0.728 -0.42,-0.947c-0.275,-0.22 -0.882,-0.432 -1.821,-0.635l-0.527,-0.123c-0.94,-0.198 -1.618,-0.5 -2.036,-0.907c-0.417,-0.412 -0.626,-0.975 -0.626,-1.689c0,-0.868 0.308,-1.538 0.923,-2.01c0.615,-0.473 1.489,-0.709 2.62,-0.709c0.561,0 1.088,0.041 1.582,0.124c0.495,0.082 0.951,0.206 1.368,0.37Zm-8.372,3.964l0,0.741l-6.97,0c0.066,1.044 0.379,1.84 0.939,2.39c0.566,0.544 1.351,0.816 2.357,0.816c0.582,0 1.145,-0.072 1.689,-0.215c0.549,-0.143 1.093,-0.357 1.631,-0.642l0,1.433c-0.544,0.231 -1.101,0.407 -1.673,0.528c-0.571,0.121 -1.15,0.181 -1.738,0.181c-1.472,0 -2.64,-0.429 -3.502,-1.285c-0.857,-0.857 -1.285,-2.016 -1.285,-3.478c0,-1.51 0.406,-2.708 1.219,-3.592c0.819,-0.89 1.92,-1.335 3.304,-1.335c1.242,0 2.222,0.401 2.942,1.203c0.725,0.797 1.087,1.881 1.087,3.255Zm-1.516,-0.445c-0.011,-0.83 -0.244,-1.492 -0.7,-1.986c-0.45,-0.494 -1.049,-0.742 -1.796,-0.742c-0.846,0 -1.525,0.239 -2.036,0.717c-0.505,0.478 -0.796,1.151 -0.873,2.019l5.405,-0.008l0,0Zm-13.117,-2.728c-0.813,0 -1.456,0.319 -1.928,0.956c-0.473,0.632 -0.709,1.5 -0.709,2.604c0,1.104 0.233,1.975 0.7,2.612c0.473,0.632 1.118,0.948 1.937,0.948c0.807,0 1.447,-0.319 1.92,-0.956c0.472,-0.637 0.708,-1.505 0.708,-2.604c0,-1.093 -0.236,-1.958 -0.708,-2.596c-0.473,-0.642 -1.113,-0.964 -1.92,-0.964Zm0,-1.285c1.318,0 2.353,0.428 3.106,1.285c0.753,0.857 1.129,2.044 1.129,3.56c0,1.511 -0.376,2.697 -1.129,3.56c-0.753,0.856 -1.788,1.285 -3.106,1.285c-1.324,0 -2.362,-0.429 -3.115,-1.285c-0.747,-0.863 -1.121,-2.049 -1.121,-3.56c0,-1.516 0.374,-2.703 1.121,-3.56c0.753,-0.857 1.791,-1.285 3.115,-1.285Zm-8.207,7.696l0,-3.304l-2.719,0l0,-1.368l4.367,0l0,5.282c-0.643,0.456 -1.352,0.802 -2.126,1.038c-0.775,0.231 -1.601,0.346 -2.48,0.346c-1.923,0 -3.428,-0.56 -4.516,-1.681c-1.082,-1.126 -1.623,-2.692 -1.623,-4.697c0,-2.01 0.541,-3.576 1.623,-4.696c1.088,-1.126 2.593,-1.689 4.516,-1.689c0.802,0 1.563,0.098 2.282,0.296c0.725,0.198 1.393,0.489 2.002,0.874l0,1.771c-0.615,-0.522 -1.268,-0.914 -1.961,-1.178c-0.692,-0.264 -1.42,-0.396 -2.183,-0.396c-1.505,0 -2.637,0.421 -3.395,1.261c-0.753,0.841 -1.129,2.093 -1.129,3.757c0,1.659 0.376,2.909 1.129,3.749c0.758,0.841 1.89,1.261 3.395,1.261c0.588,0 1.112,-0.049 1.574,-0.148c0.461,-0.105 0.876,-0.264 1.244,-0.478Zm-20.567,-6.411c-0.813,0 -1.455,0.319 -1.928,0.956c-0.472,0.632 -0.708,1.5 -0.708,2.604c0,1.104 0.233,1.975 0.7,2.612c0.472,0.632 1.118,0.948 1.936,0.948c0.808,0 1.448,-0.319 1.92,-0.956c0.473,-0.637 0.709,-1.505 0.709,-2.604c0,-1.093 -0.236,-1.958 -0.709,-2.596c-0.472,-0.642 -1.112,-0.964 -1.92,-0.964Zm0,-1.285c1.319,0 2.354,0.428 3.107,1.285c0.752,0.857 1.129,2.044 1.129,3.56c0,1.511 -0.377,2.697 -1.129,3.56c-0.753,0.856 -1.788,1.285 -3.107,1.285c-1.323,0 -2.362,-0.429 -3.114,-1.285c-0.747,-0.863 -1.121,-2.049 -1.121,-3.56c0,-1.516 0.374,-2.703 1.121,-3.56c0.752,-0.857 1.791,-1.285 3.114,-1.285Zm-8.215,4.73c0,-1.099 -0.228,-1.95 -0.684,-2.555c-0.45,-0.604 -1.084,-0.906 -1.903,-0.906c-0.813,0 -1.447,0.302 -1.903,0.906c-0.451,0.605 -0.676,1.456 -0.676,2.555c0,1.093 0.225,1.941 0.676,2.546c0.456,0.604 1.09,0.906 1.903,0.906c0.819,0 1.453,-0.302 1.903,-0.906c0.456,-0.605 0.684,-1.453 0.684,-2.546Zm1.516,3.576c0,1.571 -0.348,2.738 -1.046,3.502c-0.698,0.769 -1.766,1.153 -3.205,1.153c-0.533,0 -1.036,-0.041 -1.508,-0.123c-0.473,-0.077 -0.931,-0.198 -1.376,-0.363l0,-1.475c0.445,0.242 0.884,0.42 1.318,0.536c0.434,0.115 0.876,0.173 1.327,0.173c0.994,0 1.738,-0.261 2.233,-0.783c0.494,-0.516 0.741,-1.299 0.741,-2.348l0,-0.75c-0.313,0.544 -0.714,0.95 -1.203,1.219c-0.489,0.269 -1.074,0.404 -1.755,0.404c-1.131,0 -2.043,-0.431 -2.735,-1.294c-0.692,-0.862 -1.039,-2.005 -1.039,-3.427c0,-1.429 0.347,-2.574 1.039,-3.436c0.692,-0.863 1.604,-1.294 2.735,-1.294c0.681,0 1.266,0.135 1.755,0.404c0.489,0.269 0.89,0.675 1.203,1.219l0,-1.401l1.516,0l0,8.084Zm-14.328,-7.021c-0.813,0 -1.456,0.319 -1.929,0.956c-0.472,0.632 -0.708,1.5 -0.708,2.604c0,1.104 0.233,1.975 0.7,2.612c0.473,0.632 1.118,0.948 1.937,0.948c0.807,0 1.447,-0.319 1.919,-0.956c0.473,-0.637 0.709,-1.505 0.709,-2.604c0,-1.093 -0.236,-1.958 -0.709,-2.596c-0.472,-0.642 -1.112,-0.964 -1.919,-0.964Zm0,-1.285c1.318,0 2.353,0.428 3.106,1.285c0.752,0.857 1.129,2.044 1.129,3.56c0,1.511 -0.377,2.697 -1.129,3.56c-0.753,0.856 -1.788,1.285 -3.106,1.285c-1.324,0 -2.363,-0.429 -3.115,-1.285c-0.747,-0.863 -1.121,-2.049 -1.121,-3.56c0,-1.516 0.374,-2.703 1.121,-3.56c0.752,-0.857 1.791,-1.285 3.115,-1.285Zm-12.607,-2.851l1.664,0l0,10.901l5.99,0l0,1.401l-7.654,0l0,-12.302Zm-7.045,4.491c-0.171,-0.099 -0.357,-0.171 -0.561,-0.215c-0.197,-0.049 -0.417,-0.074 -0.659,-0.074c-0.857,0 -1.516,0.28 -1.977,0.841c-0.456,0.555 -0.684,1.354 -0.684,2.398l0,4.861l-1.525,0l0,-9.229l1.525,0l0,1.434c0.318,-0.56 0.733,-0.975 1.244,-1.244c0.511,-0.275 1.132,-0.412 1.862,-0.412c0.105,0 0.22,0.008 0.346,0.025c0.127,0.011 0.267,0.03 0.42,0.057l0.009,1.558l0,0Zm-16.216,4.169l0,-5.587l1.516,0l0,5.529c0,0.874 0.17,1.53 0.511,1.97c0.34,0.434 0.851,0.651 1.532,0.651c0.819,0 1.464,-0.261 1.937,-0.783c0.478,-0.522 0.717,-1.233 0.717,-2.134l0,-5.233l1.516,0l0,9.229l-1.516,0l0,-1.417c-0.368,0.56 -0.797,0.978 -1.286,1.252c-0.483,0.269 -1.046,0.404 -1.689,0.404c-1.06,0 -1.865,-0.33 -2.414,-0.989c-0.549,-0.659 -0.824,-1.623 -0.824,-2.892Zm-6.584,-4.524c-0.813,0 -1.455,0.319 -1.928,0.956c-0.472,0.632 -0.708,1.5 -0.708,2.604c0,1.104 0.233,1.975 0.7,2.612c0.472,0.632 1.118,0.948 1.936,0.948c0.808,0 1.448,-0.319 1.92,-0.956c0.473,-0.637 0.709,-1.505 0.709,-2.604c0,-1.093 -0.236,-1.958 -0.709,-2.596c-0.472,-0.642 -1.112,-0.964 -1.92,-0.964Zm0,-1.285c1.319,0 2.354,0.428 3.107,1.285c0.752,0.857 1.129,2.044 1.129,3.56c0,1.511 -0.377,2.697 -1.129,3.56c-0.753,0.856 -1.788,1.285 -3.107,1.285c-1.324,0 -2.362,-0.429 -3.114,-1.285c-0.747,-0.863 -1.121,-2.049 -1.121,-3.56c0,-1.516 0.374,-2.703 1.121,-3.56c0.752,-0.857 1.79,-1.285 3.114,-1.285Zm-13.274,-2.851l1.788,0l3.411,5.059l3.387,-5.059l1.788,0l-4.351,6.444l0,5.858l-1.672,0l0,-5.858l-4.351,-6.444Z" style="fill:#666;fill-rule:nonzero;"/><path d="M9.051,0c6.088,0.118 11.121,7.252 8.309,13.237c-2.468,5.252 -10.364,6.969 -14.761,2.873c-5.158,-4.805 -2.389,-15.835 6.093,-16.107c0.12,-0.003 0.239,-0.003 0.359,-0.003Zm-0.162,6c-2.832,0.054 -4.688,4.929 -1.19,6.369c2.306,0.95 5.433,-1.623 4.28,-4.332c-0.518,-1.215 -1.711,-2.046 -3.09,-2.037Z" style="fill:#666;fill-rule:nonzero;"/></g></svg>