<?xml version="1.0" encoding="UTF-8" standalone="no"?><!DOCTYPE svg PUBLIC "-//W3C//DTD SVG 1.1//EN" "http://www.w3.org/Graphics/SVG/1.1/DTD/svg11.dtd"><svg width="100%" height="100%" viewBox="0 0 256 256" version="1.1" xmlns="http://www.w3.org/2000/svg" xmlns:xlink="http://www.w3.org/1999/xlink" xml:space="preserve" xmlns:serif="http://www.serif.com/" style="fill-rule:evenodd;clip-rule:evenodd;stroke-linejoin:round;stroke-miterlimit:1.41421;"><g><path id="Logomark.svg" d="M170.539,136.509c-0.966,10.956 -5.73,21.23 -13.469,29.044l0.014,0.014l-32.918,33.248l-0.016,-41.035l2.461,-2.486l-0.024,-0.023c2.609,-2.622 3.997,-6.478 3.499,-10.993c-0.494,-4.479 -2.73,-8.734 -5.947,-12.01l0,-0.111l-0.109,0c-3.245,-3.258 -7.466,-5.522 -11.907,-6.022c-4.471,-0.504 -8.289,0.898 -10.885,3.533l-0.024,-0.027l-2.479,2.504l-40.622,-0.016l32.274,-32.599c7.753,-8.19 18.228,-13.27 29.46,-14.288c88.153,-86.898 127.035,-77.078 127.035,-77.078c0,0 9.729,39.276 -76.343,128.345Zm-38.568,-27.669c6.005,4.122 11.174,9.345 15.233,15.393c61.687,-62.442 65.168,-81.216 65.168,-81.216c0,0 -18.627,3.559 -80.401,65.822l0,0.001Zm-25.806,26.062c0.088,-0.096 0.18,-0.189 0.275,-0.277l0.359,-0.363l0.028,0.027c1.295,-0.974 3.127,-1.348 5.291,-0.911c4.961,1.002 9.786,5.876 10.777,10.886c0.433,2.186 0.063,4.036 -0.901,5.345l0.002,0.002l-0.466,0.555l-0.047,0.026c-0.637,0.617 -1.424,1.058 -2.282,1.281l-20.513,11.505l5.08,5.131l-43.149,23.058l22.839,-23.069l-5.08,-5.13l27.787,-28.066Zm-48.475,-69.522c-36.469,36.836 -36.469,96.559 0,133.396c17.426,17.676 41.211,27.627 66.033,27.627c24.821,0 48.607,-9.951 66.033,-27.627c26.317,-26.582 33.635,-65.08 21.969,-98.297c5.676,-7.27 10.56,-14.053 14.773,-20.366c21.558,43.484 14.41,97.78 -21.502,134.055c-21.449,21.755 -50.723,34.002 -81.273,34.002c-30.549,0 -59.824,-12.247 -81.272,-34.002c-44.885,-45.337 -44.885,-118.843 0,-164.18c35.018,-35.514 89.044,-44.172 133.406,-21.377c-6.237,4.237 -12.935,9.148 -20.116,14.858c-34.152,-12.574 -72.501,-4.004 -98.051,21.911Z" style="fill:#2346ca;"/></g></svg>