<?xml version="1.0" encoding="UTF-8" standalone="no"?><!DOCTYPE svg PUBLIC "-//W3C//DTD SVG 1.1//EN" "http://www.w3.org/Graphics/SVG/1.1/DTD/svg11.dtd"><svg width="100%" height="100%" viewBox="0 0 125 96" version="1.1" xmlns="http://www.w3.org/2000/svg" xmlns:xlink="http://www.w3.org/1999/xlink" xml:space="preserve" xmlns:serif="http://www.serif.com/" style="fill-rule:evenodd;clip-rule:evenodd;stroke-linejoin:round;stroke-miterlimit:1.41421;"><rect x="-9.017" y="-9.659" width="153.462" height="121.146" style="fill:#bbb;"/><path id="Logomark.svg" d="M71.776,49.876c-0.213,2.414 -1.263,4.679 -2.969,6.401l0.003,0.003l-7.255,7.329l-0.004,-9.045l0.543,-0.548l-0.005,-0.005c0.575,-0.578 0.88,-1.428 0.771,-2.423c-0.109,-0.987 -0.602,-1.925 -1.311,-2.647l0,-0.025l-0.024,0c-0.715,-0.718 -1.646,-1.217 -2.625,-1.327c-0.985,-0.111 -1.826,0.198 -2.399,0.779l-0.005,-0.006l-0.546,0.552l-8.954,-0.004l7.114,-7.185c1.708,-1.805 4.017,-2.925 6.493,-3.149c19.43,-19.154 28,-16.99 28,-16.99c0,0 2.145,8.657 -16.827,28.29Zm-8.501,-6.099c1.324,0.908 2.463,2.06 3.358,3.393c13.596,-13.763 14.364,-17.901 14.364,-17.901c0,0 -4.106,0.784 -17.722,14.508l0,0Zm-5.688,5.744c0.02,-0.021 0.04,-0.041 0.061,-0.061l0.079,-0.08l0.006,0.006c0.286,-0.215 0.689,-0.297 1.166,-0.201c1.094,0.221 2.157,1.295 2.376,2.4c0.095,0.482 0.014,0.889 -0.199,1.178l0.001,0l-0.103,0.123l-0.01,0.006c-0.141,0.135 -0.314,0.233 -0.504,0.282l-4.521,2.536l1.12,1.131l-9.511,5.082l5.034,-5.085l-1.119,-1.131l6.124,-6.186Zm-10.684,-15.323c-8.039,8.119 -8.039,21.283 0,29.402c3.841,3.896 9.083,6.089 14.554,6.089c5.471,0 10.714,-2.193 14.555,-6.089c5.801,-5.859 7.414,-14.344 4.842,-21.666c1.251,-1.602 2.328,-3.097 3.256,-4.489c4.752,9.585 3.177,21.552 -4.739,29.548c-4.728,4.795 -11.18,7.494 -17.914,7.494c-6.733,0 -13.186,-2.699 -17.913,-7.494c-9.894,-9.993 -9.894,-26.195 0,-36.188c7.718,-7.828 19.626,-9.736 29.404,-4.712c-1.374,0.934 -2.851,2.017 -4.434,3.275c-7.527,-2.771 -15.98,-0.882 -21.611,4.83Z" style="fill:#fff;"/></svg>