<?xml version="1.0" encoding="UTF-8" standalone="no"?><!DOCTYPE svg PUBLIC "-//W3C//DTD SVG 1.1//EN" "http://www.w3.org/Graphics/SVG/1.1/DTD/svg11.dtd"><svg width="100%" height="100%" viewBox="0 0 1340 256" version="1.1" xmlns="http://www.w3.org/2000/svg" xmlns:xlink="http://www.w3.org/1999/xlink" xml:space="preserve" xmlns:serif="http://www.serif.com/" style="fill-rule:evenodd;clip-rule:evenodd;stroke-linejoin:round;stroke-miterlimit:1.41421;"><path id="OptimizePress" d="M280.297,113.401c0,30.078 20.756,45.028 41.687,45.028c21.107,0 41.862,-14.95 41.862,-45.028c0,-30.078 -20.755,-45.029 -41.862,-45.029c-20.931,0 -41.687,14.951 -41.687,45.029Zm-21.634,0c0,-40.807 30.605,-64.904 63.321,-64.904c32.716,0 63.497,24.097 63.497,64.904c0,40.983 -30.781,65.08 -63.497,65.08c-32.716,0 -63.321,-24.097 -63.321,-65.08Zm161.846,95.861l-20.228,0l0,-119.079l19.7,0l0,11.609c4.222,-7.387 14.072,-13.544 27.264,-13.544c25.328,0 39.575,19.348 39.575,44.677c0,25.68 -15.654,45.028 -40.279,45.028c-12.312,0 -21.635,-5.276 -26.032,-11.784l0,43.093Zm45.908,-76.337c0,-16.006 -9.322,-26.56 -23.042,-26.56c-13.368,0 -23.042,10.554 -23.042,26.56c0,16.358 9.674,26.912 23.042,26.912c13.544,0 23.042,-10.554 23.042,-26.912Zm59.653,-68.95l-18.469,0l0,12.84c0,7.564 -4.046,13.368 -13.192,13.368l-4.397,0l0,18.117l15.83,0l0,43.094c0,16.006 9.85,25.504 25.68,25.504c7.388,0 11.257,-1.407 12.489,-1.935l0,-16.885c-0.88,0.176 -4.222,0.703 -7.036,0.703c-7.563,0 -10.905,-3.166 -10.905,-10.729l0,-39.752l17.765,0l0,-18.117l-17.765,0l0,-26.208Zm53.144,111.868l0,-85.66l-20.227,0l0,85.66l20.227,0Zm-23.393,-115.738c0,7.388 5.98,13.192 13.192,13.192c7.387,0 13.367,-5.804 13.367,-13.192c0,-7.387 -5.98,-13.367 -13.367,-13.367c-7.212,0 -13.192,5.98 -13.192,13.367Zm64.226,115.738l0,-50.833c0,-10.906 6.859,-18.997 17.765,-18.997c11.609,0 16.534,7.74 16.534,17.59l0,52.24l20.051,0l0,-50.833c0,-10.554 7.036,-18.997 17.765,-18.997c11.433,0 16.534,7.564 16.534,17.59l0,52.24l19.7,0l0,-55.582c0,-22.69 -14.775,-32.54 -30.253,-32.54c-11.081,0 -21.107,3.869 -27.791,15.126c-4.573,-10.026 -14.423,-15.126 -25.681,-15.126c-9.674,0 -20.403,4.573 -25.328,13.367l0,-10.905l-19.524,0l0,85.66l20.228,0Zm147.774,0l0,-85.66l-20.227,0l0,85.66l20.227,0Zm-23.393,-115.738c0,7.388 5.98,13.192 13.192,13.192c7.387,0 13.367,-5.804 13.367,-13.192c0,-7.387 -5.98,-13.367 -13.367,-13.367c-7.212,0 -13.192,5.98 -13.192,13.367Zm107.495,115.738l0,-17.941l-44.852,0l43.973,-50.481l0,-17.238l-68.247,0l0,17.941l42.566,0l-43.445,49.954l0,17.765l70.005,0Zm27.992,-52.24l42.039,0c-0.352,-10.026 -7.036,-18.997 -21.108,-18.997c-12.84,0 -20.227,9.85 -20.931,18.997Zm44.325,22.338l17.238,5.453c-4.574,14.951 -18.117,27.087 -38.697,27.087c-23.218,0 -43.797,-16.886 -43.797,-45.908c0,-27.087 20.052,-45.028 41.687,-45.028c26.383,0 41.862,17.413 41.862,44.501c0,3.341 -0.352,6.156 -0.528,6.508l-62.617,0c0.527,13.016 10.729,22.338 23.393,22.338c12.313,0 18.645,-6.508 21.459,-14.951Zm54.904,-37.465l21.986,0c13.368,0 21.459,-7.388 21.459,-19.172c0,-11.961 -8.091,-19.524 -21.459,-19.524l-21.986,0l0,38.696Zm25.152,18.645l-25.152,0l0,48.722l-21.107,0l0,-124.708l46.259,0c23.922,0 39.752,16.182 39.752,37.993c0,21.986 -15.83,37.993 -39.752,37.993Zm99.933,-37.466c-0.88,-0.175 -2.991,-0.527 -5.453,-0.527c-11.257,0 -20.755,5.452 -24.801,14.775l0,-13.72l-19.876,0l0,85.66l20.404,0l0,-40.807c0,-16.007 7.211,-25.153 23.042,-25.153c2.11,0 4.397,0.176 6.684,0.528l0,-20.756Zm24.65,33.948l42.038,0c-0.352,-10.026 -7.036,-18.997 -21.107,-18.997c-12.84,0 -20.228,9.85 -20.931,18.997Zm44.325,22.338l17.237,5.453c-4.573,14.951 -18.117,27.087 -38.696,27.087c-23.218,0 -43.798,-16.886 -43.798,-45.908c0,-27.087 20.052,-45.028 41.687,-45.028c26.384,0 41.862,17.413 41.862,44.501c0,3.341 -0.351,6.156 -0.527,6.508l-62.618,0c0.528,13.016 10.729,22.338 23.394,22.338c12.312,0 18.644,-6.508 21.459,-14.951Zm24.474,6.684c1.055,9.674 10.553,25.856 35.354,25.856c21.811,0 32.364,-14.423 32.364,-27.439c0,-12.664 -8.442,-22.514 -24.625,-26.032l-13.016,-2.639c-5.276,-1.055 -8.618,-4.397 -8.618,-8.97c0,-5.277 5.101,-9.85 12.312,-9.85c11.433,0 15.127,7.915 15.83,12.84l17.238,-4.925c-1.407,-8.443 -9.146,-23.921 -33.068,-23.921c-17.765,0 -31.485,12.664 -31.485,27.615c0,11.785 7.916,21.635 23.042,24.977l12.665,2.814c6.859,1.407 10.025,4.925 10.025,9.498c0,5.277 -4.397,9.85 -12.84,9.85c-10.905,0 -16.71,-6.86 -17.413,-14.599l-17.765,4.925Zm74.603,0c1.056,9.674 10.554,25.856 35.355,25.856c21.81,0 32.364,-14.423 32.364,-27.439c0,-12.664 -8.443,-22.514 -24.625,-26.032l-13.016,-2.639c-5.277,-1.055 -8.619,-4.397 -8.619,-8.97c0,-5.277 5.101,-9.85 12.313,-9.85c11.433,0 15.126,7.915 15.83,12.84l17.238,-4.925c-1.408,-8.443 -9.147,-23.921 -33.068,-23.921c-17.765,0 -31.485,12.664 -31.485,27.615c0,11.785 7.915,21.635 23.042,24.977l12.664,2.814c6.86,1.407 10.026,4.925 10.026,9.498c0,5.277 -4.397,9.85 -12.84,9.85c-10.905,0 -16.71,-6.86 -17.413,-14.599l-17.766,4.925Z" style="fill:#161616;"/><path id="Logomark.svg" d="M148.552,135.815c-0.887,10.062 -5.263,19.497 -12.37,26.674l0.012,0.012l-30.231,30.535l-0.015,-37.686l2.26,-2.283l-0.021,-0.021c2.395,-2.408 3.67,-5.95 3.213,-10.097c-0.454,-4.113 -2.507,-8.021 -5.462,-11.029l0,-0.103l-0.1,0c-2.98,-2.992 -6.857,-5.071 -10.935,-5.53c-4.106,-0.462 -7.612,0.824 -9.997,3.245l-0.022,-0.025l-2.276,2.3l-37.307,-0.015l29.64,-29.938c7.12,-7.522 16.74,-12.188 27.055,-13.123c80.96,-79.807 116.669,-70.788 116.669,-70.788c0,0 8.934,36.071 -70.113,117.872Zm-35.42,-25.412c5.514,3.786 10.261,8.583 13.989,14.137c56.653,-57.346 59.849,-74.588 59.849,-74.588c0,0 -17.106,3.269 -73.838,60.451l0,0Zm-23.701,23.936c0.081,-0.089 0.165,-0.173 0.252,-0.255l0.331,-0.333l0.025,0.025c1.19,-0.895 2.872,-1.238 4.859,-0.837c4.556,0.92 8.987,5.396 9.898,9.998c0.397,2.008 0.058,3.707 -0.828,4.909l0.002,0.001l-0.428,0.51l-0.043,0.024c-0.585,0.567 -1.308,0.972 -2.096,1.177l-18.839,10.565l4.665,4.712l-39.627,21.177l20.975,-21.186l-4.665,-4.712l25.519,-25.775Zm-44.519,-63.849c-33.493,33.83 -33.493,88.68 0,122.51c16.004,16.233 37.848,25.373 60.644,25.373c22.796,0 44.64,-9.14 60.645,-25.373c24.169,-24.413 30.89,-59.769 20.175,-90.275c5.213,-6.677 9.699,-12.906 13.568,-18.704c19.799,39.935 13.234,89.8 -19.747,123.116c-19.698,19.978 -46.584,31.226 -74.64,31.226c-28.057,0 -54.942,-11.248 -74.64,-31.226c-41.223,-41.638 -41.223,-109.145 0,-150.783c32.16,-32.616 81.777,-40.567 122.519,-19.633c-5.728,3.892 -11.879,8.403 -18.475,13.646c-31.364,-11.547 -66.584,-3.677 -90.049,20.123Z" style="fill:#2346ca;"/></svg>