<svg height="80" viewBox="0 0 92 44" width="115" xmlns="http://www.w3.org/2000/svg"><g fill="none" fill-rule="evenodd"><path d="m0 26h92v8h-92z" fill="#d8d8d8" opacity=".672828"/><path d="m0 36h79v8h-79z" fill="#d8d8d8" opacity=".672828"/><g fill-rule="nonzero"><path d="m35.5068359 16.6704102c0 .4397808-.1595036.7827136-.4785156 1.0288086-.319012.2460949-.7519504.3691406-1.2988281.3691406-.5924509 0-1.0481755-.0763339-1.3671875-.2290039v-.5605469c.2050791.086589.4283842.1549477.6699219.2050781.2415376.0501305.480793.0751953.7177734.0751953.3873717 0 .6790355-.0734856.875-.220459.1959645-.1469733.2939453-.3514798.2939453-.6135253 0-.173178-.034749-.3150223-.104248-.4255372-.0694991-.1105148-.1857089-.2124832-.3486328-.3059082-.162924-.0934249-.4107243-.1993809-.7434083-.3178711-.464846-.1663419-.7969553-.3634428-.9963378-.5913085-.1993825-.2278658-.2990723-.5252261-.2990723-.8920899 0-.3850931.1446926-.6915679.434082-.9194336.2893895-.2278657.6721982-.3417969 1.1484375-.3417969.4967473 0 .9536112.091145 1.3706055.2734375l-.1811523.5058594c-.412437-.1731779-.8134747-.2597656-1.203125-.2597656-.3076188 0-.5480135.0660801-.7211915.1982422-.1731779.1321621-.2597656.3155913-.2597656.550293 0 .1731779.0319007.3150222.0957031.4255371.0638024.1105148.1714674.2119136.3229981.3041992s.3833806.194254.6955566.3059082c.5240912.1868499.8846833.3873687 1.0817871.6015625.1971039.2141938.2956543.4921858.2956543.8339844zm1.6447266-2.416504v2.4301758c0 .3053401.069498.5332024.2084961.6835938s.3566066.2255859.652832.2255859c.3919291 0 .6784659-.1070953.8596192-.321289.1811532-.2141938.2717285-.5639625.2717285-1.0493165v-1.96875h.5673828v3.7460938h-.4682617l-.0820313-.5024414h-.0307617c-.1162115.1845712-.2774241.3258459-.4836426.4238281-.2062185.0979823-.4414863.1469727-.7058105.1469727-.4557315 0-.7969553-.1082346-1.0236817-.3247071-.2267264-.2164724-.3400879-.5628231-.3400879-1.0390625v-2.4506836zm5.6813477-.0615234c.4921899 0 .8744289.1680485 1.1467285.5041504.2722995.3361019.4084472.8117645.4084472 1.427002 0 .6152374-.137287 1.0931786-.4118652 1.4338378-.2745782.3406593-.6556779.5109864-1.1433105.5109864-.2438164 0-.4665518-.0450028-.6682129-.1350098-.2016612-.090007-.370849-.2284333-.5075684-.4152832h-.0410156l-.1196289.4819336h-.4067383v-5.3183594h.5673828v1.2919922c0 .2893895-.0091145.5491525-.0273437.7792969h.0273437c.2643242-.3736998.6562474-.5605469 1.1757813-.5605469zm-.0820313.4750977c-.3873717 0-.666503.1110828-.8374023.3332519s-.2563477.5964329-.2563477 1.1228028c0 .5263698.087727.9029122.2631836 1.1296386s.4568666.3400879.8442383.3400879c.3486345 0 .6083976-.1270332.7792969-.3811035.1708992-.2540703.2563476-.6192196.2563476-1.095459 0-.4876326-.0854484-.851073-.2563476-1.090332-.1708993-.239259-.4352196-.3588867-.7929688-.3588867zm4.0133789 2.9326172c.1002609 0 .1971024-.0074056.2905274-.0222168.0934249-.0148113.1674802-.030192.2221679-.0461426v.434082c-.0615237.0296226-.152099.0541178-.2717285.0734863-.1196295.0193686-.2272944.0290528-.322998.0290528-.724613 0-1.0869141-.3816694-1.0869141-1.1450196v-2.2285156h-.5366211v-.2734375l.5366211-.2358398.2392578-.7998047h.328125v.868164h1.0869141v.440918h-1.0869141v2.2045899c0 .225587.0535477.3987624.1606445.5195312.1070969.1207688.2540681.1811524.440918.1811524zm2.0036133.3999023h-.5673828v-3.7460938h.5673828zm-.6152344-4.7612305c0-.1298834.0319007-.2250159.0957031-.2854004.0638024-.0603844.1435543-.0905761.2392579-.0905761.0911462 0 .1697587.0307614.2358398.0922851.0660811.0615238.0991211.1560866.0991211.2836914s-.03304.2227373-.0991211.2854004-.1446936.0939942-.2358398.0939942c-.0957036 0-.1754555-.0313311-.2392579-.0939942s-.0957031-.1577956-.0957031-.2854004zm3.2033203 4.3613282c.1002609 0 .1971024-.0074056.2905274-.0222168.0934249-.0148113.1674802-.030192.2221679-.0461426v.434082c-.0615237.0296226-.152099.0541178-.2717285.0734863-.1196295.0193686-.2272944.0290528-.322998.0290528-.724613 0-1.0869141-.3816694-1.0869141-1.1450196v-2.2285156h-.5366211v-.2734375l.5366211-.2358398.2392578-.7998047h.328125v.868164h1.0869141v.440918h-1.0869141v2.2045899c0 .225587.0535477.3987624.1606446.5195312s.254068.1811524.4409179.1811524zm2.0036133.3999023h-.5673828v-5.3183594h.5673828zm2.9606445.0683594c-.5537137 0-.9906396-.1686181-1.310791-.5058594-.3201513-.3372413-.4802246-.8054983-.4802246-1.4047852 0-.6038441.1486802-1.0834943.4460449-1.4389648.2973648-.3554705.6966935-.5332031 1.1979981-.5332031.4694034 0 .8408189.1543767 1.1142578.4631347.2734389.3087581.4101563.716062.4101563 1.2219239v.3588867h-2.5805665c.0113933.4397808.1224762.7735991.333252 1.0014648.2107758.2278658.5075664.3417969.8903809.3417969.4033223 0 .8020813-.084309 1.196289-.2529297v.5058594c-.2005218.086589-.3902172.1486814-.5690918.1862793-.1788746.0375978-.3947741.0563965-.6477051.0563965zm-.1538085-3.4077149c-.3007828 0-.5406079.0979808-.7194825.2939453-.1788746.1959646-.2842609.4671207-.3161621.8134766h1.9584961c0-.3577492-.0797518-.6317536-.2392578-.8220215s-.3873683-.2854004-.6835937-.2854004z" fill="#a6a6a6"/><path d="m33.9101562 8h-1.1914062v-5.7109375h3.2734375v.9921875h-2.0820313v1.47265625h1.9375v.98828125h-1.9375zm5.0807293-3.6015625c-.2526055 0-.4505202.08007732-.59375.24023438-.1432299.16015705-.2252604.38736832-.2460938.68164062h1.671875c-.0052084-.2942723-.0820305-.52148357-.2304687-.68164062-.1484383-.16015706-.3489571-.24023438-.6015625-.24023438zm.1679687 3.6796875c-.7031285 0-1.2526022-.19400848-1.6484375-.58203125s-.59375-.93749645-.59375-1.6484375c0-.73177449.1829409-1.29752404.5488281-1.69726563.3658873-.39974158.8717416-.59960937 1.5175782-.59960937.6171905 0 1.0976545.17577949 1.4414062.52734375s.515625.83723648.515625 1.45703125v.578125h-2.8164062c.0130208.33854336.1132803.60286363.3007812.79296875s.4505191.28515625.7890625.28515625c.2630221 0 .5117176-.02734348.7460938-.08203125.2343761-.05468777.4791653-.14192648.734375-.26171875v.921875c-.2083344.10416719-.4309884.18164037-.6679688.23242187-.2369804.05078151-.52604.07617188-.8671875.07617188zm5.6901042-.078125-.2304687-.59375h-.03125c-.2005219.25260543-.4069.42773389-.6191407.52539062-.2122406.09765674-.4889306.14648438-.8300781.14648438-.4192729 0-.7493478-.11979047-.9902344-.359375s-.3613281-.58072695-.3613281-1.0234375c0-.46354398.1621078-.80533744.4863281-1.02539062.3242204-.22005319.8131478-.34179676 1.4667969-.36523438l.7578125-.0234375v-.19140625c0-.44271055-.2265602-.6640625-.6796875-.6640625-.3489601 0-.7591122.1054677-1.2304687.31640625l-.3945313-.8046875c.5026067-.26302215 1.0598928-.39453125 1.671875-.39453125.5859404 0 1.0351547.12760289 1.3476563.3828125.3125015.25520961.46875.64322656.46875 1.1640625v2.91015625zm-.3515625-2.0234375-.4609375.015625c-.3463559.01041672-.6041658.07291609-.7734375.1875s-.2539062.28906133-.2539062.5234375c0 .33593918.1927064.50390625.578125.50390625.276043 0 .4967439-.07942629.6621093-.23828125s.2480469-.36979035.2480469-.6328125zm4.4166667 1.15234375c.2083344 0 .4583319-.04557246.75-.13671875v.88671875c-.2968765.13281316-.6614562.19921875-1.09375.19921875-.4765649 0-.8235666-.1204415-1.0410156-.36132812-.217449-.24088663-.3261719-.60221114-.3261719-1.08398438v-2.10546875h-.5703125v-.50390625l.65625-.3984375.34375-.921875h.7617188v.9296875h1.2226562v.89453125h-1.2226562v2.10546875c0 .16927168.0475255.29427043.1425781.375.0950525.08072957.2207023.12109375.3769531.12109375zm4.8932292.87109375-.1601562-.55859375h-.0625c-.1276049.20312602-.3085926.36002549-.5429688.47070313-.2343762.11067763-.5013006.16601562-.8007812.16601562-.5130234 0-.8997383-.13736842-1.1601563-.41210938-.260418-.27474095-.390625-.66991929-.390625-1.18554687v-2.84765625h1.1914063v2.55078125c0 .31510574.055989.5514315.1679687.70898437.1119797.15755288.2903634.23632813.5351563.23632813.3333349 0 .574218-.11132701.7226562-.33398437.1484382-.22265737.2226563-.5917943.2226563-1.10742188v-2.0546875h1.1914062v4.3671875zm4.7682292-4.44921875c.1614591 0 .2955724.01171863.4023438.03515625l-.0898438 1.1171875c-.0963546-.0260418-.213541-.0390625-.3515625-.0390625-.3802102 0-.6764312.09765527-.8886719.29296875-.2122406.19531348-.3183593.46874824-.3183593.8203125v2.22265625h-1.1914063v-4.3671875h.9023438l.1757812.734375h.0585938c.1354173-.24479289.3183582-.44205654.5488281-.59179688.2304699-.14974033.4811184-.22460937.7519531-.22460937zm3.0104167.84765625c-.2526054 0-.4505201.08007732-.59375.24023438-.1432299.16015705-.2252603.38736832-.2460937.68164062h1.671875c-.0052084-.2942723-.0820306-.52148357-.2304688-.68164062-.1484382-.16015706-.3489571-.24023438-.6015625-.24023438zm.1679688 3.6796875c-.7031286 0-1.2526022-.19400848-1.6484375-.58203125-.3958354-.38802277-.59375-.93749645-.59375-1.6484375 0-.73177449.1829408-1.29752404.5488281-1.69726563.3658872-.39974158.8717415-.59960937 1.5175781-.59960937.6171906 0 1.0976545.17577949 1.4414063.52734375.3437517.35156426.515625.83723648.515625 1.45703125v.578125h-2.8164063c.0130209.33854336.1132803.60286363.3007813.79296875.1875009.19010512.4505191.28515625.7890625.28515625.2630221 0 .5117175-.02734348.7460937-.08203125s.4791654-.14192648.734375-.26171875v.921875c-.2083344.10416719-.4309884.18164037-.6679687.23242187-.2369804.05078151-.52604.07617188-.8671875.07617188zm7.4583334-.078125h-1.2109375v-4.703125h-1.5507813v-1.0078125h4.3125v1.0078125h-1.5507812zm2.4518229-5.49609375c0-.38802277.2161437-.58203125.6484375-.58203125s.6484375.19400848.6484375.58203125c0 .18489676-.0540359.32877553-.1621094.43164063-.1080734.10286509-.2701812.15429687-.4863281.15429687-.4322938 0-.6484375-.19531055-.6484375-.5859375zm1.2421875 5.49609375h-1.1914062v-4.3671875h1.1914062zm3.2565105-.87109375c.2083343 0 .4583318-.04557246.75-.13671875v.88671875c-.2968765.13281316-.6614562.19921875-1.09375.19921875-.4765649 0-.8235667-.1204415-1.0410157-.36132812-.217449-.24088663-.3261718-.60221114-.3261718-1.08398438v-2.10546875h-.5703125v-.50390625l.65625-.3984375.34375-.921875h.7617187v.9296875h1.2226563v.89453125h-1.2226563v2.10546875c0 .16927168.0475256.29427043.1425781.375.0950526.08072957.2207024.12109375.3769532.12109375zm2.9908854.87109375h-1.1914063v-6.078125h1.1914063zm3.2252605-3.6015625c-.2526055 0-.4505202.08007732-.59375.24023438-.1432299.16015705-.2252604.38736832-.2460938.68164062h1.671875c-.0052084-.2942723-.0820305-.52148357-.2304687-.68164062-.1484383-.16015706-.3489571-.24023438-.6015625-.24023438zm.1679687 3.6796875c-.7031285 0-1.2526022-.19400848-1.6484375-.58203125s-.59375-.93749645-.59375-1.6484375c0-.73177449.1829409-1.29752404.5488281-1.69726563.3658873-.39974158.8717416-.59960937 1.5175782-.59960937.6171905 0 1.0976545.17577949 1.4414062.52734375s.515625.83723648.515625 1.45703125v.578125h-2.8164062c.0130208.33854336.1132803.60286363.3007812.79296875s.4505191.28515625.7890625.28515625c.2630221 0 .5117176-.02734348.7460938-.08203125.2343761-.05468777.4791653-.14192648.734375-.26171875v.921875c-.2083344.10416719-.4309884.18164037-.6679688.23242187-.2369804.05078151-.52604.07617188-.8671875.07617188z" fill="#4a4a4a"/><g fill="#b4b4b4"><circle cx="6.8" cy="2.266667" r="2.266667"/><path d="m21.4895485 16.512805-6.9462136-11.81078701c-.0576536-.09809514-.1639306-.16141409-.2823636-.16830371-.1226007-.00524924-.2323508.04396237-.3021603.13451174l-4.63625026 6.02218908 2.35511376 3.1492151-6.25089766-4.64163927c-.07710297-.05806971-.17643383-.08234743-.27402813-.06725587-.09724699.01541964-.18303273.06889625-.23617126.14730676l-4.86234953 7.21770318c-.0680729.1013759-.07224062.228998-.01146126.3343109.06112669.1046567.17782307.1699441.30459147.1699441h20.83864087c.122948 0 .2368659-.0616786.2993818-.1617422s.0639051-.2240768.0041677-.3254528z"/></g></g></g></svg>