<svg height="80" viewBox="0 0 92 43" width="115" xmlns="http://www.w3.org/2000/svg"><g fill="none" fill-rule="evenodd"><path d="m32 25h60v8h-60z" fill="#d8d8d8" opacity=".672828"/><path d="m32 35h52v8h-52z" fill="#d8d8d8" opacity=".672828"/><g fill-rule="nonzero"><path d="m33.9101562 7h-1.1914062v-5.7109375h3.2734375v.9921875h-2.0820313v1.47265625h1.9375v.98828125h-1.9375zm5.0807293-3.6015625c-.2526055 0-.4505202.08007732-.59375.24023438-.1432299.16015705-.2252604.38736832-.2460938.68164062h1.671875c-.0052084-.2942723-.0820305-.52148357-.2304687-.68164062-.1484383-.16015706-.3489571-.24023438-.6015625-.24023438zm.1679687 3.6796875c-.7031285 0-1.2526022-.19400848-1.6484375-.58203125s-.59375-.93749645-.59375-1.6484375c0-.73177449.1829409-1.29752404.5488281-1.69726563.3658873-.39974158.8717416-.59960937 1.5175782-.59960937.6171905 0 1.0976545.17577949 1.4414062.52734375s.515625.83723648.515625 1.45703125v.578125h-2.8164062c.0130208.33854336.1132803.60286363.3007812.79296875s.4505191.28515625.7890625.28515625c.2630221 0 .5117176-.02734348.7460938-.08203125.2343761-.05468777.4791653-.14192648.734375-.26171875v.921875c-.2083344.10416719-.4309884.18164037-.6679688.23242187-.2369804.05078151-.52604.07617188-.8671875.07617188zm5.6901042-.078125-.2304687-.59375h-.03125c-.2005219.25260543-.4069.42773389-.6191407.52539062-.2122406.09765674-.4889306.14648438-.8300781.14648438-.4192729 0-.7493478-.11979047-.9902344-.359375s-.3613281-.58072695-.3613281-1.0234375c0-.46354398.1621078-.80533744.4863281-1.02539062.3242204-.22005319.8131478-.34179676 1.4667969-.36523438l.7578125-.0234375v-.19140625c0-.44271055-.2265602-.6640625-.6796875-.6640625-.3489601 0-.7591122.1054677-1.2304687.31640625l-.3945313-.8046875c.5026067-.26302215 1.0598928-.39453125 1.671875-.39453125.5859404 0 1.0351547.12760289 1.3476563.3828125.3125015.25520961.46875.64322656.46875 1.1640625v2.91015625zm-.3515625-2.0234375-.4609375.015625c-.3463559.01041672-.6041658.07291609-.7734375.1875s-.2539062.28906133-.2539062.5234375c0 .33593918.1927064.50390625.578125.50390625.276043 0 .4967439-.07942629.6621093-.23828125s.2480469-.36979035.2480469-.6328125zm4.4166667 1.15234375c.2083344 0 .4583319-.04557246.75-.13671875v.88671875c-.2968765.13281316-.6614562.19921875-1.09375.19921875-.4765649 0-.8235666-.1204415-1.0410156-.36132812-.217449-.24088663-.3261719-.60221114-.3261719-1.08398438v-2.10546875h-.5703125v-.50390625l.65625-.3984375.34375-.921875h.7617188v.9296875h1.2226562v.89453125h-1.2226562v2.10546875c0 .16927168.0475255.29427043.1425781.375.0950525.08072957.2207023.12109375.3769531.12109375zm4.8932292.87109375-.1601562-.55859375h-.0625c-.1276049.20312602-.3085926.36002549-.5429688.47070313-.2343762.11067763-.5013006.16601562-.8007812.16601562-.5130234 0-.8997383-.13736842-1.1601563-.41210938-.260418-.27474095-.390625-.66991929-.390625-1.18554687v-2.84765625h1.1914063v2.55078125c0 .31510574.055989.5514315.1679687.70898437.1119797.15755288.2903634.23632813.5351563.23632813.3333349 0 .574218-.11132701.7226562-.33398437.1484382-.22265737.2226563-.5917943.2226563-1.10742188v-2.0546875h1.1914062v4.3671875zm4.7682292-4.44921875c.1614591 0 .2955724.01171863.4023438.03515625l-.0898438 1.1171875c-.0963546-.0260418-.213541-.0390625-.3515625-.0390625-.3802102 0-.6764312.09765527-.8886719.29296875-.2122406.19531348-.3183593.46874824-.3183593.8203125v2.22265625h-1.1914063v-4.3671875h.9023438l.1757812.734375h.0585938c.1354173-.24479289.3183582-.44205654.5488281-.59179688.2304699-.14974033.4811184-.22460937.7519531-.22460937zm3.0104167.84765625c-.2526054 0-.4505201.08007732-.59375.24023438-.1432299.16015705-.2252603.38736832-.2460937.68164062h1.671875c-.0052084-.2942723-.0820306-.52148357-.2304688-.68164062-.1484382-.16015706-.3489571-.24023438-.6015625-.24023438zm.1679688 3.6796875c-.7031286 0-1.2526022-.19400848-1.6484375-.58203125-.3958354-.38802277-.59375-.93749645-.59375-1.6484375 0-.73177449.1829408-1.29752404.5488281-1.69726563.3658872-.39974158.8717415-.59960937 1.5175781-.59960937.6171906 0 1.0976545.17577949 1.4414063.52734375.3437517.35156426.515625.83723648.515625 1.45703125v.578125h-2.8164063c.0130209.33854336.1132803.60286363.3007813.79296875.1875009.19010512.4505191.28515625.7890625.28515625.2630221 0 .5117175-.02734348.7460937-.08203125s.4791654-.14192648.734375-.26171875v.921875c-.2083344.10416719-.4309884.18164037-.6679687.23242187-.2369804.05078151-.52604.07617188-.8671875.07617188zm7.4583334-.078125h-1.2109375v-4.703125h-1.5507813v-1.0078125h4.3125v1.0078125h-1.5507812zm2.4518229-5.49609375c0-.38802277.2161437-.58203125.6484375-.58203125s.6484375.19400848.6484375.58203125c0 .18489676-.0540359.32877553-.1621094.43164063-.1080734.10286509-.2701812.15429687-.4863281.15429687-.4322938 0-.6484375-.19531055-.6484375-.5859375zm1.2421875 5.49609375h-1.1914062v-4.3671875h1.1914062zm3.2565105-.87109375c.2083343 0 .4583318-.04557246.75-.13671875v.88671875c-.2968765.13281316-.6614562.19921875-1.09375.19921875-.4765649 0-.8235667-.1204415-1.0410157-.36132812-.217449-.24088663-.3261718-.60221114-.3261718-1.08398438v-2.10546875h-.5703125v-.50390625l.65625-.3984375.34375-.921875h.7617187v.9296875h1.2226563v.89453125h-1.2226563v2.10546875c0 .16927168.0475256.29427043.1425781.375.0950526.08072957.2207024.12109375.3769532.12109375zm2.9908854.87109375h-1.1914063v-6.078125h1.1914063zm3.2252605-3.6015625c-.2526055 0-.4505202.08007732-.59375.24023438-.1432299.16015705-.2252604.38736832-.2460938.68164062h1.671875c-.0052084-.2942723-.0820305-.52148357-.2304687-.68164062-.1484383-.16015706-.3489571-.24023438-.6015625-.24023438zm.1679687 3.6796875c-.7031285 0-1.2526022-.19400848-1.6484375-.58203125s-.59375-.93749645-.59375-1.6484375c0-.73177449.1829409-1.29752404.5488281-1.69726563.3658873-.39974158.8717416-.59960937 1.5175782-.59960937.6171905 0 1.0976545.17577949 1.4414062.52734375s.515625.83723648.515625 1.45703125v.578125h-2.8164062c.0130208.33854336.1132803.60286363.3007812.79296875s.4505191.28515625.7890625.28515625c.2630221 0 .5117176-.02734348.7460938-.08203125.2343761-.05468777.4791653-.14192648.734375-.26171875v.921875c-.2083344.10416719-.4309884.18164037-.6679688.23242187-.2369804.05078151-.52604.07617188-.8671875.07617188z" fill="#4a4a4a"/><g fill="#b4b4b4"><circle cx="6.8" cy="2.266667" r="2.266667"/><path d="m21.4895485 16.512805-6.9462136-11.81078701c-.0576536-.09809514-.1639306-.16141409-.2823636-.16830371-.1226007-.00524924-.2323508.04396237-.3021603.13451174l-4.63625026 6.02218908 2.35511376 3.1492151-6.25089766-4.64163927c-.07710297-.05806971-.17643383-.08234743-.27402813-.06725587-.09724699.01541964-.18303273.06889625-.23617126.14730676l-4.86234953 7.21770318c-.0680729.1013759-.07224062.228998-.01146126.3343109.06112669.1046567.17782307.1699441.30459147.1699441h20.83864087c.122948 0 .2368659-.0616786.2993818-.1617422s.0639051-.2240768.0041677-.3254528z"/></g></g></g></svg>