<svg width="381px" height="117px" viewBox="0 0 381 117" version="1.1" xmlns="http://www.w3.org/2000/svg" xmlns:xlink="http://www.w3.org/1999/xlink">
    <defs>
        <path d="M3,0 L372,0 C373.656854,-3.04359188e-16 375,1.34314575 375,3 L375,47 C375,48.6568542 373.656854,50 372,50 L3,50 C1.34314575,50 2.02906125e-16,48.6568542 0,47 L0,3 C-2.02906125e-16,1.34314575 1.34314575,3.04359188e-16 3,0 Z" id="path-1"></path>
    </defs>
    <g id="Page-1" stroke="none" stroke-width="1" fill="none" fill-rule="evenodd">
        <g id="Style-4" transform="translate(3.000000, 3.000000)">
            <g id="Button" transform="translate(0.000000, 56.000000)">
                <path d="M3,8.5 C1.61928813,8.5 0.5,9.61928813 0.5,11 L0.5,55 C0.5,56.3807119 1.61928813,57.5 3,57.5 L372,57.5 C373.380712,57.5 374.5,56.3807119 374.5,55 L374.5,11 C374.5,9.61928813 373.380712,8.5 372,8.5 L3,8.5 Z" id="Rectangle" stroke-opacity="0.2" stroke="#000000" fill="#FFD559"></path>
                <path d="M97.9077148,38.2929688 C97.4067358,38.8929066 96.6985723,39.3583154 95.7832031,39.689209 C94.867834,40.0201026 93.8535212,40.1855469 92.7402344,40.1855469 C91.5712832,40.1855469 90.546147,39.9304225 89.6647949,39.420166 C88.7834429,38.9099096 88.1031111,38.1692757 87.6237793,37.1982422 C87.1444475,36.2272087 86.8986003,35.0861068 86.8862305,33.7749023 L86.8862305,32.8564453 C86.8862305,31.5081313 87.1135231,30.3407439 87.5681152,29.354248 C88.0227074,28.3677522 88.6782998,27.6132025 89.5349121,27.0905762 C90.3915245,26.5679499 91.3950138,26.3066406 92.5454102,26.3066406 C94.1473062,26.3066406 95.3997351,26.6885541 96.3027344,27.4523926 C97.2057337,28.216231 97.7407218,29.3279549 97.9077148,30.7875977 L95.1987305,30.7875977 C95.0750319,30.0144818 94.801353,29.4485695 94.3776855,29.0898438 C93.9540181,28.731118 93.3710975,28.5517578 92.6289062,28.5517578 C91.6826125,28.5517578 90.9620793,28.9073858 90.4672852,29.6186523 C89.972491,30.3299189 89.7220052,31.3875255 89.7158203,32.7915039 L89.7158203,33.6542969 C89.7158203,35.0706451 89.9848606,36.1406214 90.5229492,36.8642578 C91.0610378,37.5878942 91.8496042,37.949707 92.8886719,37.949707 C93.9339245,37.949707 94.679197,37.727053 95.1245117,37.2817383 L95.1245117,34.953125 L92.5917969,34.953125 L92.5917969,32.902832 L97.9077148,32.902832 L97.9077148,38.2929688 Z M104.605957,40.1855469 C103.133944,40.1855469 101.935633,39.734054 101.010986,38.8310547 C100.08634,37.9280554 99.6240234,36.7251052 99.6240234,35.222168 L99.6240234,34.9624023 C99.6240234,33.9542593 99.8188457,33.0528197 100.208496,32.2580566 C100.598146,31.4632936 101.150143,30.850995 101.864502,30.4211426 C102.578861,29.9912902 103.393713,29.7763672 104.309082,29.7763672 C105.682136,29.7763672 106.762936,30.2093056 107.551514,31.0751953 C108.340092,31.9410851 108.734375,33.1687746 108.734375,34.7583008 L108.734375,35.8530273 L102.342285,35.8530273 C102.428874,36.5086296 102.690183,37.0343405 103.126221,37.4301758 C103.562258,37.8260111 104.114254,38.0239258 104.782227,38.0239258 C105.815109,38.0239258 106.62223,37.6497433 107.203613,36.9013672 L108.520996,38.3764648 C108.118976,38.9454781 107.57471,39.3892399 106.888184,39.7077637 C106.201657,40.0262874 105.440922,40.1855469 104.605957,40.1855469 Z M104.299805,31.9472656 C103.767901,31.9472656 103.336509,32.1266258 103.005615,32.4853516 C102.674722,32.8440773 102.462891,33.3574185 102.370117,34.0253906 L106.099609,34.0253906 L106.099609,33.8120117 C106.08724,33.2182588 105.926434,32.7590348 105.617188,32.4343262 C105.307941,32.1096175 104.868818,31.9472656 104.299805,31.9472656 Z M113.46582,27.4941406 L113.46582,29.9619141 L115.182129,29.9619141 L115.182129,31.9287109 L113.46582,31.9287109 L113.46582,36.9384766 C113.46582,37.3095722 113.536946,37.57552 113.679199,37.7363281 C113.821453,37.8971362 114.093585,37.9775391 114.495605,37.9775391 C114.792482,37.9775391 115.055337,37.9558921 115.28418,37.9125977 L115.28418,39.9443359 C114.758461,40.105144 114.217288,40.1855469 113.660645,40.1855469 C111.780427,40.1855469 110.821778,39.2361749 110.784668,37.3374023 L110.784668,31.9287109 L109.318848,31.9287109 L109.318848,29.9619141 L110.784668,29.9619141 L110.784668,27.4941406 L113.46582,27.4941406 Z M124.542969,40 L121.759766,40 L121.759766,26.4921875 L124.542969,26.4921875 L124.542969,40 Z M129.413574,29.9619141 L129.49707,31.121582 C130.214522,30.2247677 131.176264,29.7763672 132.382324,29.7763672 C133.446132,29.7763672 134.23779,30.0887013 134.757324,30.7133789 C135.276858,31.3380565 135.542806,32.2719664 135.555176,33.5151367 L135.555176,40 L132.874023,40 L132.874023,33.5800781 C132.874023,33.0110649 132.750327,32.5982272 132.50293,32.3415527 C132.255533,32.0848783 131.844241,31.956543 131.269043,31.956543 C130.514482,31.956543 129.94857,32.2781543 129.571289,32.9213867 L129.571289,40 L126.890137,40 L126.890137,29.9619141 L129.413574,29.9619141 Z M143.023438,37.2260742 C143.023438,36.8982731 142.861086,36.6400563 142.536377,36.451416 C142.211668,36.2627757 141.690596,36.094239 140.973145,35.9458008 C138.585763,35.4448217 137.39209,34.4305089 137.39209,32.902832 C137.39209,32.0122026 137.761634,31.2684763 138.500732,30.6716309 C139.239831,30.0747854 140.206211,29.7763672 141.399902,29.7763672 C142.673997,29.7763672 143.692949,30.0763316 144.456787,30.6762695 C145.220626,31.2762074 145.602539,32.0554965 145.602539,33.0141602 L142.921387,33.0141602 C142.921387,32.6306947 142.79769,32.313722 142.550293,32.0632324 C142.302896,31.8127429 141.916344,31.6875 141.390625,31.6875 C140.939125,31.6875 140.589682,31.7895498 140.342285,31.9936523 C140.094888,32.1977549 139.971191,32.457518 139.971191,32.7729492 C139.971191,33.0698257 140.111896,33.309488 140.393311,33.4919434 C140.674725,33.6743987 141.149411,33.832112 141.817383,33.9650879 C142.485355,34.0980638 143.048175,34.248046 143.505859,34.4150391 C144.922208,34.9345729 145.630371,35.8344663 145.630371,37.1147461 C145.630371,38.0301153 145.237634,38.7707491 144.452148,39.3366699 C143.666663,39.9025907 142.65235,40.1855469 141.40918,40.1855469 C140.56803,40.1855469 139.821211,40.0355647 139.168701,39.7355957 C138.516191,39.4356268 138.004396,39.0243353 137.633301,38.501709 C137.262205,37.9790827 137.07666,37.4147166 137.07666,36.8085938 L139.618652,36.8085938 C139.643392,37.2848331 139.81966,37.6497383 140.147461,37.9033203 C140.475262,38.1569023 140.914385,38.2836914 141.464844,38.2836914 C141.978193,38.2836914 142.366291,38.1862803 142.62915,37.9914551 C142.89201,37.7966299 143.023438,37.5415055 143.023438,37.2260742 Z M150.565918,27.4941406 L150.565918,29.9619141 L152.282227,29.9619141 L152.282227,31.9287109 L150.565918,31.9287109 L150.565918,36.9384766 C150.565918,37.3095722 150.637044,37.57552 150.779297,37.7363281 C150.92155,37.8971362 151.193683,37.9775391 151.595703,37.9775391 C151.89258,37.9775391 152.155435,37.9558921 152.384277,37.9125977 L152.384277,39.9443359 C151.858559,40.105144 151.317386,40.1855469 150.760742,40.1855469 C148.880524,40.1855469 147.921875,39.2361749 147.884766,37.3374023 L147.884766,31.9287109 L146.418945,31.9287109 L146.418945,29.9619141 L147.884766,29.9619141 L147.884766,27.4941406 L150.565918,27.4941406 Z M159.592773,40 C159.469075,39.7587879 159.379395,39.4588234 159.32373,39.1000977 C158.674313,39.8237341 157.830083,40.1855469 156.791016,40.1855469 C155.807612,40.1855469 154.99276,39.9010445 154.346436,39.3320312 C153.700111,38.763018 153.376953,38.0455772 153.376953,37.1796875 C153.376953,36.1158801 153.771236,35.299482 154.559814,34.7304688 C155.348393,34.1614555 156.487948,33.8738607 157.978516,33.8676758 L159.212402,33.8676758 L159.212402,33.2924805 C159.212402,32.828611 159.093344,32.4575209 158.855225,32.1791992 C158.617105,31.9008775 158.241376,31.7617188 157.728027,31.7617188 C157.276528,31.7617188 156.922446,31.8699533 156.665771,32.0864258 C156.409097,32.3028982 156.280762,32.5997702 156.280762,32.9770508 L153.599609,32.9770508 C153.599609,32.3956677 153.77897,31.8575871 154.137695,31.362793 C154.496421,30.8679988 155.003577,30.4799005 155.65918,30.1984863 C156.314782,29.9170722 157.050777,29.7763672 157.867188,29.7763672 C159.104173,29.7763672 160.086015,30.0871551 160.812744,30.7087402 C161.539473,31.3303254 161.902832,32.2039332 161.902832,33.3295898 L161.902832,37.6806641 C161.909017,38.6331428 162.041991,39.3536759 162.301758,39.8422852 L162.301758,40 L159.592773,40 Z M157.375488,38.1352539 C157.771324,38.1352539 158.136229,38.04712 158.470215,37.8708496 C158.804201,37.6945792 159.051594,37.4580093 159.212402,37.1611328 L159.212402,35.4355469 L158.210449,35.4355469 C156.86832,35.4355469 156.153972,35.8994094 156.067383,36.8271484 L156.058105,36.9848633 C156.058105,37.3188493 156.175617,37.5940744 156.410645,37.8105469 C156.645672,38.0270193 156.967283,38.1352539 157.375488,38.1352539 Z M166.430176,29.9619141 L166.513672,31.121582 C167.231123,30.2247677 168.192865,29.7763672 169.398926,29.7763672 C170.462733,29.7763672 171.254392,30.0887013 171.773926,30.7133789 C172.29346,31.3380565 172.559407,32.2719664 172.571777,33.5151367 L172.571777,40 L169.890625,40 L169.890625,33.5800781 C169.890625,33.0110649 169.766928,32.5982272 169.519531,32.3415527 C169.272134,32.0848783 168.860843,31.956543 168.285645,31.956543 C167.531083,31.956543 166.965171,32.2781543 166.587891,32.9213867 L166.587891,40 L163.906738,40 L163.906738,29.9619141 L166.430176,29.9619141 Z M177.813477,27.4941406 L177.813477,29.9619141 L179.529785,29.9619141 L179.529785,31.9287109 L177.813477,31.9287109 L177.813477,36.9384766 C177.813477,37.3095722 177.884602,37.57552 178.026855,37.7363281 C178.169109,37.8971362 178.441241,37.9775391 178.843262,37.9775391 C179.140138,37.9775391 179.402994,37.9558921 179.631836,37.9125977 L179.631836,39.9443359 C179.106117,40.105144 178.564944,40.1855469 178.008301,40.1855469 C176.128083,40.1855469 175.169434,39.2361749 175.132324,37.3374023 L175.132324,31.9287109 L173.666504,31.9287109 L173.666504,29.9619141 L175.132324,29.9619141 L175.132324,27.4941406 L177.813477,27.4941406 Z M193.557129,37.2167969 L188.677246,37.2167969 L187.749512,40 L184.790039,40 L189.818359,26.4921875 L192.397461,26.4921875 L197.453613,40 L194.494141,40 L193.557129,37.2167969 Z M189.428711,34.9624023 L192.805664,34.9624023 L191.10791,29.90625 L189.428711,34.9624023 Z M202.713867,38.0239258 C203.208661,38.0239258 203.610676,37.8878594 203.919922,37.6157227 C204.229168,37.3435859 204.389974,36.9817731 204.402344,36.5302734 L206.916504,36.5302734 C206.910319,37.2106154 206.724774,37.8337374 206.359863,38.3996582 C205.994953,38.965579 205.495527,39.4047022 204.861572,39.717041 C204.227617,40.0293798 203.527185,40.1855469 202.760254,40.1855469 C201.325351,40.1855469 200.193526,39.7294154 199.364746,38.8171387 C198.535966,37.904862 198.121582,36.6447021 198.121582,35.0366211 L198.121582,34.8603516 C198.121582,33.3141199 198.532873,32.0802455 199.355469,31.1586914 C200.178064,30.2371373 201.306796,29.7763672 202.741699,29.7763672 C203.997239,29.7763672 205.003821,30.1335414 205.761475,30.8479004 C206.519128,31.5622594 206.904134,32.5131777 206.916504,33.7006836 L204.402344,33.7006836 C204.389974,33.1811497 204.229168,32.7590348 203.919922,32.4343262 C203.610676,32.1096175 203.202476,31.9472656 202.695312,31.9472656 C202.070635,31.9472656 201.599041,32.1745583 201.280518,32.6291504 C200.961994,33.0837425 200.802734,33.821284 200.802734,34.8417969 L200.802734,35.1201172 C200.802734,36.153 200.960448,36.89518 201.275879,37.3466797 C201.59131,37.7981793 202.070635,38.0239258 202.713867,38.0239258 Z M212.62207,38.0239258 C213.116864,38.0239258 213.518879,37.8878594 213.828125,37.6157227 C214.137371,37.3435859 214.298177,36.9817731 214.310547,36.5302734 L216.824707,36.5302734 C216.818522,37.2106154 216.632977,37.8337374 216.268066,38.3996582 C215.903156,38.965579 215.40373,39.4047022 214.769775,39.717041 C214.13582,40.0293798 213.435388,40.1855469 212.668457,40.1855469 C211.233554,40.1855469 210.101729,39.7294154 209.272949,38.8171387 C208.444169,37.904862 208.029785,36.6447021 208.029785,35.0366211 L208.029785,34.8603516 C208.029785,33.3141199 208.441077,32.0802455 209.263672,31.1586914 C210.086267,30.2371373 211.214999,29.7763672 212.649902,29.7763672 C213.905442,29.7763672 214.912024,30.1335414 215.669678,30.8479004 C216.427331,31.5622594 216.812337,32.5131777 216.824707,33.7006836 L214.310547,33.7006836 C214.298177,33.1811497 214.137371,32.7590348 213.828125,32.4343262 C213.518879,32.1096175 213.11068,31.9472656 212.603516,31.9472656 C211.978838,31.9472656 211.507244,32.1745583 211.188721,32.6291504 C210.870197,33.0837425 210.710938,33.821284 210.710938,34.8417969 L210.710938,35.1201172 C210.710938,36.153 210.868651,36.89518 211.184082,37.3466797 C211.499513,37.7981793 211.978838,38.0239258 212.62207,38.0239258 Z M222.975586,40.1855469 C221.503573,40.1855469 220.305262,39.734054 219.380615,38.8310547 C218.455969,37.9280554 217.993652,36.7251052 217.993652,35.222168 L217.993652,34.9624023 C217.993652,33.9542593 218.188475,33.0528197 218.578125,32.2580566 C218.967775,31.4632936 219.519772,30.850995 220.234131,30.4211426 C220.94849,29.9912902 221.763342,29.7763672 222.678711,29.7763672 C224.051765,29.7763672 225.132564,30.2093056 225.921143,31.0751953 C226.709721,31.9410851 227.104004,33.1687746 227.104004,34.7583008 L227.104004,35.8530273 L220.711914,35.8530273 C220.798503,36.5086296 221.059812,37.0343405 221.49585,37.4301758 C221.931887,37.8260111 222.483883,38.0239258 223.151855,38.0239258 C224.184738,38.0239258 224.991859,37.6497433 225.573242,36.9013672 L226.890625,38.3764648 C226.488605,38.9454781 225.944339,39.3892399 225.257812,39.7077637 C224.571286,40.0262874 223.810551,40.1855469 222.975586,40.1855469 Z M222.669434,31.9472656 C222.13753,31.9472656 221.706138,32.1266258 221.375244,32.4853516 C221.044351,32.8440773 220.83252,33.3574185 220.739746,34.0253906 L224.469238,34.0253906 L224.469238,33.8120117 C224.456868,33.2182588 224.296063,32.7590348 223.986816,32.4343262 C223.67757,32.1096175 223.238447,31.9472656 222.669434,31.9472656 Z M234.062012,37.2260742 C234.062012,36.8982731 233.89966,36.6400563 233.574951,36.451416 C233.250243,36.2627757 232.72917,36.094239 232.011719,35.9458008 C229.624337,35.4448217 228.430664,34.4305089 228.430664,32.902832 C228.430664,32.0122026 228.800208,31.2684763 229.539307,30.6716309 C230.278405,30.0747854 231.244786,29.7763672 232.438477,29.7763672 C233.712571,29.7763672 234.731523,30.0763316 235.495361,30.6762695 C236.2592,31.2762074 236.641113,32.0554965 236.641113,33.0141602 L233.959961,33.0141602 C233.959961,32.6306947 233.836264,32.313722 233.588867,32.0632324 C233.34147,31.8127429 232.954918,31.6875 232.429199,31.6875 C231.9777,31.6875 231.628256,31.7895498 231.380859,31.9936523 C231.133462,32.1977549 231.009766,32.457518 231.009766,32.7729492 C231.009766,33.0698257 231.150471,33.309488 231.431885,33.4919434 C231.713299,33.6743987 232.187985,33.832112 232.855957,33.9650879 C233.523929,34.0980638 234.086749,34.248046 234.544434,34.4150391 C235.960782,34.9345729 236.668945,35.8344663 236.668945,37.1147461 C236.668945,38.0301153 236.276208,38.7707491 235.490723,39.3366699 C234.705237,39.9025907 233.690924,40.1855469 232.447754,40.1855469 C231.606604,40.1855469 230.859785,40.0355647 230.207275,39.7355957 C229.554766,39.4356268 229.042971,39.0243353 228.671875,38.501709 C228.300779,37.9790827 228.115234,37.4147166 228.115234,36.8085938 L230.657227,36.8085938 C230.681966,37.2848331 230.858234,37.6497383 231.186035,37.9033203 C231.513836,38.1569023 231.952959,38.2836914 232.503418,38.2836914 C233.016767,38.2836914 233.404865,38.1862803 233.667725,37.9914551 C233.930584,37.7966299 234.062012,37.5415055 234.062012,37.2260742 Z M243.831055,37.2260742 C243.831055,36.8982731 243.668703,36.6400563 243.343994,36.451416 C243.019285,36.2627757 242.498213,36.094239 241.780762,35.9458008 C239.39338,35.4448217 238.199707,34.4305089 238.199707,32.902832 C238.199707,32.0122026 238.569251,31.2684763 239.30835,30.6716309 C240.047448,30.0747854 241.013829,29.7763672 242.20752,29.7763672 C243.481614,29.7763672 244.500566,30.0763316 245.264404,30.6762695 C246.028243,31.2762074 246.410156,32.0554965 246.410156,33.0141602 L243.729004,33.0141602 C243.729004,32.6306947 243.605307,32.313722 243.35791,32.0632324 C243.110513,31.8127429 242.723961,31.6875 242.198242,31.6875 C241.746743,31.6875 241.397299,31.7895498 241.149902,31.9936523 C240.902505,32.1977549 240.778809,32.457518 240.778809,32.7729492 C240.778809,33.0698257 240.919514,33.309488 241.200928,33.4919434 C241.482342,33.6743987 241.957028,33.832112 242.625,33.9650879 C243.292972,34.0980638 243.855792,34.248046 244.313477,34.4150391 C245.729825,34.9345729 246.437988,35.8344663 246.437988,37.1147461 C246.437988,38.0301153 246.045251,38.7707491 245.259766,39.3366699 C244.47428,39.9025907 243.459967,40.1855469 242.216797,40.1855469 C241.375647,40.1855469 240.628828,40.0355647 239.976318,39.7355957 C239.323809,39.4356268 238.812014,39.0243353 238.440918,38.501709 C238.069822,37.9790827 237.884277,37.4147166 237.884277,36.8085938 L240.42627,36.8085938 C240.451009,37.2848331 240.627277,37.6497383 240.955078,37.9033203 C241.282879,38.1569023 241.722002,38.2836914 242.272461,38.2836914 C242.78581,38.2836914 243.173908,38.1862803 243.436768,37.9914551 C243.699627,37.7966299 243.831055,37.5415055 243.831055,37.2260742 Z M264.055664,40 L261.272461,40 L255.854492,31.1123047 L255.854492,40 L253.071289,40 L253.071289,26.4921875 L255.854492,26.4921875 L261.281738,35.3984375 L261.281738,26.4921875 L264.055664,26.4921875 L264.055664,40 Z M265.892578,34.8881836 C265.892578,33.8924104 266.084308,33.0048867 266.467773,32.2255859 C266.851239,31.4462852 267.403235,30.8432639 268.123779,30.4165039 C268.844323,29.989744 269.680822,29.7763672 270.633301,29.7763672 C271.9878,29.7763672 273.093339,30.1907511 273.949951,31.0195312 C274.806564,31.8483114 275.284342,32.9739512 275.383301,34.3964844 L275.401855,35.0830078 C275.401855,36.6230546 274.97201,37.8584752 274.112305,38.7893066 C273.2526,39.7201381 272.099128,40.1855469 270.651855,40.1855469 C269.204583,40.1855469 268.049565,39.7216843 267.186768,38.7939453 C266.32397,37.8662063 265.892578,36.6045002 265.892578,35.0087891 L265.892578,34.8881836 Z M268.57373,35.0830078 C268.57373,36.0354865 268.753091,36.7637507 269.111816,37.2678223 C269.470542,37.7718938 269.983883,38.0239258 270.651855,38.0239258 C271.301273,38.0239258 271.808429,37.7749862 272.17334,37.2770996 C272.538251,36.779213 272.720703,35.9829156 272.720703,34.8881836 C272.720703,33.9542597 272.538251,33.2306341 272.17334,32.7172852 C271.808429,32.2039362 271.295088,31.9472656 270.633301,31.9472656 C269.977699,31.9472656 269.470542,32.20239 269.111816,32.7126465 C268.753091,33.2229029 268.57373,34.0130155 268.57373,35.0830078 Z M285.783203,36.3540039 L287.100586,29.9619141 L289.688965,29.9619141 L287.128418,40 L284.883301,40 L282.981445,33.6821289 L281.07959,40 L278.84375,40 L276.283203,29.9619141 L278.871582,29.9619141 L280.179688,36.3447266 L282.016602,29.9619141 L283.955566,29.9619141 L285.783203,36.3540039 Z" id="Get-Instant-Access-Now-Outlines" fill="#9B691D"></path>
                <rect id="Inner-Shadow" fill-opacity="0.22" fill="#FFFFFF" x="1" y="0" width="373" height="1.01694915"></rect>
            </g>
            <g id="Input">
                <g id="Rectangle" stroke="#000000">
                    <path stroke-opacity="0.2" stroke-width="1" d="M3,0.5 C1.61928813,0.5 0.5,1.61928813 0.5,3 L0.5,47 C0.5,48.3807119 1.61928813,49.5 3,49.5 L372,49.5 C373.380712,49.5 374.5,48.3807119 374.5,47 L374.5,3 C374.5,1.61928813 373.380712,0.5 372,0.5 L3,0.5 Z" stroke-linejoin="square" fill="#FFFFFF" fill-rule="evenodd"></path>
                    <path stroke-opacity="0.05" stroke-width="3" d="M3,-1.5 L372,-1.5 C374.485281,-1.5 376.5,0.514718626 376.5,3 L376.5,47 C376.5,49.4852814 374.485281,51.5 372,51.5 L3,51.5 C0.514718626,51.5 -1.5,49.4852814 -1.5,47 L-1.5,3 C-1.5,0.514718626 0.514718626,-1.5 3,-1.5 Z"></path>
                </g>
                <path d="M28.6352539,25.6719564 L22.78125,25.6719564 L22.78125,29.6612142 L29.581543,29.6612142 L29.581543,30.875 L21,30.875 L21,19.6184896 L29.4887695,19.6184896 L29.4887695,20.8400065 L22.78125,20.8400065 L22.78125,24.4581706 L28.6352539,24.4581706 L28.6352539,25.6719564 Z M33.1533203,22.5099284 L33.2089844,23.5613607 C33.9759153,22.7573202 34.9778584,22.355306 36.2148438,22.355306 C38.3362736,22.355306 39.4062499,23.3526105 39.4248047,25.3472493 L39.4248047,30.875 L37.7084961,30.875 L37.7084961,25.3395182 C37.7023112,24.7364879 37.5368669,24.2906644 37.2121582,24.0020345 C36.8874495,23.7134046 36.3818394,23.5690918 35.6953125,23.5690918 C35.1386691,23.5690918 34.6500672,23.6927885 34.2294922,23.9401855 C33.8089172,24.1875826 33.481121,24.5122864 33.2460938,24.9143066 L33.2460938,30.875 L31.5297852,30.875 L31.5297852,22.5099284 L33.1533203,22.5099284 Z M44.3417969,20.484375 L44.3417969,22.5099284 L46.2158203,22.5099284 L46.2158203,23.6154785 L44.3417969,23.6154785 L44.3417969,28.8030599 C44.3417969,29.1380768 44.4252921,29.3893356 44.5922852,29.5568441 C44.7592782,29.7243525 45.0437805,29.8081055 45.4458008,29.8081055 C45.6437184,29.8081055 45.9158511,29.7771813 46.262207,29.715332 L46.262207,30.875 C45.8107074,30.9780821 45.3715842,31.0296224 44.9448242,31.0296224 C44.1778933,31.0296224 43.5996113,30.8363463 43.2099609,30.4497884 C42.8203106,30.0632305 42.6254883,29.5143265 42.6254883,28.8030599 L42.6254883,23.6154785 L40.7978516,23.6154785 L40.7978516,22.5099284 L42.6254883,22.5099284 L42.6254883,20.484375 L44.3417969,20.484375 Z M52.3852539,31.0296224 C51.02457,31.0296224 49.9174847,30.6572438 49.0639648,29.9124756 C48.210445,29.1677073 47.7836914,28.1716913 47.7836914,26.9243978 L47.7836914,26.6615397 C47.7836914,25.8317287 47.9738751,25.0908371 48.354248,24.4388428 C48.734621,23.7868484 49.2665168,23.2765996 49.9499512,22.9080811 C50.6333856,22.5395625 51.3740194,22.355306 52.171875,22.355306 C53.4768945,22.355306 54.4912073,22.713511 55.2148438,23.4299316 C55.9384802,24.1463523 56.300293,25.172004 56.300293,26.5069173 L56.300293,27.1022135 L49.5,27.1022135 C49.5247397,27.9268704 49.8138807,28.5930286 50.3674316,29.100708 C50.9209826,29.6083874 51.6245075,29.8622233 52.4780273,29.8622233 C53.0841502,29.8622233 53.5974914,29.7591427 54.0180664,29.5529785 C54.4386414,29.3468143 54.806639,29.0736508 55.1220703,28.7334798 L56.1704102,29.4138184 C55.3292601,30.4910264 54.067554,31.0296224 52.3852539,31.0296224 Z M52.171875,23.5304362 C51.4791632,23.5304362 50.8977888,23.7404629 50.4277344,24.1605225 C49.9576799,24.5805821 49.6669927,25.1694298 49.5556641,25.9270833 L54.5839844,25.9270833 L54.5839844,25.8188477 C54.534505,25.0921188 54.2994813,24.5290412 53.8789062,24.129598 C53.4583312,23.7301548 52.8893265,23.5304362 52.171875,23.5304362 Z M63.1376953,23.7932943 C62.8779284,23.7572155 62.5965184,23.7391764 62.293457,23.7391764 C61.1678004,23.7391764 60.4039734,24.1386136 60.0019531,24.9375 L60.0019531,30.875 L58.2856445,30.875 L58.2856445,22.5099284 L59.9555664,22.5099284 L59.9833984,23.4763184 C60.5462268,22.728973 61.3440704,22.355306 62.3769531,22.355306 C62.7109392,22.355306 62.9645174,22.3913842 63.1376953,22.4635417 L63.1376953,23.7932943 Z M72.7026367,28.7798665 L75.0405273,22.5099284 L76.8774414,22.5099284 L72.8417969,32.166097 C72.2171193,33.5577055 71.2244534,34.2534993 69.8637695,34.2534993 L69.5390625,34.230306 L68.8989258,34.1298014 L68.8989258,32.9701335 L69.362793,33.0010579 C69.9441761,33.0010579 70.3972152,32.9031314 70.7219238,32.7072754 C71.0466325,32.5114194 71.3141266,32.1532144 71.5244141,31.6326497 L71.9047852,30.7822266 L68.3237305,22.5099284 L70.1977539,22.5099284 L72.7026367,28.7798665 Z M77.9536133,26.615153 C77.9536133,25.7956502 78.1468893,25.0586241 78.5334473,24.4040527 C78.9200052,23.7494813 79.4580857,23.2443865 80.1477051,22.8887533 C80.8373244,22.53312 81.6243445,22.355306 82.5087891,22.355306 C83.8756579,22.355306 84.981197,22.7495892 85.8254395,23.5381673 C86.669682,24.3267455 87.0917969,25.3755902 87.0917969,26.6847331 L87.0917969,26.7852376 C87.0917969,27.5995863 86.9047056,28.3301698 86.5305176,28.9770101 C86.1563295,29.6238503 85.6213414,30.1276566 84.9255371,30.488444 C84.2297328,30.8492314 83.4303431,31.0296224 82.5273438,31.0296224 C81.1666599,31.0296224 80.0642132,30.6353392 79.2199707,29.8467611 C78.3757282,29.0581829 77.9536133,28.0144922 77.9536133,26.7156576 L77.9536133,26.615153 Z M79.6791992,26.7852376 C79.6791992,27.7129766 79.937416,28.4577337 80.4538574,29.0195312 C80.9702988,29.5813288 81.661454,29.8622233 82.5273438,29.8622233 C83.3994184,29.8622233 84.0921198,29.5774632 84.6054688,29.0079346 C85.1188177,28.4384059 85.3754883,27.64082 85.3754883,26.615153 C85.3754883,25.6977222 85.114179,24.9542536 84.5915527,24.3847249 C84.0689264,23.8151963 83.3746788,23.5304362 82.5087891,23.5304362 C81.6614541,23.5304362 80.9780299,23.8113307 80.4584961,24.3731283 C79.9389622,24.9349258 79.6791992,25.7389542 79.6791992,26.7852376 Z M95.4414062,30.0477702 C94.7734342,30.7023416 93.793138,31.0296224 92.5004883,31.0296224 C91.430496,31.0296224 90.6156441,30.7706325 90.0559082,30.2526449 C89.4961723,29.7346572 89.2132162,28.9679955 89.2070312,27.9526367 L89.2070312,22.5099284 L90.9233398,22.5099284 L90.9233398,27.9139811 C90.9233398,29.1818911 91.5418232,29.8158366 92.7788086,29.8158366 C94.0900131,29.8158366 94.9620747,29.4086684 95.3950195,28.5943197 L95.3950195,22.5099284 L97.1113281,22.5099284 L97.1113281,30.875 L95.4785156,30.875 L95.4414062,30.0477702 Z M104.570312,23.7932943 C104.310546,23.7572155 104.029136,23.7391764 103.726074,23.7391764 C102.600418,23.7391764 101.836591,24.1386136 101.43457,24.9375 L101.43457,30.875 L99.7182617,30.875 L99.7182617,22.5099284 L101.388184,22.5099284 L101.416016,23.4763184 C101.978844,22.728973 102.776688,22.355306 103.80957,22.355306 C104.143556,22.355306 104.397135,22.3913842 104.570312,22.4635417 L104.570312,23.7932943 Z M115.016602,31.0296224 C113.655918,31.0296224 112.548832,30.6572438 111.695312,29.9124756 C110.841793,29.1677073 110.415039,28.1716913 110.415039,26.9243978 L110.415039,26.6615397 C110.415039,25.8317287 110.605223,25.0908371 110.985596,24.4388428 C111.365969,23.7868484 111.897864,23.2765996 112.581299,22.9080811 C113.264733,22.5395625 114.005367,22.355306 114.803223,22.355306 C116.108242,22.355306 117.122555,22.713511 117.846191,23.4299316 C118.569828,24.1463523 118.931641,25.172004 118.931641,26.5069173 L118.931641,27.1022135 L112.131348,27.1022135 C112.156087,27.9268704 112.445228,28.5930286 112.998779,29.100708 C113.55233,29.6083874 114.255855,29.8622233 115.109375,29.8622233 C115.715498,29.8622233 116.228839,29.7591427 116.649414,29.5529785 C117.069989,29.3468143 117.437987,29.0736508 117.753418,28.7334798 L118.801758,29.4138184 C117.960608,30.4910264 116.698902,31.0296224 115.016602,31.0296224 Z M114.803223,23.5304362 C114.110511,23.5304362 113.529136,23.7404629 113.059082,24.1605225 C112.589028,24.5805821 112.29834,25.1694298 112.187012,25.9270833 L117.215332,25.9270833 L117.215332,25.8188477 C117.165853,25.0921188 116.930829,24.5290412 116.510254,24.129598 C116.089679,23.7301548 115.520674,23.5304362 114.803223,23.5304362 Z M124.48877,26.677002 L119.961426,26.677002 L119.961426,25.5096029 L124.48877,25.5096029 L124.48877,26.677002 Z M127.772949,22.5099284 L127.819336,23.4376628 C128.555342,22.716088 129.548008,22.355306 130.797363,22.355306 C132.201342,22.355306 133.156899,22.8037065 133.664062,23.7005208 C133.998049,23.2985006 134.432533,22.9737968 134.967529,22.7263997 C135.502525,22.4790027 136.134925,22.355306 136.864746,22.355306 C139.06658,22.355306 140.186035,23.3268403 140.223145,25.2699382 L140.223145,30.875 L138.506836,30.875 L138.506836,25.3549805 C138.506836,24.7571042 138.342938,24.3099923 138.015137,24.0136312 C137.687336,23.7172701 137.136885,23.5690918 136.36377,23.5690918 C135.726722,23.5690918 135.197919,23.7275782 134.777344,24.0445557 C134.356769,24.3615332 134.112468,24.788029 134.044434,25.324056 L134.044434,30.875 L132.318848,30.875 L132.318848,25.3936361 C132.318848,24.1772671 131.604499,23.5690918 130.175781,23.5690918 C129.050125,23.5690918 128.280113,23.968529 127.865723,24.7674154 L127.865723,30.875 L126.149414,30.875 L126.149414,22.5099284 L127.772949,22.5099284 Z M149.008789,30.875 C148.90983,30.7100686 148.829427,30.416289 148.767578,29.9936523 C147.969723,30.6843025 147.017258,31.0296224 145.910156,31.0296224 C144.920568,31.0296224 144.108809,30.7964026 143.474854,30.3299561 C142.840899,29.8635095 142.523926,29.2720847 142.523926,28.5556641 C142.523926,27.6846202 142.921301,27.008154 143.716064,26.5262451 C144.510828,26.0443362 145.628736,25.8033854 147.069824,25.8033854 L148.739746,25.8033854 L148.739746,25.1462402 C148.739746,24.646292 148.560386,24.2481433 148.20166,23.9517822 C147.842934,23.6554212 147.314131,23.5072428 146.615234,23.5072428 C146.002927,23.5072428 145.489585,23.6360935 145.075195,23.8937988 C144.660805,24.1515041 144.453613,24.4633228 144.453613,24.8292643 L142.728027,24.8292643 C142.728027,24.4117818 142.905841,24.0084791 143.261475,23.6193441 C143.617108,23.2302091 144.099525,22.9222559 144.70874,22.6954753 C145.317956,22.4686946 145.987464,22.355306 146.717285,22.355306 C147.873866,22.355306 148.779945,22.5962568 149.435547,23.0781657 C150.091149,23.5600746 150.431315,24.2236557 150.456055,25.068929 L150.456055,28.9190267 C150.456055,29.6869884 150.573567,30.2977408 150.808594,30.7513021 L150.808594,30.875 L149.008789,30.875 Z M146.160645,29.7849121 C146.698733,29.7849121 147.208982,29.6689465 147.691406,29.4370117 C148.173831,29.205077 148.523274,28.9035663 148.739746,28.5324707 L148.739746,26.8161621 L147.394531,26.8161621 C145.291656,26.8161621 144.240234,27.3289879 144.240234,28.3546549 C144.240234,28.8030621 144.419595,29.1535361 144.77832,29.4060872 C145.137046,29.6586384 145.597816,29.7849121 146.160645,29.7849121 Z M155.01123,30.875 L153.294922,30.875 L153.294922,22.5099284 L155.01123,22.5099284 L155.01123,30.875 Z M153.155762,20.291097 C153.155762,20.0591623 153.240803,19.8633092 153.410889,19.7035319 C153.580974,19.5437546 153.833006,19.4638672 154.166992,19.4638672 C154.500978,19.4638672 154.754556,19.5437546 154.927734,19.7035319 C155.100912,19.8633092 155.1875,20.0591623 155.1875,20.291097 C155.1875,20.5230318 155.100912,20.7163078 154.927734,20.870931 C154.754556,21.0255542 154.500978,21.1028646 154.166992,21.1028646 C153.833006,21.1028646 153.580974,21.0255542 153.410889,20.870931 C153.240803,20.7163078 153.155762,20.5230318 153.155762,20.291097 Z M159.62207,30.875 L157.905762,30.875 L157.905762,19 L159.62207,19 L159.62207,30.875 Z" id="Enter-your-e-mail-outlines" fill="#999999"></path>
            </g>
        </g>
    </g>
</svg>