<svg height="151" viewBox="0 0 375 151" width="375" xmlns="http://www.w3.org/2000/svg"><g fill="none" fill-rule="evenodd"><g transform="translate(0 82)"><path d="m3 .5c-1.38071187 0-2.5 1.11928813-2.5 2.5v63c0 1.3807119 1.11928813 2.5 2.5 2.5h369c1.380712 0 2.5-1.1192881 2.5-2.5v-63c0-1.38071187-1.119288-2.5-2.5-2.5z" fill="#20be81" stroke="#000" stroke-opacity=".2"/><g fill="#fff"><path d="m97.9077148 39.2929688c-.500979.5999378-1.2091425 1.0653466-2.1245117 1.3962402-.9153691.3308936-1.9296819.4963379-3.0429687.4963379-1.1689512 0-2.1940874-.2551244-3.0754395-.7653809-.881352-.5102564-1.5616838-1.2508903-2.0410156-2.2219238s-.725179-2.1121354-.7375488-3.4233399v-.918457c0-1.348314.2272926-2.5157014.6818847-3.5021973.4545922-.9864958 1.1101846-1.7410455 1.9667969-2.2636718.8566124-.5226263 1.8601017-.7839356 3.0104981-.7839356 1.601896 0 2.8543249.3819135 3.7573242 1.145752.9029993.7638384 1.4379874 1.8755623 1.6049804 3.3352051h-2.7089843c-.1236986-.7731159-.3973775-1.3390282-.821045-1.6977539-.4236674-.3587258-1.006588-.538086-1.7487793-.538086-.9462937 0-1.6668269.355628-2.161621 1.0668945-.4947942.7112666-.74528 1.7688732-.7514649 3.1728516v.862793c0 1.4163482.2690403 2.4863245.8071289 3.2099609s1.326655 1.0854492 2.3657227 1.0854492c1.0452526 0 1.7905251-.222654 2.2358398-.6679687v-2.3286133h-2.5327148v-2.050293h5.3159179zm6.6982422 1.8925781c-1.472013 0-2.670324-.4514929-3.594971-1.3544922-.924646-.9029993-1.3869626-2.1059495-1.3869626-3.6088867v-.2597657c0-1.008143.1948223-1.9095826.5844726-2.7043457.38965-.794763.941647-1.4070616 1.656006-1.836914s1.529211-.6447754 2.44458-.6447754c1.373054 0 2.453854.4329384 3.242432 1.2988281.788578.8658898 1.182861 2.0935793 1.182861 3.6831055v1.0947265h-6.39209c.086589.6556023.347898 1.1813132.783936 1.5771485.436037.3958353.988033.59375 1.656006.59375 1.032882 0 1.840003-.3741825 2.421386-1.1225586l1.317383 1.4750976c-.40202.5690133-.946286 1.0127751-1.632812 1.3312989-.686527.3185237-1.447262.4777832-2.282227.4777832zm-.306152-8.2382813c-.531904 0-.963296.1793602-1.29419.538086-.330893.3587257-.542724.8720669-.635498 1.540039h3.729492v-.2133789c-.012369-.5937529-.173175-1.0529769-.482421-1.3776855-.309247-.3247087-.74837-.4870606-1.317383-.4870606zm9.166015-4.453125v2.4677735h1.716309v1.9667968h-1.716309v5.0097657c0 .3710956.071126.6370434.213379.7978515.142254.1608081.414386.241211.816406.241211.296877 0 .559732-.021647.788575-.0649414v2.0317382c-.525719.1608081-1.066892.241211-1.623535.241211-1.880218 0-2.838867-.949372-2.875977-2.8481446v-5.4086914h-1.46582v-1.9667968h1.46582v-2.4677735zm11.077149 12.5058594h-2.783203v-13.5078125h2.783203zm4.870605-10.0380859.083496 1.1596679c.717452-.8968143 1.679194-1.3452148 2.885254-1.3452148 1.063808 0 1.855466.3123341 2.375.9370117s.785482 1.5585875.797852 2.8017578v6.4848633h-2.681153v-6.4199219c0-.5690132-.123696-.9818509-.371093-1.2385254-.247397-.2566744-.658689-.3850097-1.233887-.3850097-.754561 0-1.320473.3216113-1.697754.9648437v7.0786133h-2.681152v-10.0380859zm13.609864 7.2641601c0-.3278011-.162352-.5860179-.487061-.7746582s-.845781-.357177-1.563232-.5056152c-2.387382-.5009791-3.581055-1.5152919-3.581055-3.0429688 0-.8906294.369544-1.6343557 1.108642-2.2312011.739099-.5968455 1.705479-.8952637 2.89917-.8952637 1.274095 0 2.293047.2999644 3.056885.8999023.763839.5999379 1.145752 1.379227 1.145752 2.3378907h-2.681152c0-.3834655-.123697-.7004382-.371094-.9509278-.247397-.2504895-.633949-.3757324-1.159668-.3757324-.4515 0-.800943.1020498-1.04834.3061523-.247397.2041026-.371094.4638657-.371094.7792969 0 .2968765.140705.5365388.42212.7189942.281414.1824553.7561.3401686 1.424072.4731445s1.230792.2829581 1.688476.4499512c1.416349.5195338 2.124512 1.4194272 2.124512 2.699707 0 .9153692-.392737 1.656003-1.178223 2.2219238-.785485.5659208-1.799798.848877-3.042968.848877-.84115 0-1.587969-.1499822-2.240479-.4499512-.65251-.2999689-1.164305-.7112604-1.5354-1.2338867-.371096-.5226263-.556641-1.0869924-.556641-1.6931152h2.541992c.02474.4762393.201008.8411445.528809 1.0947265s.766924.3803711 1.317383.3803711c.513349 0 .901447-.0974111 1.164306-.2922363.26286-.1948252.394288-.4499496.394288-.7653809zm7.54248-9.7319336v2.4677735h1.716309v1.9667968h-1.716309v5.0097657c0 .3710956.071126.6370434.213379.7978515s.414386.241211.816406.241211c.296877 0 .559732-.021647.788574-.0649414v2.0317382c-.525718.1608081-1.066891.241211-1.623535.241211-1.880218 0-2.838867-.949372-2.875976-2.8481446v-5.4086914h-1.465821v-1.9667968h1.465821v-2.4677735zm9.026855 12.5058594c-.123698-.2412121-.213378-.5411766-.269043-.8999023-.649417.7236364-1.493647 1.0854492-2.532714 1.0854492-.983404 0-1.798256-.2845024-2.44458-.8535157-.646325-.5690132-.969483-1.286454-.969483-2.1523437 0-1.0638074.394283-1.8802055 1.182861-2.4492187.788579-.5690133 1.928134-.8566081 3.418702-.862793h1.233886v-.5751953c0-.4638695-.119058-.8349596-.357177-1.1132813-.23812-.2783217-.613849-.4174804-1.127198-.4174804-.451499 0-.805581.1082345-1.062256.324707-.256674.2164724-.385009.5133444-.385009.890625h-2.681153c0-.5813831.179361-1.1194637.538086-1.6142578.358726-.4947942.865882-.8828925 1.521485-1.1643067.655602-.2814141 1.391597-.4221191 2.208008-.4221191 1.236985 0 2.218827.3107879 2.945556.932373.726729.6215852 1.090088 1.495193 1.090088 2.6208496v4.3510743c.006185.9524787.139159 1.6730118.398926 2.1616211v.1577148zm-2.217285-1.8647461c.395836 0 .760741-.0881339 1.094727-.2644043s.581379-.4128403.742187-.7097168v-1.7255859h-1.001953c-1.342129 0-2.056477.4638625-2.143066 1.3916015l-.009278.1577149c0 .333986.117512.6092111.35254.8256836.235027.2164724.556638.324707.964843.324707zm9.054688-8.1733398.083496 1.1596679c.717451-.8968143 1.679193-1.3452148 2.885254-1.3452148 1.063807 0 1.855466.3123341 2.375.9370117s.785481 1.5585875.797851 2.8017578v6.4848633h-2.681152v-6.4199219c0-.5690132-.123697-.9818509-.371094-1.2385254-.247397-.2566744-.658688-.3850097-1.233886-.3850097-.754562 0-1.320474.3216113-1.697754.9648437v7.0786133h-2.681153v-10.0380859zm11.383301-2.4677735v2.4677735h1.716308v1.9667968h-1.716308v5.0097657c0 .3710956.071125.6370434.213378.7978515.142254.1608081.414386.241211.816407.241211.296876 0 .559732-.021647.788574-.0649414v2.0317382c-.525719.1608081-1.066892.241211-1.623535.241211-1.880218 0-2.838867-.949372-2.875977-2.8481446v-5.4086914h-1.46582v-1.9667968h1.46582v-2.4677735zm15.743652 9.7226563h-4.879883l-.927734 2.7832031h-2.959473l5.02832-13.5078125h2.579102l5.056152 13.5078125h-2.959472zm-4.128418-2.2543946h3.376953l-1.697754-5.0561523zm13.285156 3.0615235c.494794 0 .896809-.1360664 1.206055-.4082031.309246-.2721368.470052-.6339496.482422-1.0854493h2.51416c-.006185.680342-.19173 1.303464-.556641 1.8693848-.36491.5659208-.864336 1.005044-1.498291 1.3173828s-1.334387.4685059-2.101318.4685059c-1.434903 0-2.566728-.4561315-3.395508-1.3684082s-1.243164-2.1724366-1.243164-3.7805176v-.1762695c0-1.5462317.411291-2.7801061 1.233887-3.7016602.822595-.9215541 1.951327-1.3823242 3.38623-1.3823242 1.25554 0 2.262122.3571742 3.019776 1.0715332.757653.714359 1.142659 1.6652773 1.155029 2.8527832h-2.51416c-.01237-.5195339-.173176-.9416488-.482422-1.2663574-.309246-.3247087-.717446-.4870606-1.22461-.4870606-.624677 0-1.096271.2272927-1.414794.6818848-.318524.4545921-.477784 1.1921336-.477784 2.2126465v.2783203c0 1.0328828.157714 1.7750628.473145 2.2265625.315431.4514996.794756.6772461 1.437988.6772461zm9.908203 0c.494794 0 .896809-.1360664 1.206055-.4082031.309246-.2721368.470052-.6339496.482422-1.0854493h2.51416c-.006185.680342-.19173 1.303464-.556641 1.8693848-.36491.5659208-.864336 1.005044-1.498291 1.3173828s-1.334387.4685059-2.101318.4685059c-1.434903 0-2.566728-.4561315-3.395508-1.3684082s-1.243164-2.1724366-1.243164-3.7805176v-.1762695c0-1.5462317.411292-2.7801061 1.233887-3.7016602s1.951327-1.3823242 3.38623-1.3823242c1.25554 0 2.262122.3571742 3.019776 1.0715332.757653.714359 1.142659 1.6652773 1.155029 2.8527832h-2.51416c-.01237-.5195339-.173176-.9416488-.482422-1.2663574-.309246-.3247087-.717445-.4870606-1.224609-.4870606-.624678 0-1.096272.2272927-1.414795.6818848-.318524.4545921-.477783 1.1921336-.477783 2.2126465v.2783203c0 1.0328828.157713 1.7750628.473144 2.2265625.315431.4514996.794756.6772461 1.437988.6772461zm10.353516 2.1616211c-1.472013 0-2.670324-.4514929-3.594971-1.3544922-.924646-.9029993-1.386963-2.1059495-1.386963-3.6088867v-.2597657c0-1.008143.194823-1.9095826.584473-2.7043457.38965-.794763.941647-1.4070616 1.656006-1.836914s1.529211-.6447754 2.44458-.6447754c1.373054 0 2.453853.4329384 3.242432 1.2988281.788578.8658898 1.182861 2.0935793 1.182861 3.6831055v1.0947265h-6.39209c.086589.6556023.347898 1.1813132.783936 1.5771485.436037.3958353.988033.59375 1.656005.59375 1.032883 0 1.840004-.3741825 2.421387-1.1225586l1.317383 1.4750976c-.40202.5690133-.946286 1.0127751-1.632813 1.3312989-.686526.3185237-1.447261.4777832-2.282226.4777832zm-.306152-8.2382813c-.531904 0-.963296.1793602-1.29419.538086-.330893.3587257-.542724.8720669-.635498 1.540039h3.729492v-.2133789c-.01237-.5937529-.173175-1.0529769-.482422-1.3776855-.309246-.3247087-.748369-.4870606-1.317382-.4870606zm11.392578 5.2788086c0-.3278011-.162352-.5860179-.487061-.7746582-.324708-.1886403-.845781-.357177-1.563232-.5056152-2.387382-.5009791-3.581055-1.5152919-3.581055-3.0429688 0-.8906294.369544-1.6343557 1.108643-2.2312011.739098-.5968455 1.705479-.8952637 2.89917-.8952637 1.274094 0 2.293046.2999644 3.056884.8999023.763839.5999379 1.145752 1.379227 1.145752 2.3378907h-2.681152c0-.3834655-.123697-.7004382-.371094-.9509278-.247397-.2504895-.633949-.3757324-1.159668-.3757324-.451499 0-.800943.1020498-1.04834.3061523-.247397.2041026-.371093.4638657-.371093.7792969 0 .2968765.140705.5365388.422119.7189942.281414.1824553.7561.3401686 1.424072.4731445s1.230792.2829581 1.688477.4499512c1.416348.5195338 2.124511 1.4194272 2.124511 2.699707 0 .9153692-.392737 1.656003-1.178222 2.2219238-.785486.5659208-1.799799.848877-3.042969.848877-.84115 0-1.587969-.1499822-2.240479-.4499512-.652509-.2999689-1.164304-.7112604-1.5354-1.2338867s-.556641-1.0869924-.556641-1.6931152h2.541993c.024739.4762393.201007.8411445.528808 1.0947265s.766924.3803711 1.317383.3803711c.513349 0 .901447-.0974111 1.164307-.2922363.262859-.1948252.394287-.4499496.394287-.7653809zm9.769043 0c0-.3278011-.162352-.5860179-.487061-.7746582s-.845781-.357177-1.563232-.5056152c-2.387382-.5009791-3.581055-1.5152919-3.581055-3.0429688 0-.8906294.369544-1.6343557 1.108643-2.2312011.739098-.5968455 1.705479-.8952637 2.89917-.8952637 1.274094 0 2.293046.2999644 3.056884.8999023.763839.5999379 1.145752 1.379227 1.145752 2.3378907h-2.681152c0-.3834655-.123697-.7004382-.371094-.9509278-.247397-.2504895-.633949-.3757324-1.159668-.3757324-.451499 0-.800943.1020498-1.04834.3061523-.247397.2041026-.371093.4638657-.371093.7792969 0 .2968765.140705.5365388.422119.7189942.281414.1824553.7561.3401686 1.424072.4731445s1.230792.2829581 1.688477.4499512c1.416348.5195338 2.124511 1.4194272 2.124511 2.699707 0 .9153692-.392737 1.656003-1.178222 2.2219238-.785486.5659208-1.799799.848877-3.042969.848877-.84115 0-1.587969-.1499822-2.240479-.4499512-.652509-.2999689-1.164304-.7112604-1.5354-1.2338867s-.556641-1.0869924-.556641-1.6931152h2.541993c.024739.4762393.201007.8411445.528808 1.0947265s.766924.3803711 1.317383.3803711c.513349 0 .901447-.0974111 1.164307-.2922363.262859-.1948252.394287-.4499496.394287-.7653809zm20.224609 2.7739258h-2.783203l-5.417969-8.8876953v8.8876953h-2.783203v-13.5078125h2.783203l5.427246 8.90625v-8.90625h2.773926zm1.836914-5.1118164c0-.9957732.19173-1.8832969.575195-2.6625977.383466-.7793007.935462-1.382322 1.656006-1.809082.720544-.4267599 1.557043-.6401367 2.509522-.6401367 1.354499 0 2.460038.4143839 3.31665 1.243164.856613.8287802 1.334391 1.95442 1.43335 3.3769532l.018554.6865234c0 1.5400468-.429845 2.7754674-1.28955 3.7062988-.859705.9308315-2.013177 1.3962403-3.46045 1.3962403-1.447272 0-2.60229-.4638626-3.465087-1.3916016-.862798-.927739-1.29419-2.1894451-1.29419-3.7851562zm2.681152.1948242c0 .9524787.179361 1.6807429.538086 2.1848145.358726.5040715.872067.7561035 1.540039.7561035.649418 0 1.156574-.2489396 1.521485-.7468262s.547363-1.294184.547363-2.388916c0-.9339239-.182452-1.6575495-.547363-2.1708984-.364911-.513349-.878252-.7700196-1.540039-.7700196-.655602 0-1.162759.2551244-1.521485.7653809-.358725.5102564-.538086 1.300369-.538086 2.3703613zm17.209473 1.2709961 1.317383-6.3920898h2.588379l-2.560547 10.0380859h-2.245117l-1.901856-6.3178711-1.901855 6.3178711h-2.23584l-2.560547-10.0380859h2.588379l1.308106 6.3828125 1.836914-6.3828125h1.938964z"/><path d="m1 1h373v1h-373z" fill-opacity=".22"/></g></g><path d="m3 1c-1.1045695 0-2 .8954305-2 2v63c0 1.1045695.8954305 2 2 2h369c1.104569 0 2-.8954305 2-2v-63c0-1.1045695-.895431-2-2-2z" fill="#fff" stroke="#000" stroke-opacity=".2" stroke-width="2"/><path d="m28.3845215 34.7563477h-5.8540039v4.7871093h6.8002929v1.456543h-8.5815429v-13.5078125h8.4887695v1.4658203h-6.7075195v4.3417969h5.8540039zm4.5180664-3.7944336.0556641 1.2617187c.7669309-.9648486 1.768874-1.4472656 3.0058593-1.4472656 2.1214299 0 3.1914062 1.1967654 3.209961 3.590332v6.6333008h-1.7163086v-6.6425781c-.006185-.7236365-.1716293-1.2586246-.4963379-1.6049805-.3247087-.3463559-.8303189-.5195312-1.5168457-.5195312-.5566434 0-1.0452453.148436-1.4658203.4453125-.4205751.2968764-.7483713.686521-.9833985 1.1689453v7.152832h-1.7163086v-10.0380859zm11.1884766-2.4306641v2.4306641h1.8740234v1.3266601h-1.8740234v6.2250977c0 .4020202.0834952.7035309.2504882.904541.1669931.2010101.4514954.3015137.8535157.3015137.1979176 0 .4700503-.037109.8164062-.1113282v1.3916016c-.4514996.1236985-.8906229.1855469-1.3173828.1855469-.7669309 0-1.3452129-.2319313-1.7348633-.6958008s-.5844726-1.1225543-.5844726-1.9760742v-6.2250977h-1.8276368v-1.3266601h1.8276368v-2.4306641zm8.043457 12.6542969c-1.3606839 0-2.4677692-.4468543-3.3212891-1.3405762s-1.2802734-2.0889411-1.2802734-3.5856934v-.3154296c0-.9957733.1901836-1.8848431.5705566-2.6672364.380373-.7823932.9122687-1.3946918 1.5957032-1.836914.6834344-.4422223 1.4240682-.6633301 2.2219238-.6633301 1.3050195 0 2.3193323.4298459 3.0429687 1.2895508.7236365.8597048 1.0854492 2.0904868 1.0854492 3.6923828v.7143554h-6.8002929c.0247397.9895883.3138807 1.7889781.8674316 2.3981934.553551.6092153 1.2570758.9138184 2.1105957.9138184.6061228 0 1.1194641-.1236967 1.5400391-.3710938s.7885726-.5751933 1.1040039-.9833984l1.0483398.8164062c-.84115 1.2926497-2.1028561 1.9389649-3.7851562 1.9389649zm-.2133789-8.9990235c-.6927118 0-1.2740862.252032-1.7441406.7561036-.4700545.5040715-.7607417 1.2106888-.8720704 2.119873h5.0283204v-.1298828c-.0494795-.8720747-.2845032-1.5477678-.7050782-2.0270996s-.9895797-.7189942-1.7070312-.7189942zm10.9658203.3154297c-.2597669-.0432945-.5411769-.0649414-.8442383-.0649414-1.1256567 0-1.8894837.4793247-2.2915039 1.4379883v7.125h-1.7163086v-10.0380859h1.6699219l.027832 1.1596679c.5628284-.8968143 1.3606719-1.3452148 2.3935547-1.3452148.333986 0 .5875642.0432938.7607422.1298828zm9.5649414 5.9838867 2.3378906-7.5239257h1.8369141l-4.0356445 11.5874023c-.6246776 1.6699302-1.6173435 2.5048828-2.9780274 2.5048828l-.324707-.027832-.6401367-.1206055v-1.3916015l.4638671.0371093c.5813832 0 1.0344223-.1175118 1.3591309-.352539.3247087-.2350272.5922027-.6648732.8024902-1.2895508l.3803711-1.0205078-3.5810547-9.9267578h1.8740235zm5.2509766-2.5976562c0-.9834034.193276-1.8678346.5798339-2.6533203.386558-.7854857.9246385-1.3915994 1.6142579-1.8183594.6896193-.4267599 1.4766394-.6401367 2.3610839-.6401367 1.3668689 0 2.4724079.4731398 3.3166504 1.4194336s1.2663575 2.2049075 1.2663575 3.7758789v.1206055c0 .9772184-.1870913 1.8539186-.5612793 2.6301269-.3741881.7762083-.9091763 1.3807758-1.6049805 1.8137207-.6958043.4329449-1.4951941.6494141-2.3981934.6494141-1.3606839 0-2.4631305-.4731398-3.307373-1.4194336s-1.2663574-2.1987227-1.2663574-3.7573242zm1.7255859.2041016c0 1.1132868.2582168 2.0069953.7746582 2.6811523s1.2075966 1.0112305 2.0734863 1.0112305c.8720747 0 1.5647761-.3417121 2.078125-1.0251465s.7700196-1.6405375.7700196-2.8713379c0-1.100917-.2613093-1.9930793-.7839356-2.6765137s-1.2168739-1.0251465-2.0827637-1.0251465c-.8473349 0-1.5307591.3370735-2.0502929 1.0112305-.5195339.674157-.7792969 1.6389911-.7792969 2.8945313zm15.762207 3.915039c-.6679721.7854857-1.6482682 1.1782227-2.9409179 1.1782227-1.0699924 0-1.8848442-.3107879-2.4445801-.9323731-.5597359-.6215851-.842692-1.5415792-.848877-2.7600097v-6.53125h1.7163086v6.4848632c0 1.521492.6184834 2.2822266 1.8554688 2.2822266 1.3112044 0 2.183266-.4886019 2.6162109-1.4658203v-7.3012695h1.7163086v10.0380859h-1.6328125zm9.1289062-7.5053711c-.259767-.0432945-.541177-.0649414-.844238-.0649414-1.125657 0-1.889484.4793247-2.291504 1.4379883v7.125h-1.7163087v-10.0380859h1.6699217l.027832 1.1596679c.562829-.8968143 1.360672-1.3452148 2.393555-1.3452148.333986 0 .587564.0432938.760742.1298828zm10.446289 8.6835938c-1.360684 0-2.467769-.4468543-3.321289-1.3405762s-1.280273-2.0889411-1.280273-3.5856934v-.3154296c0-.9957733.190183-1.8848431.570556-2.6672364.380373-.7823932.912269-1.3946918 1.595703-1.836914.683435-.4422223 1.424069-.6633301 2.221924-.6633301 1.30502 0 2.319333.4298459 3.042969 1.2895508.723636.8597048 1.085449 2.0904868 1.085449 3.6923828v.7143554h-6.800293c.02474.9895883.313881 1.7889781.867432 2.3981934s1.257076.9138184 2.110596.9138184c.606122 0 1.119464-.1236967 1.540039-.3710938s.788572-.5751933 1.104004-.9833984l1.048339.8164062c-.84115 1.2926497-2.102856 1.9389649-3.785156 1.9389649zm-.213379-8.9990235c-.692712 0-1.274086.252032-1.74414.7561036-.470055.5040715-.760742 1.2106888-.872071 2.119873h5.028321v-.1298828c-.04948-.8720747-.284503-1.5477678-.705079-2.0270996-.420575-.4793318-.989579-.7189942-1.707031-.7189942zm9.685547 3.7758789h-4.527344v-1.4008789h4.527344zm3.28418-5.0004882.046387 1.1132812c.736006-.8658897 1.728672-1.2988281 2.978027-1.2988281 1.403978 0 2.359535.5380805 2.866699 1.6142578.333986-.4824243.768471-.8720688 1.303467-1.1689453s1.167395-.4453125 1.897217-.4453125c2.201834 0 3.321289 1.1658412 3.358398 3.4975586v6.7260742h-1.716308v-6.6240234c0-.7174515-.163899-1.2539859-.4917-1.6096192s-.878251-.5334472-1.651367-.5334472c-.637047 0-1.165851.1901836-1.586426.5705566s-.664876.892168-.73291 1.5354004v6.6611328h-1.725586v-6.5776367c0-1.4596427-.714348-2.1894531-2.143066-2.1894531-1.125657 0-1.895669.4793246-2.310059 1.4379882v7.3291016h-1.716308v-10.0380859zm21.23584 10.0380859c-.098959-.1979177-.179362-.5504532-.241211-1.0576172-.797856.8287802-1.75032 1.2431641-2.857422 1.2431641-.989588 0-1.801348-.2798638-2.435303-.8395996-.633955-.5597359-.950928-1.2694456-.950928-2.1291504 0-1.0452526.397376-1.8570121 1.192139-2.4353028.794763-.5782906 1.912672-.8674316 3.35376-.8674316h1.669922v-.7885742c0-.5999379-.179361-1.0777163-.538086-1.4333496-.358726-.3556333-.887529-.5334473-1.586426-.5334473-.612308 0-1.125649.1546209-1.540039.4638672s-.621582.6834288-.621582 1.1225586h-1.725586c0-.5009791.177814-.9849423.533447-1.4519043s.838051-.8365058 1.447266-1.1086426 1.278723-.4082031 2.008545-.4082031c1.156581 0 2.062659.289141 2.718261.8674316.655603.5782907.995769 1.3745881 1.020508 2.388916v4.6201172c0 .9215541.117512 1.6544569.352539 2.1987305v.1484375zm-2.848145-1.3081055c.538089 0 1.048338-.1391587 1.530762-.4174804s.831867-.6401345 1.04834-1.0854493v-2.0595703h-1.345215c-2.102875 0-3.154297.615391-3.154297 1.8461914 0 .5380887.17936.9586574.538086 1.2617188s.819496.4545898 1.382324.4545898zm8.850586 1.3081055h-1.716309v-10.0380859h1.716309zm-1.855469-12.7006836c0-.2783217.085042-.5133454.255127-.7050781.170086-.1917327.422118-.2875977.756104-.2875977s.587564.095865.760742.2875977.259766.4267564.259766.7050781-.086588.510253-.259766.6958008-.426756.2783203-.760742.2783203-.586018-.0927725-.756104-.2783203c-.170085-.1855478-.255127-.4174791-.255127-.6958008zm6.466309 12.7006836h-1.716309v-14.25h1.716309z" fill="#999"/><g stroke="#aab3bc" stroke-linecap="square" transform="translate(334 28)"><path d="m0 2v11h17v-11"/><path d="m17 3.07692308v-3.07692308h-17v3.07692308l8.5 4.92307692z"/></g></g></svg>