<?xml version="1.0" encoding="UTF-8" standalone="no"?>
<svg xmlns="http://www.w3.org/2000/svg" viewBox="0 0 32 32">
  <defs>
    <path id="star" d="m 16,2 0,0 4.326,9.216974 L 30,12.695307 23,19.86932 24.652,30 16,25.216974 7.348,30 9,19.86932 2,12.695307 11.674,11.216974 Z" />
    <path id="star2" d="m 30,12.850524 c 0,-0.435279 -0.313936,-0.705755 -0.942634,-0.811651 L 20.610627,10.751015 16.824599,2.723296 C 16.61166,2.2410269 16.336553,2 16.000104,2 15.663655,2 15.388753,2.2410269 15.175608,2.723296 l -3.786235,8.027719 -8.4471519,1.287858 C 2.3141425,12.144761 2,12.415245 2,12.850524 c 0,0.247088 0.1402381,0.529479 0.4207156,0.846947 L 8.5457735,19.943154 7.09795,28.764766 c -0.022513,0.164793 -0.033664,0.282606 -0.033664,0.352985 0,0.24709 0.058863,0.455634 0.1765891,0.626496 C 7.3585992,29.914885 7.5351891,30 7.7708476,30 c 0.2019931,0 0.4262923,-0.07015 0.6731038,-0.211575 l 7.5551176,-4.16415 7.555743,4.16415 C 23.790675,29.929629 24.014973,30 24.227708,30 c 0.224918,0 0.395725,-0.0849 0.51345,-0.255753 0.117512,-0.170653 0.176382,-0.379406 0.176382,-0.626496 0,-0.152891 -0.0055,-0.270476 -0.01694,-0.352985 l -1.447819,-8.821612 6.108121,-6.245683 c 0.292044,-0.305776 0.437653,-0.588165 0.437653,-0.846947" />
    <path id="heart" d="M 10.082141,2.0013769 A 8.2007265,8.9706933 0 0 0 8.0782727,2.3060707 8.2007265,8.9706933 0 0 0 2.2795526,8.6479986 8.2007265,8.9706933 0 0 0 4.40256,17.314192 L 16,30 27.59744,17.314192 A 8.2007272,8.9706925 0 0 0 29.720447,8.6479986 8.2007272,8.9706925 0 0 0 23.921728,2.3060707 8.2007272,8.9706925 0 0 0 16,4.6264309 8.2007265,8.9706933 0 0 0 10.082141,2.0013769 Z" />
    <path id="check" d="M 29.72,8.9416667 25.986667,5.275 C 25.613333,4.9083333 25.053333,4.9083333 24.68,5.275 L 12.266667,17.466667 7.32,12.608333 c -0.3733333,-0.366666 -0.9333333,-0.366666 -1.3066667,0 L 2.28,16.275 c -0.3733333,0.366667 -0.3733333,0.916667 0,1.283333 L 11.613333,26.725 C 11.8,26.908333 12.08,27 12.266667,27 12.453333,27 12.733333,26.908333 12.92,26.725 l 16.8,-16.5 c 0.373333,-0.3666667 0.373333,-0.9166667 0,-1.2833333 z" />
  </defs>
</svg>
