<svg width="530px" height="183px" viewBox="0 0 530 183" version="1.1" xmlns="http://www.w3.org/2000/svg" xmlns:xlink="http://www.w3.org/1999/xlink">
    <defs>
        <path d="M10,0 L450,0 C455.522847,-1.01453063e-15 460,4.4771525 460,10 L460,103 C460,108.522847 455.522847,113 450,113 L10,113 C4.4771525,113 6.76353751e-16,108.522847 0,103 L0,10 C-6.76353751e-16,4.4771525 4.4771525,1.01453063e-15 10,0 Z" id="path-1"></path>
        <filter x="-12.8%" y="-40.7%" width="125.7%" height="204.4%" filterUnits="objectBoundingBox" id="filter-2">
            <feMorphology radius="0.5" operator="erode" in="SourceAlpha" result="shadowSpreadOuter1"></feMorphology>
            <feOffset dx="0" dy="13" in="shadowSpreadOuter1" result="shadowOffsetOuter1"></feOffset>
            <feGaussianBlur stdDeviation="18" in="shadowOffsetOuter1" result="shadowBlurOuter1"></feGaussianBlur>
            <feComposite in="shadowBlurOuter1" in2="SourceAlpha" operator="out" result="shadowBlurOuter1"></feComposite>
            <feColorMatrix values="0 0 0 0 0   0 0 0 0 0   0 0 0 0 0  0 0 0 0.11 0" type="matrix" in="shadowBlurOuter1"></feColorMatrix>
        </filter>
    </defs>
    <g id="Page-1" stroke="none" stroke-width="1" fill="none" fill-rule="evenodd">
        <g id="Style-13" transform="translate(35.000000, 22.000000)">
            <g id="Rectangle">
                <use fill="black" fill-opacity="1" filter="url(#filter-2)" xlink:href="#path-1"></use>
                <path stroke-opacity="0.2" stroke="#000000" stroke-width="1" d="M10,0.5 C4.75329488,0.5 0.5,4.75329488 0.5,10 L0.5,103 C0.5,108.246705 4.75329488,112.5 10,112.5 L450,112.5 C455.246705,112.5 459.5,108.246705 459.5,103 L459.5,10 C459.5,4.75329488 455.246705,0.5 450,0.5 L10,0.5 Z" stroke-linejoin="square" fill="#FFE703" fill-rule="evenodd"></path>
            </g>
            <g id="Title-Text" transform="translate(42.000000, 27.000000)">
                <g id="lock-circle-open-2" fill="#111111" fill-rule="nonzero">
                    <path d="M12,11.25 C10.0352727,11.25 8.184,11.7495 6.54545455,12.61575 L6.54545455,7.875 C6.54545455,4.773375 8.99236364,2.25 12,2.25 C15.0076364,2.25 17.4545455,4.773375 17.4545455,7.875 L19.6363636,7.875 C19.6363636,3.5325 16.2098182,0 12,0 C7.79018182,0 4.36363636,3.5325 4.36363636,7.875 L4.36363636,14.086125 C1.70072727,16.358625 0,19.791 0,23.625 C0,30.448125 5.38363636,36 12,36 C18.6163636,36 24,30.448125 24,23.625 C24,16.801875 18.6163636,11.25 12,11.25 Z M13.0909091,25.71525 L13.0909091,29.25 L10.9090909,29.25 L10.9090909,25.71525 C9.03163636,25.212375 7.63636364,23.46525 7.63636364,21.375 C7.63636364,18.89325 9.59345455,16.875 12,16.875 C14.4065455,16.875 16.3636364,18.89325 16.3636364,21.375 C16.3636364,23.46525 14.9683636,25.212375 13.0909091,25.71525 Z" id="Shape"></path>
                </g>
                <path d="M63.396,18.497 C63.396,20.5110101 63.0603367,22.3603249 62.389,24.045 C61.7176633,25.7296751 60.7740061,27.1799939 59.558,28.396 C58.3419939,29.6120061 56.8790086,30.5556633 55.169,31.227 C53.4589915,31.8983367 51.5653437,32.234 49.488,32.234 L39,32.234 L39,4.76 L49.488,4.76 C51.5653437,4.76 53.4589915,5.09882994 55.169,5.7765 C56.8790086,6.45417005 58.3419939,7.39782728 59.558,8.6075 C60.7740061,9.81717271 61.7176633,11.2643249 62.389,12.949 C63.0603367,14.6336751 63.396,16.4829899 63.396,18.497 Z M58.171,18.497 C58.171,16.9896591 57.9683354,15.637506 57.563,14.4405 C57.1576646,13.243494 56.5813371,12.2301708 55.834,11.4005 C55.0866629,10.5708292 54.1778387,9.93433555 53.1075,9.491 C52.0371613,9.04766445 50.8306734,8.826 49.488,8.826 L44.149,8.826 L44.149,28.168 L49.488,28.168 C50.8306734,28.168 52.0371613,27.9463356 53.1075,27.503 C54.1778387,27.0596644 55.0866629,26.4231708 55.834,25.5935 C56.5813371,24.7638292 57.1576646,23.750506 57.563,22.5535 C57.9683354,21.356494 58.171,20.0043409 58.171,18.497 Z M75.195,12.436 C76.4236728,12.436 77.5541615,12.6323314 78.5865,13.025 C79.6188385,13.4176686 80.5086629,13.9908296 81.256,14.7445 C82.0033371,15.4981704 82.5859979,16.4228279 83.004,17.5185 C83.4220021,18.6141721 83.631,19.864993 83.631,21.271 C83.631,21.6256684 83.6151668,21.9201655 83.5835,22.1545 C83.5518332,22.3888345 83.4948337,22.5724993 83.4125,22.7055 C83.3301663,22.8385007 83.219334,22.9334997 83.08,22.9905 C82.940666,23.0475003 82.7633344,23.076 82.548,23.076 L70.502,23.076 C70.641334,25.0773433 71.179662,26.546662 72.117,27.484 C73.054338,28.421338 74.2956589,28.89 75.841,28.89 C76.6010038,28.89 77.2564972,28.8013342 77.8075,28.624 C78.3585028,28.4466658 78.8398313,28.2503344 79.2515,28.035 C79.6631687,27.8196656 80.0241651,27.6233342 80.3345,27.446 C80.6448349,27.2686658 80.9456652,27.18 81.237,27.18 C81.427001,27.18 81.591666,27.2179996 81.731,27.294 C81.870334,27.3700004 81.9906662,27.477666 82.092,27.617 L83.46,29.327 C82.9406641,29.935003 82.3580032,30.4448313 81.712,30.8565 C81.0659968,31.2681687 80.3915035,31.5974988 79.6885,31.8445 C78.9854965,32.0915012 78.269837,32.2656662 77.5415,32.367 C76.813163,32.4683338 76.1070034,32.519 75.423,32.519 C74.0676599,32.519 72.8073392,32.2941689 71.642,31.8445 C70.4766608,31.3948311 69.4633376,30.7298377 68.602,29.8495 C67.7406624,28.9691623 67.0630025,27.8798398 66.569,26.5815 C66.0749975,25.2831602 65.828,23.7790086 65.828,22.069 C65.828,20.7389934 66.0433312,19.4881725 66.474,18.3165 C66.9046688,17.1448275 67.5221626,16.125171 68.3265,15.2575 C69.1308374,14.389829 70.1124942,13.7026692 71.2715,13.196 C72.4305058,12.6893308 73.7383261,12.436 75.195,12.436 Z M75.29,15.799 C73.9219932,15.799 72.8516705,16.1853295 72.079,16.958 C71.3063295,17.7306705 70.8123344,18.8263262 70.597,20.245 L79.413,20.245 C79.413,19.636997 79.3306675,19.063836 79.166,18.5255 C79.0013325,17.987164 78.7480017,17.5153354 78.406,17.11 C78.0639983,16.7046646 77.6333359,16.3848345 77.114,16.1505 C76.5946641,15.9161655 75.9866702,15.799 75.29,15.799 Z M88.286,32.234 L88.286,16.274 L86.595,16.008 C86.2276648,15.9446663 85.9331678,15.818001 85.7115,15.628 C85.4898322,15.4379991 85.379,15.1720017 85.379,14.83 L85.379,12.911 L88.286,12.911 L88.286,11.467 C88.286,10.3523278 88.4538317,9.3516711 88.7895,8.465 C89.1251683,7.5783289 89.6064969,6.82466977 90.2335,6.204 C90.8605031,5.58333023 91.6236622,5.10833498 92.523,4.779 C93.4223378,4.44966502 94.435661,4.285 95.563,4.285 C96.4623378,4.285 97.2983295,4.40533213 98.071,4.646 L97.976,7.002 C97.9506665,7.36933517 97.7796683,7.59733289 97.463,7.686 C97.1463318,7.77466711 96.7790021,7.819 96.361,7.819 C95.8036639,7.819 95.3065022,7.87916607 94.8695,7.9995 C94.4324978,8.11983394 94.0620015,8.32883184 93.758,8.6265 C93.4539985,8.92416816 93.2228341,9.3168309 93.0645,9.8045 C92.9061659,10.2921691 92.827,10.8969964 92.827,11.619 L92.827,12.911 L97.9,12.911 L97.9,16.255 L92.979,16.255 L92.979,32.234 L88.286,32.234 Z M116.045,32.234 L113.936,32.234 C113.492664,32.234 113.144335,32.1675007 112.891,32.0345 C112.637665,31.9014993 112.447667,31.6323354 112.321,31.227 L111.903,29.84 C111.408998,30.2833356 110.924502,30.6728317 110.4495,31.0085 C109.974498,31.3441683 109.483669,31.6259989 108.977,31.854 C108.470331,32.0820011 107.932003,32.2529994 107.362,32.367 C106.791997,32.4810006 106.15867,32.538 105.462,32.538 C104.638663,32.538 103.87867,32.4271678 103.182,32.2055 C102.48533,31.9838322 101.886836,31.6513356 101.3865,31.208 C100.886164,30.7646645 100.496668,30.21367 100.218,29.555 C99.9393319,28.89633 99.8,28.1300044 99.8,27.256 C99.8,26.5213297 99.9931647,25.7961702 100.3795,25.0805 C100.765835,24.3648298 101.408662,23.7188362 102.308,23.1425 C103.207338,22.5661638 104.404326,22.0880019 105.899,21.708 C107.393674,21.3279981 109.249322,21.1126669 111.466,21.062 L111.466,19.922 C111.466,18.6173268 111.190503,17.6515031 110.6395,17.0245 C110.088497,16.3974969 109.287339,16.084 108.236,16.084 C107.475996,16.084 106.842669,16.1726658 106.336,16.35 C105.829331,16.5273342 105.389169,16.7268322 105.0155,16.9485 C104.641831,17.1701678 104.296668,17.3696658 103.98,17.547 C103.663332,17.7243342 103.315002,17.813 102.935,17.813 C102.618332,17.813 102.346001,17.7306675 102.118,17.566 C101.889999,17.4013325 101.706334,17.1986679 101.567,16.958 L100.712,15.457 C102.954011,13.4049897 105.658318,12.379 108.825,12.379 C109.965006,12.379 110.981496,12.5658315 111.8745,12.9395 C112.767504,13.3131685 113.52433,13.8324967 114.145,14.4975 C114.76567,15.1625033 115.237498,15.9573287 115.5605,16.882 C115.883502,17.8066713 116.045,18.8199945 116.045,19.922 L116.045,32.234 Z M106.925,29.308 C107.406336,29.308 107.849665,29.2636671 108.255,29.175 C108.660335,29.0863329 109.043498,28.9533342 109.4045,28.776 C109.765502,28.5986658 110.113832,28.380168 110.4495,28.1205 C110.785168,27.860832 111.123998,27.5536684 111.466,27.199 L111.466,23.912 C110.097993,23.9753337 108.954838,24.0924991 108.0365,24.2635 C107.118162,24.4345009 106.380336,24.6529987 105.823,24.919 C105.265664,25.1850013 104.869835,25.4953316 104.6355,25.85 C104.401165,26.2046684 104.284,26.5909979 104.284,27.009 C104.284,27.8323375 104.527831,28.4213316 105.0155,28.776 C105.503169,29.1306684 106.139663,29.308 106.925,29.308 Z M124.956,12.74 L124.956,25.128 C124.956,26.3186726 125.231497,27.2401634 125.7825,27.8925 C126.333503,28.5448366 127.159994,28.871 128.262,28.871 C129.072671,28.871 129.832663,28.6905018 130.542,28.3295 C131.251337,27.9684982 131.922664,27.4713365 132.556,26.838 L132.556,12.74 L137.249,12.74 L137.249,32.234 L134.38,32.234 C133.771997,32.234 133.373001,31.9490028 133.183,31.379 L132.86,29.821 C132.454665,30.2263354 132.036669,30.5968317 131.606,30.9325 C131.175331,31.2681683 130.716169,31.5531655 130.2285,31.7875 C129.740831,32.0218345 129.215169,32.2054993 128.6515,32.3385 C128.087831,32.4715007 127.483003,32.538 126.837,32.538 C125.772995,32.538 124.832504,32.3575018 124.0155,31.9965 C123.198496,31.6354982 122.511336,31.12567 121.954,30.467 C121.396664,29.80833 120.975501,29.0261712 120.6905,28.1205 C120.405499,27.2148288 120.263,26.2173388 120.263,25.128 L120.263,12.74 L124.956,12.74 Z M147.262,4 L147.262,32.234 L142.569,32.234 L142.569,4 L147.262,4 Z M158.966,32.538 C157.281325,32.538 155.983005,32.0598381 155.071,31.1035 C154.158995,30.1471619 153.703,28.8266751 153.703,27.142 L153.703,16.255 L151.727,16.255 C151.473665,16.255 151.255168,16.1726675 151.0715,16.008 C150.887832,15.8433325 150.796,15.596335 150.796,15.267 L150.796,13.405 L153.931,12.892 L154.919,7.572 C154.969667,7.3186654 155.086832,7.12233403 155.2705,6.983 C155.454168,6.84366597 155.685332,6.774 155.964,6.774 L158.396,6.774 L158.396,12.911 L163.526,12.911 L163.526,16.255 L158.396,16.255 L158.396,26.819 C158.396,27.427003 158.547998,27.9019983 158.852,28.244 C159.156002,28.5860017 159.561331,28.757 160.068,28.757 C160.359335,28.757 160.603166,28.722167 160.7995,28.6525 C160.995834,28.582833 161.166833,28.5100004 161.3125,28.434 C161.458167,28.3579996 161.587999,28.285167 161.702,28.2155 C161.816001,28.145833 161.929999,28.111 162.044,28.111 C162.183334,28.111 162.297333,28.145833 162.386,28.2155 C162.474667,28.285167 162.569666,28.389666 162.671,28.529 L164.077,30.809 C163.392997,31.3790028 162.607671,31.8096652 161.721,32.101 C160.834329,32.3923348 159.916005,32.538 158.966,32.538 Z M174.869,32.234 L174.869,4.76 L184.35,4.76 C186.148676,4.76 187.684494,4.93099829 188.9575,5.273 C190.230506,5.61500171 191.275496,6.1026635 192.0925,6.736 C192.909504,7.3693365 193.507998,8.13566217 193.888,9.035 C194.268002,9.93433783 194.458,10.947661 194.458,12.075 C194.458,12.7210032 194.363001,13.3384971 194.173,13.9275 C193.982999,14.5165029 193.688502,15.0674974 193.2895,15.5805 C192.890498,16.0935026 192.383836,16.5589979 191.7695,16.977 C191.155164,17.3950021 190.423671,17.7496652 189.575,18.041 C193.349686,18.8896709 195.237,20.9289839 195.237,24.159 C195.237,25.3243392 195.015336,26.4009951 194.572,27.389 C194.128664,28.3770049 193.482671,29.2288298 192.634,29.9445 C191.785329,30.6601702 190.74034,31.2206646 189.499,31.626 C188.25766,32.0313354 186.839008,32.234 185.243,32.234 L174.869,32.234 Z M179.98,20.188 L179.98,28.244 L185.167,28.244 C186.117005,28.244 186.91183,28.1300011 187.5515,27.902 C188.19117,27.6739989 188.704165,27.3700019 189.0905,26.99 C189.476835,26.6099981 189.755499,26.1666692 189.9265,25.66 C190.097501,25.1533308 190.183,24.6150029 190.183,24.045 C190.183,23.4496637 190.088001,22.9145024 189.898,22.4395 C189.707999,21.9644976 189.410335,21.5591683 189.005,21.2235 C188.599665,20.8878317 188.080337,20.6313342 187.447,20.454 C186.813664,20.2766658 186.047338,20.188 185.148,20.188 L179.98,20.188 Z M179.98,16.654 L184.065,16.654 C185.800342,16.654 187.117662,16.3373365 188.017,15.704 C188.916338,15.0706635 189.366,14.0636736 189.366,12.683 C189.366,11.2516595 188.960671,10.232003 188.15,9.624 C187.339329,9.01599696 186.072675,8.712 184.35,8.712 L179.98,8.712 L179.98,16.654 Z M203.654,12.74 L203.654,25.128 C203.654,26.3186726 203.929497,27.2401634 204.4805,27.8925 C205.031503,28.5448366 205.857994,28.871 206.96,28.871 C207.770671,28.871 208.530663,28.6905018 209.24,28.3295 C209.949337,27.9684982 210.620664,27.4713365 211.254,26.838 L211.254,12.74 L215.947,12.74 L215.947,32.234 L213.078,32.234 C212.469997,32.234 212.071001,31.9490028 211.881,31.379 L211.558,29.821 C211.152665,30.2263354 210.734669,30.5968317 210.304,30.9325 C209.873331,31.2681683 209.414169,31.5531655 208.9265,31.7875 C208.438831,32.0218345 207.913169,32.2054993 207.3495,32.3385 C206.785831,32.4715007 206.181003,32.538 205.535,32.538 C204.470995,32.538 203.530504,32.3575018 202.7135,31.9965 C201.896496,31.6354982 201.209336,31.12567 200.652,30.467 C200.094664,29.80833 199.673501,29.0261712 199.3885,28.1205 C199.103499,27.2148288 198.961,26.2173388 198.961,25.128 L198.961,12.74 L203.654,12.74 Z M227.366,32.538 C225.681325,32.538 224.383005,32.0598381 223.471,31.1035 C222.558995,30.1471619 222.103,28.8266751 222.103,27.142 L222.103,16.255 L220.127,16.255 C219.873665,16.255 219.655168,16.1726675 219.4715,16.008 C219.287832,15.8433325 219.196,15.596335 219.196,15.267 L219.196,13.405 L222.331,12.892 L223.319,7.572 C223.369667,7.3186654 223.486832,7.12233403 223.6705,6.983 C223.854168,6.84366597 224.085332,6.774 224.364,6.774 L226.796,6.774 L226.796,12.911 L231.926,12.911 L231.926,16.255 L226.796,16.255 L226.796,26.819 C226.796,27.427003 226.947998,27.9019983 227.252,28.244 C227.556002,28.5860017 227.961331,28.757 228.468,28.757 C228.759335,28.757 229.003166,28.722167 229.1995,28.6525 C229.395834,28.582833 229.566833,28.5100004 229.7125,28.434 C229.858167,28.3579996 229.987999,28.285167 230.102,28.2155 C230.216001,28.145833 230.329999,28.111 230.444,28.111 C230.583334,28.111 230.697333,28.145833 230.786,28.2155 C230.874667,28.285167 230.969666,28.389666 231.071,28.529 L232.477,30.809 C231.792997,31.3790028 231.007671,31.8096652 230.121,32.101 C229.234329,32.3923348 228.316005,32.538 227.366,32.538 Z M242.072,32.538 C240.387325,32.538 239.089005,32.0598381 238.177,31.1035 C237.264995,30.1471619 236.809,28.8266751 236.809,27.142 L236.809,16.255 L234.833,16.255 C234.579665,16.255 234.361168,16.1726675 234.1775,16.008 C233.993832,15.8433325 233.902,15.596335 233.902,15.267 L233.902,13.405 L237.037,12.892 L238.025,7.572 C238.075667,7.3186654 238.192832,7.12233403 238.3765,6.983 C238.560168,6.84366597 238.791332,6.774 239.07,6.774 L241.502,6.774 L241.502,12.911 L246.632,12.911 L246.632,16.255 L241.502,16.255 L241.502,26.819 C241.502,27.427003 241.653998,27.9019983 241.958,28.244 C242.262002,28.5860017 242.667331,28.757 243.174,28.757 C243.465335,28.757 243.709166,28.722167 243.9055,28.6525 C244.101834,28.582833 244.272833,28.5100004 244.4185,28.434 C244.564167,28.3579996 244.693999,28.285167 244.808,28.2155 C244.922001,28.145833 245.035999,28.111 245.15,28.111 C245.289334,28.111 245.403333,28.145833 245.492,28.2155 C245.580667,28.285167 245.675666,28.389666 245.777,28.529 L247.183,30.809 C246.498997,31.3790028 245.713671,31.8096652 244.827,32.101 C243.940329,32.3923348 243.022005,32.538 242.072,32.538 Z M258.697,12.436 C260.153674,12.436 261.474161,12.670331 262.6585,13.139 C263.842839,13.607669 264.852996,14.2726624 265.689,15.134 C266.525004,15.9953376 267.170998,17.0466605 267.627,18.288 C268.083002,19.5293395 268.311,20.9163257 268.311,22.449 C268.311,23.9943411 268.083002,25.3876605 267.627,26.629 C267.170998,27.8703395 266.525004,28.9279956 265.689,29.802 C264.852996,30.6760044 263.842839,31.347331 262.6585,31.816 C261.474161,32.284669 260.153674,32.519 258.697,32.519 C257.240326,32.519 255.916673,32.284669 254.726,31.816 C253.535327,31.347331 252.518838,30.6760044 251.6765,29.802 C250.834162,28.9279956 250.181836,27.8703395 249.7195,26.629 C249.257164,25.3876605 249.026,23.9943411 249.026,22.449 C249.026,20.9163257 249.257164,19.5293395 249.7195,18.288 C250.181836,17.0466605 250.834162,15.9953376 251.6765,15.134 C252.518838,14.2726624 253.535327,13.607669 254.726,13.139 C255.916673,12.670331 257.240326,12.436 258.697,12.436 Z M258.697,28.909 C260.318341,28.909 261.518496,28.3643388 262.2975,27.275 C263.076504,26.1856612 263.466,24.5896772 263.466,22.487 C263.466,20.3843228 263.076504,18.7820055 262.2975,17.68 C261.518496,16.5779945 260.318341,16.027 258.697,16.027 C257.050325,16.027 255.834337,16.5811611 255.049,17.6895 C254.263663,18.7978389 253.871,20.3969896 253.871,22.487 C253.871,24.5770105 254.263663,26.1698279 255.049,27.2655 C255.834337,28.3611721 257.050325,28.909 258.697,28.909 Z M271.978,32.234 L271.978,12.74 L274.847,12.74 C275.455003,12.74 275.853999,13.0249972 276.044,13.595 L276.367,15.134 C276.759669,14.7286646 277.174498,14.361335 277.6115,14.032 C278.048502,13.702665 278.510831,13.4176679 278.9985,13.177 C279.486169,12.9363321 280.008664,12.7526673 280.566,12.626 C281.123336,12.4993327 281.73133,12.436 282.39,12.436 C283.454005,12.436 284.397663,12.6164982 285.221,12.9775 C286.044337,13.3385018 286.731497,13.8451634 287.2825,14.4975 C287.833503,15.1498366 288.251499,15.9288288 288.5365,16.8345 C288.821501,17.7401712 288.964,18.7376612 288.964,19.827 L288.964,32.234 L284.271,32.234 L284.271,19.827 C284.271,18.6363274 283.995503,17.7148366 283.4445,17.0625 C282.893497,16.4101634 282.067006,16.084 280.965,16.084 C280.154329,16.084 279.394337,16.2676648 278.685,16.635 C277.975663,17.0023352 277.304337,17.5026635 276.671,18.136 L276.671,32.234 L271.978,32.234 Z M320.542,4.76 L320.542,8.959 L312.277,8.959 L312.277,32.234 L307.166,32.234 L307.166,8.959 L298.863,8.959 L298.863,4.76 L320.542,4.76 Z M331.581,12.436 C332.809673,12.436 333.940162,12.6323314 334.9725,13.025 C336.004838,13.4176686 336.894663,13.9908296 337.642,14.7445 C338.389337,15.4981704 338.971998,16.4228279 339.39,17.5185 C339.808002,18.6141721 340.017,19.864993 340.017,21.271 C340.017,21.6256684 340.001167,21.9201655 339.9695,22.1545 C339.937833,22.3888345 339.880834,22.5724993 339.7985,22.7055 C339.716166,22.8385007 339.605334,22.9334997 339.466,22.9905 C339.326666,23.0475003 339.149334,23.076 338.934,23.076 L326.888,23.076 C327.027334,25.0773433 327.565662,26.546662 328.503,27.484 C329.440338,28.421338 330.681659,28.89 332.227,28.89 C332.987004,28.89 333.642497,28.8013342 334.1935,28.624 C334.744503,28.4466658 335.225831,28.2503344 335.6375,28.035 C336.049169,27.8196656 336.410165,27.6233342 336.7205,27.446 C337.030835,27.2686658 337.331665,27.18 337.623,27.18 C337.813001,27.18 337.977666,27.2179996 338.117,27.294 C338.256334,27.3700004 338.376666,27.477666 338.478,27.617 L339.846,29.327 C339.326664,29.935003 338.744003,30.4448313 338.098,30.8565 C337.451997,31.2681687 336.777504,31.5974988 336.0745,31.8445 C335.371496,32.0915012 334.655837,32.2656662 333.9275,32.367 C333.199163,32.4683338 332.493003,32.519 331.809,32.519 C330.45366,32.519 329.193339,32.2941689 328.028,31.8445 C326.862661,31.3948311 325.849338,30.7298377 324.988,29.8495 C324.126662,28.9691623 323.449002,27.8798398 322.955,26.5815 C322.460998,25.2831602 322.214,23.7790086 322.214,22.069 C322.214,20.7389934 322.429331,19.4881725 322.86,18.3165 C323.290669,17.1448275 323.908163,16.125171 324.7125,15.2575 C325.516837,14.389829 326.498494,13.7026692 327.6575,13.196 C328.816506,12.6893308 330.124326,12.436 331.581,12.436 Z M331.676,15.799 C330.307993,15.799 329.237671,16.1853295 328.465,16.958 C327.692329,17.7306705 327.198334,18.8263262 326.983,20.245 L335.799,20.245 C335.799,19.636997 335.716667,19.063836 335.552,18.5255 C335.387333,17.987164 335.134002,17.5153354 334.792,17.11 C334.449998,16.7046646 334.019336,16.3848345 333.5,16.1505 C332.980664,15.9161655 332.37267,15.799 331.676,15.799 Z M348.453,22.183 L342.05,12.74 L346.572,12.74 C346.914002,12.74 347.167333,12.7874995 347.332,12.8825 C347.496667,12.9775005 347.642333,13.1326656 347.769,13.348 L351.854,19.865 C351.917334,19.6496656 351.9965,19.4343344 352.0915,19.219 C352.1865,19.0036656 352.303666,18.7883344 352.443,18.573 L355.73,13.443 C355.882001,13.2023321 356.040333,13.0250006 356.205,12.911 C356.369667,12.7969994 356.572332,12.74 356.813,12.74 L361.126,12.74 L354.704,21.974 L361.392,32.234 L356.87,32.234 C356.527998,32.234 356.252501,32.1453342 356.0435,31.968 C355.834499,31.7906658 355.660334,31.5880011 355.521,31.36 L351.379,24.577 C351.264999,25.0330023 351.106668,25.4129985 350.904,25.717 L347.256,31.36 C347.116666,31.5753344 346.945668,31.7748324 346.743,31.9585 C346.540332,32.1421676 346.287002,32.234 345.983,32.234 L341.784,32.234 L348.453,22.183 Z M370.759,32.538 C369.074325,32.538 367.776005,32.0598381 366.864,31.1035 C365.951995,30.1471619 365.496,28.8266751 365.496,27.142 L365.496,16.255 L363.52,16.255 C363.266665,16.255 363.048168,16.1726675 362.8645,16.008 C362.680832,15.8433325 362.589,15.596335 362.589,15.267 L362.589,13.405 L365.724,12.892 L366.712,7.572 C366.762667,7.3186654 366.879832,7.12233403 367.0635,6.983 C367.247168,6.84366597 367.478332,6.774 367.757,6.774 L370.189,6.774 L370.189,12.911 L375.319,12.911 L375.319,16.255 L370.189,16.255 L370.189,26.819 C370.189,27.427003 370.340998,27.9019983 370.645,28.244 C370.949002,28.5860017 371.354331,28.757 371.861,28.757 C372.152335,28.757 372.396166,28.722167 372.5925,28.6525 C372.788834,28.582833 372.959833,28.5100004 373.1055,28.434 C373.251167,28.3579996 373.380999,28.285167 373.495,28.2155 C373.609001,28.145833 373.722999,28.111 373.837,28.111 C373.976334,28.111 374.090333,28.145833 374.179,28.2155 C374.267667,28.285167 374.362666,28.389666 374.464,28.529 L375.87,30.809 C375.185997,31.3790028 374.400671,31.8096652 373.514,32.101 C372.627329,32.3923348 371.709005,32.538 370.759,32.538 Z" id="Default-Button-Text-Outlines" fill="#000000"></path>
            </g>
            <path d="M142.43,86.73 L140.93,86.73 C140.756666,86.73 140.616667,86.6866671 140.51,86.6 C140.403333,86.5133329 140.323334,86.403334 140.27,86.27 L138.93,82.81 L132.5,82.81 L131.16,86.27 C131.113333,86.3900006 131.033334,86.4966662 130.92,86.59 C130.806666,86.6833338 130.666667,86.73 130.5,86.73 L129,86.73 L134.73,72.4 L136.7,72.4 L142.43,86.73 Z M133.04,81.41 L138.39,81.41 L136.14,75.58 C135.993333,75.2199982 135.850001,74.7700027 135.71,74.23 C135.636666,74.5033347 135.565,74.7549989 135.495,74.985 C135.425,75.2150012 135.356667,75.4166658 135.29,75.59 L133.04,81.41 Z M151.09,86.73 C150.836665,86.73 150.676667,86.6066679 150.61,86.36 L150.45,85.13 C150.016664,85.6566693 149.521669,86.0783318 148.965,86.395 C148.408331,86.7116683 147.770004,86.87 147.05,86.87 C146.469997,86.87 145.943336,86.7583345 145.47,86.535 C144.996664,86.3116656 144.593335,85.9833355 144.26,85.55 C143.926665,85.1166645 143.670001,84.5766699 143.49,83.93 C143.309999,83.2833301 143.22,82.5400042 143.22,81.7 C143.22,80.9533296 143.319999,80.2583366 143.52,79.615 C143.720001,78.9716635 144.008331,78.4133357 144.385,77.94 C144.761669,77.4666643 145.219997,77.0950014 145.76,76.825 C146.300003,76.5549987 146.91333,76.42 147.6,76.42 C148.220003,76.42 148.749998,76.524999 149.19,76.735 C149.630002,76.9450011 150.023332,77.2399981 150.37,77.62 L150.37,72 L152.15,72 L152.15,86.73 L151.09,86.73 Z M147.64,85.43 C148.220003,85.43 148.728331,85.296668 149.165,85.03 C149.601669,84.763332 150.003332,84.3866691 150.37,83.9 L150.37,79 C150.043332,78.5599978 149.685002,78.2516676 149.295,78.075 C148.904998,77.8983325 148.473336,77.81 148,77.81 C147.053329,77.81 146.326669,78.1466633 145.82,78.82 C145.313331,79.4933367 145.06,80.4533271 145.06,81.7 C145.06,82.3600033 145.116666,82.9249977 145.23,83.395 C145.343334,83.8650024 145.509999,84.2516652 145.73,84.555 C145.950001,84.8583349 146.219998,85.0799993 146.54,85.22 C146.860002,85.3600007 147.226665,85.43 147.64,85.43 Z M162.27,86.73 C162.016665,86.73 161.856667,86.6066679 161.79,86.36 L161.63,85.13 C161.196664,85.6566693 160.701669,86.0783318 160.145,86.395 C159.588331,86.7116683 158.950004,86.87 158.23,86.87 C157.649997,86.87 157.123336,86.7583345 156.65,86.535 C156.176664,86.3116656 155.773335,85.9833355 155.44,85.55 C155.106665,85.1166645 154.850001,84.5766699 154.67,83.93 C154.489999,83.2833301 154.4,82.5400042 154.4,81.7 C154.4,80.9533296 154.499999,80.2583366 154.7,79.615 C154.900001,78.9716635 155.188331,78.4133357 155.565,77.94 C155.941669,77.4666643 156.399997,77.0950014 156.94,76.825 C157.480003,76.5549987 158.09333,76.42 158.78,76.42 C159.400003,76.42 159.929998,76.524999 160.37,76.735 C160.810002,76.9450011 161.203332,77.2399981 161.55,77.62 L161.55,72 L163.33,72 L163.33,86.73 L162.27,86.73 Z M158.82,85.43 C159.400003,85.43 159.908331,85.296668 160.345,85.03 C160.781669,84.763332 161.183332,84.3866691 161.55,83.9 L161.55,79 C161.223332,78.5599978 160.865002,78.2516676 160.475,78.075 C160.084998,77.8983325 159.653336,77.81 159.18,77.81 C158.233329,77.81 157.506669,78.1466633 157,78.82 C156.493331,79.4933367 156.24,80.4533271 156.24,81.7 C156.24,82.3600033 156.296666,82.9249977 156.41,83.395 C156.523334,83.8650024 156.689999,84.2516652 156.91,84.555 C157.130001,84.8583349 157.399998,85.0799993 157.72,85.22 C158.040002,85.3600007 158.406665,85.43 158.82,85.43 Z M175.98,81.03 L175.98,86.73 L174.05,86.73 L174.05,81.03 L168.8,72.4 L170.5,72.4 C170.673334,72.4 170.81,72.4433329 170.91,72.53 C171.010001,72.6166671 171.096666,72.7233327 171.17,72.85 L174.45,78.42 C174.583334,78.6533345 174.695,78.8733323 174.785,79.08 C174.875,79.2866677 174.956666,79.489999 175.03,79.69 C175.103334,79.4833323 175.183333,79.2766677 175.27,79.07 C175.356667,78.8633323 175.466666,78.6466678 175.6,78.42 L178.87,72.85 C178.93,72.7433328 179.011666,72.6416672 179.115,72.545 C179.218334,72.4483328 179.353333,72.4 179.52,72.4 L181.24,72.4 L175.98,81.03 Z M186.86,76.44 C187.600004,76.44 188.26833,76.5633321 188.865,76.81 C189.46167,77.0566679 189.968331,77.4066644 190.385,77.86 C190.801669,78.3133356 191.121666,78.8616635 191.345,79.505 C191.568334,80.1483365 191.68,80.8666627 191.68,81.66 C191.68,82.460004 191.568334,83.1799968 191.345,83.82 C191.121666,84.4600032 190.801669,85.0066644 190.385,85.46 C189.968331,85.9133356 189.46167,86.2616654 188.865,86.505 C188.26833,86.7483345 187.600004,86.87 186.86,86.87 C186.119996,86.87 185.45167,86.7483345 184.855,86.505 C184.25833,86.2616654 183.750002,85.9133356 183.33,85.46 C182.909998,85.0066644 182.586668,84.4600032 182.36,83.82 C182.133332,83.1799968 182.02,82.460004 182.02,81.66 C182.02,80.8666627 182.133332,80.1483365 182.36,79.505 C182.586668,78.8616635 182.909998,78.3133356 183.33,77.86 C183.750002,77.4066644 184.25833,77.0566679 184.855,76.81 C185.45167,76.5633321 186.119996,76.44 186.86,76.44 Z M186.86,85.48 C187.860005,85.48 188.606664,85.1450034 189.1,84.475 C189.593336,83.8049967 189.84,82.870006 189.84,81.67 C189.84,80.4633273 189.593336,79.5233367 189.1,78.85 C188.606664,78.1766633 187.860005,77.84 186.86,77.84 C186.353331,77.84 185.913335,77.9266658 185.54,78.1 C185.166665,78.2733342 184.855001,78.5233317 184.605,78.85 C184.354999,79.1766683 184.168334,79.578331 184.045,80.055 C183.921666,80.5316691 183.86,81.069997 183.86,81.67 C183.86,82.270003 183.921666,82.8066643 184.045,83.28 C184.168334,83.7533357 184.354999,84.1516651 184.605,84.475 C184.855001,84.798335 185.166665,85.0466658 185.54,85.22 C185.913335,85.3933342 186.353331,85.48 186.86,85.48 Z M195.42,76.6 L195.42,83.06 C195.42,83.8266705 195.596665,84.4199979 195.95,84.84 C196.303335,85.2600021 196.836663,85.47 197.55,85.47 C198.070003,85.47 198.559998,85.3466679 199.02,85.1 C199.480002,84.8533321 199.903331,84.5100022 200.29,84.07 L200.29,76.6 L202.07,76.6 L202.07,86.73 L201.01,86.73 C200.756665,86.73 200.596667,86.6066679 200.53,86.36 L200.39,85.27 C199.949998,85.7566691 199.456669,86.1483319 198.91,86.445 C198.363331,86.7416681 197.73667,86.89 197.03,86.89 C196.476664,86.89 195.988335,86.7983342 195.565,86.615 C195.141665,86.4316658 194.786668,86.173335 194.5,85.84 C194.213332,85.506665 193.998334,85.1033357 193.855,84.63 C193.711666,84.1566643 193.64,83.6333362 193.64,83.06 L193.64,76.6 L195.42,76.6 Z M205,86.73 L205,76.6 L206.02,76.6 C206.213334,76.6 206.346666,76.6366663 206.42,76.71 C206.493334,76.7833337 206.543333,76.9099991 206.57,77.09 L206.69,78.67 C207.036668,77.9633298 207.464997,77.4116687 207.975,77.015 C208.485003,76.6183314 209.08333,76.42 209.77,76.42 C210.050001,76.42 210.303332,76.4516663 210.53,76.515 C210.756668,76.5783337 210.966666,76.6666661 211.16,76.78 L210.93,78.11 C210.883333,78.2766675 210.780001,78.36 210.62,78.36 C210.526666,78.36 210.383334,78.3283337 210.19,78.265 C209.996666,78.2016663 209.726668,78.17 209.38,78.17 C208.759997,78.17 208.241669,78.3499982 207.825,78.71 C207.408331,79.0700018 207.060001,79.5933299 206.78,80.28 L206.78,86.73 L205,86.73 Z M224.54,74.64 C224.48,74.7400005 224.416667,74.8149997 224.35,74.865 C224.283333,74.9150003 224.196667,74.94 224.09,74.94 C223.976666,74.94 223.845001,74.8833339 223.695,74.77 C223.544999,74.6566661 223.355001,74.5316674 223.125,74.395 C222.894999,74.2583326 222.618335,74.1333339 222.295,74.02 C221.971665,73.9066661 221.580002,73.85 221.12,73.85 C220.686665,73.85 220.303335,73.9083327 219.97,74.025 C219.636665,74.1416673 219.358334,74.299999 219.135,74.5 C218.911666,74.700001 218.743334,74.9349986 218.63,75.205 C218.516666,75.4750013 218.46,75.7666651 218.46,76.08 C218.46,76.480002 218.558332,76.8116654 218.755,77.075 C218.951668,77.3383347 219.211665,77.5633324 219.535,77.75 C219.858335,77.9366676 220.224998,78.0983327 220.635,78.235 C221.045002,78.3716674 221.464998,78.5133326 221.895,78.66 C222.325002,78.8066674 222.744998,78.9716657 223.155,79.155 C223.565002,79.3383343 223.931665,79.5699986 224.255,79.85 C224.578335,80.1300014 224.838332,80.4733313 225.035,80.88 C225.231668,81.2866687 225.33,81.7866637 225.33,82.38 C225.33,83.0066698 225.223334,83.5949973 225.01,84.145 C224.796666,84.6950028 224.485002,85.1733313 224.075,85.58 C223.664998,85.9866687 223.16167,86.3066655 222.565,86.54 C221.96833,86.7733345 221.290004,86.89 220.53,86.89 C219.603329,86.89 218.758337,86.7216684 217.995,86.385 C217.231663,86.0483317 216.580003,85.5933362 216.04,85.02 L216.6,84.1 C216.653334,84.0266663 216.718333,83.9650003 216.795,83.915 C216.871667,83.8649997 216.956666,83.84 217.05,83.84 C217.190001,83.84 217.349999,83.9149993 217.53,84.065 C217.710001,84.2150008 217.934999,84.3799991 218.205,84.56 C218.475001,84.7400009 218.801665,84.9049993 219.185,85.055 C219.568335,85.2050007 220.036664,85.28 220.59,85.28 C221.050002,85.28 221.459998,85.2166673 221.82,85.09 C222.180002,84.9633327 222.484999,84.7850011 222.735,84.555 C222.985001,84.3249989 223.176666,84.0500016 223.31,83.73 C223.443334,83.4099984 223.51,83.0533353 223.51,82.66 C223.51,82.2266645 223.411668,81.871668 223.215,81.595 C223.018332,81.318332 222.760002,81.0866676 222.44,80.9 C222.119998,80.7133324 221.755002,80.5550006 221.345,80.425 C220.934998,80.2949993 220.515002,80.1616674 220.085,80.025 C219.654998,79.8883327 219.235002,79.7300009 218.825,79.55 C218.414998,79.3699991 218.050002,79.1366681 217.73,78.85 C217.409998,78.5633319 217.151668,78.2050021 216.955,77.775 C216.758332,77.3449979 216.66,76.8133365 216.66,76.18 C216.66,75.6733308 216.758332,75.1833357 216.955,74.71 C217.151668,74.2366643 217.436665,73.8166685 217.81,73.45 C218.183335,73.0833315 218.644997,72.7900011 219.195,72.57 C219.745003,72.3499989 220.376663,72.24 221.09,72.24 C221.890004,72.24 222.619997,72.3666654 223.28,72.62 C223.940003,72.8733346 224.516664,73.2399976 225.01,73.72 L224.54,74.64 Z M229.06,76.6 L229.06,83.06 C229.06,83.8266705 229.236665,84.4199979 229.59,84.84 C229.943335,85.2600021 230.476663,85.47 231.19,85.47 C231.710003,85.47 232.199998,85.3466679 232.66,85.1 C233.120002,84.8533321 233.543331,84.5100022 233.93,84.07 L233.93,76.6 L235.71,76.6 L235.71,86.73 L234.65,86.73 C234.396665,86.73 234.236667,86.6066679 234.17,86.36 L234.03,85.27 C233.589998,85.7566691 233.096669,86.1483319 232.55,86.445 C232.003331,86.7416681 231.37667,86.89 230.67,86.89 C230.116664,86.89 229.628335,86.7983342 229.205,86.615 C228.781665,86.4316658 228.426668,86.173335 228.14,85.84 C227.853332,85.506665 227.638334,85.1033357 227.495,84.63 C227.351666,84.1566643 227.28,83.6333362 227.28,83.06 L227.28,76.6 L229.06,76.6 Z M238.7,86.73 L238.7,72 L240.49,72 L240.49,78.06 C240.910002,77.5733309 241.391664,77.1816682 241.935,76.885 C242.478336,76.5883319 243.099997,76.44 243.8,76.44 C244.38667,76.44 244.916664,76.5499989 245.39,76.77 C245.863336,76.9900011 246.266665,77.3183312 246.6,77.755 C246.933335,78.1916688 247.189999,78.7316634 247.37,79.375 C247.550001,80.0183366 247.64,80.7599958 247.64,81.6 C247.64,82.3466704 247.540001,83.0416635 247.34,83.685 C247.139999,84.3283366 246.851669,84.8849977 246.475,85.355 C246.098331,85.8250024 245.638336,86.1949987 245.095,86.465 C244.551664,86.7350014 243.940003,86.87 243.26,86.87 C242.606663,86.87 242.051669,86.7433346 241.595,86.49 C241.138331,86.2366654 240.740002,85.8833356 240.4,85.43 L240.31,86.35 C240.256666,86.6033346 240.103335,86.73 239.85,86.73 L238.7,86.73 Z M243.22,77.86 C242.639997,77.86 242.131669,77.993332 241.695,78.26 C241.258331,78.526668 240.856669,78.9033309 240.49,79.39 L240.49,84.29 C240.810002,84.7300022 241.164998,85.0399991 241.555,85.22 C241.945002,85.4000009 242.379998,85.49 242.86,85.49 C243.806671,85.49 244.533331,85.1533367 245.04,84.48 C245.546669,83.8066633 245.8,82.8466729 245.8,81.6 C245.8,80.9399967 245.741667,80.3733357 245.625,79.9 C245.508333,79.4266643 245.340001,79.0383348 245.12,78.735 C244.899999,78.4316652 244.630002,78.2100007 244.31,78.07 C243.989998,77.9299993 243.626669,77.86 243.22,77.86 Z M252.89,86.89 C252.089996,86.89 251.475002,86.6666689 251.045,86.22 C250.614998,85.7733311 250.4,85.1300042 250.4,84.29 L250.4,78.09 L249.18,78.09 C249.073333,78.09 248.983334,78.0583337 248.91,77.995 C248.836666,77.9316664 248.8,77.833334 248.8,77.7 L248.8,76.99 L250.46,76.78 L250.87,73.65 C250.883333,73.5499995 250.926666,73.4683337 251,73.405 C251.073334,73.3416663 251.166666,73.31 251.28,73.31 L252.18,73.31 L252.18,76.8 L255.08,76.8 L255.08,78.09 L252.18,78.09 L252.18,84.17 C252.18,84.5966688 252.283332,84.9133323 252.49,85.12 C252.696668,85.3266677 252.963332,85.43 253.29,85.43 C253.476668,85.43 253.638333,85.4050003 253.775,85.355 C253.911667,85.3049998 254.03,85.2500003 254.13,85.19 C254.230001,85.1299997 254.315,85.0750003 254.385,85.025 C254.455,84.9749998 254.516666,84.95 254.57,84.95 C254.663334,84.95 254.746666,85.0066661 254.82,85.12 L255.34,85.97 C255.033332,86.2566681 254.663336,86.4816658 254.23,86.645 C253.796665,86.8083342 253.350002,86.89 252.89,86.89 Z M261.29,76.44 C261.89667,76.44 262.456664,76.5416656 262.97,76.745 C263.483336,76.9483344 263.926665,77.2416647 264.3,77.625 C264.673335,78.0083353 264.964999,78.4816639 265.175,79.045 C265.385001,79.6083361 265.49,80.2499964 265.49,80.97 C265.49,81.2500014 265.46,81.4366662 265.4,81.53 C265.34,81.6233338 265.226668,81.67 265.06,81.67 L258.32,81.67 C258.333333,82.3100032 258.419999,82.8666643 258.58,83.34 C258.740001,83.8133357 258.959999,84.2083317 259.24,84.525 C259.520001,84.8416683 259.853331,85.0783326 260.24,85.235 C260.626669,85.3916674 261.059998,85.47 261.54,85.47 C261.986669,85.47 262.371665,85.4183338 262.695,85.315 C263.018335,85.2116661 263.296666,85.1000006 263.53,84.98 C263.763335,84.8599994 263.958333,84.7483339 264.115,84.645 C264.271667,84.5416662 264.406666,84.49 264.52,84.49 C264.666667,84.49 264.78,84.5466661 264.86,84.66 L265.36,85.31 C265.139999,85.576668 264.876668,85.8083324 264.57,86.005 C264.263332,86.2016677 263.935002,86.3633327 263.585,86.49 C263.234998,86.6166673 262.873335,86.7116664 262.5,86.775 C262.126665,86.8383336 261.756669,86.87 261.39,86.87 C260.689997,86.87 260.045003,86.7516679 259.455,86.515 C258.864997,86.2783321 258.355002,85.931669 257.925,85.475 C257.494998,85.0183311 257.160001,84.4533367 256.92,83.78 C256.679999,83.1066633 256.56,82.3333377 256.56,81.46 C256.56,80.7533298 256.668332,80.0933364 256.885,79.48 C257.101668,78.8666636 257.413331,78.3350023 257.82,77.885 C258.226669,77.4349978 258.72333,77.081668 259.31,76.825 C259.89667,76.5683321 260.556663,76.44 261.29,76.44 Z M261.33,77.75 C260.469996,77.75 259.793336,77.9983309 259.3,78.495 C258.806664,78.9916692 258.500001,79.6799956 258.38,80.56 L263.89,80.56 C263.89,80.1466646 263.833334,79.7683351 263.72,79.425 C263.606666,79.081665 263.440001,78.7850013 263.22,78.535 C262.999999,78.2849987 262.731668,78.0916674 262.415,77.955 C262.098332,77.8183327 261.736669,77.75 261.33,77.75 Z M270.13,81.54 L266.72,76.6 L268.43,76.6 C268.576667,76.6 268.683333,76.6233331 268.75,76.67 C268.816667,76.7166669 268.876666,76.7833329 268.93,76.87 L271.41,80.67 C271.47,80.4833324 271.556666,80.2966676 271.67,80.11 L273.85,76.91 C273.916667,76.8166662 273.983333,76.741667 274.05,76.685 C274.116667,76.6283331 274.2,76.6 274.3,76.6 L275.94,76.6 L272.53,81.44 L276.08,86.73 L274.37,86.73 C274.223333,86.73 274.108334,86.6916671 274.025,86.615 C273.941666,86.5383329 273.873334,86.4533338 273.82,86.36 L271.27,82.39 C271.223333,82.5833343 271.153334,82.7566659 271.06,82.91 L268.7,86.36 C268.633333,86.4533338 268.561667,86.5383329 268.485,86.615 C268.408333,86.6916671 268.303334,86.73 268.17,86.73 L266.58,86.73 L270.13,81.54 Z M280.91,86.89 C280.109996,86.89 279.495002,86.6666689 279.065,86.22 C278.634998,85.7733311 278.42,85.1300042 278.42,84.29 L278.42,78.09 L277.2,78.09 C277.093333,78.09 277.003334,78.0583337 276.93,77.995 C276.856666,77.9316664 276.82,77.833334 276.82,77.7 L276.82,76.99 L278.48,76.78 L278.89,73.65 C278.903333,73.5499995 278.946666,73.4683337 279.02,73.405 C279.093334,73.3416663 279.186666,73.31 279.3,73.31 L280.2,73.31 L280.2,76.8 L283.1,76.8 L283.1,78.09 L280.2,78.09 L280.2,84.17 C280.2,84.5966688 280.303332,84.9133323 280.51,85.12 C280.716668,85.3266677 280.983332,85.43 281.31,85.43 C281.496668,85.43 281.658333,85.4050003 281.795,85.355 C281.931667,85.3049998 282.05,85.2500003 282.15,85.19 C282.250001,85.1299997 282.335,85.0750003 282.405,85.025 C282.475,84.9749998 282.536666,84.95 282.59,84.95 C282.683334,84.95 282.766666,85.0066661 282.84,85.12 L283.36,85.97 C283.053332,86.2566681 282.683336,86.4816658 282.25,86.645 C281.816665,86.8083342 281.370002,86.89 280.91,86.89 Z M301.06,86.73 L299.11,86.73 L299.11,80.21 L291.39,80.21 L291.39,86.73 L289.44,86.73 L289.44,72.4 L291.39,72.4 L291.39,78.79 L299.11,78.79 L299.11,72.4 L301.06,72.4 L301.06,86.73 Z M308.29,76.44 C308.89667,76.44 309.456664,76.5416656 309.97,76.745 C310.483336,76.9483344 310.926665,77.2416647 311.3,77.625 C311.673335,78.0083353 311.964999,78.4816639 312.175,79.045 C312.385001,79.6083361 312.49,80.2499964 312.49,80.97 C312.49,81.2500014 312.46,81.4366662 312.4,81.53 C312.34,81.6233338 312.226668,81.67 312.06,81.67 L305.32,81.67 C305.333333,82.3100032 305.419999,82.8666643 305.58,83.34 C305.740001,83.8133357 305.959999,84.2083317 306.24,84.525 C306.520001,84.8416683 306.853331,85.0783326 307.24,85.235 C307.626669,85.3916674 308.059998,85.47 308.54,85.47 C308.986669,85.47 309.371665,85.4183338 309.695,85.315 C310.018335,85.2116661 310.296666,85.1000006 310.53,84.98 C310.763335,84.8599994 310.958333,84.7483339 311.115,84.645 C311.271667,84.5416662 311.406666,84.49 311.52,84.49 C311.666667,84.49 311.78,84.5466661 311.86,84.66 L312.36,85.31 C312.139999,85.576668 311.876668,85.8083324 311.57,86.005 C311.263332,86.2016677 310.935002,86.3633327 310.585,86.49 C310.234998,86.6166673 309.873335,86.7116664 309.5,86.775 C309.126665,86.8383336 308.756669,86.87 308.39,86.87 C307.689997,86.87 307.045003,86.7516679 306.455,86.515 C305.864997,86.2783321 305.355002,85.931669 304.925,85.475 C304.494998,85.0183311 304.160001,84.4533367 303.92,83.78 C303.679999,83.1066633 303.56,82.3333377 303.56,81.46 C303.56,80.7533298 303.668332,80.0933364 303.885,79.48 C304.101668,78.8666636 304.413331,78.3350023 304.82,77.885 C305.226669,77.4349978 305.72333,77.081668 306.31,76.825 C306.89667,76.5683321 307.556663,76.44 308.29,76.44 Z M308.33,77.75 C307.469996,77.75 306.793336,77.9983309 306.3,78.495 C305.806664,78.9916692 305.500001,79.6799956 305.38,80.56 L310.89,80.56 C310.89,80.1466646 310.833334,79.7683351 310.72,79.425 C310.606666,79.081665 310.440001,78.7850013 310.22,78.535 C309.999999,78.2849987 309.731668,78.0916674 309.415,77.955 C309.098332,77.8183327 308.736669,77.75 308.33,77.75 Z M314.76,86.73 L314.76,76.6 L315.78,76.6 C315.973334,76.6 316.106666,76.6366663 316.18,76.71 C316.253334,76.7833337 316.303333,76.9099991 316.33,77.09 L316.45,78.67 C316.796668,77.9633298 317.224997,77.4116687 317.735,77.015 C318.245003,76.6183314 318.84333,76.42 319.53,76.42 C319.810001,76.42 320.063332,76.4516663 320.29,76.515 C320.516668,76.5783337 320.726666,76.6666661 320.92,76.78 L320.69,78.11 C320.643333,78.2766675 320.540001,78.36 320.38,78.36 C320.286666,78.36 320.143334,78.3283337 319.95,78.265 C319.756666,78.2016663 319.486668,78.17 319.14,78.17 C318.519997,78.17 318.001669,78.3499982 317.585,78.71 C317.168331,79.0700018 316.820001,79.5933299 316.54,80.28 L316.54,86.73 L314.76,86.73 Z M326.83,76.44 C327.43667,76.44 327.996664,76.5416656 328.51,76.745 C329.023336,76.9483344 329.466665,77.2416647 329.84,77.625 C330.213335,78.0083353 330.504999,78.4816639 330.715,79.045 C330.925001,79.6083361 331.03,80.2499964 331.03,80.97 C331.03,81.2500014 331,81.4366662 330.94,81.53 C330.88,81.6233338 330.766668,81.67 330.6,81.67 L323.86,81.67 C323.873333,82.3100032 323.959999,82.8666643 324.12,83.34 C324.280001,83.8133357 324.499999,84.2083317 324.78,84.525 C325.060001,84.8416683 325.393331,85.0783326 325.78,85.235 C326.166669,85.3916674 326.599998,85.47 327.08,85.47 C327.526669,85.47 327.911665,85.4183338 328.235,85.315 C328.558335,85.2116661 328.836666,85.1000006 329.07,84.98 C329.303335,84.8599994 329.498333,84.7483339 329.655,84.645 C329.811667,84.5416662 329.946666,84.49 330.06,84.49 C330.206667,84.49 330.32,84.5466661 330.4,84.66 L330.9,85.31 C330.679999,85.576668 330.416668,85.8083324 330.11,86.005 C329.803332,86.2016677 329.475002,86.3633327 329.125,86.49 C328.774998,86.6166673 328.413335,86.7116664 328.04,86.775 C327.666665,86.8383336 327.296669,86.87 326.93,86.87 C326.229997,86.87 325.585003,86.7516679 324.995,86.515 C324.404997,86.2783321 323.895002,85.931669 323.465,85.475 C323.034998,85.0183311 322.700001,84.4533367 322.46,83.78 C322.219999,83.1066633 322.1,82.3333377 322.1,81.46 C322.1,80.7533298 322.208332,80.0933364 322.425,79.48 C322.641668,78.8666636 322.953331,78.3350023 323.36,77.885 C323.766669,77.4349978 324.26333,77.081668 324.85,76.825 C325.43667,76.5683321 326.096663,76.44 326.83,76.44 Z M326.87,77.75 C326.009996,77.75 325.333336,77.9983309 324.84,78.495 C324.346664,78.9916692 324.040001,79.6799956 323.92,80.56 L329.43,80.56 C329.43,80.1466646 329.373334,79.7683351 329.26,79.425 C329.146666,79.081665 328.980001,78.7850013 328.76,78.535 C328.539999,78.2849987 328.271668,78.0916674 327.955,77.955 C327.638332,77.8183327 327.276669,77.75 326.87,77.75 Z" id="Add-Your-Subtext-Here-Outlines" fill="#000000"></path>
        </g>
    </g>
</svg>