<svg height="69" viewBox="0 0 375 69" width="375" xmlns="http://www.w3.org/2000/svg"><g fill="none" fill-rule="evenodd"><path d="m.5.5v68h374v-68z" fill="#047bff" stroke="#000" stroke-opacity=".2"/><g fill="#fff"><path d="m105.576416 41v-13.5078125h4.15625c1.187506 0 2.249751.2674941 3.186768.8024902.937016.5349962 1.668373 1.2957308 2.194091 2.2822266.525719.9864958.788575 2.107497.788575 3.3630371v.621582c0 1.2555402-.258217 2.3719027-.774659 3.3491211-.516441.9772185-1.244705 1.7348606-2.184814 2.2729493-.940109.5380886-2.000808.8102213-3.182129.8164062zm2.783203-11.253418v9.0175782h1.345215c1.088547 0 1.920407-.355628 2.495605-1.0668946.575199-.7112666.868978-1.7286717.881348-3.0522461v-.7143554c0-1.3730538-.284502-2.4136521-.853516-3.1218262-.569013-.7081741-1.400873-1.0622559-2.495605-1.0622559zm14.008789 11.4389649c-1.472012 0-2.670324-.4514929-3.59497-1.3544922-.924647-.9029993-1.386963-2.1059495-1.386963-3.6088867v-.2597657c0-1.008143.194822-1.9095826.584472-2.7043457.389651-.794763.941647-1.4070616 1.656006-1.836914s1.529211-.6447754 2.44458-.6447754c1.373054 0 2.453854.4329384 3.242432 1.2988281.788578.8658898 1.182861 2.0935793 1.182861 3.6831055v1.0947265h-6.39209c.086589.6556023.347899 1.1813132.783936 1.5771485s.988034.59375 1.656006.59375c1.032883 0 1.840003-.3741825 2.421386-1.1225586l1.317383 1.4750976c-.40202.5690133-.946285 1.0127751-1.632812 1.3312989-.686527.3185237-1.447262.4777832-2.282227.4777832zm-.306152-8.2382813c-.531904 0-.963296.1793602-1.29419.538086-.330893.3587257-.542724.8720669-.635498 1.540039h3.729493v-.2133789c-.01237-.5937529-.173176-1.0529769-.482422-1.3776855-.309247-.3247087-.74837-.4870606-1.317383-.4870606zm6.688965 8.0527344v-8.0712891h-1.493653v-1.9667968h1.493653v-.8535157c0-1.1256566.323157-1.9992644.969482-2.6208496.646325-.6215851 1.550857-.932373 2.713623-.932373.371096 0 .825681.0618483 1.36377.1855469l-.027832 2.078125c-.222658-.0556644-.49479-.0834961-.816407-.0834961-1.008143 0-1.512207.4731398-1.512207 1.4194336v.8071289h1.994629v1.9667968h-1.994629v8.0712891zm11.893554 0c-.123698-.2412121-.213378-.5411766-.269043-.8999023-.649417.7236364-1.493647 1.0854492-2.532714 1.0854492-.983404 0-1.798256-.2845024-2.44458-.8535157-.646325-.5690132-.969483-1.286454-.969483-2.1523437 0-1.0638074.394283-1.8802055 1.182861-2.4492187.788579-.5690133 1.928134-.8566081 3.418702-.862793h1.233886v-.5751953c0-.4638695-.119058-.8349596-.357177-1.1132813-.23812-.2783217-.613849-.4174804-1.127198-.4174804-.451499 0-.805581.1082345-1.062256.324707-.256674.2164724-.385009.5133444-.385009.890625h-2.681153c0-.5813831.179361-1.1194637.538086-1.6142578.358726-.4947942.865882-.8828925 1.521485-1.1643067.655602-.2814141 1.391597-.4221191 2.208007-.4221191 1.236986 0 2.218828.3107879 2.945557.932373.726729.6215852 1.090088 1.495193 1.090088 2.6208496v4.3510743c.006185.9524787.139159 1.6730118.398926 2.1616211v.1577148zm-2.217285-1.8647461c.395836 0 .760741-.0881339 1.094727-.2644043s.581379-.4128403.742187-.7097168v-1.7255859h-1.001953c-1.342129 0-2.056477.4638625-2.143066 1.3916015l-.009278.1577149c0 .333986.117512.6092111.352539.8256836.235028.2164724.556639.324707.964844.324707zm12.598633.8442383c-.661787.8040405-1.577143 1.2060547-2.746094 1.2060547-1.076177 0-1.897214-.3092417-2.463134-.9277344-.565921-.6184927-.855062-1.5245709-.867432-2.7182617v-6.5776367h2.681152v6.4848632c0 1.0452527.476232 1.5678711 1.428711 1.5678711.909184 0 1.533853-.3154265 1.874024-.946289v-7.1064453h2.690429v10.0380859h-2.523437zm7.449707 1.0205078h-2.69043v-14.25h2.69043zm5.417969-12.5058594v2.4677735h1.716308v1.9667968h-1.716308v5.0097657c0 .3710956.071125.6370434.213379.7978515.142253.1608081.414386.241211.816406.241211.296876 0 .559732-.021647.788574-.0649414v2.0317382c-.525719.1608081-1.066892.241211-1.623535.241211-1.880218 0-2.838867-.949372-2.875977-2.8481446v-5.4086914h-1.46582v-1.9667968h1.46582v-2.4677735zm8.117676 12.5058594v-13.5078125h4.731445c1.639006 0 2.882157.3138803 3.729492.9416504s1.270996 1.5477641 1.270996 2.7600098c0 .6617871-.170083 1.2447077-.510254 1.7487793-.340171.5040715-.81331.8736153-1.419433 1.1086425.692712.173178 1.238523.5226211 1.637451 1.0483399.398928.5257187.598389 1.1689415.598389 1.9296875 0 1.2988346-.414384 2.2822232-1.243165 2.9501953-.82878.6679721-2.010083 1.0081379-3.543945 1.0205078zm2.783203-5.8818359v3.6459961h2.384277c.655602 0 1.167397-.1561671 1.5354-.4685059.368004-.3123388.552002-.743731.552002-1.2941895 0-1.2369853-.64013-1.864746-1.92041-1.8833007zm0-1.9667969h2.05957c1.403978-.0247397 2.105957-.5844672 2.105957-1.6791992 0-.6123078-.177814-1.0529772-.533447-1.3220215s-.916907-.4035645-1.683838-.4035645h-1.948242zm15.177734 6.828125c-.661787.8040405-1.577142 1.2060547-2.746094 1.2060547-1.076177 0-1.897214-.3092417-2.463134-.9277344-.565921-.6184927-.855062-1.5245709-.867432-2.7182617v-6.5776367h2.681152v6.4848632c0 1.0452527.476233 1.5678711 1.428711 1.5678711.909184 0 1.533853-.3154265 1.874024-.946289v-7.1064453h2.690429v10.0380859h-2.523437zm7.830078-11.4853516v2.4677735h1.716309v1.9667968h-1.716309v5.0097657c0 .3710956.071126.6370434.213379.7978515s.414386.241211.816406.241211c.296877 0 .559732-.021647.788575-.0649414v2.0317382c-.525719.1608081-1.066892.241211-1.623536.241211-1.880217 0-2.838867-.949372-2.875976-2.8481446v-5.4086914h-1.46582v-1.9667968h1.46582v-2.4677735zm6.419922 0v2.4677735h1.716309v1.9667968h-1.716309v5.0097657c0 .3710956.071126.6370434.213379.7978515s.414386.241211.816406.241211c.296877 0 .559732-.021647.788574-.0649414v2.0317382c-.525718.1608081-1.066891.241211-1.623535.241211-1.880217 0-2.838867-.949372-2.875976-2.8481446v-5.4086914h-1.465821v-1.9667968h1.465821v-2.4677735zm2.792481 7.394043c0-.9957732.191729-1.8832969.575195-2.6625977.383465-.7793007.935462-1.382322 1.656006-1.809082.720544-.4267599 1.557043-.6401367 2.509521-.6401367 1.354499 0 2.460038.4143839 3.316651 1.243164.856612.8287802 1.33439 1.95442 1.433349 3.3769532l.018555.6865234c0 1.5400468-.429846 2.7754674-1.289551 3.7062988-.859705.9308315-2.013176 1.3962403-3.460449 1.3962403s-2.602291-.4638626-3.465088-1.3916016-1.294189-2.1894451-1.294189-3.7851562zm2.681152.1948242c0 .9524787.17936 1.6807429.538086 2.1848145.358726.5040715.872067.7561035 1.540039.7561035.649417 0 1.156574-.2489396 1.521484-.7468262.364911-.4978866.547364-1.294184.547364-2.388916 0-.9339239-.182453-1.6575495-.547364-2.1708984-.36491-.513349-.878252-.7700196-1.540039-.7700196-.655602 0-1.162758.2551244-1.521484.7653809-.358726.5102564-.538086 1.300369-.538086 2.3703613zm10.947266-5.1210937.083496 1.1596679c.717451-.8968143 1.679193-1.3452148 2.885254-1.3452148 1.063807 0 1.855466.3123341 2.375.9370117.519533.6246776.785481 1.5585875.797851 2.8017578v6.4848633h-2.681152v-6.4199219c0-.5690132-.123697-.9818509-.371094-1.2385254-.247397-.2566744-.658689-.3850097-1.233887-.3850097-.754561 0-1.320473.3216113-1.697754.9648437v7.0786133h-2.681152v-10.0380859zm23.249023-1.2153321h-4.137695v11.253418h-2.783203v-11.253418h-4.082032v-2.2543945h11.00293zm6.030273 11.4389649c-1.472012 0-2.670324-.4514929-3.59497-1.3544922-.924647-.9029993-1.386963-2.1059495-1.386963-3.6088867v-.2597657c0-1.008143.194822-1.9095826.584472-2.7043457.389651-.794763.941647-1.4070616 1.656006-1.836914s1.529211-.6447754 2.44458-.6447754c1.373054 0 2.453854.4329384 3.242432 1.2988281.788578.8658898 1.182861 2.0935793 1.182861 3.6831055v1.0947265h-6.392089c.086589.6556023.347898 1.1813132.783935 1.5771485s.988034.59375 1.656006.59375c1.032883 0 1.840004-.3741825 2.421387-1.1225586l1.317382 1.4750976c-.40202.5690133-.946285 1.0127751-1.632812 1.3312989-.686527.3185237-1.447261.4777832-2.282227.4777832zm-.306152-8.2382813c-.531904 0-.963296.1793602-1.294189.538086-.330894.3587257-.542725.8720669-.635498 1.540039h3.729492v-.2133789c-.01237-.5937529-.173176-1.0529769-.482422-1.3776855-.309246-.3247087-.74837-.4870606-1.317383-.4870606zm9.77832 1.0112305 1.688477-2.996582h2.866699l-2.857422 4.9169921 2.978028 5.1210938h-2.875977l-1.790527-3.1542969-1.78125 3.1542969h-2.885254l2.978027-5.1210938-2.848144-4.9169921h2.875976zm9.054688-5.4643555v2.4677735h1.716308v1.9667968h-1.716308v5.0097657c0 .3710956.071125.6370434.213379.7978515.142253.1608081.414386.241211.816406.241211.296877 0 .559732-.021647.788574-.0649414v2.0317382c-.525719.1608081-1.066891.241211-1.623535.241211-1.880218 0-2.838867-.949372-2.875976-2.8481446v-5.4086914h-1.465821v-1.9667968h1.465821v-2.4677735z"/><path d="m1 1h373v1h-373z" fill-opacity=".22"/></g></g></svg>