<svg width="811px" height="163px" viewBox="0 0 811 163" version="1.1" xmlns="http://www.w3.org/2000/svg" xmlns:xlink="http://www.w3.org/1999/xlink">
    <defs>
        <linearGradient x1="50%" y1="100%" x2="50%" y2="-2.48949813e-15%" id="linearGradient-1">
            <stop stop-color="#FF5C00" offset="0%"></stop>
            <stop stop-color="#FFC600" offset="100%"></stop>
        </linearGradient>
        <path d="M10,0 L765,0 C770.522847,-1.01453063e-15 775,4.4771525 775,10 L775,117 C775,122.522847 770.522847,127 765,127 L10,127 C4.4771525,127 6.76353751e-16,122.522847 0,117 L0,10 C-6.76353751e-16,4.4771525 4.4771525,-6.09089673e-15 10,-7.10542736e-15 Z" id="path-2"></path>
        <filter x="-4.4%" y="-15.7%" width="108.8%" height="153.5%" filterUnits="objectBoundingBox" id="filter-3">
            <feMorphology radius="5" operator="erode" in="SourceAlpha" result="shadowSpreadOuter1"></feMorphology>
            <feOffset dx="0" dy="14" in="shadowSpreadOuter1" result="shadowOffsetOuter1"></feOffset>
            <feGaussianBlur stdDeviation="14" in="shadowOffsetOuter1" result="shadowBlurOuter1"></feGaussianBlur>
            <feComposite in="shadowBlurOuter1" in2="SourceAlpha" operator="out" result="shadowBlurOuter1"></feComposite>
            <feColorMatrix values="0 0 0 0 0   0 0 0 0 0   0 0 0 0 0  0 0 0 0.25 0" type="matrix" in="shadowBlurOuter1" result="shadowMatrixOuter1"></feColorMatrix>
            <feOffset dx="0" dy="3" in="SourceAlpha" result="shadowOffsetOuter2"></feOffset>
            <feComposite in="shadowOffsetOuter2" in2="SourceAlpha" operator="out" result="shadowOffsetOuter2"></feComposite>
            <feColorMatrix values="0 0 0 0 0.8   0 0 0 0 0.298039216   0 0 0 0 0.00392156863  0 0 0 1 0" type="matrix" in="shadowOffsetOuter2" result="shadowMatrixOuter2"></feColorMatrix>
            <feMerge>
                <feMergeNode in="shadowMatrixOuter1"></feMergeNode>
                <feMergeNode in="shadowMatrixOuter2"></feMergeNode>
            </feMerge>
        </filter>
        <filter x="-6.5%" y="-28.3%" width="112.9%" height="178.7%" filterUnits="objectBoundingBox" id="filter-4">
            <feOffset dx="0" dy="64" in="SourceAlpha" result="shadowOffsetInner1"></feOffset>
            <feComposite in="shadowOffsetInner1" in2="SourceAlpha" operator="arithmetic" k2="-1" k3="1" result="shadowInnerInner1"></feComposite>
            <feColorMatrix values="0 0 0 0 1   0 0 0 0 1   0 0 0 0 1  0 0 0 0.07 0" type="matrix" in="shadowInnerInner1"></feColorMatrix>
        </filter>
        <path d="M0.004,0.685 L11.786,0.685 C15.0826831,0.685 17.9206548,1.28699398 20.3,2.491 C22.6793452,3.69500602 24.4996604,5.42932201 25.761,7.694 C27.0223396,9.95867799 27.653,12.6676509 27.653,15.821 C27.653,18.9743491 27.0295062,21.6904886 25.7825,23.9695 C24.5354938,26.2485114 22.7223452,27.989994 20.343,29.194 C17.9636548,30.398006 15.11135,31 11.786,31 L0.004,31 L0.004,0.685 Z M11.313,25.582 C17.7630322,25.582 20.988,22.3283659 20.988,15.821 C20.988,9.34230094 17.7630322,6.103 11.313,6.103 L6.712,6.103 L6.712,25.582 L11.313,25.582 Z M32.813,31 L32.813,0.685 L53.711,0.685 L53.711,5.888 L39.349,5.888 L39.349,12.983 L52.851,12.983 L52.851,18.186 L39.349,18.186 L39.349,25.797 L53.711,25.797 L53.711,31 L32.813,31 Z M58.312,31 L58.312,0.685 L78.78,0.685 L78.78,5.974 L64.934,5.974 L64.934,12.94 L77.92,12.94 L77.92,18.229 L64.934,18.229 L64.934,31 L58.312,31 Z M106.042,31 L103.161,24.292 L89.057,24.292 L86.176,31 L79.425,31 L93.357,0.685 L98.732,0.685 L112.664,31 L106.042,31 Z M91.25,19.218 L100.968,19.218 L96.109,7.866 L91.25,19.218 Z M128.058,31.387 C123.815312,31.387 120.583178,30.290511 118.3615,28.0975 C116.139822,25.904489 115.029,22.7010211 115.029,18.487 L115.029,0.685 L121.608,0.685 L121.608,18.788 C121.608,21.196012 122.159828,23.0306604 123.2635,24.292 C124.367172,25.5533396 125.965323,26.184 128.058,26.184 C130.150677,26.184 131.755994,25.546173 132.874,24.2705 C133.992006,22.994827 134.551,21.1673452 134.551,18.788 L134.551,0.685 L141.13,0.685 L141.13,18.487 C141.13,22.6723543 140.012011,25.8686556 137.776,28.076 C135.539989,30.2833444 132.300688,31.387 128.058,31.387 Z M146.978,31 L146.978,0.685 L153.686,0.685 L153.686,25.539 L167.231,25.539 L167.231,31 L146.978,31 Z M178.196,31 L178.196,6.146 L168.693,6.146 L168.693,0.685 L194.407,0.685 L194.407,6.146 L184.904,6.146 L184.904,31 L178.196,31 Z M229.409,15.305 C231.157675,15.8210026 232.512162,16.716827 233.4725,17.9925 C234.432838,19.268173 234.913,20.8376574 234.913,22.701 C234.913,25.2523461 233.974176,27.2733259 232.0965,28.764 C230.218824,30.2546741 227.631683,31 224.335,31 L209.93,31 L209.93,0.685 L223.905,0.685 C227.058349,0.685 229.559491,1.38732631 231.4085,2.792 C233.257509,4.19667369 234.182,6.11732115 234.182,8.554 C234.182,10.1306745 233.759171,11.5138274 232.9135,12.7035 C232.067829,13.8931726 230.899674,14.7603306 229.409,15.305 Z M216.466,13.026 L222.787,13.026 C224.507009,13.026 225.775496,12.7321696 226.5925,12.1445 C227.409504,11.5568304 227.818,10.661006 227.818,9.457 C227.818,8.19566036 227.409504,7.2711696 226.5925,6.6835 C225.775496,6.09583039 224.507009,5.802 222.787,5.802 L216.466,5.802 L216.466,13.026 Z M223.561,25.883 C225.338342,25.883 226.628329,25.582003 227.431,24.98 C228.233671,24.377997 228.635,23.4033401 228.635,22.056 C228.635,20.7086599 228.233671,19.7196698 227.431,19.089 C226.628329,18.4583302 225.338342,18.143 223.561,18.143 L216.466,18.143 L216.466,25.883 L223.561,25.883 Z M252.414,31.387 C248.171312,31.387 244.939178,30.290511 242.7175,28.0975 C240.495822,25.904489 239.385,22.7010211 239.385,18.487 L239.385,0.685 L245.964,0.685 L245.964,18.788 C245.964,21.196012 246.515828,23.0306604 247.6195,24.292 C248.723172,25.5533396 250.321323,26.184 252.414,26.184 C254.506677,26.184 256.111994,25.546173 257.23,24.2705 C258.348006,22.994827 258.907,21.1673452 258.907,18.788 L258.907,0.685 L265.486,0.685 L265.486,18.487 C265.486,22.6723543 264.368011,25.8686556 262.132,28.076 C259.895989,30.2833444 256.656688,31.387 252.414,31.387 Z M278.343,31 L278.343,6.146 L268.84,6.146 L268.84,0.685 L294.554,0.685 L294.554,6.146 L285.051,6.146 L285.051,31 L278.343,31 Z M305.089,31 L305.089,6.146 L295.586,6.146 L295.586,0.685 L321.3,0.685 L321.3,6.146 L311.797,6.146 L311.797,31 L305.089,31 Z M338.758,31.387 C335.747985,31.387 333.132178,30.749173 330.9105,29.4735 C328.688822,28.197827 326.976006,26.391845 325.772,24.0555 C324.567994,21.719155 323.966,18.9743491 323.966,15.821 C323.966,12.6676509 324.567994,9.92284501 325.772,7.5865 C326.976006,5.25015498 328.688822,3.45133964 330.9105,2.19 C333.132178,0.92866036 335.747985,0.298 338.758,0.298 C341.768015,0.298 344.383822,0.92866036 346.6055,2.19 C348.827178,3.45133964 350.539994,5.25015498 351.744,7.5865 C352.948006,9.92284501 353.55,12.6676509 353.55,15.821 C353.55,18.9743491 352.948006,21.719155 351.744,24.0555 C350.539994,26.391845 348.827178,28.197827 346.6055,29.4735 C344.383822,30.749173 341.768015,31.387 338.758,31.387 Z M338.758,26.184 C341.280679,26.184 343.265826,25.2953422 344.7135,23.518 C346.161174,21.7406578 346.885,19.1750168 346.885,15.821 C346.885,12.4669832 346.16834,9.90850881 344.735,8.1455 C343.301659,6.38249118 341.309346,5.501 338.758,5.501 C336.206654,5.501 334.221507,6.38249118 332.8025,8.1455 C331.383493,9.90850881 330.674,12.4669832 330.674,15.821 C330.674,19.1750168 331.390659,21.7406578 332.824,23.518 C334.25734,25.2953422 336.235321,26.184 338.758,26.184 Z M378.705,0.685 L384.983,0.685 L384.983,31 L379.995,31 L364.902,11.693 L364.902,31 L358.667,31 L358.667,0.685 L363.612,0.685 L378.705,19.906 L378.705,0.685 Z M410.009,31 L410.009,6.146 L400.506,6.146 L400.506,0.685 L426.22,0.685 L426.22,6.146 L416.717,6.146 L416.717,31 L410.009,31 Z M429.746,31 L429.746,0.685 L450.644,0.685 L450.644,5.888 L436.282,5.888 L436.282,12.983 L449.784,12.983 L449.784,18.186 L436.282,18.186 L436.282,25.797 L450.644,25.797 L450.644,31 L429.746,31 Z M470.51,15.649 L482.077,31 L474.251,31 L466.726,20.551 L459.158,31 L451.375,31 L462.942,15.649 L451.676,0.685 L459.459,0.685 L466.726,10.747 L474.036,0.685 L481.819,0.685 L470.51,15.649 Z M491.279,31 L491.279,6.146 L481.776,6.146 L481.776,0.685 L507.49,0.685 L507.49,6.146 L497.987,6.146 L497.987,31 L491.279,31 Z" id="path-5"></path>
        <filter x="-0.1%" y="-1.6%" width="100.2%" height="106.4%" filterUnits="objectBoundingBox" id="filter-6">
            <feOffset dx="0" dy="1" in="SourceAlpha" result="shadowOffsetOuter1"></feOffset>
            <feColorMatrix values="0 0 0 0 0   0 0 0 0 0   0 0 0 0 0  0 0 0 0.1 0" type="matrix" in="shadowOffsetOuter1"></feColorMatrix>
        </filter>
    </defs>
    <g id="Page-1" stroke="none" stroke-width="1" fill="none" fill-rule="evenodd">
        <g id="Style-17" transform="translate(18.000000, 4.000000)">
            <g id="Rectangle">
                <use fill="black" fill-opacity="1" filter="url(#filter-3)" xlink:href="#path-2"></use>
                <use fill="url(#linearGradient-1)" fill-rule="evenodd" xlink:href="#path-2"></use>
                <use fill="black" fill-opacity="1" filter="url(#filter-4)" xlink:href="#path-2"></use>
                <path stroke-opacity="0.2" stroke="#000000" stroke-width="1" d="M10,0.5 C4.75329488,0.5 0.5,4.75329488 0.5,10 L0.5,117 C0.5,122.246705 4.75329488,126.5 10,126.5 L765,126.5 C770.246705,126.5 774.5,122.246705 774.5,117 L774.5,10 C774.5,4.75329488 770.246705,0.5 765,0.5 L10,0.5 Z" stroke-linejoin="square"></path>
            </g>
            <g id="Text-Outlines" transform="translate(134.000000, 34.000000)">
                <path d="M148.855,54 L147.685,51.285 L142.165,51.285 L140.995,54 L139.735,54 L144.385,43.425 L145.45,43.425 L150.1,54 L148.855,54 Z M142.6,50.265 L147.25,50.265 L144.925,44.85 L142.6,50.265 Z M153.075,43.425 L156.63,43.425 C158.320009,43.425 159.627496,43.8824954 160.5525,44.7975 C161.477505,45.7125046 161.94,47.0149916 161.94,48.705 C161.94,50.3950084 161.477505,51.6999954 160.5525,52.62 C159.627496,53.5400046 158.320009,54 156.63,54 L153.075,54 L153.075,43.425 Z M156.555,52.95 C159.295014,52.95 160.665,51.5350142 160.665,48.705 C160.665,45.8849859 159.295014,44.475 156.555,44.475 L154.305,44.475 L154.305,52.95 L156.555,52.95 Z M165.56,43.425 L169.115,43.425 C170.805009,43.425 172.112496,43.8824954 173.0375,44.7975 C173.962505,45.7125046 174.425,47.0149916 174.425,48.705 C174.425,50.3950084 173.962505,51.6999954 173.0375,52.62 C172.112496,53.5400046 170.805009,54 169.115,54 L165.56,54 L165.56,43.425 Z M169.04,52.95 C171.780014,52.95 173.15,51.5350142 173.15,48.705 C173.15,45.8849859 171.780014,44.475 169.04,44.475 L166.79,44.475 L166.79,52.95 L169.04,52.95 Z M191.28,43.425 L187.125,49.005 L187.125,54 L185.895,54 L185.895,48.99 L181.74,43.425 L183.165,43.425 L186.525,47.985 L189.885,43.425 L191.28,43.425 Z M197.495,54.12 C196.514995,54.12 195.662504,53.9000022 194.9375,53.46 C194.212496,53.0199978 193.655002,52.395004 193.265,51.585 C192.874998,50.7749959 192.68,49.8200055 192.68,48.72 C192.68,47.6099945 192.872498,46.6475041 193.2575,45.8325 C193.642502,45.0174959 194.197496,44.3925022 194.9225,43.9575 C195.647504,43.5224978 196.504995,43.305 197.495,43.305 C198.485005,43.305 199.342496,43.5224978 200.0675,43.9575 C200.792504,44.3925022 201.347498,45.0174959 201.7325,45.8325 C202.117502,46.6475041 202.31,47.6049945 202.31,48.705 C202.31,49.8050055 202.115002,50.7624959 201.725,51.5775 C201.334998,52.3925041 200.777504,53.0199978 200.0525,53.46 C199.327496,53.9000022 198.475005,54.12 197.495,54.12 Z M197.495,53.07 C198.615006,53.07 199.487497,52.6925038 200.1125,51.9375 C200.737503,51.1824962 201.05,50.105007 201.05,48.705 C201.05,47.304993 200.740003,46.2300038 200.12,45.48 C199.499997,44.7299962 198.625006,44.355 197.495,44.355 C196.374995,44.355 195.502503,44.7324962 194.8775,45.4875 C194.252497,46.2425038 193.94,47.314993 193.94,48.705 C193.94,50.0950069 194.252497,51.1699962 194.8775,51.93 C195.502503,52.6900038 196.374995,53.07 197.495,53.07 Z M210.055,54.12 C208.674993,54.12 207.630004,53.7600036 206.92,53.04 C206.209997,52.3199964 205.855,51.260007 205.855,49.86 L205.855,43.425 L207.07,43.425 L207.07,49.965 C207.07,50.9950051 207.322498,51.7699974 207.8275,52.29 C208.332503,52.8100026 209.074995,53.07 210.055,53.07 C211.035005,53.07 211.774998,52.8100026 212.275,52.29 C212.775003,51.7699974 213.025,50.9950051 213.025,49.965 L213.025,43.425 L214.255,43.425 L214.255,49.86 C214.255,51.2500069 213.897504,52.3074964 213.1825,53.0325 C212.467497,53.7575036 211.425007,54.12 210.055,54.12 Z M226.515,54 L225.165,54 L223.365,50.61 C223.144999,50.1999979 222.887502,49.9175008 222.5925,49.7625 C222.297499,49.6074992 221.895003,49.53 221.385,49.53 L219.405,49.53 L219.405,54 L218.19,54 L218.19,43.425 L222.54,43.425 C223.690006,43.425 224.567497,43.6799975 225.1725,44.19 C225.777503,44.7000026 226.08,45.449995 226.08,46.44 C226.08,47.2600041 225.847502,47.9224975 225.3825,48.4275 C224.917498,48.9325025 224.255004,49.2499993 223.395,49.38 C223.665001,49.4600004 223.902499,49.594999 224.1075,49.785 C224.312501,49.975001 224.499999,50.2299984 224.67,50.55 L226.515,54 Z M222.435,48.51 C223.255004,48.51 223.867498,48.3400017 224.2725,48 C224.677502,47.6599983 224.88,47.1450035 224.88,46.455 C224.88,45.7749966 224.680002,45.2700016 224.28,44.94 C223.879998,44.6099983 223.265004,44.445 222.435,44.445 L219.405,44.445 L219.405,48.51 L222.435,48.51 Z M238.51,54.12 C236.859992,54.12 235.540005,53.6750044 234.55,52.785 L235.03,51.84 C235.550003,52.2800022 236.082497,52.594999 236.6275,52.785 C237.172503,52.9750009 237.804996,53.07 238.525,53.07 C239.375004,53.07 240.029998,52.9050017 240.49,52.575 C240.950002,52.2449984 241.18,51.780003 241.18,51.18 C241.18,50.8299983 241.070001,50.5450011 240.85,50.325 C240.629999,50.1049989 240.340002,49.9300006 239.98,49.8 C239.619998,49.6699993 239.135003,49.5350007 238.525,49.395 C237.704996,49.204999 237.032503,49.005001 236.5075,48.795 C235.982497,48.5849989 235.557502,48.285002 235.2325,47.895 C234.907498,47.504998 234.745,46.9950032 234.745,46.365 C234.745,45.764997 234.902498,45.2325023 235.2175,44.7675 C235.532502,44.3024977 235.982497,43.9425013 236.5675,43.6875 C237.152503,43.4324987 237.829996,43.305 238.6,43.305 C239.330004,43.305 240.012497,43.4199988 240.6475,43.65 C241.282503,43.8800011 241.819998,44.2099979 242.26,44.64 L241.795,45.585 C241.294998,45.1549979 240.787503,44.842501 240.2725,44.6475 C239.757497,44.452499 239.200003,44.355 238.6,44.355 C237.779996,44.355 237.137502,44.5274983 236.6725,44.8725 C236.207498,45.2175017 235.975,45.6999969 235.975,46.32 C235.975,46.8500027 236.179998,47.2499987 236.59,47.52 C237.000002,47.7900013 237.619996,48.0199991 238.45,48.21 C239.360005,48.4300011 240.074997,48.6324991 240.595,48.8175 C241.115003,49.0025009 241.547498,49.2799981 241.8925,49.65 C242.237502,50.0200018 242.41,50.5149969 242.41,51.135 C242.41,51.735003 242.252502,52.2599977 241.9375,52.71 C241.622498,53.1600022 241.170003,53.5074988 240.58,53.7525 C239.989997,53.9975012 239.300004,54.12 238.51,54.12 Z M249.93,54.12 C248.549993,54.12 247.505004,53.7600036 246.795,53.04 C246.084996,52.3199964 245.73,51.260007 245.73,49.86 L245.73,43.425 L246.945,43.425 L246.945,49.965 C246.945,50.9950051 247.197497,51.7699974 247.7025,52.29 C248.207503,52.8100026 248.949995,53.07 249.93,53.07 C250.910005,53.07 251.649997,52.8100026 252.15,52.29 C252.650002,51.7699974 252.9,50.9950051 252.9,49.965 L252.9,43.425 L254.13,43.425 L254.13,49.86 C254.13,51.2500069 253.772504,52.3074964 253.0575,53.0325 C252.342496,53.7575036 251.300007,54.12 249.93,54.12 Z M264.065,48.57 C264.675003,48.7300008 265.147498,49.0299978 265.4825,49.47 C265.817502,49.9100022 265.985,50.4599967 265.985,51.12 C265.985,52.0500046 265.680003,52.7624975 265.07,53.2575 C264.459997,53.7525025 263.595006,54 262.475,54 L258.065,54 L258.065,43.425 L262.31,43.425 C263.400005,43.425 264.244997,43.6649976 264.845,44.145 C265.445003,44.6250024 265.745,45.3049956 265.745,46.185 C265.745,46.7550028 265.597501,47.2449979 265.3025,47.655 C265.007499,48.0650021 264.595003,48.369999 264.065,48.57 Z M259.28,48.12 L262.13,48.12 C262.920004,48.12 263.517498,47.9600016 263.9225,47.64 C264.327502,47.3199984 264.53,46.8550031 264.53,46.245 C264.53,45.044994 263.730008,44.445 262.13,44.445 L259.28,44.445 L259.28,48.12 Z M262.355,52.98 C263.185004,52.98 263.797498,52.8275015 264.1925,52.5225 C264.587502,52.2174985 264.785,51.7400033 264.785,51.09 C264.785,49.7899935 263.975008,49.14 262.355,49.14 L259.28,49.14 L259.28,52.98 L262.355,52.98 Z M271.975,54 L271.975,44.475 L268.3,44.475 L268.3,43.425 L276.91,43.425 L276.91,44.475 L273.22,44.475 L273.22,54 L271.975,54 Z M279.795,54 L279.795,43.425 L286.485,43.425 L286.485,44.445 L281.01,44.445 L281.01,48.12 L286.185,48.12 L286.185,49.14 L281.01,49.14 L281.01,52.98 L286.485,52.98 L286.485,54 L279.795,54 Z M294.035,48.6 L298.055,54 L296.6,54 L293.33,49.515 L290.06,54 L288.605,54 L292.625,48.585 L288.8,43.425 L290.255,43.425 L293.345,47.67 L296.435,43.425 L297.875,43.425 L294.035,48.6 Z M303.43,54 L303.43,44.475 L299.755,44.475 L299.755,43.425 L308.365,43.425 L308.365,44.475 L304.675,44.475 L304.675,54 L303.43,54 Z M324.065,43.425 L325.28,43.425 L325.28,54 L324.065,54 L324.065,49.155 L317.735,49.155 L317.735,54 L316.52,54 L316.52,43.425 L317.735,43.425 L317.735,48.105 L324.065,48.105 L324.065,43.425 Z M329.29,54 L329.29,43.425 L335.98,43.425 L335.98,44.445 L330.505,44.445 L330.505,48.12 L335.68,48.12 L335.68,49.14 L330.505,49.14 L330.505,52.98 L335.98,52.98 L335.98,54 L329.29,54 Z M347.745,54 L346.395,54 L344.595,50.61 C344.374999,50.1999979 344.117501,49.9175008 343.8225,49.7625 C343.527498,49.6074992 343.125002,49.53 342.615,49.53 L340.635,49.53 L340.635,54 L339.42,54 L339.42,43.425 L343.77,43.425 C344.920006,43.425 345.797497,43.6799975 346.4025,44.19 C347.007503,44.7000026 347.31,45.449995 347.31,46.44 C347.31,47.2600041 347.077502,47.9224975 346.6125,48.4275 C346.147497,48.9325025 345.485004,49.2499993 344.625,49.38 C344.895001,49.4600004 345.132499,49.594999 345.3375,49.785 C345.542501,49.975001 345.729999,50.2299984 345.9,50.55 L347.745,54 Z M343.665,48.51 C344.485004,48.51 345.097498,48.3400017 345.5025,48 C345.907502,47.6599983 346.11,47.1450035 346.11,46.455 C346.11,45.7749966 345.910002,45.2700016 345.51,44.94 C345.109998,44.6099983 344.495004,44.445 343.665,44.445 L340.635,44.445 L340.635,48.51 L343.665,48.51 Z M351.11,54 L351.11,43.425 L357.8,43.425 L357.8,44.445 L352.325,44.445 L352.325,48.12 L357.5,48.12 L357.5,49.14 L352.325,49.14 L352.325,52.98 L357.8,52.98 L357.8,54 L351.11,54 Z" id="Add-Your-Subtext-Here" fill="#FEFEFE"></path>
                <g id="Default-Button-Text">
                    <use fill="black" fill-opacity="1" filter="url(#filter-6)" xlink:href="#path-5"></use>
                    <use fill="#FEFEFE" fill-rule="evenodd" xlink:href="#path-5"></use>
                </g>
            </g>
        </g>
    </g>
</svg>