<svg width="811px" height="163px" viewBox="0 0 811 163" version="1.1" xmlns="http://www.w3.org/2000/svg" xmlns:xlink="http://www.w3.org/1999/xlink">
    <defs>
        <path d="M10,0 L765,0 C770.522847,-1.01453063e-15 775,4.4771525 775,10 L775,117 C775,122.522847 770.522847,127 765,127 L10,127 C4.4771525,127 6.76353751e-16,122.522847 0,117 L0,10 C-6.76353751e-16,4.4771525 4.4771525,-6.09089673e-15 10,-7.10542736e-15 Z" id="path-1"></path>
        <filter x="-4.4%" y="-15.7%" width="108.8%" height="153.5%" filterUnits="objectBoundingBox" id="filter-2">
            <feMorphology radius="5" operator="erode" in="SourceAlpha" result="shadowSpreadOuter1"></feMorphology>
            <feOffset dx="0" dy="14" in="shadowSpreadOuter1" result="shadowOffsetOuter1"></feOffset>
            <feGaussianBlur stdDeviation="14" in="shadowOffsetOuter1" result="shadowBlurOuter1"></feGaussianBlur>
            <feComposite in="shadowBlurOuter1" in2="SourceAlpha" operator="out" result="shadowBlurOuter1"></feComposite>
            <feColorMatrix values="0 0 0 0 0   0 0 0 0 0   0 0 0 0 0  0 0 0 0.25 0" type="matrix" in="shadowBlurOuter1" result="shadowMatrixOuter1"></feColorMatrix>
            <feOffset dx="0" dy="3" in="SourceAlpha" result="shadowOffsetOuter2"></feOffset>
            <feComposite in="shadowOffsetOuter2" in2="SourceAlpha" operator="out" result="shadowOffsetOuter2"></feComposite>
            <feColorMatrix values="0 0 0 0 0.8   0 0 0 0 0.552941176   0 0 0 0 0.00784313725  0 0 0 1 0" type="matrix" in="shadowOffsetOuter2" result="shadowMatrixOuter2"></feColorMatrix>
            <feMerge>
                <feMergeNode in="shadowMatrixOuter1"></feMergeNode>
                <feMergeNode in="shadowMatrixOuter2"></feMergeNode>
            </feMerge>
        </filter>
        <filter x="-2.6%" y="-5.1%" width="105.3%" height="132.3%" filterUnits="objectBoundingBox" id="filter-3">
            <feMorphology radius="5" operator="erode" in="SourceAlpha" result="shadowSpreadInner1"></feMorphology>
            <feOffset dx="0" dy="0" in="shadowSpreadInner1" result="shadowOffsetInner1"></feOffset>
            <feComposite in="shadowOffsetInner1" in2="SourceAlpha" operator="arithmetic" k2="-1" k3="1" result="shadowInnerInner1"></feComposite>
            <feColorMatrix values="0 0 0 0 1   0 0 0 0 1   0 0 0 0 1  0 0 0 0.19 0" type="matrix" in="shadowInnerInner1"></feColorMatrix>
        </filter>
        <path d="M198.272705,83 L198.272705,45.2070312 L206.167236,45.2070312 C208.68678,45.2070312 210.761873,45.4344867 212.392578,45.8894043 C214.023283,46.3443219 215.304032,47.0931751 216.234863,48.1359863 C217.165695,49.1787975 217.809569,50.4280526 218.166504,51.8837891 C218.523439,53.3395255 218.701904,55.1941619 218.701904,57.4477539 L218.701904,69.8354492 C218.701904,71.1792059 218.659913,72.3514761 218.575928,73.3522949 C218.491943,74.3531137 218.334474,75.3329216 218.103516,76.291748 C217.872557,77.2505745 217.557619,78.0624153 217.158691,78.7272949 C216.759764,79.3921745 216.245364,80.0115531 215.615479,80.5854492 C214.985593,81.1593453 214.226241,81.6142561 213.337402,81.9501953 C212.448563,82.2861345 211.405768,82.5450837 210.208984,82.7270508 C209.012201,82.9090178 207.636971,83 206.083252,83 L198.272705,83 Z M206.209229,77.6459961 C206.937097,77.6459961 207.510984,77.6354982 207.930908,77.614502 C208.350832,77.5935058 208.77075,77.541016 209.190674,77.4570312 C209.610598,77.3730465 209.918537,77.2575691 210.114502,77.1105957 C210.310466,76.9636223 210.492431,76.7501642 210.6604,76.4702148 C210.82837,76.1902655 210.936849,75.8578307 210.98584,75.4729004 C211.034831,75.0879701 211.059326,74.6085641 211.059326,74.034668 L211.059326,53.6894531 C211.059326,52.4436787 210.688399,51.6178406 209.946533,51.2119141 C209.204668,50.8059876 207.958912,50.5960287 206.209229,50.5820312 L206.209229,77.6459961 Z M222.712158,83 L222.712158,45.2070312 L238.480225,45.2070312 L238.480225,50.4560547 L230.354736,50.4560547 L230.354736,60.7441406 L236.107666,60.7441406 L236.107666,66.1191406 L230.354736,66.1191406 L230.354736,77.7509766 L238.480225,77.7509766 L238.480225,83 L222.712158,83 Z M241.209717,83 L241.209717,45.2070312 L256.977783,45.2070312 L256.977783,50.4560547 L248.852295,50.4560547 L248.852295,60.7441406 L254.605225,60.7441406 L254.605225,66.1191406 L248.852295,66.1191406 L248.852295,83 L241.209717,83 Z M266.698975,70.2133789 L270.604248,70.2133789 L268.693604,56.1879883 L266.698975,70.2133789 Z M257.124756,83 L265.292236,45.2070312 L272.052979,45.2070312 L280.199463,83 L272.661865,83 L271.108154,74.9165039 L266.174072,74.9165039 L264.704346,83 L257.124756,83 Z M282.467041,68.9536133 L282.467041,45.2070312 L290.109619,45.2070312 L290.109619,68.7226562 C290.109619,70.066413 290.116618,71.0427216 290.130615,71.6516113 C290.144613,72.2605011 290.179606,73.0023557 290.235596,73.8771973 C290.291586,74.7520389 290.389566,75.3644188 290.529541,75.7143555 C290.669516,76.0642921 290.861978,76.442218 291.106934,76.8481445 C291.351889,77.254071 291.670327,77.5200189 292.062256,77.6459961 C292.454185,77.7719733 292.930092,77.8349609 293.48999,77.8349609 C294.049889,77.8349609 294.525796,77.7719733 294.917725,77.6459961 C295.309654,77.5200189 295.628091,77.2575704 295.873047,76.8586426 C296.118003,76.4597148 296.310465,76.0852882 296.450439,75.7353516 C296.590414,75.3854149 296.688395,74.7800336 296.744385,73.9191895 C296.800375,73.0583453 296.835368,72.330488 296.849365,71.7355957 C296.863363,71.1407034 296.870361,70.1783921 296.870361,68.8486328 L296.870361,45.2070312 L304.512939,45.2070312 L304.512939,68.9536133 C304.512939,70.1573953 304.477946,71.2491813 304.407959,72.2290039 C304.337972,73.2088265 304.204998,74.2236276 304.009033,75.2734375 C303.813069,76.3232474 303.547121,77.2505656 303.211182,78.0554199 C302.875242,78.8602742 302.42733,79.6301233 301.867432,80.3649902 C301.307533,81.0998572 300.646163,81.7052385 299.883301,82.1811523 C299.120439,82.6570662 298.200119,83.0349921 297.122314,83.3149414 C296.04451,83.5948907 294.833747,83.7348633 293.48999,83.7348633 C292.146234,83.7348633 290.935471,83.5948907 289.857666,83.3149414 C288.779861,83.0349921 287.863041,82.6570662 287.107178,82.1811523 C286.351315,81.7052385 285.693444,81.0998572 285.133545,80.3649902 C284.573646,79.6301233 284.125734,78.8602742 283.789795,78.0554199 C283.453856,77.2505656 283.184409,76.3232474 282.981445,75.2734375 C282.778482,74.2236276 282.642009,73.2088265 282.572021,72.2290039 C282.502034,71.2491813 282.467041,70.1573953 282.467041,68.9536133 Z M308.838135,83 L308.838135,45.2070312 L316.480713,45.2070312 L316.480713,77.7509766 L323.997314,77.7509766 L323.997314,83 L308.838135,83 Z M330.023193,83 L330.023193,50.9179688 L324.480225,50.9179688 L324.480225,45.2070312 L343.10376,45.2070312 L343.10376,50.9179688 L337.665771,50.9179688 L337.665771,83 L330.023193,83 Z M361.895264,77.6040039 L362.609131,77.6040039 C363.602951,77.6040039 364.407793,77.4885265 365.023682,77.2575684 C365.63957,77.0266102 366.108478,76.6311877 366.43042,76.0712891 C366.752362,75.5113904 366.96582,74.8780146 367.070801,74.1711426 C367.175782,73.4642706 367.228271,72.5159565 367.228271,71.3261719 C367.228271,69.3525292 366.881839,67.8198297 366.188965,66.7280273 C365.49609,65.636225 364.316821,65.090332 362.651123,65.090332 L361.895264,65.090332 L361.895264,77.6040039 Z M361.853271,60.0722656 L363.155029,60.0722656 C363.854903,60.0722656 364.442787,59.9392917 364.918701,59.6733398 C365.394615,59.407388 365.755044,59.0189641 366,58.5080566 C366.244956,57.9971491 366.416422,57.4477568 366.514404,56.8598633 C366.612387,56.2719697 366.661377,55.5791056 366.661377,54.78125 C366.661377,54.151364 366.615886,53.5984724 366.524902,53.1225586 C366.433919,52.6466448 366.332439,52.2512223 366.220459,51.9362793 C366.108479,51.6213363 365.919516,51.3553885 365.653564,51.1384277 C365.387613,50.921467 365.153159,50.7604986 364.950195,50.6555176 C364.747232,50.5505366 364.439292,50.4735517 364.026367,50.4245605 C363.613442,50.3755694 363.281007,50.3475749 363.029053,50.3405762 C362.777098,50.3335774 362.385175,50.3300781 361.853271,50.3300781 L361.853271,60.0722656 Z M354.252686,83 L354.252686,45.2070312 L362.042236,45.2070312 C363.441983,45.2070312 364.677241,45.2805168 365.748047,45.4274902 C366.818853,45.5744636 367.868647,45.8614074 368.897461,46.2883301 C369.926275,46.7152528 370.773109,47.285641 371.437988,47.9995117 C372.102868,48.7133825 372.634764,49.6546979 373.033691,50.8234863 C373.432619,51.9922747 373.63208,53.3745037 373.63208,54.9702148 C373.63208,56.9438575 373.166671,58.4975529 372.23584,59.6313477 C371.305008,60.7651424 369.859792,61.6609668 367.900146,62.3188477 C372.393333,63.41065 374.639893,66.5880271 374.639893,71.8510742 C374.639893,75.6443875 373.730071,78.4508373 371.9104,80.2705078 C370.09073,82.0901784 367.312275,83 363.574951,83 L354.252686,83 Z M378.020264,68.9536133 L378.020264,45.2070312 L385.662842,45.2070312 L385.662842,68.7226562 C385.662842,70.066413 385.66984,71.0427216 385.683838,71.6516113 C385.697835,72.2605011 385.732828,73.0023557 385.788818,73.8771973 C385.844808,74.7520389 385.942789,75.3644188 386.082764,75.7143555 C386.222738,76.0642921 386.415201,76.442218 386.660156,76.8481445 C386.905112,77.254071 387.223549,77.5200189 387.615479,77.6459961 C388.007408,77.7719733 388.483314,77.8349609 389.043213,77.8349609 C389.603112,77.8349609 390.079018,77.7719733 390.470947,77.6459961 C390.862876,77.5200189 391.181314,77.2575704 391.42627,76.8586426 C391.671225,76.4597148 391.863687,76.0852882 392.003662,75.7353516 C392.143637,75.3854149 392.241618,74.7800336 392.297607,73.9191895 C392.353597,73.0583453 392.38859,72.330488 392.402588,71.7355957 C392.416585,71.1407034 392.423584,70.1783921 392.423584,68.8486328 L392.423584,45.2070312 L400.066162,45.2070312 L400.066162,68.9536133 C400.066162,70.1573953 400.031169,71.2491813 399.961182,72.2290039 C399.891194,73.2088265 399.75822,74.2236276 399.562256,75.2734375 C399.366291,76.3232474 399.100343,77.2505656 398.764404,78.0554199 C398.428465,78.8602742 397.980553,79.6301233 397.420654,80.3649902 C396.860756,81.0998572 396.199385,81.7052385 395.436523,82.1811523 C394.673662,82.6570662 393.753342,83.0349921 392.675537,83.3149414 C391.597732,83.5948907 390.38697,83.7348633 389.043213,83.7348633 C387.699456,83.7348633 386.488694,83.5948907 385.410889,83.3149414 C384.333084,83.0349921 383.416264,82.6570662 382.6604,82.1811523 C381.904537,81.7052385 381.246666,81.0998572 380.686768,80.3649902 C380.126869,79.6301233 379.678957,78.8602742 379.343018,78.0554199 C379.007078,77.2505656 378.737631,76.3232474 378.534668,75.2734375 C378.331705,74.2236276 378.195231,73.2088265 378.125244,72.2290039 C378.055257,71.2491813 378.020264,70.1573953 378.020264,68.9536133 Z M407.981689,83 L407.981689,50.9179688 L402.438721,50.9179688 L402.438721,45.2070312 L421.062256,45.2070312 L421.062256,50.9179688 L415.624268,50.9179688 L415.624268,83 L407.981689,83 Z M427.193115,83 L427.193115,50.9179688 L421.650146,50.9179688 L421.650146,45.2070312 L440.273682,45.2070312 L440.273682,50.9179688 L434.835693,50.9179688 L434.835693,83 L427.193115,83 Z M442.331299,70.5703125 L442.331299,57.8676758 C442.331299,48.9372926 446.012577,44.472168 453.375244,44.472168 C460.751909,44.472168 464.440186,48.9372926 464.440186,57.8676758 L464.440186,70.3813477 C464.440186,71.893074 464.328207,73.2893002 464.104248,74.5700684 C463.880289,75.8508365 463.498863,77.0650984 462.959961,78.2128906 C462.421059,79.3606828 461.735193,80.3369914 460.902344,81.1418457 C460.069495,81.9467 459.016201,82.5800758 457.742432,83.0419922 C456.468662,83.5039086 455.012948,83.7348633 453.375244,83.7348633 C451.751538,83.7348633 450.302822,83.5074079 449.029053,83.0524902 C447.755283,82.5975726 446.705489,81.9816933 445.879639,81.204834 C445.053788,80.4279746 444.371422,79.4761612 443.83252,78.3493652 C443.293617,77.2225692 442.908693,76.0223045 442.677734,74.7485352 C442.446776,73.4747658 442.331299,72.0820388 442.331299,70.5703125 Z M456.797607,72.2919922 L456.797607,55.9570312 C456.797607,52.2337053 455.656831,50.3720703 453.375244,50.3720703 C452.689368,50.3720703 452.108482,50.5435367 451.632568,50.8864746 C451.156655,51.2294125 450.806723,51.6983206 450.582764,52.2932129 C450.358804,52.8881052 450.201335,53.4759899 450.110352,54.0568848 C450.019368,54.6377796 449.973877,55.2711554 449.973877,55.9570312 L449.973877,72.2919922 C449.973877,76.0013206 451.107655,77.855957 453.375244,77.855957 C455.656831,77.855957 456.797607,76.0013206 456.797607,72.2919922 Z M468.450439,83 L468.450439,45.1860352 L473.951416,45.1860352 L482.244873,64.9643555 L482.244873,45.1860352 L488.585693,45.1860352 L488.585693,83 L483.294678,83 L475.022217,62.0249023 L475.022217,83 L468.450439,83 Z M505.277588,83 L505.277588,50.9179688 L499.734619,50.9179688 L499.734619,45.2070312 L518.358154,45.2070312 L518.358154,50.9179688 L512.920166,50.9179688 L512.920166,83 L505.277588,83 Z M520.898682,83 L520.898682,45.2070312 L536.666748,45.2070312 L536.666748,50.4560547 L528.54126,50.4560547 L528.54126,60.7441406 L534.294189,60.7441406 L534.294189,66.1191406 L528.54126,66.1191406 L528.54126,77.7509766 L536.666748,77.7509766 L536.666748,83 L520.898682,83 Z M537.632568,83 L543.742432,63.4526367 L537.590576,45.2070312 L544.855225,45.2070312 L548.403564,56.5029297 L552.224854,45.2070312 L559.321533,45.2070312 L553.21167,63.3266602 L559.237549,83 L552.035889,83 L548.424561,70.5073242 L544.855225,83 L537.632568,83 Z M565.599365,83 L565.599365,50.9179688 L560.056396,50.9179688 L560.056396,45.2070312 L578.679932,45.2070312 L578.679932,50.9179688 L573.241943,50.9179688 L573.241943,83 L565.599365,83 Z" id="path-4"></path>
        <filter x="-0.3%" y="-2.5%" width="100.5%" height="110.2%" filterUnits="objectBoundingBox" id="filter-5">
            <feOffset dx="0" dy="2" in="SourceAlpha" result="shadowOffsetOuter1"></feOffset>
            <feColorMatrix values="0 0 0 0 0   0 0 0 0 0   0 0 0 0 0  0 0 0 0.17 0" type="matrix" in="shadowOffsetOuter1"></feColorMatrix>
        </filter>
    </defs>
    <g id="Page-1" stroke="none" stroke-width="1" fill="none" fill-rule="evenodd">
        <g id="Style-15" transform="translate(18.000000, 4.000000)">
            <g id="Rectangle">
                <use fill="black" fill-opacity="1" filter="url(#filter-2)" xlink:href="#path-1"></use>
                <use fill="#FFB000" fill-rule="evenodd" xlink:href="#path-1"></use>
                <use fill="black" fill-opacity="1" filter="url(#filter-3)" xlink:href="#path-1"></use>
                <path stroke-opacity="0.2" stroke="#000000" stroke-width="1" d="M10,0.5 C4.75329488,0.5 0.5,4.75329488 0.5,10 L0.5,117 C0.5,122.246705 4.75329488,126.5 10,126.5 L765,126.5 C770.246705,126.5 774.5,122.246705 774.5,117 L774.5,10 C774.5,4.75329488 770.246705,0.5 765,0.5 L10,0.5 Z" stroke-linejoin="square"></path>
            </g>
            <g id="Default-Button-Text-Outlines">
                <use fill="black" fill-opacity="1" filter="url(#filter-5)" xlink:href="#path-4"></use>
                <use fill="#FEFEFE" fill-rule="evenodd" xlink:href="#path-4"></use>
            </g>
        </g>
    </g>
</svg>