<svg width="375px" height="69px" viewBox="0 0 375 69" version="1.1" xmlns="http://www.w3.org/2000/svg" xmlns:xlink="http://www.w3.org/1999/xlink">
    <defs>
        <linearGradient x1="51.7088542%" y1="137.664176%" x2="48.44375%" y2="0%" id="linearGradient-1">
            <stop stop-color="#FF683E" offset="0%"></stop>
            <stop stop-color="#FFBF00" offset="100%"></stop>
        </linearGradient>
        <path d="M34.5,0 L340.5,0 C359.553824,-3.50013066e-15 375,15.4461761 375,34.5 L375,34.5 C375,53.5538239 359.553824,69 340.5,69 L34.5,69 C15.4461761,69 2.33342044e-15,53.5538239 0,34.5 L0,34.5 C-2.33342044e-15,15.4461761 15.4461761,3.50013066e-15 34.5,0 Z" id="path-2"></path>
        <filter x="-0.3%" y="-1.4%" width="100.5%" height="102.9%" filterUnits="objectBoundingBox" id="filter-3">
            <feOffset dx="0" dy="2" in="SourceAlpha" result="shadowOffsetInner1"></feOffset>
            <feComposite in="shadowOffsetInner1" in2="SourceAlpha" operator="arithmetic" k2="-1" k3="1" result="shadowInnerInner1"></feComposite>
            <feColorMatrix values="0 0 0 0 1   0 0 0 0 1   0 0 0 0 1  0 0 0 0.22 0" type="matrix" in="shadowInnerInner1"></feColorMatrix>
        </filter>
    </defs>
    <g id="Page-1" stroke="none" stroke-width="1" fill="none" fill-rule="evenodd">
        <g id="Style-10">
            <g id="Rectangle">
                <use fill="url(#linearGradient-1)" fill-rule="evenodd" xlink:href="#path-2"></use>
                <use fill="black" fill-opacity="1" filter="url(#filter-3)" xlink:href="#path-2"></use>
                <path stroke-opacity="0.2" stroke="#000000" stroke-width="1" d="M34.5,0.5 C15.7223185,0.5 0.5,15.7223185 0.5,34.5 C0.5,53.2776815 15.7223185,68.5 34.5,68.5 L340.5,68.5 C359.277681,68.5 374.5,53.2776815 374.5,34.5 C374.5,15.7223185 359.277681,0.5 340.5,0.5 L34.5,0.5 Z" stroke-linejoin="square"></path>
            </g>
            <path d="M105.576416,41 L105.576416,27.4921875 L109.732666,27.4921875 C110.920172,27.4921875 111.982417,27.7596816 112.919434,28.2946777 C113.85645,28.8296739 114.587807,29.5904085 115.113525,30.5769043 C115.639244,31.5634001 115.9021,32.6844013 115.9021,33.9399414 L115.9021,34.5615234 C115.9021,35.8170636 115.643883,36.9334261 115.127441,37.9106445 C114.611,38.887863 113.882736,39.6455051 112.942627,40.1835938 C112.002518,40.7216824 110.941819,40.9938151 109.760498,41 L105.576416,41 Z M108.359619,29.746582 L108.359619,38.7641602 L109.704834,38.7641602 C110.793381,38.7641602 111.625241,38.4085322 112.200439,37.6972656 C112.775638,36.985999 113.069417,35.9685939 113.081787,34.6450195 L113.081787,33.9306641 C113.081787,32.5576103 112.797285,31.517012 112.228271,30.8088379 C111.659258,30.1006638 110.827398,29.746582 109.732666,29.746582 L108.359619,29.746582 Z M122.368408,41.1855469 C120.896396,41.1855469 119.698084,40.734054 118.773438,39.8310547 C117.848791,38.9280554 117.386475,37.7251052 117.386475,36.222168 L117.386475,35.9624023 C117.386475,34.9542593 117.581297,34.0528197 117.970947,33.2580566 C118.360598,32.4632936 118.912594,31.850995 119.626953,31.4211426 C120.341312,30.9912902 121.156164,30.7763672 122.071533,30.7763672 C123.444587,30.7763672 124.525387,31.2093056 125.313965,32.0751953 C126.102543,32.9410851 126.496826,34.1687746 126.496826,35.7583008 L126.496826,36.8530273 L120.104736,36.8530273 C120.191325,37.5086296 120.452635,38.0343405 120.888672,38.4301758 C121.324709,38.8260111 121.876706,39.0239258 122.544678,39.0239258 C123.577561,39.0239258 124.384681,38.6497433 124.966064,37.9013672 L126.283447,39.3764648 C125.881427,39.9454781 125.337162,40.3892399 124.650635,40.7077637 C123.964108,41.0262874 123.203373,41.1855469 122.368408,41.1855469 Z M122.062256,32.9472656 C121.530352,32.9472656 121.09896,33.1266258 120.768066,33.4853516 C120.437173,33.8440773 120.225342,34.3574185 120.132568,35.0253906 L123.862061,35.0253906 L123.862061,34.8120117 C123.849691,34.2182588 123.688885,33.7590348 123.379639,33.4343262 C123.070392,33.1096175 122.631269,32.9472656 122.062256,32.9472656 Z M128.751221,41 L128.751221,32.9287109 L127.257568,32.9287109 L127.257568,30.9619141 L128.751221,30.9619141 L128.751221,30.1083984 C128.751221,28.9827418 129.074378,28.109134 129.720703,27.4875488 C130.367028,26.8659637 131.27156,26.5551758 132.434326,26.5551758 C132.805422,26.5551758 133.260007,26.6170241 133.798096,26.7407227 L133.770264,28.8188477 C133.547606,28.7631833 133.275474,28.7353516 132.953857,28.7353516 C131.945714,28.7353516 131.44165,29.2084914 131.44165,30.1547852 L131.44165,30.9619141 L133.436279,30.9619141 L133.436279,32.9287109 L131.44165,32.9287109 L131.44165,41 L128.751221,41 Z M140.644775,41 C140.521077,40.7587879 140.431397,40.4588234 140.375732,40.1000977 C139.726315,40.8237341 138.882085,41.1855469 137.843018,41.1855469 C136.859614,41.1855469 136.044762,40.9010445 135.398438,40.3320312 C134.752113,39.763018 134.428955,39.0455772 134.428955,38.1796875 C134.428955,37.1158801 134.823238,36.299482 135.611816,35.7304688 C136.400395,35.1614555 137.53995,34.8738607 139.030518,34.8676758 L140.264404,34.8676758 L140.264404,34.2924805 C140.264404,33.828611 140.145346,33.4575209 139.907227,33.1791992 C139.669107,32.9008775 139.293378,32.7617188 138.780029,32.7617188 C138.32853,32.7617188 137.974448,32.8699533 137.717773,33.0864258 C137.461099,33.3028982 137.332764,33.5997702 137.332764,33.9770508 L134.651611,33.9770508 C134.651611,33.3956677 134.830972,32.8575871 135.189697,32.362793 C135.548423,31.8679988 136.055579,31.4799005 136.711182,31.1984863 C137.366784,30.9170722 138.102779,30.7763672 138.919189,30.7763672 C140.156175,30.7763672 141.138017,31.0871551 141.864746,31.7087402 C142.591475,32.3303254 142.954834,33.2039332 142.954834,34.3295898 L142.954834,38.6806641 C142.961019,39.6331428 143.093993,40.3536759 143.35376,40.8422852 L143.35376,41 L140.644775,41 Z M138.42749,39.1352539 C138.823326,39.1352539 139.188231,39.04712 139.522217,38.8708496 C139.856203,38.6945792 140.103596,38.4580093 140.264404,38.1611328 L140.264404,36.4355469 L139.262451,36.4355469 C137.920322,36.4355469 137.205974,36.8994094 137.119385,37.8271484 L137.110107,37.9848633 C137.110107,38.3188493 137.227619,38.5940744 137.462646,38.8105469 C137.697674,39.0270193 138.019285,39.1352539 138.42749,39.1352539 Z M151.026123,39.9794922 C150.364336,40.7835327 149.44898,41.1855469 148.280029,41.1855469 C147.203852,41.1855469 146.382815,40.8763052 145.816895,40.2578125 C145.250974,39.6393198 144.961833,38.7332416 144.949463,37.5395508 L144.949463,30.9619141 L147.630615,30.9619141 L147.630615,37.4467773 C147.630615,38.49203 148.106847,39.0146484 149.059326,39.0146484 C149.96851,39.0146484 150.593179,38.6992219 150.93335,38.0683594 L150.93335,30.9619141 L153.623779,30.9619141 L153.623779,41 L151.100342,41 L151.026123,39.9794922 Z M158.47583,41 L155.7854,41 L155.7854,26.75 L158.47583,26.75 L158.47583,41 Z M163.893799,28.4941406 L163.893799,30.9619141 L165.610107,30.9619141 L165.610107,32.9287109 L163.893799,32.9287109 L163.893799,37.9384766 C163.893799,38.3095722 163.964924,38.57552 164.107178,38.7363281 C164.249431,38.8971362 164.521564,38.9775391 164.923584,38.9775391 C165.22046,38.9775391 165.483316,38.9558921 165.712158,38.9125977 L165.712158,40.9443359 C165.186439,41.105144 164.645266,41.1855469 164.088623,41.1855469 C162.208405,41.1855469 161.249756,40.2361749 161.212646,38.3374023 L161.212646,32.9287109 L159.746826,32.9287109 L159.746826,30.9619141 L161.212646,30.9619141 L161.212646,28.4941406 L163.893799,28.4941406 Z M172.011475,41 L172.011475,27.4921875 L176.74292,27.4921875 C178.381926,27.4921875 179.625077,27.8060678 180.472412,28.4338379 C181.319747,29.061608 181.743408,29.981602 181.743408,31.1938477 C181.743408,31.8556348 181.573325,32.4385554 181.233154,32.942627 C180.892983,33.4466985 180.419844,33.8162423 179.813721,34.0512695 C180.506433,34.2244475 181.052244,34.5738906 181.451172,35.0996094 C181.8501,35.6253281 182.049561,36.2685509 182.049561,37.0292969 C182.049561,38.3281315 181.635177,39.3115201 180.806396,39.9794922 C179.977616,40.6474643 178.796313,40.9876301 177.262451,41 L172.011475,41 Z M174.794678,35.1181641 L174.794678,38.7641602 L177.178955,38.7641602 C177.834557,38.7641602 178.346352,38.6079931 178.714355,38.2956543 C179.082359,37.9833155 179.266357,37.5519233 179.266357,37.0014648 C179.266357,35.7644795 178.626227,35.1367188 177.345947,35.1181641 L174.794678,35.1181641 Z M174.794678,33.1513672 L176.854248,33.1513672 C178.258226,33.1266275 178.960205,32.5669 178.960205,31.472168 C178.960205,30.8598602 178.782391,30.4191908 178.426758,30.1501465 C178.071125,29.8811022 177.509851,29.746582 176.74292,29.746582 L174.794678,29.746582 L174.794678,33.1513672 Z M189.972412,39.9794922 C189.310625,40.7835327 188.39527,41.1855469 187.226318,41.1855469 C186.150141,41.1855469 185.329104,40.8763052 184.763184,40.2578125 C184.197263,39.6393198 183.908122,38.7332416 183.895752,37.5395508 L183.895752,30.9619141 L186.576904,30.9619141 L186.576904,37.4467773 C186.576904,38.49203 187.053137,39.0146484 188.005615,39.0146484 C188.914799,39.0146484 189.539468,38.6992219 189.879639,38.0683594 L189.879639,30.9619141 L192.570068,30.9619141 L192.570068,41 L190.046631,41 L189.972412,39.9794922 Z M197.80249,28.4941406 L197.80249,30.9619141 L199.518799,30.9619141 L199.518799,32.9287109 L197.80249,32.9287109 L197.80249,37.9384766 C197.80249,38.3095722 197.873616,38.57552 198.015869,38.7363281 C198.158122,38.8971362 198.430255,38.9775391 198.832275,38.9775391 C199.129152,38.9775391 199.392007,38.9558921 199.62085,38.9125977 L199.62085,40.9443359 C199.095131,41.105144 198.553958,41.1855469 197.997314,41.1855469 C196.117097,41.1855469 195.158447,40.2361749 195.121338,38.3374023 L195.121338,32.9287109 L193.655518,32.9287109 L193.655518,30.9619141 L195.121338,30.9619141 L195.121338,28.4941406 L197.80249,28.4941406 Z M204.222412,28.4941406 L204.222412,30.9619141 L205.938721,30.9619141 L205.938721,32.9287109 L204.222412,32.9287109 L204.222412,37.9384766 C204.222412,38.3095722 204.293538,38.57552 204.435791,38.7363281 C204.578044,38.8971362 204.850177,38.9775391 205.252197,38.9775391 C205.549074,38.9775391 205.811929,38.9558921 206.040771,38.9125977 L206.040771,40.9443359 C205.515053,41.105144 204.97388,41.1855469 204.417236,41.1855469 C202.537019,41.1855469 201.578369,40.2361749 201.54126,38.3374023 L201.54126,32.9287109 L200.075439,32.9287109 L200.075439,30.9619141 L201.54126,30.9619141 L201.54126,28.4941406 L204.222412,28.4941406 Z M207.014893,35.8881836 C207.014893,34.8924104 207.206622,34.0048867 207.590088,33.2255859 C207.973553,32.4462852 208.52555,31.8432639 209.246094,31.4165039 C209.966638,30.989744 210.803137,30.7763672 211.755615,30.7763672 C213.110114,30.7763672 214.215653,31.1907511 215.072266,32.0195312 C215.928878,32.8483114 216.406656,33.9739512 216.505615,35.3964844 L216.52417,36.0830078 C216.52417,37.6230546 216.094324,38.8584752 215.234619,39.7893066 C214.374914,40.7201381 213.221443,41.1855469 211.77417,41.1855469 C210.326897,41.1855469 209.171879,40.7216843 208.309082,39.7939453 C207.446285,38.8662063 207.014893,37.6045002 207.014893,36.0087891 L207.014893,35.8881836 Z M209.696045,36.0830078 C209.696045,37.0354865 209.875405,37.7637507 210.234131,38.2678223 C210.592857,38.7718938 211.106198,39.0239258 211.77417,39.0239258 C212.423587,39.0239258 212.930744,38.7749862 213.295654,38.2770996 C213.660565,37.779213 213.843018,36.9829156 213.843018,35.8881836 C213.843018,34.9542597 213.660565,34.2306341 213.295654,33.7172852 C212.930744,33.2039362 212.417402,32.9472656 211.755615,32.9472656 C211.100013,32.9472656 210.592857,33.20239 210.234131,33.7126465 C209.875405,34.2229029 209.696045,35.0130155 209.696045,36.0830078 Z M220.643311,30.9619141 L220.726807,32.121582 C221.444258,31.2247677 222.406,30.7763672 223.612061,30.7763672 C224.675868,30.7763672 225.467527,31.0887013 225.987061,31.7133789 C226.506594,32.3380565 226.772542,33.2719664 226.784912,34.5151367 L226.784912,41 L224.10376,41 L224.10376,34.5800781 C224.10376,34.0110649 223.980063,33.5982272 223.732666,33.3415527 C223.485269,33.0848783 223.073977,32.956543 222.498779,32.956543 C221.744218,32.956543 221.178306,33.2781543 220.801025,33.9213867 L220.801025,41 L218.119873,41 L218.119873,30.9619141 L220.643311,30.9619141 Z M243.892334,29.746582 L239.754639,29.746582 L239.754639,41 L236.971436,41 L236.971436,29.746582 L232.889404,29.746582 L232.889404,27.4921875 L243.892334,27.4921875 L243.892334,29.746582 Z M249.922607,41.1855469 C248.450595,41.1855469 247.252283,40.734054 246.327637,39.8310547 C245.40299,38.9280554 244.940674,37.7251052 244.940674,36.222168 L244.940674,35.9624023 C244.940674,34.9542593 245.135496,34.0528197 245.525146,33.2580566 C245.914797,32.4632936 246.466793,31.850995 247.181152,31.4211426 C247.895511,30.9912902 248.710363,30.7763672 249.625732,30.7763672 C250.998786,30.7763672 252.079586,31.2093056 252.868164,32.0751953 C253.656742,32.9410851 254.051025,34.1687746 254.051025,35.7583008 L254.051025,36.8530273 L247.658936,36.8530273 C247.745525,37.5086296 248.006834,38.0343405 248.442871,38.4301758 C248.878908,38.8260111 249.430905,39.0239258 250.098877,39.0239258 C251.13176,39.0239258 251.938881,38.6497433 252.520264,37.9013672 L253.837646,39.3764648 C253.435626,39.9454781 252.891361,40.3892399 252.204834,40.7077637 C251.518307,41.0262874 250.757573,41.1855469 249.922607,41.1855469 Z M249.616455,32.9472656 C249.084551,32.9472656 248.653159,33.1266258 248.322266,33.4853516 C247.991372,33.8440773 247.779541,34.3574185 247.686768,35.0253906 L251.41626,35.0253906 L251.41626,34.8120117 C251.40389,34.2182588 251.243084,33.7590348 250.933838,33.4343262 C250.624592,33.1096175 250.185468,32.9472656 249.616455,32.9472656 Z M259.394775,33.9584961 L261.083252,30.9619141 L263.949951,30.9619141 L261.092529,35.8789062 L264.070557,41 L261.19458,41 L259.404053,37.8457031 L257.622803,41 L254.737549,41 L257.715576,35.8789062 L254.867432,30.9619141 L257.743408,30.9619141 L259.394775,33.9584961 Z M268.449463,28.4941406 L268.449463,30.9619141 L270.165771,30.9619141 L270.165771,32.9287109 L268.449463,32.9287109 L268.449463,37.9384766 C268.449463,38.3095722 268.520588,38.57552 268.662842,38.7363281 C268.805095,38.8971362 269.077228,38.9775391 269.479248,38.9775391 C269.776125,38.9775391 270.03898,38.9558921 270.267822,38.9125977 L270.267822,40.9443359 C269.742103,41.105144 269.200931,41.1855469 268.644287,41.1855469 C266.764069,41.1855469 265.80542,40.2361749 265.768311,38.3374023 L265.768311,32.9287109 L264.30249,32.9287109 L264.30249,30.9619141 L265.768311,30.9619141 L265.768311,28.4941406 L268.449463,28.4941406 Z" id="Default-Button-Text-Outlines" fill="#FFFFFF"></path>
        </g>
    </g>
</svg>