<svg height="69" viewBox="0 0 519 69" width="519" xmlns="http://www.w3.org/2000/svg"><g fill="none" fill-rule="evenodd"><path d="m0 0h519v69h-519z" fill="#f26522"/><path d="m197.144531 38.671875c.526045 0 .958332-.054687 1.296875-.1640625.60417-.203126 1.098957-.5937471 1.484375-1.171875.307293-.463544.528645-1.057288.664063-1.78125.078125-.4322938.117187-.8333315.117187-1.203125 0-1.4218821-.282549-2.5260377-.847656-3.3125s-1.475254-1.1796875-2.730469-1.1796875h-2.757812v8.8125zm-4.335937-10.1484375h4.648437c1.578133 0 2.802079.5598902 3.671875 1.6796875.776046 1.0104217 1.164063 2.3046796 1.164063 3.8828125 0 1.2187561-.229165 2.3203076-.6875 3.3046875-.807296 1.739592-2.195303 2.609375-4.164063 2.609375h-4.632812zm14.78125 2.921875c.593753 0 1.169268.1393215 1.726562.4179687.557295.2786473.98177.6393208 1.273438 1.0820313.281251.4218771.468749.9140597.5625 1.4765625.083334.3854186.125.9999958.125 1.84375h-6.132813c.026042.8489626.226561 1.5299454.601563 2.0429688.375002.5130233.955725.7695312 1.742187.7695312.734379 0 1.320311-.2421851 1.757813-.7265625.250001-.2812514.427083-.606769.53125-.9765625h1.382812c-.036458.3072932-.157551.6497377-.363281 1.0273438-.20573.377606-.436197.6861967-.691406.9257812-.427086.4166687-.955726.6979159-1.585938.84375-.338543.0833338-.721352.125-1.148437.125-1.041672 0-1.924476-.3789025-2.648438-1.1367188-.723962-.7578162-1.085937-1.8190035-1.085937-3.1835937 0-1.3437567.364579-2.4348916 1.09375-3.2734375.72917-.8385459 1.682286-1.2578125 2.859375-1.2578125zm2.242187 3.703125c-.057292-.609378-.190103-1.0963523-.398437-1.4609375-.385419-.6770867-1.028642-1.015625-1.929688-1.015625-.645836 0-1.187498.2330706-1.625.6992188-.437502.4661481-.66927 1.0585901-.695312 1.7773437zm3.523438-4.7890625c.020833-.5833362.122395-1.0104153.304687-1.28125.328127-.4791691.960933-.71875 1.898438-.71875.088542 0 .179687.0026041.273437.0078125.093751.0052084.20052.0130208.320313.0234375v1.28125c-.145834-.0104167-.251302-.0169271-.316406-.0195312-.065105-.0026042-.126302-.0039063-.183594-.0039063-.427086 0-.682291.110676-.765625.3320313-.083334.2213552-.125.7851517-.125 1.6914062h1.390625v1.109375h-1.40625v7.21875h-1.390625v-7.21875h-1.164063v-1.109375h1.164063zm5.171875 7.4140625c0 .406252.148436.7265613.445312.9609375.296877.2343762.648436.3515625 1.054688.3515625.494794 0 .973956-.1145822 1.4375-.34375.781254-.3802102 1.171875-1.0025998 1.171875-1.8671875v-1.1328125c-.171876.1093755-.393228.2005205-.664063.2734375-.270834.072917-.536457.1249998-.796875.15625l-.851562.109375c-.510419.0677087-.893228.1744784-1.148438.3203125-.432294.2447929-.648437.635414-.648437 1.171875zm3.40625-2.84375c.322918-.0416669.539062-.1770822.648437-.40625.062501-.1250006.09375-.3046863.09375-.5390625 0-.4791691-.170571-.8268218-.511719-1.0429688-.341147-.2161469-.829423-.3242187-1.464843-.3242187-.734379 0-1.255207.1979147-1.5625.59375-.171876.2187511-.283854.5442687-.335938.9765625h-1.3125c.026042-1.0312552.360674-1.7486959 1.003907-2.1523438.643232-.4036478 1.389318-.6054687 2.238281-.6054687.98438 0 1.783851.1874981 2.398437.5625.609378.3750019.914063.9583294.914063 1.75v4.8203125c0 .1458341.029947.2630204.089843.3515625.059897.0885421.186197.1328125.378907.1328125.0625 0 .132812-.0039062.210937-.0117188.078126-.0078125.161458-.0195311.25-.0351562v1.0390625c-.218751.0625003-.385416.1015624-.5.1171875s-.270832.0234375-.46875.0234375c-.484377 0-.835936-.1718733-1.054687-.515625-.114584-.1822926-.195313-.4401025-.242188-.7734375-.28646.3750019-.697914.7005195-1.234375.9765625s-1.127601.4140625-1.773437.4140625c-.776046 0-1.410154-.2356747-1.902344-.7070312-.49219-.4713566-.738281-1.0611944-.738281-1.7695313 0-.7760455.242185-1.377602.726562-1.8046875.484378-.4270855 1.119788-.6901037 1.90625-.7890625zm5.820312-3.296875v5.5546875c0 .4270855.067708.7760403.203125 1.046875.250001.5000025.716143.75 1.398438.75.979171 0 1.645831-.4374956 2-1.3125.192709-.4687523.289062-1.1119751.289062-1.9296875v-4.109375h1.40625v8.3671875h-1.328125l.015625-1.234375c-.182292.3177099-.408853.5859364-.679687.8046875-.536461.4375022-1.187496.65625-1.953125.65625-1.192715 0-2.005206-.3984335-2.4375-1.1953125-.234376-.4270855-.351563-.9973923-.351563-1.7109375v-5.6875zm7.53125-3.109375h1.40625v11.4765625h-1.40625zm3.796875.7734375h1.421875v2.3359375h1.335938v1.1484375h-1.335938v5.4609375c0 .2916681.098958.4869787.296875.5859375.109376.057292.291666.0859375.546875.0859375.067709 0 .140625-.0013021.21875-.0039063.078126-.0026041.169271-.0091145.273438-.0195312v1.109375c-.161459.0468752-.329426.0807291-.503906.1015625-.174481.0208334-.363281.03125-.566407.03125-.656253 0-1.101561-.1679671-1.335937-.5039063-.234376-.3359391-.351563-.7721327-.351563-1.3085937v-5.5390625h-1.132812v-1.1484375h1.132812zm13.109375 4.078125c.656254 0 1.166665-.0911449 1.53125-.2734375.57292-.2864598.859375-.8020796.859375-1.546875 0-.7500037-.304684-1.255207-.914062-1.515625-.343752-.1458341-.854164-.21875-1.53125-.21875h-2.773438v3.5546875zm.523438 5.296875c.95313 0 1.63281-.2760389 2.039062-.828125.25521-.3489601.382813-.7708309.382813-1.265625 0-.8333375-.372392-1.4010402-1.117188-1.703125-.395835-.1614591-.919267-.2421875-1.570312-.2421875h-3.085938v4.0390625zm-4.875-10.1484375h4.929687c1.343757 0 2.299477.4010377 2.867188 1.203125.333335.4739607.5 1.0208302.5 1.640625 0 .723962-.205727 1.317706-.617188 1.78125-.213542.2447929-.520831.468749-.921875.671875.588545.2239595 1.028645.4765611 1.320313.7578125.515627.5000025.773437 1.1900998.773437 2.0703125 0 .739587-.231768 1.4088512-.695312 2.0078125-.692712.8958378-1.794264 1.34375-3.304688 1.34375h-4.851562zm11.929687 3.109375v5.5546875c0 .4270855.067708.7760403.203125 1.046875.250001.5000025.716143.75 1.398438.75.979171 0 1.645831-.4374956 2-1.3125.192709-.4687523.289062-1.1119751.289062-1.9296875v-4.109375h1.40625v8.3671875h-1.328125l.015625-1.234375c-.182292.3177099-.408853.5859364-.679687.8046875-.536461.4375022-1.187496.65625-1.953125.65625-1.192715 0-2.005206-.3984335-2.4375-1.1953125-.234376-.4270855-.351563-.9973923-.351563-1.7109375v-5.6875zm7.773438-2.3359375h1.421875v2.3359375h1.335937v1.1484375h-1.335937v5.4609375c0 .2916681.098957.4869787.296875.5859375.109375.057292.291665.0859375.546875.0859375.067708 0 .140624-.0013021.21875-.0039063.078125-.0026041.16927-.0091145.273437-.0195312v1.109375c-.161459.0468752-.329426.0807291-.503906.1015625s-.36328.03125-.566406.03125c-.656254 0-1.101562-.1679671-1.335938-.5039063-.234376-.3359391-.351562-.7721327-.351562-1.3085937v-5.5390625h-1.132813v-1.1484375h1.132813zm4.445312 0h1.421875v2.3359375h1.335938v1.1484375h-1.335938v5.4609375c0 .2916681.098958.4869787.296875.5859375.109376.057292.291666.0859375.546875.0859375.067709 0 .140625-.0013021.21875-.0039063.078126-.0026041.169271-.0091145.273438-.0195312v1.109375c-.161459.0468752-.329426.0807291-.503906.1015625-.174481.0208334-.363281.03125-.566407.03125-.656253 0-1.101561-.1679671-1.335937-.5039063-.234376-.3359391-.351563-.7721327-.351563-1.3085937v-5.5390625h-1.132812v-1.1484375h1.132812zm7.484375 9.796875c.932297 0 1.571613-.3528611 1.917969-1.0585938.346356-.7057326.519531-1.490881.519531-2.3554687 0-.7812539-.124999-1.4166642-.375-1.90625-.395835-.7708372-1.07812-1.15625-2.046875-1.15625-.859379 0-1.484373.3281217-1.875.984375s-.585937 1.447912-.585937 2.375c0 .8906295.19531 1.6328095.585937 2.2265625s1.010413.890625 1.859375.890625zm.054688-7.703125c1.07813 0 1.989579.3593714 2.734375 1.078125.744795.7187536 1.117187 1.7760347 1.117187 3.171875 0 1.3489651-.328121 2.4635373-.984375 3.34375-.656253.8802127-1.674472 1.3203125-3.054687 1.3203125-1.151048 0-2.065101-.389319-2.742188-1.1679687-.677086-.7786498-1.015625-1.8242122-1.015625-3.1367188 0-1.406257.356768-2.5260375 1.070313-3.359375s1.671869-1.25 2.875-1.25zm5.523437.2421875h1.335938v1.1875c.395835-.4895858.815102-.8411448 1.257812-1.0546875.442711-.2135427.934893-.3203125 1.476563-.3203125 1.187506 0 1.989581.4140584 2.40625 1.2421875.229168.4531273.34375 1.1015583.34375 1.9453125v5.3671875h-1.429688v-5.2734375c0-.5104192-.07552-.9218734-.226562-1.234375-.250001-.5208359-.703122-.78125-1.359375-.78125-.333335 0-.60677.0338538-.820313.1015625-.385418.1145839-.723957.3437483-1.015625.6875-.234376.276043-.386718.5611964-.457031.8554688-.070313.2942723-.105469.714841-.105469 1.2617187v4.3828125h-1.40625zm21.882813-3.109375v1.3671875h-3.867188v10.109375h-1.578125v-10.109375h-3.867187v-1.3671875zm4.71875 2.921875c.593753 0 1.169268.1393215 1.726562.4179687.557295.2786473.98177.6393208 1.273438 1.0820313.281251.4218771.468749.9140597.5625 1.4765625.083334.3854186.125.9999958.125 1.84375h-6.132813c.026042.8489626.226561 1.5299454.601563 2.0429688.375002.5130233.955725.7695312 1.742187.7695312.734379 0 1.320311-.2421851 1.757813-.7265625.250001-.2812514.427083-.606769.53125-.9765625h1.382812c-.036458.3072932-.157551.6497377-.363281 1.0273438-.20573.377606-.436197.6861967-.691406.9257812-.427086.4166687-.955726.6979159-1.585938.84375-.338543.0833338-.721352.125-1.148437.125-1.041672 0-1.924476-.3789025-2.648438-1.1367188-.723962-.7578162-1.085937-1.8190035-1.085937-3.1835937 0-1.3437567.364579-2.4348916 1.09375-3.2734375.72917-.8385459 1.682286-1.2578125 2.859375-1.2578125zm2.242187 3.703125c-.057292-.609378-.190103-1.0963523-.398437-1.4609375-.385419-.6770867-1.028642-1.015625-1.929688-1.015625-.645836 0-1.187498.2330706-1.625.6992188-.437502.4661481-.66927 1.0585901-.695312 1.7773437zm2.375-3.515625h1.820313l1.921875 2.9453125 1.945312-2.9453125 1.710938.0390625-2.820313 4.0390625 2.945313 4.2890625h-1.796875l-2.078125-3.140625-2.015625 3.140625h-1.78125l2.945312-4.2890625zm9.078125-2.3359375h1.421875v2.3359375h1.335938v1.1484375h-1.335938v5.4609375c0 .2916681.098958.4869787.296875.5859375.109376.057292.291666.0859375.546875.0859375.067709 0 .140625-.0013021.21875-.0039063.078126-.0026041.169271-.0091145.273438-.0195312v1.109375c-.161459.0468752-.329426.0807291-.503907.1015625-.17448.0208334-.36328.03125-.566406.03125-.656253 0-1.101561-.1679671-1.335937-.5039063-.234376-.3359391-.351563-.7721327-.351563-1.3085937v-5.5390625h-1.132812v-1.1484375h1.132812z" fill="#fff"/></g></svg>