<svg height="69" viewBox="0 0 462 69" width="462" xmlns="http://www.w3.org/2000/svg"><g fill="none" fill-rule="evenodd"><path d="m34.5 0h393c19.053824 0 34.5 15.4461761 34.5 34.5 0 19.0538239-15.446176 34.5-34.5 34.5h-393c-19.0538239 0-34.5-15.4461761-34.5-34.5 0-19.0538239 15.4461761-34.5 34.5-34.5z" fill="#ff8744"/><g fill="#fff" transform="translate(129 23)"><path d="m47.003 12.1315c0 1.007005-.1678317 1.9316625-.5035 2.774s-.807497 1.567497-1.4155 2.1755-1.3394957 1.0798317-2.1945 1.4155-1.8018281.5035-2.8405.5035h-5.244v-13.737h5.244c1.0386719 0 1.9854957.16941497 2.8405.50825s1.586497.81066364 2.1945 1.4155 1.0798317 1.32841245 1.4155 2.17075c.3356683.8423375.5035 1.766995.5035 2.774zm-2.6125 0c0-.7536704-.1013323-1.429747-.304-2.02825-.2026677-.59850299-.4908315-1.10516459-.8645-1.52s-.8280807-.73308223-1.36325-.95475-1.1384133-.3325-1.80975-.3325h-2.6695v9.671h2.6695c.6713367 0 1.2745807-.1108322 1.80975-.3325s.9895815-.5399146 1.36325-.95475.6618323-.921497.8645-1.52.304-1.2745796.304-2.02825zm8.512-3.0305c.6143364 0 1.1795808.09816569 1.69575.2945s.9610815.48291478 1.33475.85975c.3736685.3768352.664999.8391639.874 1.387s.3135 1.1732465.3135 1.87625c0 .1773342-.0079166.3245827-.02375.44175s-.0443331.2089997-.0855.2755-.096583.1139999-.16625.1425-.1583328.04275-.266.04275h-6.023c.069667 1.0006717.338831 1.735331.8075 2.204s1.0893295.703 1.862.703c.3800019 0 .7077486-.0443329.98325-.133s.5161656-.1868328.722-.2945.3863326-.2058329.5415-.2945.3055826-.133.45125-.133c.0950005 0 .177333.0189998.247.057s.1298331.091833.1805.1615l.684.855c-.259668.3040015-.5509984.5589156-.874.76475s-.6602482.3704994-1.01175.494-.7093315.2105831-1.0735.26125-.7172483.076-1.05925.076c-.6776701 0-1.3078304-.1124155-1.8905-.33725s-1.0893312-.5573311-1.52-.9975-.7694988-.9848301-1.0165-1.634-.3705-1.4012457-.3705-2.25625c0-.6650033.1076656-1.2904137.323-1.87625s.5240813-1.0956645.92625-1.5295.8929971-.7774154 1.4725-1.03075 1.233413-.38 1.96175-.38zm.0475 1.6815c-.6840034 0-1.2191647.1931647-1.6055.5795s-.6333328.9341631-.741 1.6435h4.408c0-.3040015-.0411663-.590582-.1235-.85975s-.2089991-.5050823-.38-.70775-.386332-.3625827-.646-.47975-.5636649-.17575-.912-.17575zm6.498 8.2175v-7.98l-.8455-.133c-.1836676-.0316668-.3309161-.0949995-.44175-.19s-.16625-.2279991-.16625-.399v-.9595h1.4535v-.722c0-.55733612.0839158-1.05766445.25175-1.501s.4084984-.82016512.722-1.1305c.3135016-.31033489.6950811-.54783251 1.14475-.7125s.9563305-.247 1.52-.247c.4496689 0 .8676647.06016607 1.254.1805l-.0475 1.178c-.0126667.18366759-.0981659.29766645-.2565.342-.1583341.04433356-.341999.0665-.551.0665-.2786681 0-.5272489.03008303-.74575.09025s-.4037492.16466592-.55575.3135-.2675829.34516545-.34675.589-.11875.54624819-.11875.90725v.646h2.5365v1.672h-2.4605v7.9895zm13.8795 0h-1.0545c-.2216678 0-.3958327-.0332497-.5225-.09975s-.2216664-.2010823-.285-.40375l-.209-.6935c-.2470012.2216678-.4892488.4164158-.72675.58425s-.4829154.3087494-.73625.42275-.5224986.1994997-.8075.2565-.6016649.0855-.95.0855c-.4116687 0-.7916649-.0554161-1.14-.16625s-.6475821-.2770822-.89775-.49875-.444916-.497165-.58425-.8265-.209-.7124978-.209-1.1495c0-.3673352.0965824-.7299149.28975-1.08775s.5145811-.6808319.96425-.969 1.0481629-.527249 1.7955-.71725c.7473371-.1900009 1.6751611-.2976665 2.7835-.323v-.57c0-.6523366-.1377486-1.1352484-.41325-1.44875s-.6760807-.47025-1.20175-.47025c-.3800019 0-.6966654.0443329-.95.133s-.4734157.1884161-.66025.29925-.3594159.2105829-.51775.29925-.332499.133-.5225.133c-.1583341 0-.2944994-.0411663-.4085-.1235s-.205833-.1836661-.2755-.304l-.4275-.7505c1.1210056-1.02600513 2.4731587-1.539 4.0565-1.539.5700029 0 1.0782478.09341573 1.52475.28025s.8249151.44649834 1.13525.779c.3103349.3325017.5462492.7299144.70775 1.19225s.24225.9689972.24225 1.52zm-4.56-1.463c.2406679 0 .4623323-.0221664.665-.0665s.3942491-.1108329.57475-.1995.3546658-.197916.5225-.32775.3372491-.2834158.50825-.46075v-1.6435c-.6840034.0316668-1.255581.0902496-1.71475.17575s-.8280819.1947493-1.10675.32775-.4765827.2881658-.59375.4655-.17575.370499-.17575.5795c0 .4116687.1219154.7061658.36575.8835s.5620814.266.95475.266zm9.0155-8.284v6.194c0 .5953363.1377486 1.0560817.41325 1.38225s.6887472.48925 1.23975.48925c.4053354 0 .7853316-.0902491 1.14-.27075s.6903318-.4290818 1.007-.74575v-7.049h2.3465v9.747h-1.4345c-.3040015 0-.5034995-.1424986-.5985-.4275l-.1615-.779c-.2026677.2026677-.4116656.3879158-.627.55575s-.4449154.3103327-.68875.4275-.5066653.2089997-.7885.2755-.5842484.09975-.90725.09975c-.5320027 0-1.002248-.0902491-1.41075-.27075s-.7520819-.435415-1.03075-.76475-.4892493-.7204144-.63175-1.17325-.21375-.9515806-.21375-1.49625v-6.194zm11.153-4.37v14.117h-2.3465v-14.117zm5.852 14.269c-.8423375 0-1.4914977-.2390809-1.9475-.71725s-.684-1.1384125-.684-1.98075v-5.4435h-.988c-.1266673 0-.2359162-.0411663-.32775-.1235s-.13775-.2058325-.13775-.3705v-.931l1.5675-.2565.494-2.66c.0253335-.1266673.0839162-.22483298.17575-.2945.0918338-.06966701.207416-.1045.34675-.1045h1.216v3.0685h2.565v1.672h-2.565v5.282c0 .3040015.0759992.5414991.228.7125s.3546654.2565.608.2565c.1456674 0 .2675828-.0174165.36575-.05225s.1836663-.0712498.2565-.10925.1377497-.0744165.19475-.10925.1139997-.05225.171-.05225c.069667 0 .1266664.0174165.171.05225s.0918331.087083.1425.15675l.703 1.14c-.3420017.2850014-.7346644.5003326-1.178.646-.4433355.1456674-.9024976.2185-1.3775.2185zm7.9515-.152v-13.737h4.7405c.899338 0 1.667247.08549914 2.30375.2565.636503.17100085 1.158998.41483175 1.5675.7315s.707749.69983109.89775 1.1495c.190001.44966892.285.95633052.285 1.52 0 .32300161-.0475.63174853-.1425.92625-.095.2945015-.242249.5699987-.44175.8265s-.452832.489249-.76.69825-.672915.3863326-1.09725.532c1.887343.4243355 2.831 1.4439919 2.831 3.059 0 .5826696-.110832 1.1209975-.3325 1.615s-.544665.9199149-.969 1.27775-.94683.6380823-1.5675.84075-1.329996.304-2.128.304zm2.5555-6.023v4.028h2.5935c.475002 0 .872415-.0569994 1.19225-.171s.576332-.2659991.7695-.456.3325-.4116654.418-.665.12825-.5224986.12825-.8075c0-.2976682-.0475-.5652488-.1425-.80275s-.243832-.4401658-.4465-.608-.462332-.2960829-.779-.38475-.699831-.133-1.1495-.133zm0-1.767h2.0425c.867671 0 1.526331-.1583317 1.976-.475.449669-.3166682.6745-.82016322.6745-1.5105 0-.71567024-.202665-1.22549848-.608-1.5295s-1.038662-.456-1.9-.456h-2.185zm11.837-1.957v6.194c0 .5953363.137749 1.0560817.41325 1.38225s.688747.48925 1.23975.48925c.405335 0 .785332-.0902491 1.14-.27075s.690332-.4290818 1.007-.74575v-7.049h2.3465v9.747h-1.4345c-.304002 0-.5035-.1424986-.5985-.4275l-.1615-.779c-.202668.2026677-.411666.3879158-.627.55575s-.444915.3103327-.68875.4275-.506665.2089997-.7885.2755-.584248.09975-.90725.09975c-.532003 0-1.002248-.0902491-1.41075-.27075s-.752082-.435415-1.03075-.76475-.489249-.7204144-.63175-1.17325-.21375-.9515806-.21375-1.49625v-6.194zm11.856 9.899c-.842338 0-1.491498-.2390809-1.9475-.71725s-.684-1.1384125-.684-1.98075v-5.4435h-.988c-.126667 0-.235916-.0411663-.32775-.1235s-.13775-.2058325-.13775-.3705v-.931l1.5675-.2565.494-2.66c.025333-.1266673.083916-.22483298.17575-.2945.091834-.06966701.207416-.1045.34675-.1045h1.216v3.0685h2.565v1.672h-2.565v5.282c0 .3040015.075999.5414991.228.7125s.354665.2565.608.2565c.145667 0 .267583-.0174165.36575-.05225s.183666-.0712498.2565-.10925.13775-.0744165.19475-.10925.114-.05225.171-.05225c.069667 0 .126666.0174165.171.05225s.091833.087083.1425.15675l.703 1.14c-.342002.2850014-.734664.5003326-1.178.646s-.902498.2185-1.3775.2185zm7.353 0c-.842338 0-1.491498-.2390809-1.9475-.71725s-.684-1.1384125-.684-1.98075v-5.4435h-.988c-.126667 0-.235916-.0411663-.32775-.1235s-.13775-.2058325-.13775-.3705v-.931l1.5675-.2565.494-2.66c.025333-.1266673.083916-.22483298.17575-.2945.091834-.06966701.207416-.1045.34675-.1045h1.216v3.0685h2.565v1.672h-2.565v5.282c0 .3040015.075999.5414991.228.7125s.354665.2565.608.2565c.145667 0 .267583-.0174165.36575-.05225s.183666-.0712498.2565-.10925.13775-.0744165.19475-.10925.114-.05225.171-.05225c.069667 0 .126666.0174165.171.05225s.091833.087083.1425.15675l.703 1.14c-.342002.2850014-.734664.5003326-1.178.646s-.902498.2185-1.3775.2185zm8.3125-10.051c.728337 0 1.38858.1171655 1.98075.3515.59217.23433451 1.097248.5668312 1.51525.9975s.740999.9563302.969 1.577.342 1.3141628.342 2.0805c0 .7726705-.113999 1.4693302-.342 2.09s-.550998 1.1494978-.969 1.5865-.92308.7726655-1.51525 1.007-1.252413.3515-1.98075.3515-1.390164-.1171655-1.9855-.3515-1.103581-.5699978-1.52475-1.007-.747332-.9658302-.9785-1.5865-.34675-1.3173295-.34675-2.09c0-.7663372.115582-1.4598302.34675-2.0805s.557331-1.1463312.9785-1.577.929414-.76316549 1.52475-.9975c.595336-.2343345 1.257163-.3515 1.9855-.3515zm0 8.2365c.810671 0 1.410748-.2723306 1.80025-.817s.58425-1.3426614.58425-2.394-.194748-1.8524972-.58425-2.4035-.989579-.8265-1.80025-.8265c-.823337 0-1.431331.2770806-1.824.83125s-.589 1.3537448-.589 2.39875.196331 1.8414139.589 2.38925 1.000663.82175 1.824.82175zm6.6405 1.6625v-9.747h1.4345c.304002 0 .5035.14249858.5985.4275l.1615.7695c.196334-.2026677.403749-.3863325.62225-.551.218501-.16466749.449665-.30716606.6935-.4275.243835-.12033393.505082-.21216635.78375-.2755s.582665-.095.912-.095c.532003 0 1.003831.0902491 1.4155.27075s.755249.4338317 1.03075.76.484499.7156644.627 1.1685.21375.9515806.21375 1.49625v6.2035h-2.3465v-6.2035c0-.5953363-.137749-1.0560817-.41325-1.38225s-.688747-.48925-1.23975-.48925c-.405335 0-.785332.0918324-1.14.2755s-.690332.4338317-1.007.7505v7.049zm24.282-13.737v2.0995h-4.1325v11.6375h-2.5555v-11.6375h-4.1515v-2.0995zm5.5195 3.838c.614336 0 1.179581.09816569 1.69575.2945s.961081.48291478 1.33475.85975c.373669.3768352.664999.8391639.874 1.387s.3135 1.1732465.3135 1.87625c0 .1773342-.007917.3245827-.02375.44175s-.044333.2089997-.0855.2755-.096583.1139999-.16625.1425-.158333.04275-.266.04275h-6.023c.069667 1.0006717.338831 1.735331.8075 2.204s1.089329.703 1.862.703c.380002 0 .707749-.0443329.98325-.133s.516166-.1868328.722-.2945.386333-.2058329.5415-.2945.305583-.133.45125-.133c.095 0 .177333.0189998.247.057s.129833.091833.1805.1615l.684.855c-.259668.3040015-.550998.5589156-.874.76475s-.660248.3704994-1.01175.494-.709332.2105831-1.0735.26125-.717248.076-1.05925.076c-.67767 0-1.30783-.1124155-1.8905-.33725s-1.089331-.5573311-1.52-.9975-.769499-.9848301-1.0165-1.634-.3705-1.4012457-.3705-2.25625c0-.6650033.107666-1.2904137.323-1.87625s.524081-1.0956645.92625-1.5295.892997-.7774154 1.4725-1.03075 1.233413-.38 1.96175-.38zm.0475 1.6815c-.684003 0-1.219165.1931647-1.6055.5795s-.633333.9341631-.741 1.6435h4.408c0-.3040015-.041166-.590582-.1235-.85975s-.208999-.5050823-.38-.70775-.386332-.3625827-.646-.47975-.563665-.17575-.912-.17575zm8.3885 3.192-3.2015-4.7215h2.261c.171001 0 .297666.02374976.38.07125s.155166.1250828.2185.23275l2.0425 3.2585c.031667-.1076672.07125-.2153328.11875-.323s.106083-.2153328.17575-.323l1.6435-2.565c.076-.12033393.155166-.20899971.2375-.266.082334-.05700028.183666-.0855.304-.0855h2.1565l-3.211 4.617 3.344 5.13h-2.261c-.171001 0-.308749-.0443329-.41325-.133s-.191583-.1899994-.26125-.304l-2.071-3.3915c-.057.2280011-.136166.4179992-.2375.57l-1.824 2.8215c-.069667.1076672-.155166.2074162-.2565.29925s-.227999.13775-.38.13775h-2.0995zm11.153 5.1775c-.842338 0-1.491498-.2390809-1.9475-.71725s-.684-1.1384125-.684-1.98075v-5.4435h-.988c-.126667 0-.235916-.0411663-.32775-.1235s-.13775-.2058325-.13775-.3705v-.931l1.5675-.2565.494-2.66c.025333-.1266673.083916-.22483298.17575-.2945.091834-.06966701.207416-.1045.34675-.1045h1.216v3.0685h2.565v1.672h-2.565v5.282c0 .3040015.075999.5414991.228.7125s.354665.2565.608.2565c.145667 0 .267583-.0174165.36575-.05225s.183666-.0712498.2565-.10925.13775-.0744165.19475-.10925.114-.05225.171-.05225c.069667 0 .126666.0174165.171.05225s.091833.087083.1425.15675l.703 1.14c-.342002.2850014-.734664.5003326-1.178.646s-.902498.2185-1.3775.2185z"/><path d="m7.77520436 20-7.77520436-7.6979274 1.92643052-1.9071169 5.84877384 5.7894619 11.29836514-11.1844176 1.9264305 1.90711685z"/></g></g></svg>