<?xml version="1.0" encoding="UTF-8" standalone="no"?>
<svg xmlns:svg="http://www.w3.org/2000/svg" xmlns="http://www.w3.org/2000/svg" version="1.1" width="1792" height="1792" viewBox="0 0 1792 1792">
  <path fill="blue" d="M 176,352 C 79.603023,352 0,431.60302 0,528 l 0,736 c 0,96.397 79.603023,176 176,176 l 1440,0 c 96.397,0 176,-79.603 176,-176 l 0,-736 c 0,-96.39698 -79.603,-176 -176,-176 l -1440,0 z m 0,128 1440,0 c 27.699,0 48,20.30098 48,48 l 0,736 c 0,27.699 -20.301,48 -48,48 l -1440,0 c -27.69902,0 -48,-20.301 -48,-48 l 0,-736 c 0,-27.69902 20.30098,-48 48,-48 z" />
  <path fill="blue" d="m 758.1055,1053.1094 0,146.9726 q 0,31.25 6.8359,39.5508 9.0332,10.7422 24.1699,10.7422 l 20.2637,0 0,8.7891 -133.5449,0 0,-8.7891 10.0097,0 q 9.7657,0 17.8223,-4.8828 8.0566,-4.8828 10.9863,-13.1836 3.1739,-8.3008 3.1739,-32.2266 l 0,-146.9726 -43.4571,0 0,-17.5782 43.4571,0 0,-14.6484 q 0,-33.4473 10.7421,-56.6406 10.7422,-23.1934 32.7149,-37.3535 22.2168,-14.4043 49.8047,-14.4043 25.6348,0 47.1192,16.6015 14.1601,10.9864 14.1601,24.6582 0,7.3243 -6.3476,13.9161 -6.3477,6.3476 -13.6719,6.3476 -5.6152,0 -11.9629,-3.9062 -6.1035,-4.1504 -15.1367,-17.334 -9.0332,-13.4278 -16.6016,-18.0664 -7.5683,-4.6387 -16.8457,-4.6387 -11.2305,0 -19.043,6.1035 -7.8125,5.8594 -11.2305,18.5547 -3.4179,12.4512 -3.4179,64.6973 l 0,16.1132 57.6172,0 0,17.5782 -57.6172,0 z m -271.48441,66.6504 q -0.24414,49.8046 24.16993,78.125 24.41406,28.3203 57.37304,28.3203 21.97266,0 38.08594,-11.9629 16.35742,-12.207 27.34375,-41.5039 l 7.56836,4.8828 q -5.12695,33.4473 -29.78516,61.0351 Q 586.71875,1266 549.60938,1266 q -40.28321,0 -69.0918,-31.25 -28.56445,-31.4941 -28.56445,-84.4727 0,-57.373 29.29687,-89.3554 29.54102,-32.2266 73.97461,-32.2266 37.59766,0 61.76758,24.9024 24.16992,24.6582 24.16992,66.1621 l -154.54102,0 z m 0,-14.1602 103.51563,0 q -1.2207,-21.4844 -5.12695,-30.2734 -6.10352,-13.6719 -18.31055,-21.4844 -11.96289,-7.8125 -25.14649,-7.8125 -20.26367,0 -36.37695,15.8691 -15.86914,15.625 -18.55469,43.7012 z m -129.63867,128.418 Q 340.625,1251.1074 325,1258.6758 309.375,1266 291.30859,1266 254.6875,1266 227.34375,1235.4824 200,1204.7207 200,1156.625 q 0,-48.0957 30.27344,-87.8906 30.27344,-40.0391 77.88086,-40.0391 29.54101,0 48.82812,18.7988 l 0,-41.2597 q 0,-38.3301 -1.95312,-47.1192 -1.70899,-8.789 -5.61524,-11.9629 -3.90625,-3.1738 -9.76562,-3.1738 -6.34766,0 -16.84571,3.9063 l -3.17382,-8.545 66.65039,-27.3437 10.98633,0 0,258.5449 q 0,39.3067 1.70898,48.0957 1.95312,8.5449 5.85937,11.9629 4.1504,3.418 9.52149,3.418 6.5918,0 17.57812,-4.1504 l 2.68555,8.5449 -66.40625,27.5879 -11.23047,0 0,-31.9824 z m 0,-17.0899 0,-115.2343 q -1.46484,-16.6016 -8.78906,-30.2735 -7.32422,-13.6719 -19.53125,-20.5078 -11.96289,-7.0801 -23.4375,-7.0801 -21.48438,0 -38.33008,19.2871 -22.2168,25.3907 -22.2168,74.2188 0,49.3164 21.48438,75.6836 21.48437,26.123 47.85156,26.123 22.2168,0 42.96875,-22.2168 z M 1012.9882,788.20313 q -9.0332,44.1894 -35.4003,68.11517 Q 951.2207,880 919.2383,880 q -38.0859,0 -66.4062,-31.9825 -28.3203,-31.98237 -28.3203,-86.42577 0,-52.73427 31.25,-85.69327 31.4941,-32.959 75.4394,-32.959 32.9589,0 54.1992,17.5782 21.2402,17.3339 21.2402,36.1328 0,9.2773 -6.1035,15.1367 -5.8594,5.6152 -16.6016,5.6152 -14.4043,0 -21.7285,-9.2773 -4.1504,-5.127 -5.6152,-19.5313 -1.2207,-14.4043 -9.7656,-21.9726 -8.545,-7.3242 -23.6817,-7.3242 -24.414,0 -39.3066,18.0664 -19.7753,23.9257 -19.7753,63.2324 0,40.03897 19.5312,70.80067 19.7754,30.5176 53.2226,30.5176 23.9258,0 42.9687,-16.3574 13.4278,-11.2305 26.1231,-40.7715 l 7.08,3.418 z M 634.32617,688.10556 q 32.47073,-45.1661 70.06833,-45.1661 34.4239,0 60.0586,29.5411 25.6348,29.2968 25.6348,80.32217 0,59.5703 -39.5508,95.94727 -33.9355,31.25 -75.6836,31.25 -19.5312,0 -39.7949,-7.0801 -20.01954,-7.0801 -41.01563,-21.2403 l 0,-231.68932 q 0,-38.08594 -1.95312,-46.875 -1.70899,-8.78907 -5.61524,-11.96289 -3.90625,-3.17383 -9.76562,-3.17383 -6.83594,0 -17.08985,3.90625 l -3.41797,-8.54492 67.13868,-27.34375 10.98632,0 0,162.10942 z m 0,15.625 0,133.78897 q 12.45118,12.20697 25.63473,18.55467 13.4278,6.1035 27.3438,6.1035 22.2168,0 41.2597,-24.41407 19.2872,-24.414 19.2872,-71.0449 0,-42.96867 -19.2872,-65.91787 -19.0429,-23.1934 -43.457,-23.1934 -12.9394,0 -25.8789,6.5918 -9.76561,4.8828 -24.90233,19.5313 z m -209.47265,58.59367 -128.17383,0 -22.46094,52.2461 q -8.30078,19.2871 -8.30078,28.8086 0,7.56827 7.08008,13.42767 7.32422,5.6152 31.25,7.3242 l 0,9.0332 -104.24805,0 0,-9.0332 q 20.75195,-3.6621 26.85547,-9.5215 12.45117,-11.71867 27.58789,-47.60737 l 116.45508,-272.46087 8.54492,0 115.23438,275.39057 q 13.91601,33.2031 25.14648,43.21287 11.47461,9.7656 31.73828,10.9863 l 0,9.0332 -130.61523,0 0,-9.0332 q 19.77539,-0.9766 26.61133,-6.5918 7.08007,-5.6152 7.08007,-13.6719 0,-10.74207 -9.76562,-33.93547 l -20.01953,-47.6074 z m -6.83594,-18.06637 -56.15234,-133.78907 -57.61719,133.78907 113.76953,0 z" />
</svg>
