<svg xmlns="http://www.w3.org/2000/svg" viewBox="0 0 400 64">
    <path d="m 337.91885,36.74837 c -22.71015,-1.60657 -10.25605,-41.65578 8.64137,-26.6737 15.03186,8.55177 10.65851,35.18989 -4.00612,40.69651 -20.74197,9.7858 -41.77835,-5.6904 -60.64535,-14.65504 -22.78476,-12.11657 -49.74765,-25.36249 -74.21897,-12.58669 -5.71261,2.41514 -23.22197,21.96517 -7.6321,10.09812 23.81376,-14.1172 51.70603,-5.60037 73.8623,9.00124 22.15371,12.82807 48.17584,28.21133 72.72761,15.33745 16.91543,-8.4816 22.03119,-40.12858 5.09975,-51.97922 -15.55167,-16.39538 -44.41356,13.21194 -23.07069,28.61895 2.82858,1.74568 6.07303,2.55863 9.2422,2.14238 z m 22.07186,-1.79545 c 9.72864,-12.76191 32.24959,-18.60769 38.39541,1.41524 2.37528,6.85574 -6.29196,22.18714 -2.6985,6.95949 -5.34704,-24.61318 -31.7397,-9.3176 -39.64282,5.31785 -3.13765,1.22127 6.85347,-9.83845 3.94591,-13.69258 z M 41.634109,39.43343 C 31.306148,26.76946 8.390586,20.62675 1.626624,40.84779 -0.82823602,47.78098 8.181016,63.05708 4.435328,47.80803 8.490876,26.8864 30.096189,35.7774 39.350932,46.25201 49.403074,60.85775 34.410601,33.03467 41.058251,39.04153 l 0.588878,0.73504 -0.01301,-0.34314 z M 58.301523,36.75045 C 81.929261,33.31286 63.340525,-8.15072 47.084557,13.00327 35.377961,26.7783 45.230745,51.3992 60.476741,53.2938 c 20.26483,3.50249 37.89695,-12.64852 55.754059,-21.48197 19.18897,-11.12944 43.81462,-20.91296 63.30906,-5.48546 5.17584,3.3072 13.53634,17.72515 2.4839,7.07765 C 159.89397,18.50063 133.57414,29.66487 113.49309,44.21174 94.572451,56.49041 71.267966,70.63556 50.063608,57.59974 33.323048,47.62733 31.210095,14.81948 48.241285,3.9204 64.248134,-8.00632 84.632771,22.8227 66.272189,34.85856 c -2.437042,1.52003 -5.235472,2.21468 -7.970666,1.89189 z" fill="currentColor" />
</svg>
