<?xml version="1.0" encoding="UTF-8" standalone="no"?>
<svg
   xmlns="http://www.w3.org/2000/svg"
   version="1.1"
   width="256"
   height="256"
   viewBox="0 0 256 256">
  <g transform="matrix(1.99454,0,0,-1.98287,-8.73141,256.355)">
    <g transform="translate(74.7061,71.2549)">
      <path
         d="m 0,0 0.011,0.011 c -2.652,2.652 -4.155,3.182 -4.155,3.182 31.939,31.938 40.625,33.283 40.625,33.283 l -0.02,-0.022 C 36.395,36.101 34.821,26.684 3.537,-4.602 3.537,-4.602 2.652,-2.651 0,0 M 15.224,-10.665 C 58.001,32.111 53.965,53.376 53.87,53.863 l 0.016,0.016 c 0,0 -20.719,4.28 -64.011,-39.012 0,0 -7.145,0.726 -15.276,-7.407 -8.604,-8.604 -15.726,-16.061 -15.726,-16.061 l 20.34,0.034 c 0,0 5.825,6.722 12.385,0.172 l -0.011,-0.011 c 7.636,-8.197 0.386,-12.947 0.386,-12.947 l 0.062,-20.625 c 0,0 7.396,7.521 16,16.125 8.134,8.133 7.189,15.188 7.189,15.188"
         style="fill:#024a80;fill-opacity:1;fill-rule:nonzero;stroke:none"
         id="path3808" />
    </g>
    <g transform="translate(34.9932,33.1328)">
      <path
         id="path3403"
         d="m 0,0 11.401,11.402 -2.672,2.674 13.895,14.006 c 0,0 2.331,2.795 6.375,-1.25 3.689,-3.688 1.915,-6.127 0.457,-6.923 C 28.302,19.28 19.048,14.098 19.048,14.098 L 21.654,11.49 0,0 Z"
         style="fill:#024a80;fill-opacity:1;fill-rule:nonzero;stroke:none" />
    </g>
    <g transform="translate(118.1416,88.8027)">
      <path
         d="m 0,0 c -1.044,-1.555 -4.458,-6.553 -7.581,-10.238 1.738,-4.959 2.692,-10.292 2.692,-15.855 0,-26.214 -21.009,-47.464 -46.926,-47.464 -25.917,0 -46.927,21.25 -46.927,47.464 0,26.213 21.01,47.464 46.927,47.464 5.639,0 11.046,-1.008 16.056,-2.852 1.363,1.089 5.466,4.302 10.311,7.463 -7.916,4.101 -16.88,6.43 -26.388,6.43 -31.986,0 -57.917,-26.19 -57.917,-58.5 0,-32.308 25.931,-58.501 57.917,-58.501 31.986,0 57.917,26.193 57.917,58.501 C 6.08,-16.711 3.884,-7.855 0,0"
         style="fill:#024a80;fill-opacity:1;fill-rule:nonzero;stroke:none"
         id="path3815" />
    </g>
  </g>
</svg>
