<?xml version="1.0" encoding="UTF-8" standalone="no"?><!DOCTYPE svg PUBLIC "-//W3C//DTD SVG 1.1//EN" "http://www.w3.org/Graphics/SVG/1.1/DTD/svg11.dtd"><svg width="100%" height="100%" viewBox="0 0 770 130" version="1.1" xmlns="http://www.w3.org/2000/svg" xmlns:xlink="http://www.w3.org/1999/xlink" xml:space="preserve" style="fill-rule:evenodd;clip-rule:evenodd;stroke-linejoin:round;stroke-miterlimit:1.41421;"><g id="Logo"><path id="OptimizePress" d="M158.17,59.21c0,16.758 11.564,25.088 23.226,25.088c11.76,0 23.324,-8.33 23.324,-25.088c0,-16.758 -11.564,-25.088 -23.324,-25.088c-11.662,0 -23.226,8.33 -23.226,25.088Zm-12.054,0c0,-22.736 17.052,-36.162 35.28,-36.162c18.228,0 35.378,13.426 35.378,36.162c0,22.834 -17.15,36.26 -35.378,36.26c-18.228,0 -35.28,-13.426 -35.28,-36.26Zm90.174,53.41l-11.27,0l0,-66.346l10.976,0l0,6.468c2.352,-4.116 7.84,-7.546 15.19,-7.546c14.112,0 22.05,10.78 22.05,24.892c0,14.308 -8.722,25.088 -22.442,25.088c-6.86,0 -12.054,-2.94 -14.504,-6.566l0,24.01Zm25.578,-42.532c0,-8.918 -5.194,-14.798 -12.838,-14.798c-7.448,0 -12.838,5.88 -12.838,14.798c0,9.114 5.39,14.994 12.838,14.994c7.546,0 12.838,-5.88 12.838,-14.994Zm33.236,-38.416l-10.29,0l0,7.154c0,4.214 -2.254,7.448 -7.35,7.448l-2.45,0l0,10.094l8.82,0l0,24.01c0,8.918 5.488,14.21 14.308,14.21c4.116,0 6.272,-0.784 6.958,-1.078l0,-9.408c-0.49,0.098 -2.352,0.392 -3.92,0.392c-4.214,0 -6.076,-1.764 -6.076,-5.978l0,-22.148l9.898,0l0,-10.094l-9.898,0l0,-14.602Zm29.61,62.328l0,-47.726l-11.27,0l0,47.726l11.27,0Zm-13.034,-64.484c0,4.116 3.332,7.35 7.35,7.35c4.116,0 7.448,-3.234 7.448,-7.35c0,-4.116 -3.332,-7.448 -7.448,-7.448c-4.018,0 -7.35,3.332 -7.35,7.448Zm35.784,64.484l0,-28.322c0,-6.076 3.822,-10.584 9.898,-10.584c6.468,0 9.212,4.312 9.212,9.8l0,29.106l11.172,0l0,-28.322c0,-5.88 3.92,-10.584 9.898,-10.584c6.37,0 9.212,4.214 9.212,9.8l0,29.106l10.976,0l0,-30.968c0,-12.642 -8.232,-18.13 -16.856,-18.13c-6.174,0 -11.76,2.156 -15.484,8.428c-2.548,-5.586 -8.036,-8.428 -14.308,-8.428c-5.39,0 -11.368,2.548 -14.112,7.448l0,-6.076l-10.878,0l0,47.726l11.27,0Zm82.334,0l0,-47.726l-11.27,0l0,47.726l11.27,0Zm-13.034,-64.484c0,4.116 3.332,7.35 7.35,7.35c4.116,0 7.448,-3.234 7.448,-7.35c0,-4.116 -3.332,-7.448 -7.448,-7.448c-4.018,0 -7.35,3.332 -7.35,7.448Zm59.892,64.484l0,-9.996l-24.99,0l24.5,-28.126l0,-9.604l-38.024,0l0,9.996l23.716,0l-24.206,27.832l0,9.898l39.004,0Zm15.596,-29.106l23.422,0c-0.196,-5.586 -3.92,-10.584 -11.76,-10.584c-7.154,0 -11.27,5.488 -11.662,10.584Zm24.696,12.446l9.604,3.038c-2.548,8.33 -10.094,15.092 -21.56,15.092c-12.936,0 -24.402,-9.408 -24.402,-25.578c0,-15.092 11.172,-25.088 23.226,-25.088c14.7,0 23.324,9.702 23.324,24.794c0,1.862 -0.196,3.43 -0.294,3.626l-34.888,0c0.294,7.252 5.978,12.446 13.034,12.446c6.86,0 10.388,-3.626 11.956,-8.33Zm30.59,-20.874l12.25,0c7.448,0 11.956,-4.116 11.956,-10.682c0,-6.664 -4.508,-10.878 -11.956,-10.878l-12.25,0l0,21.56Zm14.014,10.388l-14.014,0l0,27.146l-11.76,0l0,-69.482l25.774,0c13.328,0 22.148,9.016 22.148,21.168c0,12.25 -8.82,21.168 -22.148,21.168Zm55.678,-20.874c-0.49,-0.098 -1.666,-0.294 -3.038,-0.294c-6.272,0 -11.564,3.038 -13.818,8.232l0,-7.644l-11.074,0l0,47.726l11.368,0l0,-22.736c0,-8.918 4.018,-14.014 12.838,-14.014c1.176,0 2.45,0.098 3.724,0.294l0,-11.564Zm13.734,18.914l23.422,0c-0.196,-5.586 -3.92,-10.584 -11.76,-10.584c-7.154,0 -11.27,5.488 -11.662,10.584Zm24.696,12.446l9.604,3.038c-2.548,8.33 -10.094,15.092 -21.56,15.092c-12.936,0 -24.402,-9.408 -24.402,-25.578c0,-15.092 11.172,-25.088 23.226,-25.088c14.7,0 23.324,9.702 23.324,24.794c0,1.862 -0.196,3.43 -0.294,3.626l-34.888,0c0.294,7.252 5.978,12.446 13.034,12.446c6.86,0 10.388,-3.626 11.956,-8.33Zm13.636,3.724c0.588,5.39 5.88,14.406 19.698,14.406c12.152,0 18.032,-8.036 18.032,-15.288c0,-7.056 -4.704,-12.544 -13.72,-14.504l-7.252,-1.47c-2.94,-0.588 -4.802,-2.45 -4.802,-4.998c0,-2.94 2.842,-5.488 6.86,-5.488c6.37,0 8.428,4.41 8.82,7.154l9.604,-2.744c-0.784,-4.704 -5.096,-13.328 -18.424,-13.328c-9.898,0 -17.542,7.056 -17.542,15.386c0,6.566 4.41,12.054 12.838,13.916l7.056,1.568c3.822,0.784 5.586,2.744 5.586,5.292c0,2.94 -2.45,5.488 -7.154,5.488c-6.076,0 -9.31,-3.822 -9.702,-8.134l-9.898,2.744Zm41.566,0c0.588,5.39 5.88,14.406 19.698,14.406c12.152,0 18.032,-8.036 18.032,-15.288c0,-7.056 -4.704,-12.544 -13.72,-14.504l-7.252,-1.47c-2.94,-0.588 -4.802,-2.45 -4.802,-4.998c0,-2.94 2.842,-5.488 6.86,-5.488c6.37,0 8.428,4.41 8.82,7.154l9.604,-2.744c-0.784,-4.704 -5.096,-13.328 -18.424,-13.328c-9.898,0 -17.542,7.056 -17.542,15.386c0,6.566 4.41,12.054 12.838,13.916l7.056,1.568c3.822,0.784 5.586,2.744 5.586,5.292c0,2.94 -2.45,5.488 -7.154,5.488c-6.076,0 -9.31,-3.822 -9.702,-8.134l-9.898,2.744Z" style="fill:#fff;"/><path id="Logomark.2e.svg" d="M84.767,68.844c-0.494,5.606 -2.932,10.863 -6.892,14.861l0.007,0.008l-16.844,17.012l-0.008,-20.997l1.259,-1.272l-0.012,-0.012c1.335,-1.341 2.045,-3.315 1.79,-5.625c-0.253,-2.292 -1.396,-4.469 -3.043,-6.145l0,-0.057l-0.056,0c-1.66,-1.667 -3.82,-2.826 -6.092,-3.082c-2.288,-0.257 -4.241,0.46 -5.57,1.809l-0.012,-0.014l-1.269,1.281l-20.785,-0.008l16.514,-16.681c3.967,-4.19 9.327,-6.79 15.074,-7.311c45.107,-44.465 65.003,-39.44 65.003,-39.44c0,0 4.978,20.097 -39.064,65.673Zm-19.735,-14.158c3.073,2.109 5.717,4.782 7.794,7.876c31.565,-31.95 33.346,-41.557 33.346,-41.557c0,0 -9.531,1.821 -41.14,33.68l0,0.001Zm-13.205,13.336c0.045,-0.05 0.092,-0.097 0.141,-0.142l0.184,-0.186l0.014,0.014c0.663,-0.499 1.6,-0.69 2.707,-0.466c2.539,0.512 5.008,3.006 5.515,5.57c0.221,1.119 0.032,2.065 -0.461,2.735l0.001,0.001l-0.239,0.284l-0.024,0.014c-0.326,0.315 -0.728,0.541 -1.168,0.655l-10.496,5.887l2.6,2.625l-22.079,11.799l11.686,-11.804l-2.599,-2.625l14.218,-14.361Zm-24.804,-35.574c-18.661,18.848 -18.661,49.408 0,68.257c8.917,9.045 21.087,14.137 33.788,14.137c12.701,0 24.872,-5.092 33.789,-14.137c13.466,-13.602 17.211,-33.3 11.241,-50.297c2.904,-3.72 5.404,-7.191 7.559,-10.421c11.032,22.25 7.374,50.033 -11.002,68.594c-10.975,11.132 -25.954,17.399 -41.586,17.399c-15.632,0 -30.612,-6.267 -41.587,-17.399c-22.967,-23.198 -22.967,-60.811 0,-84.009c17.919,-18.172 45.563,-22.602 68.263,-10.939c-3.191,2.169 -6.618,4.682 -10.293,7.603c-17.475,-6.434 -37.098,-2.049 -50.172,11.212Z" style="fill:#fff;"/><path id="_.ae." d="M761.22,51.36c0,-0.387 -0.13,-0.677 -0.39,-0.87c-0.26,-0.193 -0.57,-0.29 -0.93,-0.29l-1.5,0l0,2.36l1.5,0c0.4,0 0.72,-0.093 0.96,-0.28c0.24,-0.187 0.36,-0.493 0.36,-0.92Zm-0.02,5.26l-1.28,-2.82l-1.5,0l0,2.82l-1.34,0l0,-7.66l2.82,0c0.36,0 0.707,0.053 1.04,0.16c0.333,0.107 0.623,0.26 0.87,0.46c0.247,0.2 0.443,0.45 0.59,0.75c0.147,0.3 0.22,0.643 0.22,1.03c0,0.507 -0.113,0.95 -0.34,1.33c-0.227,0.38 -0.573,0.677 -1.04,0.89l1.42,3.04l-1.46,0Zm4.26,-3.72c0,-0.88 -0.14,-1.69 -0.42,-2.43c-0.28,-0.74 -0.677,-1.38 -1.19,-1.92c-0.513,-0.54 -1.133,-0.96 -1.86,-1.26c-0.727,-0.3 -1.53,-0.45 -2.41,-0.45c-0.88,0 -1.683,0.153 -2.41,0.46c-0.727,0.307 -1.347,0.73 -1.86,1.27c-0.513,0.54 -0.91,1.18 -1.19,1.92c-0.28,0.74 -0.42,1.55 -0.42,2.43c0,0.88 0.14,1.69 0.42,2.43c0.28,0.74 0.677,1.38 1.19,1.92c0.513,0.54 1.133,0.96 1.86,1.26c0.727,0.3 1.53,0.45 2.41,0.45c0.88,0 1.683,-0.153 2.41,-0.46c0.727,-0.307 1.347,-0.73 1.86,-1.27c0.513,-0.54 0.91,-1.18 1.19,-1.92c0.28,-0.74 0.42,-1.55 0.42,-2.43Zm1.34,0c0,1.027 -0.183,1.987 -0.55,2.88c-0.367,0.893 -0.87,1.673 -1.51,2.34c-0.64,0.667 -1.4,1.19 -2.28,1.57c-0.88,0.38 -1.84,0.57 -2.88,0.57c-1.04,0 -2,-0.19 -2.88,-0.57c-0.88,-0.38 -1.64,-0.9 -2.28,-1.56c-0.64,-0.66 -1.143,-1.437 -1.51,-2.33c-0.367,-0.893 -0.55,-1.853 -0.55,-2.88c0,-1.027 0.183,-1.987 0.55,-2.88c0.367,-0.893 0.87,-1.673 1.51,-2.34c0.64,-0.667 1.4,-1.19 2.28,-1.57c0.88,-0.38 1.84,-0.57 2.88,-0.57c1.04,0 2,0.19 2.88,0.57c0.88,0.38 1.64,0.9 2.28,1.56c0.64,0.66 1.143,1.437 1.51,2.33c0.367,0.893 0.55,1.853 0.55,2.88Z" style="fill:#fff;"/></g></svg>