<svg width="593px" height="69px" viewBox="0 0 593 69" version="1.1" xmlns="http://www.w3.org/2000/svg" xmlns:xlink="http://www.w3.org/1999/xlink">
    <defs>
        <path d="M3,0 L290,0 C291.656854,-3.04359188e-16 293,1.34314575 293,3 L293,66 C293,67.6568542 291.656854,69 290,69 L3,69 C1.34314575,69 2.02906125e-16,67.6568542 0,66 L0,3 C-2.02906125e-16,1.34314575 1.34314575,-3.24835449e-15 3,-3.55271368e-15 Z" id="path-1"></path>
        <filter x="-2.2%" y="-9.4%" width="104.4%" height="118.8%" filterUnits="objectBoundingBox" id="filter-2">
            <feGaussianBlur stdDeviation="5" in="SourceAlpha" result="shadowBlurInner1"></feGaussianBlur>
            <feOffset dx="0" dy="3" in="shadowBlurInner1" result="shadowOffsetInner1"></feOffset>
            <feComposite in="shadowOffsetInner1" in2="SourceAlpha" operator="arithmetic" k2="-1" k3="1" result="shadowInnerInner1"></feComposite>
            <feColorMatrix values="0 0 0 0 0   0 0 0 0 0   0 0 0 0 0  0 0 0 0.05 0" type="matrix" in="shadowInnerInner1"></feColorMatrix>
        </filter>
    </defs>
    <g id="Page-1" stroke="none" stroke-width="1" fill="none" fill-rule="evenodd">
        <g id="Style-8">
            <g id="Button" transform="translate(300.000000, 0.000000)">
                <path d="M3,0.5 C1.61928813,0.5 0.5,1.61928813 0.5,3 L0.5,66 C0.5,67.3807119 1.61928813,68.5 3,68.5 L290,68.5 C291.380712,68.5 292.5,67.3807119 292.5,66 L292.5,3 C292.5,1.61928813 291.380712,0.5 290,0.5 L3,0.5 Z" id="Rectangle" stroke-opacity="0.2" stroke="#000000" fill="#FF6402"></path>
                <path d="M36.4091797,38.9213867 C35.9514951,39.576989 35.312911,40.067137 34.4934082,40.3918457 C33.6739054,40.7165544 32.7198948,40.8789062 31.6313477,40.8789062 C30.5304307,40.8789062 29.5532269,40.6206894 28.699707,40.104248 C27.8461871,39.5878067 27.1859561,38.8533576 26.7189941,37.9008789 C26.2520322,36.9484002 26.0123699,35.8444073 26,34.5888672 L26,33.4106445 C26,31.3758036 26.474686,29.798671 27.4240723,28.6791992 C28.3734585,27.5597275 29.7078365,27 31.4272461,27 C32.8374094,27 33.9723264,27.3602666 34.8320312,28.0808105 C35.6917361,28.8013545 36.217447,29.8233983 36.4091797,31.1469727 L34.6279297,31.1469727 C34.2939436,29.3595288 33.2301522,28.4658203 31.4365234,28.4658203 C30.2428326,28.4658203 29.3383006,28.8848428 28.7229004,29.7229004 C28.1075002,30.560958 27.7967123,31.7747316 27.7905273,33.3642578 L27.7905273,34.4682617 C27.7905273,35.9835688 28.136878,37.1880652 28.8295898,38.0817871 C29.5223016,38.975509 30.459304,39.4223633 31.640625,39.4223633 C32.3085971,39.4223633 32.8930639,39.3481453 33.394043,39.199707 C33.895022,39.0512688 34.3094059,38.800783 34.637207,38.4482422 L34.637207,35.4145508 L31.5107422,35.4145508 L31.5107422,33.9672852 L36.4091797,33.9672852 L36.4091797,38.9213867 Z M47.0131836,34.449707 L41.1591797,34.449707 L41.1591797,39.2368164 L47.9594727,39.2368164 L47.9594727,40.6933594 L39.3779297,40.6933594 L39.3779297,27.1855469 L47.8666992,27.1855469 L47.8666992,28.6513672 L41.1591797,28.6513672 L41.1591797,32.9931641 L47.0131836,32.9931641 L47.0131836,34.449707 Z M59.5097656,28.6513672 L55.1679688,28.6513672 L55.1679688,40.6933594 L53.3959961,40.6933594 L53.3959961,28.6513672 L49.0634766,28.6513672 L49.0634766,27.1855469 L59.5097656,27.1855469 L59.5097656,28.6513672 Z M68.128418,40.6933594 L66.347168,40.6933594 L66.347168,27.1855469 L68.128418,27.1855469 L68.128418,40.6933594 Z M81.7661133,40.6933594 L79.9755859,40.6933594 L73.175293,30.2841797 L73.175293,40.6933594 L71.3847656,40.6933594 L71.3847656,27.1855469 L73.175293,27.1855469 L79.9941406,37.6411133 L79.9941406,27.1855469 L81.7661133,27.1855469 L81.7661133,40.6933594 Z M88.909668,34.6723633 C87.3819911,34.2332335 86.2702672,33.6936067 85.5744629,33.0534668 C84.8786586,32.4133269 84.5307617,31.6232143 84.5307617,30.6831055 C84.5307617,29.6192981 84.9559691,28.7395054 85.8063965,28.0437012 C86.6568239,27.3478969 87.762363,27 89.1230469,27 C90.0507859,27 90.8780074,27.1793602 91.6047363,27.5380859 C92.3314652,27.8968117 92.8942851,28.3915984 93.2932129,29.0224609 C93.6921407,29.6533235 93.8916016,30.3429325 93.8916016,31.0913086 L92.1010742,31.0913086 C92.1010742,30.2748983 91.8413112,29.6332217 91.3217773,29.1662598 C90.8022435,28.6992978 90.0693407,28.4658203 89.1230469,28.4658203 C88.2447873,28.4658203 87.5598169,28.6590964 87.0681152,29.0456543 C86.5764136,29.4322122 86.3305664,29.9687466 86.3305664,30.6552734 C86.3305664,31.2057319 86.5640439,31.6711407 87.0310059,32.0515137 C87.4979678,32.4318867 88.292719,32.7797836 89.4152832,33.0952148 C90.5378474,33.4106461 91.4160938,33.758543 92.0500488,34.138916 C92.6840038,34.519289 93.1540512,34.9630508 93.4602051,35.4702148 C93.766359,35.9773788 93.9194336,36.5742153 93.9194336,37.2607422 C93.9194336,38.3554742 93.49268,39.2321744 92.6391602,39.8908691 C91.7856403,40.5495638 90.6445384,40.8789062 89.2158203,40.8789062 C88.2880813,40.8789062 87.4222045,40.7010923 86.6181641,40.345459 C85.8141236,39.9898257 85.194094,39.50277 84.7580566,38.8842773 C84.3220193,38.2657847 84.1040039,37.563806 84.1040039,36.7783203 L85.8945312,36.7783203 C85.8945312,37.5947306 86.1960419,38.2394996 86.7990723,38.7126465 C87.4021026,39.1857934 88.2076773,39.4223633 89.2158203,39.4223633 C90.1559292,39.4223633 90.8764623,39.2306334 91.3774414,38.847168 C91.8784205,38.4637025 92.1289062,37.941084 92.1289062,37.2792969 C92.1289062,36.6175097 91.896975,36.1057147 91.4331055,35.7438965 C90.969236,35.3820783 90.1280985,35.0249041 88.909668,34.6723633 Z M105.534668,28.6513672 L101.192871,28.6513672 L101.192871,40.6933594 L99.4208984,40.6933594 L99.4208984,28.6513672 L95.0883789,28.6513672 L95.0883789,27.1855469 L105.534668,27.1855469 L105.534668,28.6513672 Z M114.997559,37.1679688 L109.338379,37.1679688 L108.067383,40.6933594 L106.230469,40.6933594 L111.388672,27.1855469 L112.947266,27.1855469 L118.114746,40.6933594 L116.287109,40.6933594 L114.997559,37.1679688 Z M109.876465,35.7021484 L114.46875,35.7021484 L112.167969,29.3842773 L109.876465,35.7021484 Z M130.314453,40.6933594 L128.523926,40.6933594 L121.723633,30.2841797 L121.723633,40.6933594 L119.933105,40.6933594 L119.933105,27.1855469 L121.723633,27.1855469 L128.54248,37.6411133 L128.54248,27.1855469 L130.314453,27.1855469 L130.314453,40.6933594 Z M142.811035,28.6513672 L138.469238,28.6513672 L138.469238,40.6933594 L136.697266,40.6933594 L136.697266,28.6513672 L132.364746,28.6513672 L132.364746,27.1855469 L142.811035,27.1855469 L142.811035,28.6513672 Z M156.977539,37.1679688 L151.318359,37.1679688 L150.047363,40.6933594 L148.210449,40.6933594 L153.368652,27.1855469 L154.927246,27.1855469 L160.094727,40.6933594 L158.26709,40.6933594 L156.977539,37.1679688 Z M151.856445,35.7021484 L156.44873,35.7021484 L154.147949,29.3842773 L151.856445,35.7021484 Z M171.849121,36.4072266 C171.682128,37.8359446 171.154871,38.9383913 170.267334,39.7145996 C169.379797,40.4908079 168.20004,40.8789062 166.728027,40.8789062 C165.132316,40.8789062 163.853602,40.3068091 162.891846,39.1625977 C161.93009,38.0183862 161.449219,36.4876398 161.449219,34.5703125 L161.449219,33.2714844 C161.449219,32.0159442 161.673419,30.9119514 162.121826,29.9594727 C162.570233,29.0069939 163.205725,28.2756373 164.02832,27.7653809 C164.850916,27.2551244 165.80338,27 166.885742,27 C168.320645,27 169.471024,27.400468 170.336914,28.201416 C171.202804,29.002364 171.706868,30.1109955 171.849121,31.5273438 L170.058594,31.5273438 C169.903971,30.4511665 169.568443,29.6718774 169.052002,29.1894531 C168.535561,28.7070288 167.813481,28.4658203 166.885742,28.4658203 C165.747716,28.4658203 164.855553,28.886389 164.209229,29.7275391 C163.562904,30.5686891 163.239746,31.7654545 163.239746,33.3178711 L163.239746,34.6259766 C163.239746,36.0918042 163.545895,37.2576454 164.158203,38.1235352 C164.770511,38.9894249 165.62711,39.4223633 166.728027,39.4223633 C167.717616,39.4223633 168.476804,39.198163 169.005615,38.7497559 C169.534426,38.3013487 169.885416,37.5205134 170.058594,36.4072266 L171.849121,36.4072266 Z M184.21582,36.4072266 C184.048827,37.8359446 183.52157,38.9383913 182.634033,39.7145996 C181.746496,40.4908079 180.566739,40.8789062 179.094727,40.8789062 C177.499015,40.8789062 176.220301,40.3068091 175.258545,39.1625977 C174.296789,38.0183862 173.815918,36.4876398 173.815918,34.5703125 L173.815918,33.2714844 C173.815918,32.0159442 174.040118,30.9119514 174.488525,29.9594727 C174.936933,29.0069939 175.572424,28.2756373 176.39502,27.7653809 C177.217615,27.2551244 178.170079,27 179.252441,27 C180.687344,27 181.837724,27.400468 182.703613,28.201416 C183.569503,29.002364 184.073567,30.1109955 184.21582,31.5273438 L182.425293,31.5273438 C182.27067,30.4511665 181.935143,29.6718774 181.418701,29.1894531 C180.90226,28.7070288 180.18018,28.4658203 179.252441,28.4658203 C178.114415,28.4658203 177.222253,28.886389 176.575928,29.7275391 C175.929603,30.5686891 175.606445,31.7654545 175.606445,33.3178711 L175.606445,34.6259766 C175.606445,36.0918042 175.912595,37.2576454 176.524902,38.1235352 C177.13721,38.9894249 177.99381,39.4223633 179.094727,39.4223633 C180.084315,39.4223633 180.843503,39.198163 181.372314,38.7497559 C181.901126,38.3013487 182.252115,37.5205134 182.425293,36.4072266 L184.21582,36.4072266 Z M194.281738,34.449707 L188.427734,34.449707 L188.427734,39.2368164 L195.228027,39.2368164 L195.228027,40.6933594 L186.646484,40.6933594 L186.646484,27.1855469 L195.135254,27.1855469 L195.135254,28.6513672 L188.427734,28.6513672 L188.427734,32.9931641 L194.281738,32.9931641 L194.281738,34.449707 Z M201.425293,34.6723633 C199.897616,34.2332335 198.785892,33.6936067 198.090088,33.0534668 C197.394284,32.4133269 197.046387,31.6232143 197.046387,30.6831055 C197.046387,29.6192981 197.471594,28.7395054 198.322021,28.0437012 C199.172449,27.3478969 200.277988,27 201.638672,27 C202.566411,27 203.393632,27.1793602 204.120361,27.5380859 C204.84709,27.8968117 205.40991,28.3915984 205.808838,29.0224609 C206.207766,29.6533235 206.407227,30.3429325 206.407227,31.0913086 L204.616699,31.0913086 C204.616699,30.2748983 204.356936,29.6332217 203.837402,29.1662598 C203.317868,28.6992978 202.584966,28.4658203 201.638672,28.4658203 C200.760412,28.4658203 200.075442,28.6590964 199.58374,29.0456543 C199.092039,29.4322122 198.846191,29.9687466 198.846191,30.6552734 C198.846191,31.2057319 199.079669,31.6711407 199.546631,32.0515137 C200.013593,32.4318867 200.808344,32.7797836 201.930908,33.0952148 C203.053472,33.4106461 203.931719,33.758543 204.565674,34.138916 C205.199629,34.519289 205.669676,34.9630508 205.97583,35.4702148 C206.281984,35.9773788 206.435059,36.5742153 206.435059,37.2607422 C206.435059,38.3554742 206.008305,39.2321744 205.154785,39.8908691 C204.301265,40.5495638 203.160163,40.8789062 201.731445,40.8789062 C200.803706,40.8789062 199.93783,40.7010923 199.133789,40.345459 C198.329749,39.9898257 197.709719,39.50277 197.273682,38.8842773 C196.837644,38.2657847 196.619629,37.563806 196.619629,36.7783203 L198.410156,36.7783203 C198.410156,37.5947306 198.711667,38.2394996 199.314697,38.7126465 C199.917728,39.1857934 200.723302,39.4223633 201.731445,39.4223633 C202.671554,39.4223633 203.392087,39.2306334 203.893066,38.847168 C204.394045,38.4637025 204.644531,37.941084 204.644531,37.2792969 C204.644531,36.6175097 204.4126,36.1057147 203.94873,35.7438965 C203.484861,35.3820783 202.643724,35.0249041 201.425293,34.6723633 Z M212.697266,34.6723633 C211.169589,34.2332335 210.057865,33.6936067 209.362061,33.0534668 C208.666256,32.4133269 208.318359,31.6232143 208.318359,30.6831055 C208.318359,29.6192981 208.743567,28.7395054 209.593994,28.0437012 C210.444422,27.3478969 211.549961,27 212.910645,27 C213.838384,27 214.665605,27.1793602 215.392334,27.5380859 C216.119063,27.8968117 216.681883,28.3915984 217.080811,29.0224609 C217.479738,29.6533235 217.679199,30.3429325 217.679199,31.0913086 L215.888672,31.0913086 C215.888672,30.2748983 215.628909,29.6332217 215.109375,29.1662598 C214.589841,28.6992978 213.856938,28.4658203 212.910645,28.4658203 C212.032385,28.4658203 211.347415,28.6590964 210.855713,29.0456543 C210.364011,29.4322122 210.118164,29.9687466 210.118164,30.6552734 C210.118164,31.2057319 210.351642,31.6711407 210.818604,32.0515137 C211.285565,32.4318867 212.080317,32.7797836 213.202881,33.0952148 C214.325445,33.4106461 215.203691,33.758543 215.837646,34.138916 C216.471601,34.519289 216.941649,34.9630508 217.247803,35.4702148 C217.553957,35.9773788 217.707031,36.5742153 217.707031,37.2607422 C217.707031,38.3554742 217.280278,39.2321744 216.426758,39.8908691 C215.573238,40.5495638 214.432136,40.8789062 213.003418,40.8789062 C212.075679,40.8789062 211.209802,40.7010923 210.405762,40.345459 C209.601721,39.9898257 208.981692,39.50277 208.545654,38.8842773 C208.109617,38.2657847 207.891602,37.563806 207.891602,36.7783203 L209.682129,36.7783203 C209.682129,37.5947306 209.98364,38.2394996 210.58667,38.7126465 C211.1897,39.1857934 211.995275,39.4223633 213.003418,39.4223633 C213.943527,39.4223633 214.66406,39.2306334 215.165039,38.847168 C215.666018,38.4637025 215.916504,37.941084 215.916504,37.2792969 C215.916504,36.6175097 215.684573,36.1057147 215.220703,35.7438965 C214.756834,35.3820783 213.915696,35.0249041 212.697266,34.6723633 Z M235.074219,40.6933594 L233.283691,40.6933594 L226.483398,30.2841797 L226.483398,40.6933594 L224.692871,40.6933594 L224.692871,27.1855469 L226.483398,27.1855469 L233.302246,37.6411133 L233.302246,27.1855469 L235.074219,27.1855469 L235.074219,40.6933594 Z M248.628418,34.3754883 C248.628418,35.6990626 248.405764,36.8540804 247.960449,37.8405762 C247.515134,38.827072 246.884281,39.5800755 246.067871,40.0996094 C245.251461,40.6191432 244.298996,40.8789062 243.210449,40.8789062 C242.146642,40.8789062 241.203455,40.617597 240.380859,40.0949707 C239.558264,39.5723444 238.91968,38.8270719 238.465088,37.8591309 C238.010496,36.8911898 237.777018,35.7701887 237.764648,34.4960938 L237.764648,33.5219727 C237.764648,32.223138 237.990395,31.0758513 238.441895,30.0800781 C238.893394,29.0843049 239.531978,28.3220241 240.357666,27.7932129 C241.183354,27.2644017 242.128087,27 243.191895,27 C244.274257,27 245.228267,27.2613092 246.053955,27.7839355 C246.879643,28.3065619 247.515134,29.064204 247.960449,30.0568848 C248.405764,31.0495655 248.628418,32.2045833 248.628418,33.5219727 L248.628418,34.3754883 Z M246.856445,33.503418 C246.856445,31.9015219 246.534834,30.6722862 245.891602,29.8156738 C245.248369,28.9590615 244.348476,28.5307617 243.191895,28.5307617 C242.066238,28.5307617 241.18026,28.9590615 240.533936,29.8156738 C239.887611,30.6722862 239.555176,31.8613205 239.536621,33.3828125 L239.536621,34.3754883 C239.536621,35.9279049 239.862871,37.1478634 240.515381,38.0354004 C241.167891,38.9229374 242.066238,39.3666992 243.210449,39.3666992 C244.360846,39.3666992 245.251462,38.9476767 245.882324,38.1096191 C246.513187,37.2715616 246.837891,36.0701576 246.856445,34.5053711 L246.856445,33.503418 Z M254.213379,36.4350586 L254.473145,38.2163086 L254.853516,36.6113281 L257.525391,27.1855469 L259.02832,27.1855469 L261.635254,36.6113281 L262.006348,38.2441406 L262.293945,36.4257812 L264.390625,27.1855469 L266.181152,27.1855469 L262.90625,40.6933594 L261.282715,40.6933594 L258.499512,30.8500977 L258.286133,29.8203125 L258.072754,30.8500977 L255.1875,40.6933594 L253.563965,40.6933594 L250.29834,27.1855469 L252.07959,27.1855469 L254.213379,36.4350586 Z" id="Get-Instant-Access-Now-Outlines" fill="#FFFFFF"></path>
            </g>
            <g id="Input">
                <g id="Rectangle">
                    <use fill="#FFFFFF" fill-rule="evenodd" xlink:href="#path-1"></use>
                    <use fill="black" fill-opacity="1" filter="url(#filter-2)" xlink:href="#path-1"></use>
                    <path stroke-opacity="0.2" stroke="#000000" stroke-width="1" d="M3,0.5 C1.61928813,0.5 0.5,1.61928813 0.5,3 L0.5,66 C0.5,67.3807119 1.61928813,68.5 3,68.5 L290,68.5 C291.380712,68.5 292.5,67.3807119 292.5,66 L292.5,3 C292.5,1.61928813 291.380712,0.5 290,0.5 L3,0.5 Z" stroke-linejoin="square"></path>
                </g>
                <path d="M28.3845215,34.7563477 L22.5305176,34.7563477 L22.5305176,39.543457 L29.3308105,39.543457 L29.3308105,41 L20.7492676,41 L20.7492676,27.4921875 L29.2380371,27.4921875 L29.2380371,28.9580078 L22.5305176,28.9580078 L22.5305176,33.2998047 L28.3845215,33.2998047 L28.3845215,34.7563477 Z M32.9025879,30.9619141 L32.958252,32.2236328 C33.7251829,31.2587842 34.727126,30.7763672 35.9641113,30.7763672 C38.0855412,30.7763672 39.1555175,31.9731326 39.1740723,34.3666992 L39.1740723,41 L37.4577637,41 L37.4577637,34.3574219 C37.4515787,33.6337854 37.2861344,33.0987973 36.9614258,32.7524414 C36.6367171,32.4060855 36.1311069,32.2329102 35.4445801,32.2329102 C34.8879367,32.2329102 34.3993348,32.3813462 33.9787598,32.6782227 C33.5581847,32.9750991 33.2303885,33.3647437 32.9953613,33.847168 L32.9953613,41 L31.2790527,41 L31.2790527,30.9619141 L32.9025879,30.9619141 Z M44.0910645,28.53125 L44.0910645,30.9619141 L45.9650879,30.9619141 L45.9650879,32.2885742 L44.0910645,32.2885742 L44.0910645,38.5136719 C44.0910645,38.9156921 44.1745597,39.2172028 44.3415527,39.4182129 C44.5085458,39.619223 44.7930481,39.7197266 45.1950684,39.7197266 C45.392986,39.7197266 45.6651187,39.6826176 46.0114746,39.6083984 L46.0114746,41 C45.559975,41.1236985 45.1208517,41.1855469 44.6940918,41.1855469 C43.9271609,41.1855469 43.3488789,40.9536156 42.9592285,40.4897461 C42.5695781,40.0258766 42.3747559,39.3671918 42.3747559,38.5136719 L42.3747559,32.2885742 L40.5471191,32.2885742 L40.5471191,30.9619141 L42.3747559,30.9619141 L42.3747559,28.53125 L44.0910645,28.53125 Z M52.1345215,41.1855469 C50.7738376,41.1855469 49.6667523,40.7386926 48.8132324,39.8449707 C47.9597125,38.9512488 47.532959,37.7560296 47.532959,36.2592773 L47.532959,35.9438477 C47.532959,34.9480744 47.7231426,34.0590046 48.1035156,33.2766113 C48.4838886,32.4942181 49.0157843,31.8819195 49.6992188,31.4396973 C50.3826532,30.997475 51.123287,30.7763672 51.9211426,30.7763672 C53.2261621,30.7763672 54.2404749,31.2062131 54.9641113,32.065918 C55.6877478,32.9256228 56.0495605,34.1564048 56.0495605,35.7583008 L56.0495605,36.4726562 L49.2492676,36.4726562 C49.2740073,37.4622445 49.5631483,38.2616343 50.1166992,38.8708496 C50.6702502,39.4800649 51.373775,39.784668 52.2272949,39.784668 C52.8334177,39.784668 53.346759,39.6609713 53.767334,39.4135742 C54.187909,39.1661771 54.5559066,38.8383809 54.8713379,38.4301758 L55.9196777,39.246582 C55.0785277,40.5392317 53.8168216,41.1855469 52.1345215,41.1855469 Z M51.9211426,32.1865234 C51.2284308,32.1865234 50.6470564,32.4385554 50.177002,32.942627 C49.7069475,33.4466985 49.4162603,34.1533158 49.3049316,35.0625 L54.333252,35.0625 L54.333252,34.9326172 C54.2837725,34.0605425 54.0487488,33.3848494 53.6281738,32.9055176 C53.2075988,32.4261858 52.6385941,32.1865234 51.9211426,32.1865234 Z M62.8869629,32.5019531 C62.627196,32.4586586 62.345786,32.4370117 62.0427246,32.4370117 C60.9170679,32.4370117 60.1532409,32.9163364 59.7512207,33.875 L59.7512207,41 L58.0349121,41 L58.0349121,30.9619141 L59.704834,30.9619141 L59.732666,32.121582 C60.2954944,31.2247677 61.0933379,30.7763672 62.1262207,30.7763672 C62.4602067,30.7763672 62.7137849,30.819661 62.8869629,30.90625 L62.8869629,32.5019531 Z M72.4519043,38.4858398 L74.7897949,30.9619141 L76.626709,30.9619141 L72.5910645,42.5493164 C71.9663869,44.2192466 70.973721,45.0541992 69.6130371,45.0541992 L69.2883301,45.0263672 L68.6481934,44.9057617 L68.6481934,43.5141602 L69.1120605,43.5512695 C69.6934437,43.5512695 70.1464828,43.4337577 70.4711914,43.1987305 C70.7959001,42.9637033 71.0633941,42.5338573 71.2736816,41.9091797 L71.6540527,40.8886719 L68.072998,30.9619141 L69.9470215,30.9619141 L72.4519043,38.4858398 Z M77.7028809,35.8881836 C77.7028809,34.9047802 77.8961569,34.020349 78.2827148,33.2348633 C78.6692728,32.4493776 79.2073533,31.8432639 79.8969727,31.4165039 C80.586592,30.989744 81.3736121,30.7763672 82.2580566,30.7763672 C83.6249255,30.7763672 84.7304645,31.249507 85.574707,32.1958008 C86.4189495,33.1420946 86.8410645,34.4007083 86.8410645,35.9716797 L86.8410645,36.0922852 C86.8410645,37.0695036 86.6539732,37.9462038 86.2797852,38.7224121 C85.9055971,39.4986204 85.3706089,40.1031879 84.6748047,40.5361328 C83.9790004,40.9690777 83.1796106,41.1855469 82.2766113,41.1855469 C80.9159274,41.1855469 79.8134808,40.7124071 78.9692383,39.7661133 C78.1249958,38.8198195 77.7028809,37.5673906 77.7028809,36.0087891 L77.7028809,35.8881836 Z M79.4284668,36.0922852 C79.4284668,37.205572 79.6866836,38.0992805 80.203125,38.7734375 C80.7195664,39.4475945 81.4107216,39.784668 82.2766113,39.784668 C83.148686,39.784668 83.8413874,39.4429559 84.3547363,38.7595215 C84.8680852,38.0760871 85.1247559,37.118984 85.1247559,35.8881836 C85.1247559,34.7872666 84.8634466,33.8951043 84.3408203,33.2116699 C83.818194,32.5282355 83.1239464,32.1865234 82.2580566,32.1865234 C81.4107217,32.1865234 80.7272975,32.5235969 80.2077637,33.1977539 C79.6882298,33.8719109 79.4284668,34.836745 79.4284668,36.0922852 Z M95.1906738,40.0073242 C94.5227017,40.7928099 93.5424056,41.1855469 92.2497559,41.1855469 C91.1797635,41.1855469 90.3649117,40.874759 89.8051758,40.2531738 C89.2454399,39.6315887 88.9624838,38.7115946 88.9562988,37.4931641 L88.9562988,30.9619141 L90.6726074,30.9619141 L90.6726074,37.4467773 C90.6726074,38.9682693 91.2910908,39.7290039 92.5280762,39.7290039 C93.8392806,39.7290039 94.7113422,39.240402 95.1442871,38.2631836 L95.1442871,30.9619141 L96.8605957,30.9619141 L96.8605957,41 L95.2277832,41 L95.1906738,40.0073242 Z M104.31958,32.5019531 C104.059813,32.4586586 103.778403,32.4370117 103.475342,32.4370117 C102.349685,32.4370117 101.585858,32.9163364 101.183838,33.875 L101.183838,41 L99.4675293,41 L99.4675293,30.9619141 L101.137451,30.9619141 L101.165283,32.121582 C101.728112,31.2247677 102.525955,30.7763672 103.558838,30.7763672 C103.892824,30.7763672 104.146402,30.819661 104.31958,30.90625 L104.31958,32.5019531 Z M114.765869,41.1855469 C113.405185,41.1855469 112.2981,40.7386926 111.44458,39.8449707 C110.59106,38.9512488 110.164307,37.7560296 110.164307,36.2592773 L110.164307,35.9438477 C110.164307,34.9480744 110.35449,34.0590046 110.734863,33.2766113 C111.115236,32.4942181 111.647132,31.8819195 112.330566,31.4396973 C113.014001,30.997475 113.754635,30.7763672 114.55249,30.7763672 C115.85751,30.7763672 116.871823,31.2062131 117.595459,32.065918 C118.319095,32.9256228 118.680908,34.1564048 118.680908,35.7583008 L118.680908,36.4726562 L111.880615,36.4726562 C111.905355,37.4622445 112.194496,38.2616343 112.748047,38.8708496 C113.301598,39.4800649 114.005123,39.784668 114.858643,39.784668 C115.464765,39.784668 115.978107,39.6609713 116.398682,39.4135742 C116.819257,39.1661771 117.187254,38.8383809 117.502686,38.4301758 L118.551025,39.246582 C117.709875,40.5392317 116.448169,41.1855469 114.765869,41.1855469 Z M114.55249,32.1865234 C113.859778,32.1865234 113.278404,32.4385554 112.80835,32.942627 C112.338295,33.4466985 112.047608,34.1533158 111.936279,35.0625 L116.9646,35.0625 L116.9646,34.9326172 C116.91512,34.0605425 116.680097,33.3848494 116.259521,32.9055176 C115.838946,32.4261858 115.269942,32.1865234 114.55249,32.1865234 Z M124.238037,35.9624023 L119.710693,35.9624023 L119.710693,34.5615234 L124.238037,34.5615234 L124.238037,35.9624023 Z M127.522217,30.9619141 L127.568604,32.0751953 C128.30461,31.2093056 129.297276,30.7763672 130.546631,30.7763672 C131.950609,30.7763672 132.906166,31.3144477 133.41333,32.390625 C133.747316,31.9082007 134.181801,31.5185562 134.716797,31.2216797 C135.251793,30.9248032 135.884192,30.7763672 136.614014,30.7763672 C138.815848,30.7763672 139.935303,31.9422084 139.972412,34.2739258 L139.972412,41 L138.256104,41 L138.256104,34.3759766 C138.256104,33.6585251 138.092205,33.1219907 137.764404,32.7663574 C137.436603,32.4107241 136.886153,32.2329102 136.113037,32.2329102 C135.47599,32.2329102 134.947186,32.4230938 134.526611,32.8034668 C134.106036,33.1838398 133.861735,33.6956348 133.793701,34.3388672 L133.793701,41 L132.068115,41 L132.068115,34.4223633 C132.068115,32.9627206 131.353767,32.2329102 129.925049,32.2329102 C128.799392,32.2329102 128.02938,32.7122348 127.61499,33.6708984 L127.61499,41 L125.898682,41 L125.898682,30.9619141 L127.522217,30.9619141 Z M148.758057,41 C148.659098,40.8020823 148.578695,40.4495468 148.516846,39.9423828 C147.71899,40.771163 146.766526,41.1855469 145.659424,41.1855469 C144.669836,41.1855469 143.858076,40.9056831 143.224121,40.3459473 C142.590166,39.7862114 142.273193,39.0765017 142.273193,38.2167969 C142.273193,37.1715443 142.670569,36.3597848 143.465332,35.7814941 C144.260095,35.2032035 145.378004,34.9140625 146.819092,34.9140625 L148.489014,34.9140625 L148.489014,34.1254883 C148.489014,33.5255504 148.309653,33.047772 147.950928,32.6921387 C147.592202,32.3365054 147.063399,32.1586914 146.364502,32.1586914 C145.752194,32.1586914 145.238853,32.3133123 144.824463,32.6225586 C144.410073,32.9318049 144.202881,33.3059874 144.202881,33.7451172 L142.477295,33.7451172 C142.477295,33.2441381 142.655109,32.7601749 143.010742,32.2932129 C143.366375,31.8262509 143.848793,31.4567071 144.458008,31.1845703 C145.067223,30.9124335 145.736731,30.7763672 146.466553,30.7763672 C147.623134,30.7763672 148.529212,31.0655082 149.184814,31.6437988 C149.840417,32.2220895 150.180583,33.0183869 150.205322,34.0327148 L150.205322,38.652832 C150.205322,39.5743861 150.322834,40.3072889 150.557861,40.8515625 L150.557861,41 L148.758057,41 Z M145.909912,39.6918945 C146.448001,39.6918945 146.95825,39.5527358 147.440674,39.2744141 C147.923098,38.9960924 148.272541,38.6342796 148.489014,38.1889648 L148.489014,36.1293945 L147.143799,36.1293945 C145.040924,36.1293945 143.989502,36.7447855 143.989502,37.9755859 C143.989502,38.5136746 144.168862,38.9342433 144.527588,39.2373047 C144.886314,39.5403661 145.347084,39.6918945 145.909912,39.6918945 Z M154.760498,41 L153.044189,41 L153.044189,30.9619141 L154.760498,30.9619141 L154.760498,41 Z M152.905029,28.2993164 C152.905029,28.0209947 152.990071,27.785971 153.160156,27.5942383 C153.330242,27.4025056 153.582274,27.3066406 153.91626,27.3066406 C154.250246,27.3066406 154.503824,27.4025056 154.677002,27.5942383 C154.85018,27.785971 154.936768,28.0209947 154.936768,28.2993164 C154.936768,28.5776381 154.85018,28.8095694 154.677002,28.9951172 C154.503824,29.180665 154.250246,29.2734375 153.91626,29.2734375 C153.582274,29.2734375 153.330242,29.180665 153.160156,28.9951172 C152.990071,28.8095694 152.905029,28.5776381 152.905029,28.2993164 Z M159.371338,41 L157.655029,41 L157.655029,26.75 L159.371338,26.75 L159.371338,41 Z" id="Enter-your-e-mail-outlines" fill="#999999"></path>
            </g>
        </g>
    </g>
</svg>