<svg height="134" viewBox="0 0 377 134" width="377" xmlns="http://www.w3.org/2000/svg" xmlns:xlink="http://www.w3.org/1999/xlink"><filter id="a" height="194.1%" width="108.9%" x="-4.5%" y="-32.4%"><feOffset dx="0" dy="5" in="SourceAlpha" result="shadowOffsetOuter1"/><feGaussianBlur in="shadowOffsetOuter1" result="shadowBlurOuter1" stdDeviation="4.5"/><feColorMatrix in="shadowBlurOuter1" type="matrix" values="0 0 0 0 0   0 0 0 0 0   0 0 0 0 0  0 0 0 0.05 0"/></filter><g fill="none" fill-rule="evenodd"><g transform="translate(2 75)"><path d="m91.5 8.5c-13.8071187 0-25 11.1928813-25 25s11.1928813 25 25 25h190c13.807119 0 25-11.1928813 25-25s-11.192881-25-25-25z" fill="#d49eff" stroke="#000" stroke-opacity=".2"/><g fill="#fff"><path d="m105.94873 37.6943359c-.337241.4830754-.807776.8442371-1.411621 1.0834961-.603844.239259-1.306799.3588868-2.108886.3588868-.811202 0-1.531247-.1902651-2.160157-.5708008-.628909-.3805358-1.115395-.9217088-1.4594722-1.6235352-.3440773-.7018264-.5206706-1.5152948-.5297852-2.4404297v-.868164c0-1.4993565.3497686-2.6614542 1.0493164-3.4863282.699548-.8248739 1.682774-1.2373047 2.949707-1.2373047 1.039068 0 1.875322.2654596 2.508789.7963868.633467.5309271 1.020833 1.284012 1.162109 2.2592773h-1.3125c-.246095-1.3170639-1.029941-1.9755859-2.351562-1.9755859-.879562 0-1.546059.3087534-1.999512.9262695-.4534525.6175161-.6824542 1.5118757-.6870115 2.6831055v.8134765c0 1.1165421.2552058 2.0040658.7656255 2.6625977.510419.6585319 1.200842.987793 2.071289.987793.49219 0 .922849-.054687 1.291992-.1640625.369142-.1093756.674478-.2939441.916015-.553711v-2.2353515h-2.303711v-1.0664063h3.609375zm7.813477-3.2949218h-4.313477v3.5273437h5.010743v1.0732422h-6.323243v-9.953125h6.254883v1.0800781h-4.942383v3.1992188h4.313477zm9.208008-4.272461h-3.199219v8.8730469h-1.305664v-8.8730469h-3.192383v-1.0800781h7.697266zm6.350586 8.8730469h-1.3125v-9.953125h1.3125zm10.048828 0h-1.319336l-5.010742-7.6699219v7.6699219h-1.319336v-9.953125h1.319336l5.024414 7.7041016v-7.7041016h1.305664zm5.263672-4.4365234c-1.125657-.3235694-1.944822-.7211891-2.45752-1.1928711-.512698-.4716821-.769043-1.0538703-.769043-1.7465821 0-.783858.313311-1.4321263.939942-1.9448242.62663-.5126979 1.441238-.769043 2.443847-.769043.683598 0 1.293129.1321602 1.828614.3964844.535484.2643243.950193.628904 1.24414 1.09375.293947.4648461.440918.972979.440918 1.5244141h-1.319336c0-.6015655-.191404-1.0743798-.574218-1.418457-.382815-.3440773-.922849-.5161133-1.620118-.5161133-.647138 0-1.151853.1424139-1.51416.4272461-.362306.2848321-.543457.6801732-.543457 1.1860351 0 .405601.172036.7485338.516113 1.0288086.344078.2802749.929684.53662 1.756836.769043.827153.232423 1.474282.4887681 1.941407.769043.467124.2802748.813475.6072572 1.039062.980957s.338379.813474.338379 1.3193359c0 .8066447-.31445 1.4526343-.943359 1.9379883-.62891.485354-1.469722.7280274-2.522461.7280274-.683597 0-1.321612-.1310209-1.914063-.3930665-.592451-.2620455-1.049315-.6209287-1.370605-1.0766601-.321291-.4557315-.481934-.9729789-.481934-1.5517578h1.319336c0 .6015655.222166 1.0766584.666504 1.4252929.444338.3486346 1.037919.5229493 1.780762.5229493.692712 0 1.223631-.1412747 1.592773-.4238282.369143-.2825535.553711-.6676408.553711-1.1552734s-.170897-.8647448-.512695-1.1313477c-.341799-.2666029-.961584-.5297838-1.859375-.7895507zm12.25-4.4365235h-3.199219v8.8730469h-1.305664v-8.8730469h-3.192383v-1.0800781h7.697266zm6.972656 6.2753907h-4.169922l-.936523 2.5976562h-1.353516l3.800781-9.953125h1.148438l3.807617 9.953125h-1.34668zm-3.773437-1.0800782h3.383789l-1.695313-4.6552734zm15.05957 3.6777344h-1.319336l-5.010742-7.6699219v7.6699219h-1.319336v-9.953125h1.319336l5.024414 7.7041016v-7.7041016h1.305664zm9.208008-8.8730469h-3.199219v8.8730469h-1.305664v-8.8730469h-3.192383v-1.0800781h7.697266zm10.438476 6.2753907h-4.169922l-.936523 2.5976562h-1.353516l3.800782-9.953125h1.148437l3.807617 9.953125h-1.346679zm-3.773437-1.0800782h3.383789l-1.695313-4.6552734zm14.731445.5195313c-.123047 1.0527396-.511553 1.8650687-1.165527 2.4370117-.653975.571943-1.52327.8579102-2.60791.8579102-1.175788 0-2.117998-.4215453-2.826661-1.2646485-.708662-.8431032-1.062988-1.9710216-1.062988-3.3837891v-.9570312c0-.9251348.1652-1.7386033.495606-2.4404297.330405-.7018264.798662-1.2407208 1.404785-1.6166992s1.307938-.5639649 2.105468-.5639649c1.057297 0 1.904945.2950817 2.542969.885254.638024.5901722 1.00944 1.4070585 1.114258 2.4506836h-1.319336c-.113933-.7929728-.361163-1.3671858-.741699-1.7226563s-.912594-.5332031-1.596192-.5332031c-.838545 0-1.495928.3098927-1.972167.9296875-.47624.6197947-.714356 1.5016219-.714356 2.6455078v.9638672c0 1.0800835.225584 1.9391244.676758 2.5771484s1.082353.9570313 1.893555.9570313c.72917 0 1.288572-.1652002 1.678222-.4956055.389651-.3304053.648274-.9057576.775879-1.7260742zm9.112305 0c-.123048 1.0527396-.511553 1.8650687-1.165528 2.4370117-.653974.571943-1.523269.8579102-2.60791.8579102-1.175787 0-2.117998-.4215453-2.82666-1.2646485s-1.062988-1.9710216-1.062988-3.3837891v-.9570312c0-.9251348.1652-1.7386033.495605-2.4404297.330406-.7018264.798663-1.2407208 1.404785-1.6166992.606123-.3759784 1.307939-.5639649 2.105469-.5639649 1.057297 0 1.904945.2950817 2.542969.885254.638024.5901722 1.009439 1.4070585 1.114258 2.4506836h-1.319336c-.113933-.7929728-.361164-1.3671858-.741699-1.7226563-.380536-.3554705-.912595-.5332031-1.596192-.5332031-.838546 0-1.495928.3098927-1.972168.9296875-.476239.6197947-.714355 1.5016219-.714355 2.6455078v.9638672c0 1.0800835.225583 1.9391244.676758 2.5771484.451174.638024 1.082352.9570313 1.893554.9570313.729171 0 1.288572-.1652002 1.678223-.4956055.38965-.3304053.648274-.9057576.775879-1.7260742zm7.416992-1.4423828h-4.313477v3.5273437h5.010743v1.0732422h-6.323243v-9.953125h6.254883v1.0800781h-4.942383v3.1992188h4.313477zm5.263672.1640625c-1.125657-.3235694-1.944822-.7211891-2.45752-1.1928711-.512698-.4716821-.769043-1.0538703-.769043-1.7465821 0-.783858.313311-1.4321263.939942-1.9448242.62663-.5126979 1.441238-.769043 2.443847-.769043.683598 0 1.293129.1321602 1.828614.3964844.535484.2643243.950193.628904 1.24414 1.09375.293947.4648461.440918.972979.440918 1.5244141h-1.319336c0-.6015655-.191404-1.0743798-.574218-1.418457-.382815-.3440773-.922849-.5161133-1.620118-.5161133-.647138 0-1.151853.1424139-1.51416.4272461-.362306.2848321-.543457.6801732-.543457 1.1860351 0 .405601.172036.7485338.516113 1.0288086.344078.2802749.929684.53662 1.756836.769043.827153.232423 1.474282.4887681 1.941407.769043.467124.2802748.813475.6072572 1.039062.980957s.338379.813474.338379 1.3193359c0 .8066447-.31445 1.4526343-.943359 1.9379883-.62891.485354-1.469722.7280274-2.522461.7280274-.683597 0-1.321612-.1310209-1.914063-.3930665-.592451-.2620455-1.049315-.6209287-1.370605-1.0766601-.321291-.4557315-.481934-.9729789-.481934-1.5517578h1.319336c0 .6015655.222166 1.0766584.666504 1.4252929.444338.3486346 1.037919.5229493 1.780762.5229493.692712 0 1.223631-.1412747 1.592773-.4238282.369143-.2825535.553711-.6676408.553711-1.1552734s-.170897-.8647448-.512695-1.1313477c-.341799-.2666029-.961584-.5297838-1.859375-.7895507zm8.305664 0c-1.125657-.3235694-1.944822-.7211891-2.45752-1.1928711-.512698-.4716821-.769043-1.0538703-.769043-1.7465821 0-.783858.313311-1.4321263.939942-1.9448242.62663-.5126979 1.441238-.769043 2.443847-.769043.683598 0 1.293129.1321602 1.828614.3964844.535484.2643243.950194.628904 1.24414 1.09375.293947.4648461.440918.972979.440918 1.5244141h-1.319336c0-.6015655-.191404-1.0743798-.574218-1.418457-.382815-.3440773-.922848-.5161133-1.620118-.5161133-.647138 0-1.151853.1424139-1.51416.4272461-.362306.2848321-.543457.6801732-.543457 1.1860351 0 .405601.172036.7485338.516114 1.0288086.344077.2802749.929683.53662 1.756835.769043.827153.232423 1.474282.4887681 1.941407.769043.467124.2802748.813475.6072572 1.039062.980957s.338379.813474.338379 1.3193359c0 .8066447-.31445 1.4526343-.943359 1.9379883-.62891.485354-1.469722.7280274-2.522461.7280274-.683597 0-1.321612-.1310209-1.914063-.3930665-.592451-.2620455-1.049315-.6209287-1.370605-1.0766601-.321291-.4557315-.481934-.9729789-.481934-1.5517578h1.319336c0 .6015655.222166 1.0766584.666504 1.4252929.444338.3486346 1.03792.5229493 1.780762.5229493.692712 0 1.223631-.1412747 1.592773-.4238282.369143-.2825535.553711-.6676408.553711-1.1552734s-.170897-.8647448-.512695-1.1313477c-.341799-.2666029-.961584-.5297838-1.859375-.7895507zm16.488281 4.4365234h-1.319336l-5.010742-7.6699219v7.6699219h-1.319336v-9.953125h1.319336l5.024414 7.7041016v-7.7041016h1.305664zm9.987305-4.6552734c0 .9752653-.164061 1.826331-.492188 2.5532226-.328126.7268917-.792965 1.2817364-1.394531 1.6645508-.601565.3828144-1.303381.5742188-2.105469.5742188-.783858 0-1.478838-.1925437-2.084961-.5776368-.606122-.385093-1.076658-.9342412-1.411621-1.6474609-.334962-.7132197-.506998-1.5392206-.516113-2.4780273v-.7177735c0-.957036.166339-1.8024052.499023-2.5361328s.80322-1.2954082 1.411621-1.6850586c.608402-.3896504 1.304521-.5844727 2.088379-.5844727.79753 0 1.500486.1925437 2.108887.5776368.608402.385093 1.076659.9433557 1.404785 1.6748047.328127.7314489.492188 1.5825146.492188 2.5532226zm-1.305664-.6425782c0-1.1803444-.236977-2.0860971-.710938-2.7172851-.47396-.6311881-1.13704-.9467774-1.989258-.9467774-.829431 0-1.482256.3155893-1.958496.9467774-.476239.631188-.721191 1.5073186-.734863 2.6284179v.7314454c0 1.1438859.240395 2.0428027.721191 2.6967773.480797.6539746 1.142737.980957 1.98584.980957.847661 0 1.503904-.3087534 1.96875-.9262695s.704102-1.5027612.717774-2.6557617zm5.420898 2.1601563.191406 1.3125.280274-1.1826172 1.96875-6.9453125h1.107422l1.920898 6.9453125.273438 1.203125.211914-1.3398437 1.544922-6.8085938h1.319336l-2.413086 9.953125h-1.196289l-2.050782-7.2529297-.157226-.7587891-.157227.7587891-2.125976 7.2529297h-1.196289l-2.40625-9.953125h1.3125z"/><path d="m0 0h373v1h-373z" fill-opacity=".22"/></g></g><g transform="translate(1)"><path d="m8 26h359v34h-359z" fill="#000" filter="url(#a)"/><path d="m.5.5v59h374v-59z" fill="#fff" stroke="#000" stroke-opacity=".1"/><path d="m27.7038574 29.8876953h-4.9877929v4.3505859h5.7348632v.7617188h-6.6357422v-10.6640625h6.5991211v.769043h-5.6982421v4.0209961h4.9877929zm10.5834961 5.1123047h-.9008789l-6.1303711-9.1259766v9.1259766h-.9082031v-10.6640625h.9082031l6.1376953 9.1333008v-9.1333008h.8935547zm9.9462891-9.8950195h-3.6547852v9.8950195h-.9008789v-9.8950195h-3.6474609v-.769043h8.203125zm7.6098633 4.7827148h-4.987793v4.3505859h5.7348633v.7617188h-6.6357422v-10.6640625h6.5991211v.769043h-5.6982422v4.0209961h4.987793zm6.6284179.6738281h-3.0981445v4.4384766h-.9082031v-10.6640625h3.4643554c1.137701 0 2.026364.2758761 2.6660157.8276367.6396516.5517606.9594726 1.3232373.9594726 2.3144531 0 .6835972-.2001933 1.2866185-.6005859 1.8090821-.4003926.5224635-.9374966.883788-1.6113281 1.0839844l2.6660156 4.5336914v.0952148h-.9594727zm-3.0981445-.7690429h2.7612305c.7568397 0 1.3647438-.2148416 1.8237304-.6445313.4589867-.4296896.6884766-.9863247.6884766-1.6699219 0-.7519568-.2392554-1.3354471-.7177734-1.7504882-.4785181-.4150412-1.1498981-.6225586-2.0141602-.6225586h-2.5415039zm15.4101562.3588867 3.2592774-5.8154297h1.0400391l-3.8525391 6.6503906v4.0136719h-.9008789v-4.0136719l-3.8452149-6.6503906h1.069336zm13.7329102.0952148c0 .9814503-.169676 1.843258-.5090332 2.5854492-.3393572.7421913-.8239715 1.3134746-1.4538574 1.7138672-.629886.4003927-1.3574178.600586-2.1826172.600586-1.2451234 0-2.2509727-.4455522-3.0175781-1.3366699-.7666054-.8911178-1.1499024-2.0934983-1.1499024-3.6071778v-1.0986328c0-.9716845.1721174-1.8322716.5163574-2.5817871s.8312957-1.3256816 1.4611817-1.7285156c.6298859-.4028341 1.3549764-.6042481 2.175293-.6042481s1.5441863.197752 2.1716308.5932617c.6274446.3955098 1.1120589.9545863 1.4538574 1.6772461.3417986.7226599.5200195 1.5600539.534668 2.5122071zm-.9008789-1.1572265c0-1.2841861-.2905244-2.2900355-.871582-3.0175782s-1.3769481-1.0913085-2.3876953-1.0913085c-.9912159 0-1.781003.3649865-2.3693848 1.0949707-.5883819.7299841-.8825684 1.749261-.8825684 3.0578613v1.1132812c0 1.2646548.2929658 2.266842.8789063 3.0065918.5859404.7397498 1.3818309 1.1096192 2.3876953 1.1096192 1.0205129 0 1.8164034-.3649866 2.3876953-1.0949707.5712919-.7299842.8569336-1.7468197.8569336-3.0505371zm10.5175781-4.753418v7.2802734c-.0048828.7177771-.1635726 1.3427708-.4760742 1.875-.3125016.5322293-.753171.9411607-1.3220215 1.2268067-.5688505.2856459-1.2219201.4284668-1.9592285.4284668-1.1230525 0-2.0227017-.3063934-2.6989746-.9191895-.6762729-.612796-1.0266112-1.4611762-1.0510254-2.545166v-7.3461914h.8935547v7.2143555c0 .898442.2563451 1.5954565.769043 2.0910644.5126978.495608 1.2084917.7434082 2.0874023.7434082s1.5734838-.2490209 2.0837402-.7470703c.5102565-.4980494.7653809-1.1914018.7653809-2.0800781v-7.2216797zm6.4965821 6.2255859h-3.098145v4.4384766h-.908203v-10.6640625h3.464356c1.137701 0 2.026364.2758761 2.666015.8276367.639652.5517606.959473 1.3232373.959473 2.3144531 0 .6835972-.200193 1.2866185-.600586 1.8090821-.400393.5224635-.937497.883788-1.611328 1.0839844l2.666016 4.5336914v.0952148h-.959473zm-3.098145-.7690429h2.761231c.75684 0 1.364744-.2148416 1.82373-.6445313.458987-.4296896.688477-.9863247.688477-1.6699219 0-.7519568-.239255-1.3354471-.717774-1.7504882-.478518-.4150412-1.149898-.6225586-2.01416-.6225586h-2.541504zm18.171387.0952148h-4.987793v4.3505859h5.734863v.7617188h-6.635742v-10.6640625h6.599121v.769043h-5.698242v4.0209961h4.987793zm5.163574.7763672h-3.5083v-.7397461h3.5083zm2.966309-6.328125 3.933105 9.4116211 3.947754-9.4116211h1.201172v10.6640625h-.900879v-4.6435547l.073242-4.7607422-3.969726 9.4042969h-.695801l-3.955078-9.3676758.073242 4.6948242v4.6728516h-.900879v-10.6640625zm17.541504 7.6757813h-4.841309l-1.098633 2.9882812h-.944824l4.035645-10.6640625h.856933l4.035645 10.6640625h-.9375zm-4.562988-.769043h4.277343l-2.138672-5.8081055zm9.272461 3.7573242h-.900879v-10.6640625h.900879zm3.801269-.7617188h5.266113v.7617188h-6.174316v-10.6640625h.908203z" fill="#999"/></g></g></svg>