<svg width="375px" height="151px" viewBox="0 0 375 151" version="1.1" xmlns="http://www.w3.org/2000/svg" xmlns:xlink="http://www.w3.org/1999/xlink">
    <defs>
        <path d="M3,0 L372,0 C373.656854,-3.04359188e-16 375,1.34314575 375,3 L375,66 C375,67.6568542 373.656854,69 372,69 L3,69 C1.34314575,69 2.02906125e-16,67.6568542 0,66 L0,3 C-2.02906125e-16,1.34314575 1.34314575,-3.6924437e-15 3,-3.99680289e-15 Z" id="path-1"></path>
        <filter x="-1.7%" y="-9.4%" width="103.5%" height="118.8%" filterUnits="objectBoundingBox" id="filter-2">
            <feGaussianBlur stdDeviation="5" in="SourceAlpha" result="shadowBlurInner1"></feGaussianBlur>
            <feOffset dx="0" dy="3" in="shadowBlurInner1" result="shadowOffsetInner1"></feOffset>
            <feComposite in="shadowOffsetInner1" in2="SourceAlpha" operator="arithmetic" k2="-1" k3="1" result="shadowInnerInner1"></feComposite>
            <feColorMatrix values="0 0 0 0 0   0 0 0 0 0   0 0 0 0 0  0 0 0 0.05 0" type="matrix" in="shadowInnerInner1"></feColorMatrix>
        </filter>
    </defs>
    <g id="Page-1" stroke="none" stroke-width="1" fill="none" fill-rule="evenodd">
        <g id="Style-5">
            <g id="Button" transform="translate(0.000000, 82.000000)">
                <path d="M3,0.5 C1.61928813,0.5 0.5,1.61928813 0.5,3 L0.5,66 C0.5,67.3807119 1.61928813,68.5 3,68.5 L372,68.5 C373.380712,68.5 374.5,67.3807119 374.5,66 L374.5,3 C374.5,1.61928813 373.380712,0.5 372,0.5 L3,0.5 Z" id="Rectangle" stroke-opacity="0.2" stroke="#000000" fill="#0284FF"></path>
                <path d="M78.6804199,39.2280273 C78.2227353,39.8836296 77.5841512,40.3737777 76.7646484,40.6984863 C75.9451456,41.023195 74.991135,41.1855469 73.9025879,41.1855469 C72.8016709,41.1855469 71.8244672,40.9273301 70.9709473,40.4108887 C70.1174274,39.8944473 69.4571963,39.1599983 68.9902344,38.2075195 C68.5232724,37.2550408 68.2836101,36.1510479 68.2712402,34.8955078 L68.2712402,33.7172852 C68.2712402,31.6824443 68.7459262,30.1053116 69.6953125,28.9858398 C70.6446988,27.8663681 71.9790767,27.3066406 73.6984863,27.3066406 C75.1086496,27.3066406 76.2435667,27.6669072 77.1032715,28.3874512 C77.9629763,29.1079951 78.4886872,30.130039 78.6804199,31.4536133 L76.8991699,31.4536133 C76.5651839,29.6661694 75.5013924,28.7724609 73.7077637,28.7724609 C72.5140728,28.7724609 71.6095408,29.1914834 70.9941406,30.029541 C70.3787404,30.8675986 70.0679525,32.0813723 70.0617676,33.6708984 L70.0617676,34.7749023 C70.0617676,36.2902094 70.4081183,37.4947058 71.1008301,38.3884277 C71.7935419,39.2821497 72.7305442,39.7290039 73.9118652,39.7290039 C74.5798373,39.7290039 75.1643041,39.6547859 75.6652832,39.5063477 C76.1662623,39.3579094 76.5806461,39.1074236 76.9084473,38.7548828 L76.9084473,35.7211914 L73.7819824,35.7211914 L73.7819824,34.2739258 L78.6804199,34.2739258 L78.6804199,39.2280273 Z M89.2844238,34.7563477 L83.4304199,34.7563477 L83.4304199,39.543457 L90.2307129,39.543457 L90.2307129,41 L81.6491699,41 L81.6491699,27.4921875 L90.1379395,27.4921875 L90.1379395,28.9580078 L83.4304199,28.9580078 L83.4304199,33.2998047 L89.2844238,33.2998047 L89.2844238,34.7563477 Z M101.781006,28.9580078 L97.439209,28.9580078 L97.439209,41 L95.6672363,41 L95.6672363,28.9580078 L91.3347168,28.9580078 L91.3347168,27.4921875 L101.781006,27.4921875 L101.781006,28.9580078 Z M110.399658,41 L108.618408,41 L108.618408,27.4921875 L110.399658,27.4921875 L110.399658,41 Z M124.037354,41 L122.246826,41 L115.446533,30.5908203 L115.446533,41 L113.656006,41 L113.656006,27.4921875 L115.446533,27.4921875 L122.265381,37.9477539 L122.265381,27.4921875 L124.037354,27.4921875 L124.037354,41 Z M131.180908,34.9790039 C129.653231,34.5398741 128.541507,34.0002473 127.845703,33.3601074 C127.149899,32.7199675 126.802002,31.929855 126.802002,30.9897461 C126.802002,29.9259387 127.227209,29.0461461 128.077637,28.3503418 C128.928064,27.6545375 130.033603,27.3066406 131.394287,27.3066406 C132.322026,27.3066406 133.149248,27.4860008 133.875977,27.8447266 C134.602705,28.2034523 135.165525,28.698239 135.564453,29.3291016 C135.963381,29.9599641 136.162842,30.6495731 136.162842,31.3979492 L134.372314,31.3979492 C134.372314,30.5815389 134.112551,29.9398624 133.593018,29.4729004 C133.073484,29.0059384 132.340581,28.7724609 131.394287,28.7724609 C130.516028,28.7724609 129.831057,28.965737 129.339355,29.3522949 C128.847654,29.7388528 128.601807,30.2753872 128.601807,30.9619141 C128.601807,31.5123725 128.835284,31.9777813 129.302246,32.3581543 C129.769208,32.7385273 130.563959,33.0864242 131.686523,33.4018555 C132.809088,33.7172867 133.687334,34.0651836 134.321289,34.4455566 C134.955244,34.8259296 135.425291,35.2696915 135.731445,35.7768555 C136.037599,36.2840195 136.190674,36.8808559 136.190674,37.5673828 C136.190674,38.6621148 135.76392,39.5388151 134.9104,40.1975098 C134.05688,40.8562045 132.915779,41.1855469 131.487061,41.1855469 C130.559322,41.1855469 129.693445,41.0077329 128.889404,40.6520996 C128.085364,40.2964663 127.465334,39.8094106 127.029297,39.190918 C126.59326,38.5724253 126.375244,37.8704466 126.375244,37.0849609 L128.165771,37.0849609 C128.165771,37.9013713 128.467282,38.5461402 129.070312,39.0192871 C129.673343,39.492434 130.478917,39.7290039 131.487061,39.7290039 C132.427169,39.7290039 133.147703,39.5372741 133.648682,39.1538086 C134.149661,38.7703431 134.400146,38.2477247 134.400146,37.5859375 C134.400146,36.9241503 134.168215,36.4123553 133.704346,36.0505371 C133.240476,35.6887189 132.399339,35.3315447 131.180908,34.9790039 Z M147.805908,28.9580078 L143.464111,28.9580078 L143.464111,41 L141.692139,41 L141.692139,28.9580078 L137.359619,28.9580078 L137.359619,27.4921875 L147.805908,27.4921875 L147.805908,28.9580078 Z M157.268799,37.4746094 L151.609619,37.4746094 L150.338623,41 L148.501709,41 L153.659912,27.4921875 L155.218506,27.4921875 L160.385986,41 L158.55835,41 L157.268799,37.4746094 Z M152.147705,36.0087891 L156.73999,36.0087891 L154.439209,29.690918 L152.147705,36.0087891 Z M172.585693,41 L170.795166,41 L163.994873,30.5908203 L163.994873,41 L162.204346,41 L162.204346,27.4921875 L163.994873,27.4921875 L170.813721,37.9477539 L170.813721,27.4921875 L172.585693,27.4921875 L172.585693,41 Z M185.082275,28.9580078 L180.740479,28.9580078 L180.740479,41 L178.968506,41 L178.968506,28.9580078 L174.635986,28.9580078 L174.635986,27.4921875 L185.082275,27.4921875 L185.082275,28.9580078 Z M199.248779,37.4746094 L193.5896,37.4746094 L192.318604,41 L190.481689,41 L195.639893,27.4921875 L197.198486,27.4921875 L202.365967,41 L200.53833,41 L199.248779,37.4746094 Z M194.127686,36.0087891 L198.719971,36.0087891 L196.419189,29.690918 L194.127686,36.0087891 Z M214.120361,36.7138672 C213.953368,38.1425853 213.426111,39.2450319 212.538574,40.0212402 C211.651037,40.7974485 210.47128,41.1855469 208.999268,41.1855469 C207.403556,41.1855469 206.124842,40.6134497 205.163086,39.4692383 C204.20133,38.3250268 203.720459,36.7942804 203.720459,34.8769531 L203.720459,33.578125 C203.720459,32.3225849 203.944659,31.218592 204.393066,30.2661133 C204.841474,29.3136346 205.476965,28.5822779 206.299561,28.0720215 C207.122156,27.561765 208.07462,27.3066406 209.156982,27.3066406 C210.591885,27.3066406 211.742265,27.7071086 212.608154,28.5080566 C213.474044,29.3090047 213.978108,30.4176361 214.120361,31.8339844 L212.329834,31.8339844 C212.175211,30.7578071 211.839684,29.978518 211.323242,29.4960938 C210.806801,29.0136695 210.084721,28.7724609 209.156982,28.7724609 C208.018956,28.7724609 207.126794,29.1930296 206.480469,30.0341797 C205.834144,30.8753297 205.510986,32.0720951 205.510986,33.6245117 L205.510986,34.9326172 C205.510986,36.3984448 205.817136,37.564286 206.429443,38.4301758 C207.041751,39.2960655 207.898351,39.7290039 208.999268,39.7290039 C209.988856,39.7290039 210.748044,39.5048037 211.276855,39.0563965 C211.805667,38.6079893 212.156656,37.827154 212.329834,36.7138672 L214.120361,36.7138672 Z M226.487061,36.7138672 C226.320068,38.1425853 225.79281,39.2450319 224.905273,40.0212402 C224.017736,40.7974485 222.837979,41.1855469 221.365967,41.1855469 C219.770256,41.1855469 218.491541,40.6134497 217.529785,39.4692383 C216.568029,38.3250268 216.087158,36.7942804 216.087158,34.8769531 L216.087158,33.578125 C216.087158,32.3225849 216.311358,31.218592 216.759766,30.2661133 C217.208173,29.3136346 217.843665,28.5822779 218.66626,28.0720215 C219.488855,27.561765 220.441319,27.3066406 221.523682,27.3066406 C222.958585,27.3066406 224.108964,27.7071086 224.974854,28.5080566 C225.840743,29.3090047 226.344807,30.4176361 226.487061,31.8339844 L224.696533,31.8339844 C224.54191,30.7578071 224.206383,29.978518 223.689941,29.4960938 C223.1735,29.0136695 222.451421,28.7724609 221.523682,28.7724609 C220.385655,28.7724609 219.493493,29.1930296 218.847168,30.0341797 C218.200843,30.8753297 217.877686,32.0720951 217.877686,33.6245117 L217.877686,34.9326172 C217.877686,36.3984448 218.183835,37.564286 218.796143,38.4301758 C219.40845,39.2960655 220.26505,39.7290039 221.365967,39.7290039 C222.355555,39.7290039 223.114743,39.5048037 223.643555,39.0563965 C224.172366,38.6079893 224.523355,37.827154 224.696533,36.7138672 L226.487061,36.7138672 Z M236.552979,34.7563477 L230.698975,34.7563477 L230.698975,39.543457 L237.499268,39.543457 L237.499268,41 L228.917725,41 L228.917725,27.4921875 L237.406494,27.4921875 L237.406494,28.9580078 L230.698975,28.9580078 L230.698975,33.2998047 L236.552979,33.2998047 L236.552979,34.7563477 Z M243.696533,34.9790039 C242.168856,34.5398741 241.057132,34.0002473 240.361328,33.3601074 C239.665524,32.7199675 239.317627,31.929855 239.317627,30.9897461 C239.317627,29.9259387 239.742834,29.0461461 240.593262,28.3503418 C241.443689,27.6545375 242.549228,27.3066406 243.909912,27.3066406 C244.837651,27.3066406 245.664873,27.4860008 246.391602,27.8447266 C247.11833,28.2034523 247.68115,28.698239 248.080078,29.3291016 C248.479006,29.9599641 248.678467,30.6495731 248.678467,31.3979492 L246.887939,31.3979492 C246.887939,30.5815389 246.628176,29.9398624 246.108643,29.4729004 C245.589109,29.0059384 244.856206,28.7724609 243.909912,28.7724609 C243.031653,28.7724609 242.346682,28.965737 241.85498,29.3522949 C241.363279,29.7388528 241.117432,30.2753872 241.117432,30.9619141 C241.117432,31.5123725 241.350909,31.9777813 241.817871,32.3581543 C242.284833,32.7385273 243.079584,33.0864242 244.202148,33.4018555 C245.324713,33.7172867 246.202959,34.0651836 246.836914,34.4455566 C247.470869,34.8259296 247.940916,35.2696915 248.24707,35.7768555 C248.553224,36.2840195 248.706299,36.8808559 248.706299,37.5673828 C248.706299,38.6621148 248.279545,39.5388151 247.426025,40.1975098 C246.572505,40.8562045 245.431404,41.1855469 244.002686,41.1855469 C243.074947,41.1855469 242.20907,41.0077329 241.405029,40.6520996 C240.600989,40.2964663 239.980959,39.8094106 239.544922,39.190918 C239.108885,38.5724253 238.890869,37.8704466 238.890869,37.0849609 L240.681396,37.0849609 C240.681396,37.9013713 240.982907,38.5461402 241.585938,39.0192871 C242.188968,39.492434 242.994542,39.7290039 244.002686,39.7290039 C244.942794,39.7290039 245.663328,39.5372741 246.164307,39.1538086 C246.665286,38.7703431 246.915771,38.2477247 246.915771,37.5859375 C246.915771,36.9241503 246.68384,36.4123553 246.219971,36.0505371 C245.756101,35.6887189 244.914964,35.3315447 243.696533,34.9790039 Z M254.968506,34.9790039 C253.440829,34.5398741 252.329105,34.0002473 251.633301,33.3601074 C250.937497,32.7199675 250.5896,31.929855 250.5896,30.9897461 C250.5896,29.9259387 251.014807,29.0461461 251.865234,28.3503418 C252.715662,27.6545375 253.821201,27.3066406 255.181885,27.3066406 C256.109624,27.3066406 256.936845,27.4860008 257.663574,27.8447266 C258.390303,28.2034523 258.953123,28.698239 259.352051,29.3291016 C259.750979,29.9599641 259.950439,30.6495731 259.950439,31.3979492 L258.159912,31.3979492 C258.159912,30.5815389 257.900149,29.9398624 257.380615,29.4729004 C256.861081,29.0059384 256.128179,28.7724609 255.181885,28.7724609 C254.303625,28.7724609 253.618655,28.965737 253.126953,29.3522949 C252.635251,29.7388528 252.389404,30.2753872 252.389404,30.9619141 C252.389404,31.5123725 252.622882,31.9777813 253.089844,32.3581543 C253.556806,32.7385273 254.351557,33.0864242 255.474121,33.4018555 C256.596685,33.7172867 257.474932,34.0651836 258.108887,34.4455566 C258.742842,34.8259296 259.212889,35.2696915 259.519043,35.7768555 C259.825197,36.2840195 259.978271,36.8808559 259.978271,37.5673828 C259.978271,38.6621148 259.551518,39.5388151 258.697998,40.1975098 C257.844478,40.8562045 256.703376,41.1855469 255.274658,41.1855469 C254.346919,41.1855469 253.481042,41.0077329 252.677002,40.6520996 C251.872961,40.2964663 251.252932,39.8094106 250.816895,39.190918 C250.380857,38.5724253 250.162842,37.8704466 250.162842,37.0849609 L251.953369,37.0849609 C251.953369,37.9013713 252.25488,38.5461402 252.85791,39.0192871 C253.460941,39.492434 254.266515,39.7290039 255.274658,39.7290039 C256.214767,39.7290039 256.9353,39.5372741 257.436279,39.1538086 C257.937258,38.7703431 258.187744,38.2477247 258.187744,37.5859375 C258.187744,36.9241503 257.955813,36.4123553 257.491943,36.0505371 C257.028074,35.6887189 256.186936,35.3315447 254.968506,34.9790039 Z M277.345459,41 L275.554932,41 L268.754639,30.5908203 L268.754639,41 L266.964111,41 L266.964111,27.4921875 L268.754639,27.4921875 L275.573486,37.9477539 L275.573486,27.4921875 L277.345459,27.4921875 L277.345459,41 Z M290.899658,34.6821289 C290.899658,36.0057032 290.677004,37.160721 290.231689,38.1472168 C289.786375,39.1337126 289.155522,39.8867162 288.339111,40.40625 C287.522701,40.9257838 286.570237,41.1855469 285.481689,41.1855469 C284.417882,41.1855469 283.474695,40.9242376 282.6521,40.4016113 C281.829504,39.878985 281.19092,39.1337125 280.736328,38.1657715 C280.281736,37.1978304 280.048259,36.0768293 280.035889,34.8027344 L280.035889,33.8286133 C280.035889,32.5297787 280.261635,31.382492 280.713135,30.3867188 C281.164634,29.3909455 281.803219,28.6286648 282.628906,28.0998535 C283.454594,27.5710423 284.399327,27.3066406 285.463135,27.3066406 C286.545497,27.3066406 287.499508,27.5679499 288.325195,28.0905762 C289.150883,28.6132025 289.786375,29.3708446 290.231689,30.3635254 C290.677004,31.3562061 290.899658,32.5112239 290.899658,33.8286133 L290.899658,34.6821289 Z M289.127686,33.8100586 C289.127686,32.2081626 288.806074,30.9789268 288.162842,30.1223145 C287.519609,29.2657021 286.619716,28.8374023 285.463135,28.8374023 C284.337478,28.8374023 283.451501,29.2657021 282.805176,30.1223145 C282.158851,30.9789268 281.826416,32.1679611 281.807861,33.6894531 L281.807861,34.6821289 C281.807861,36.2345455 282.134111,37.454504 282.786621,38.342041 C283.439131,39.229578 284.337478,39.6733398 285.481689,39.6733398 C286.632086,39.6733398 287.522702,39.2543173 288.153564,38.4162598 C288.784427,37.5782022 289.109131,36.3767982 289.127686,34.8120117 L289.127686,33.8100586 Z M296.484619,36.7416992 L296.744385,38.5229492 L297.124756,36.9179688 L299.796631,27.4921875 L301.299561,27.4921875 L303.906494,36.9179688 L304.277588,38.5507812 L304.565186,36.7324219 L306.661865,27.4921875 L308.452393,27.4921875 L305.17749,41 L303.553955,41 L300.770752,31.1567383 L300.557373,30.1269531 L300.343994,31.1567383 L297.45874,41 L295.835205,41 L292.56958,27.4921875 L294.35083,27.4921875 L296.484619,36.7416992 Z" id="Get-Instant-Access-Now-Outlines" fill="#FFFFFF"></path>
                <rect id="Inner-Shadow" fill-opacity="0.22" fill="#FFFFFF" x="1" y="1" width="373" height="1"></rect>
            </g>
            <g id="Input">
                <g id="Rectangle">
                    <use fill="#FFFFFF" fill-rule="evenodd" xlink:href="#path-1"></use>
                    <use fill="black" fill-opacity="1" filter="url(#filter-2)" xlink:href="#path-1"></use>
                    <path stroke-opacity="0.2" stroke="#000000" stroke-width="1" d="M3,0.5 C1.61928813,0.5 0.5,1.61928813 0.5,3 L0.5,66 C0.5,67.3807119 1.61928813,68.5 3,68.5 L372,68.5 C373.380712,68.5 374.5,67.3807119 374.5,66 L374.5,3 C374.5,1.61928813 373.380712,0.5 372,0.5 L3,0.5 Z" stroke-linejoin="square"></path>
                </g>
                <path d="M28.3845215,34.7563477 L22.5305176,34.7563477 L22.5305176,39.543457 L29.3308105,39.543457 L29.3308105,41 L20.7492676,41 L20.7492676,27.4921875 L29.2380371,27.4921875 L29.2380371,28.9580078 L22.5305176,28.9580078 L22.5305176,33.2998047 L28.3845215,33.2998047 L28.3845215,34.7563477 Z M32.9025879,30.9619141 L32.958252,32.2236328 C33.7251829,31.2587842 34.727126,30.7763672 35.9641113,30.7763672 C38.0855412,30.7763672 39.1555175,31.9731326 39.1740723,34.3666992 L39.1740723,41 L37.4577637,41 L37.4577637,34.3574219 C37.4515787,33.6337854 37.2861344,33.0987973 36.9614258,32.7524414 C36.6367171,32.4060855 36.1311069,32.2329102 35.4445801,32.2329102 C34.8879367,32.2329102 34.3993348,32.3813462 33.9787598,32.6782227 C33.5581847,32.9750991 33.2303885,33.3647437 32.9953613,33.847168 L32.9953613,41 L31.2790527,41 L31.2790527,30.9619141 L32.9025879,30.9619141 Z M44.0910645,28.53125 L44.0910645,30.9619141 L45.9650879,30.9619141 L45.9650879,32.2885742 L44.0910645,32.2885742 L44.0910645,38.5136719 C44.0910645,38.9156921 44.1745597,39.2172028 44.3415527,39.4182129 C44.5085458,39.619223 44.7930481,39.7197266 45.1950684,39.7197266 C45.392986,39.7197266 45.6651187,39.6826176 46.0114746,39.6083984 L46.0114746,41 C45.559975,41.1236985 45.1208517,41.1855469 44.6940918,41.1855469 C43.9271609,41.1855469 43.3488789,40.9536156 42.9592285,40.4897461 C42.5695781,40.0258766 42.3747559,39.3671918 42.3747559,38.5136719 L42.3747559,32.2885742 L40.5471191,32.2885742 L40.5471191,30.9619141 L42.3747559,30.9619141 L42.3747559,28.53125 L44.0910645,28.53125 Z M52.1345215,41.1855469 C50.7738376,41.1855469 49.6667523,40.7386926 48.8132324,39.8449707 C47.9597125,38.9512488 47.532959,37.7560296 47.532959,36.2592773 L47.532959,35.9438477 C47.532959,34.9480744 47.7231426,34.0590046 48.1035156,33.2766113 C48.4838886,32.4942181 49.0157843,31.8819195 49.6992188,31.4396973 C50.3826532,30.997475 51.123287,30.7763672 51.9211426,30.7763672 C53.2261621,30.7763672 54.2404749,31.2062131 54.9641113,32.065918 C55.6877478,32.9256228 56.0495605,34.1564048 56.0495605,35.7583008 L56.0495605,36.4726562 L49.2492676,36.4726562 C49.2740073,37.4622445 49.5631483,38.2616343 50.1166992,38.8708496 C50.6702502,39.4800649 51.373775,39.784668 52.2272949,39.784668 C52.8334177,39.784668 53.346759,39.6609713 53.767334,39.4135742 C54.187909,39.1661771 54.5559066,38.8383809 54.8713379,38.4301758 L55.9196777,39.246582 C55.0785277,40.5392317 53.8168216,41.1855469 52.1345215,41.1855469 Z M51.9211426,32.1865234 C51.2284308,32.1865234 50.6470564,32.4385554 50.177002,32.942627 C49.7069475,33.4466985 49.4162603,34.1533158 49.3049316,35.0625 L54.333252,35.0625 L54.333252,34.9326172 C54.2837725,34.0605425 54.0487488,33.3848494 53.6281738,32.9055176 C53.2075988,32.4261858 52.6385941,32.1865234 51.9211426,32.1865234 Z M62.8869629,32.5019531 C62.627196,32.4586586 62.345786,32.4370117 62.0427246,32.4370117 C60.9170679,32.4370117 60.1532409,32.9163364 59.7512207,33.875 L59.7512207,41 L58.0349121,41 L58.0349121,30.9619141 L59.704834,30.9619141 L59.732666,32.121582 C60.2954944,31.2247677 61.0933379,30.7763672 62.1262207,30.7763672 C62.4602067,30.7763672 62.7137849,30.819661 62.8869629,30.90625 L62.8869629,32.5019531 Z M72.4519043,38.4858398 L74.7897949,30.9619141 L76.626709,30.9619141 L72.5910645,42.5493164 C71.9663869,44.2192466 70.973721,45.0541992 69.6130371,45.0541992 L69.2883301,45.0263672 L68.6481934,44.9057617 L68.6481934,43.5141602 L69.1120605,43.5512695 C69.6934437,43.5512695 70.1464828,43.4337577 70.4711914,43.1987305 C70.7959001,42.9637033 71.0633941,42.5338573 71.2736816,41.9091797 L71.6540527,40.8886719 L68.072998,30.9619141 L69.9470215,30.9619141 L72.4519043,38.4858398 Z M77.7028809,35.8881836 C77.7028809,34.9047802 77.8961569,34.020349 78.2827148,33.2348633 C78.6692728,32.4493776 79.2073533,31.8432639 79.8969727,31.4165039 C80.586592,30.989744 81.3736121,30.7763672 82.2580566,30.7763672 C83.6249255,30.7763672 84.7304645,31.249507 85.574707,32.1958008 C86.4189495,33.1420946 86.8410645,34.4007083 86.8410645,35.9716797 L86.8410645,36.0922852 C86.8410645,37.0695036 86.6539732,37.9462038 86.2797852,38.7224121 C85.9055971,39.4986204 85.3706089,40.1031879 84.6748047,40.5361328 C83.9790004,40.9690777 83.1796106,41.1855469 82.2766113,41.1855469 C80.9159274,41.1855469 79.8134808,40.7124071 78.9692383,39.7661133 C78.1249958,38.8198195 77.7028809,37.5673906 77.7028809,36.0087891 L77.7028809,35.8881836 Z M79.4284668,36.0922852 C79.4284668,37.205572 79.6866836,38.0992805 80.203125,38.7734375 C80.7195664,39.4475945 81.4107216,39.784668 82.2766113,39.784668 C83.148686,39.784668 83.8413874,39.4429559 84.3547363,38.7595215 C84.8680852,38.0760871 85.1247559,37.118984 85.1247559,35.8881836 C85.1247559,34.7872666 84.8634466,33.8951043 84.3408203,33.2116699 C83.818194,32.5282355 83.1239464,32.1865234 82.2580566,32.1865234 C81.4107217,32.1865234 80.7272975,32.5235969 80.2077637,33.1977539 C79.6882298,33.8719109 79.4284668,34.836745 79.4284668,36.0922852 Z M95.1906738,40.0073242 C94.5227017,40.7928099 93.5424056,41.1855469 92.2497559,41.1855469 C91.1797635,41.1855469 90.3649117,40.874759 89.8051758,40.2531738 C89.2454399,39.6315887 88.9624838,38.7115946 88.9562988,37.4931641 L88.9562988,30.9619141 L90.6726074,30.9619141 L90.6726074,37.4467773 C90.6726074,38.9682693 91.2910908,39.7290039 92.5280762,39.7290039 C93.8392806,39.7290039 94.7113422,39.240402 95.1442871,38.2631836 L95.1442871,30.9619141 L96.8605957,30.9619141 L96.8605957,41 L95.2277832,41 L95.1906738,40.0073242 Z M104.31958,32.5019531 C104.059813,32.4586586 103.778403,32.4370117 103.475342,32.4370117 C102.349685,32.4370117 101.585858,32.9163364 101.183838,33.875 L101.183838,41 L99.4675293,41 L99.4675293,30.9619141 L101.137451,30.9619141 L101.165283,32.121582 C101.728112,31.2247677 102.525955,30.7763672 103.558838,30.7763672 C103.892824,30.7763672 104.146402,30.819661 104.31958,30.90625 L104.31958,32.5019531 Z M114.765869,41.1855469 C113.405185,41.1855469 112.2981,40.7386926 111.44458,39.8449707 C110.59106,38.9512488 110.164307,37.7560296 110.164307,36.2592773 L110.164307,35.9438477 C110.164307,34.9480744 110.35449,34.0590046 110.734863,33.2766113 C111.115236,32.4942181 111.647132,31.8819195 112.330566,31.4396973 C113.014001,30.997475 113.754635,30.7763672 114.55249,30.7763672 C115.85751,30.7763672 116.871823,31.2062131 117.595459,32.065918 C118.319095,32.9256228 118.680908,34.1564048 118.680908,35.7583008 L118.680908,36.4726562 L111.880615,36.4726562 C111.905355,37.4622445 112.194496,38.2616343 112.748047,38.8708496 C113.301598,39.4800649 114.005123,39.784668 114.858643,39.784668 C115.464765,39.784668 115.978107,39.6609713 116.398682,39.4135742 C116.819257,39.1661771 117.187254,38.8383809 117.502686,38.4301758 L118.551025,39.246582 C117.709875,40.5392317 116.448169,41.1855469 114.765869,41.1855469 Z M114.55249,32.1865234 C113.859778,32.1865234 113.278404,32.4385554 112.80835,32.942627 C112.338295,33.4466985 112.047608,34.1533158 111.936279,35.0625 L116.9646,35.0625 L116.9646,34.9326172 C116.91512,34.0605425 116.680097,33.3848494 116.259521,32.9055176 C115.838946,32.4261858 115.269942,32.1865234 114.55249,32.1865234 Z M124.238037,35.9624023 L119.710693,35.9624023 L119.710693,34.5615234 L124.238037,34.5615234 L124.238037,35.9624023 Z M127.522217,30.9619141 L127.568604,32.0751953 C128.30461,31.2093056 129.297276,30.7763672 130.546631,30.7763672 C131.950609,30.7763672 132.906166,31.3144477 133.41333,32.390625 C133.747316,31.9082007 134.181801,31.5185562 134.716797,31.2216797 C135.251793,30.9248032 135.884192,30.7763672 136.614014,30.7763672 C138.815848,30.7763672 139.935303,31.9422084 139.972412,34.2739258 L139.972412,41 L138.256104,41 L138.256104,34.3759766 C138.256104,33.6585251 138.092205,33.1219907 137.764404,32.7663574 C137.436603,32.4107241 136.886153,32.2329102 136.113037,32.2329102 C135.47599,32.2329102 134.947186,32.4230938 134.526611,32.8034668 C134.106036,33.1838398 133.861735,33.6956348 133.793701,34.3388672 L133.793701,41 L132.068115,41 L132.068115,34.4223633 C132.068115,32.9627206 131.353767,32.2329102 129.925049,32.2329102 C128.799392,32.2329102 128.02938,32.7122348 127.61499,33.6708984 L127.61499,41 L125.898682,41 L125.898682,30.9619141 L127.522217,30.9619141 Z M148.758057,41 C148.659098,40.8020823 148.578695,40.4495468 148.516846,39.9423828 C147.71899,40.771163 146.766526,41.1855469 145.659424,41.1855469 C144.669836,41.1855469 143.858076,40.9056831 143.224121,40.3459473 C142.590166,39.7862114 142.273193,39.0765017 142.273193,38.2167969 C142.273193,37.1715443 142.670569,36.3597848 143.465332,35.7814941 C144.260095,35.2032035 145.378004,34.9140625 146.819092,34.9140625 L148.489014,34.9140625 L148.489014,34.1254883 C148.489014,33.5255504 148.309653,33.047772 147.950928,32.6921387 C147.592202,32.3365054 147.063399,32.1586914 146.364502,32.1586914 C145.752194,32.1586914 145.238853,32.3133123 144.824463,32.6225586 C144.410073,32.9318049 144.202881,33.3059874 144.202881,33.7451172 L142.477295,33.7451172 C142.477295,33.2441381 142.655109,32.7601749 143.010742,32.2932129 C143.366375,31.8262509 143.848793,31.4567071 144.458008,31.1845703 C145.067223,30.9124335 145.736731,30.7763672 146.466553,30.7763672 C147.623134,30.7763672 148.529212,31.0655082 149.184814,31.6437988 C149.840417,32.2220895 150.180583,33.0183869 150.205322,34.0327148 L150.205322,38.652832 C150.205322,39.5743861 150.322834,40.3072889 150.557861,40.8515625 L150.557861,41 L148.758057,41 Z M145.909912,39.6918945 C146.448001,39.6918945 146.95825,39.5527358 147.440674,39.2744141 C147.923098,38.9960924 148.272541,38.6342796 148.489014,38.1889648 L148.489014,36.1293945 L147.143799,36.1293945 C145.040924,36.1293945 143.989502,36.7447855 143.989502,37.9755859 C143.989502,38.5136746 144.168862,38.9342433 144.527588,39.2373047 C144.886314,39.5403661 145.347084,39.6918945 145.909912,39.6918945 Z M154.760498,41 L153.044189,41 L153.044189,30.9619141 L154.760498,30.9619141 L154.760498,41 Z M152.905029,28.2993164 C152.905029,28.0209947 152.990071,27.785971 153.160156,27.5942383 C153.330242,27.4025056 153.582274,27.3066406 153.91626,27.3066406 C154.250246,27.3066406 154.503824,27.4025056 154.677002,27.5942383 C154.85018,27.785971 154.936768,28.0209947 154.936768,28.2993164 C154.936768,28.5776381 154.85018,28.8095694 154.677002,28.9951172 C154.503824,29.180665 154.250246,29.2734375 153.91626,29.2734375 C153.582274,29.2734375 153.330242,29.180665 153.160156,28.9951172 C152.990071,28.8095694 152.905029,28.5776381 152.905029,28.2993164 Z M159.371338,41 L157.655029,41 L157.655029,26.75 L159.371338,26.75 L159.371338,41 Z" id="Enter-your-e-mail-outlines" fill="#999999"></path>
            </g>
        </g>
    </g>
</svg>