<?xml version="1.0" encoding="UTF-8"?>
<svg width="770px" height="130px" viewBox="0 0 770 130" version="1.1" xmlns="http://www.w3.org/2000/svg" xmlns:xlink="http://www.w3.org/1999/xlink">
    <!-- Generator: Sketch 43.2 (39069) - http://www.bohemiancoding.com/sketch -->
    <title>Artboard 2</title>
    <desc>Created with Sketch.</desc>
    <defs></defs>
    <g id="Final-Logos" stroke="none" stroke-width="1" fill="none" fill-rule="evenodd">
        <g id="Artboard-2">
            <g id="Logo" transform="translate(2.000000, 3.000000)">
                <path d="M156.17,56.21 C156.17,72.968 167.734,81.298 179.396,81.298 C191.156,81.298 202.72,72.968 202.72,56.21 C202.72,39.452 191.156,31.122 179.396,31.122 C167.734,31.122 156.17,39.452 156.17,56.21 Z M144.116,56.21 C144.116,33.474 161.168,20.048 179.396,20.048 C197.624,20.048 214.774,33.474 214.774,56.21 C214.774,79.044 197.624,92.47 179.396,92.47 C161.168,92.47 144.116,79.044 144.116,56.21 Z M234.29,109.62 L223.02,109.62 L223.02,43.274 L233.996,43.274 L233.996,49.742 C236.348,45.626 241.836,42.196 249.186,42.196 C263.298,42.196 271.236,52.976 271.236,67.088 C271.236,81.396 262.514,92.176 248.794,92.176 C241.934,92.176 236.74,89.236 234.29,85.61 L234.29,109.62 Z M259.868,67.088 C259.868,58.17 254.674,52.29 247.03,52.29 C239.582,52.29 234.192,58.17 234.192,67.088 C234.192,76.202 239.582,82.082 247.03,82.082 C254.576,82.082 259.868,76.202 259.868,67.088 Z M293.104,28.672 L282.814,28.672 L282.814,35.826 C282.814,40.04 280.56,43.274 275.464,43.274 L273.014,43.274 L273.014,53.368 L281.834,53.368 L281.834,77.378 C281.834,86.296 287.322,91.588 296.142,91.588 C300.258,91.588 302.414,90.804 303.1,90.51 L303.1,81.102 C302.61,81.2 300.748,81.494 299.18,81.494 C294.966,81.494 293.104,79.73 293.104,75.516 L293.104,53.368 L303.002,53.368 L303.002,43.274 L293.104,43.274 L293.104,28.672 Z M322.714,91 L322.714,43.274 L311.444,43.274 L311.444,91 L322.714,91 Z M309.68,26.516 C309.68,30.632 313.012,33.866 317.03,33.866 C321.146,33.866 324.478,30.632 324.478,26.516 C324.478,22.4 321.146,19.068 317.03,19.068 C313.012,19.068 309.68,22.4 309.68,26.516 Z M345.464,91 L345.464,62.678 C345.464,56.602 349.286,52.094 355.362,52.094 C361.83,52.094 364.574,56.406 364.574,61.894 L364.574,91 L375.746,91 L375.746,62.678 C375.746,56.798 379.666,52.094 385.644,52.094 C392.014,52.094 394.856,56.308 394.856,61.894 L394.856,91 L405.832,91 L405.832,60.032 C405.832,47.39 397.6,41.902 388.976,41.902 C382.802,41.902 377.216,44.058 373.492,50.33 C370.944,44.744 365.456,41.902 359.184,41.902 C353.794,41.902 347.816,44.45 345.072,49.35 L345.072,43.274 L334.194,43.274 L334.194,91 L345.464,91 Z M427.798,91 L427.798,43.274 L416.528,43.274 L416.528,91 L427.798,91 Z M414.764,26.516 C414.764,30.632 418.096,33.866 422.114,33.866 C426.23,33.866 429.562,30.632 429.562,26.516 C429.562,22.4 426.23,19.068 422.114,19.068 C418.096,19.068 414.764,22.4 414.764,26.516 Z M474.656,91 L474.656,81.004 L449.666,81.004 L474.166,52.878 L474.166,43.274 L436.142,43.274 L436.142,53.27 L459.858,53.27 L435.652,81.102 L435.652,91 L474.656,91 Z M490.252,61.894 L513.674,61.894 C513.478,56.308 509.754,51.31 501.914,51.31 C494.76,51.31 490.644,56.798 490.252,61.894 Z M514.948,74.34 L524.552,77.378 C522.004,85.708 514.458,92.47 502.992,92.47 C490.056,92.47 478.59,83.062 478.59,66.892 C478.59,51.8 489.762,41.804 501.816,41.804 C516.516,41.804 525.14,51.506 525.14,66.598 C525.14,68.46 524.944,70.028 524.846,70.224 L489.958,70.224 C490.252,77.476 495.936,82.67 502.992,82.67 C509.852,82.67 513.38,79.044 514.948,74.34 Z M545.538,53.466 L557.788,53.466 C565.236,53.466 569.744,49.35 569.744,42.784 C569.744,36.12 565.236,31.906 557.788,31.906 L545.538,31.906 L545.538,53.466 Z M559.552,63.854 L545.538,63.854 L545.538,91 L533.778,91 L533.778,21.518 L559.552,21.518 C572.88,21.518 581.7,30.534 581.7,42.686 C581.7,54.936 572.88,63.854 559.552,63.854 Z M615.23,42.98 C614.74,42.882 613.564,42.686 612.192,42.686 C605.92,42.686 600.628,45.724 598.374,50.918 L598.374,43.274 L587.3,43.274 L587.3,91 L598.668,91 L598.668,68.264 C598.668,59.346 602.686,54.25 611.506,54.25 C612.682,54.25 613.956,54.348 615.23,54.544 L615.23,42.98 Z M628.964,61.894 L652.386,61.894 C652.19,56.308 648.466,51.31 640.626,51.31 C633.472,51.31 629.356,56.798 628.964,61.894 Z M653.66,74.34 L663.264,77.378 C660.716,85.708 653.17,92.47 641.704,92.47 C628.768,92.47 617.302,83.062 617.302,66.892 C617.302,51.8 628.474,41.804 640.528,41.804 C655.228,41.804 663.852,51.506 663.852,66.598 C663.852,68.46 663.656,70.028 663.558,70.224 L628.67,70.224 C628.964,77.476 634.648,82.67 641.704,82.67 C648.564,82.67 652.092,79.044 653.66,74.34 Z M667.296,78.064 C667.884,83.454 673.176,92.47 686.994,92.47 C699.146,92.47 705.026,84.434 705.026,77.182 C705.026,70.126 700.322,64.638 691.306,62.678 L684.054,61.208 C681.114,60.62 679.252,58.758 679.252,56.21 C679.252,53.27 682.094,50.722 686.112,50.722 C692.482,50.722 694.54,55.132 694.932,57.876 L704.536,55.132 C703.752,50.428 699.44,41.804 686.112,41.804 C676.214,41.804 668.57,48.86 668.57,57.19 C668.57,63.756 672.98,69.244 681.408,71.106 L688.464,72.674 C692.286,73.458 694.05,75.418 694.05,77.966 C694.05,80.906 691.6,83.454 686.896,83.454 C680.82,83.454 677.586,79.632 677.194,75.32 L667.296,78.064 Z M708.862,78.064 C709.45,83.454 714.742,92.47 728.56,92.47 C740.712,92.47 746.592,84.434 746.592,77.182 C746.592,70.126 741.888,64.638 732.872,62.678 L725.62,61.208 C722.68,60.62 720.818,58.758 720.818,56.21 C720.818,53.27 723.66,50.722 727.678,50.722 C734.048,50.722 736.106,55.132 736.498,57.876 L746.102,55.132 C745.318,50.428 741.006,41.804 727.678,41.804 C717.78,41.804 710.136,48.86 710.136,57.19 C710.136,63.756 714.546,69.244 722.974,71.106 L730.03,72.674 C733.852,73.458 735.616,75.418 735.616,77.966 C735.616,80.906 733.166,83.454 728.462,83.454 C722.386,83.454 719.152,79.632 718.76,75.32 L708.862,78.064 Z" id="OptimizePress" fill="#161616"></path>
                <path d="M82.7667227,65.8440956 C82.2726117,71.4499997 79.8347031,76.7069112 75.8747023,80.7054986 L75.881853,80.71253 L59.0381748,97.7253207 L59.0300707,76.7279579 L60.2890592,75.4562174 L60.2771415,75.4442997 C61.6119267,74.1027214 62.3219847,72.1293845 62.0673029,69.8191335 C61.8144088,67.5274742 60.6705456,65.3499867 59.0244694,63.6737587 L59.0244694,63.6167919 L58.9684561,63.6167919 C57.3081978,61.9498598 55.1482294,60.7912185 52.8757576,60.5354642 C50.5882694,60.2779221 48.634716,60.9948925 47.3062472,62.3436214 L47.2938527,62.3296777 L46.0254493,63.6109523 L25.239626,63.6026099 L41.7537791,46.9223237 C45.7210622,42.7315828 51.0808379,40.1319946 56.8280327,39.6110378 C101.935311,-4.85399397 121.830761,0.170757216 121.830761,0.170757216 C121.830761,0.170757216 126.808914,20.2679743 82.7667227,65.8440956 Z M63.0321619,51.6858383 C66.104624,53.7951282 68.7493785,56.4677456 70.826354,59.5621436 C102.391044,27.6115572 104.172148,18.0050367 104.172148,18.0050367 C104.172148,18.0050367 94.6410671,19.8261843 63.0321619,51.6853616 L63.0321619,51.6858383 Z M49.8273227,65.0217725 C49.8724909,64.9724332 49.9190892,64.9251198 49.9678327,64.8798324 L50.1518424,64.6939159 L50.1657861,64.7079788 C50.8287691,64.2093412 51.7660982,64.0184193 52.873374,64.2419958 C55.4118494,64.754458 57.8806062,67.2483611 58.3879437,69.8122213 C58.609375,70.9306997 58.4202407,71.8773246 57.9266086,72.5471008 L57.927562,72.547935 L57.6892075,72.8321728 L57.665372,72.8455206 C57.3391243,73.161108 56.9367743,73.3869167 56.497435,73.5009955 L46.0013755,79.3877557 L48.6005121,82.0131113 L26.5219732,93.8118974 L38.2081368,82.0078675 L35.6091193,79.3826311 L49.8273227,65.0217725 Z M25.0228426,29.4478403 C6.36194972,48.2964374 6.36194972,78.8563444 25.0228426,97.7051798 C33.9396753,106.749805 46.11045,111.841904 58.8114401,111.841904 C71.5124301,111.841904 83.6832048,106.749805 92.6000375,97.7051798 C106.066113,84.1034803 109.810662,64.4046727 103.841074,47.4076134 C106.745424,43.6876148 109.244571,40.2170541 111.400487,36.9866356 C122.431533,59.237028 118.773983,87.0196284 100.398043,105.581485 C89.423133,116.712942 74.4436922,122.979859 58.811738,122.979859 C43.1797838,122.979859 28.200343,116.712942 17.2254327,105.581485 C-5.7418109,82.3825608 -5.7418109,44.7704593 17.2254327,21.5720118 C35.143984,3.3995952 62.7884168,-1.03026513 85.488016,10.6333279 C82.2968068,12.801758 78.8695074,15.3146103 75.1946769,18.2362406 C57.7197621,11.8023808 38.0967919,16.1874085 25.0228426,29.4478403 L25.0228426,29.4478403 Z" id="Logomark.svg" fill="#2346CA"></path>
                <path d="M759.22,48.36 C759.22,47.9733314 759.090001,47.6833343 758.83,47.49 C758.569999,47.2966657 758.260002,47.2 757.9,47.2 L756.4,47.2 L756.4,49.56 L757.9,49.56 C758.300002,49.56 758.619999,49.4666676 758.86,49.28 C759.100001,49.0933324 759.22,48.7866688 759.22,48.36 Z M759.2,53.62 L757.92,50.8 L756.42,50.8 L756.42,53.62 L755.08,53.62 L755.08,45.96 L757.9,45.96 C758.260002,45.96 758.606665,46.0133328 758.94,46.12 C759.273335,46.2266672 759.563332,46.379999 759.81,46.58 C760.056668,46.780001 760.253333,47.0299985 760.4,47.33 C760.546667,47.6300015 760.62,47.9733314 760.62,48.36 C760.62,48.8666692 760.506668,49.3099981 760.28,49.69 C760.053332,50.0700019 759.706669,50.3666656 759.24,50.58 L760.66,53.62 L759.2,53.62 Z M763.46,49.9 C763.46,49.0199956 763.320001,48.2100037 763.04,47.47 C762.759999,46.7299963 762.363336,46.0900027 761.85,45.55 C761.336664,45.0099973 760.71667,44.5900015 759.99,44.29 C759.26333,43.9899985 758.460004,43.84 757.58,43.84 C756.699996,43.84 755.89667,43.9933318 755.17,44.3 C754.44333,44.6066682 753.823336,45.0299973 753.31,45.57 C752.796664,46.1100027 752.400001,46.7499963 752.12,47.49 C751.839999,48.2300037 751.7,49.0399956 751.7,49.92 C751.7,50.8000044 751.839999,51.6099963 752.12,52.35 C752.400001,53.0900037 752.796664,53.7299973 753.31,54.27 C753.823336,54.8100027 754.44333,55.2299985 755.17,55.53 C755.89667,55.8300015 756.699996,55.98 757.58,55.98 C758.460004,55.98 759.26333,55.8266682 759.99,55.52 C760.71667,55.2133318 761.336664,54.7900027 761.85,54.25 C762.363336,53.7099973 762.759999,53.0700037 763.04,52.33 C763.320001,51.5899963 763.46,50.7800044 763.46,49.9 Z M764.8,49.9 C764.8,50.9266718 764.616668,51.8866622 764.25,52.78 C763.883332,53.6733378 763.380003,54.45333 762.74,55.12 C762.099997,55.78667 761.340004,56.3099981 760.46,56.69 C759.579996,57.0700019 758.620005,57.26 757.58,57.26 C756.539995,57.26 755.580004,57.0700019 754.7,56.69 C753.819996,56.3099981 753.060003,55.7900033 752.42,55.13 C751.779997,54.4699967 751.276669,53.6933378 750.91,52.8 C750.543332,51.9066622 750.36,50.9466718 750.36,49.92 C750.36,48.8933282 750.543332,47.9333378 750.91,47.04 C751.276669,46.1466622 751.779997,45.36667 752.42,44.7 C753.060003,44.03333 753.819996,43.5100019 754.7,43.13 C755.580004,42.7499981 756.539995,42.56 757.58,42.56 C758.620005,42.56 759.579996,42.7499981 760.46,43.13 C761.340004,43.5100019 762.099997,44.0299967 762.74,44.69 C763.380003,45.3500033 763.883332,46.1266622 764.25,47.02 C764.616668,47.9133378 764.8,48.8733282 764.8,49.9 Z" id="®" fill="#161616"></path>
            </g>
        </g>
    </g>
</svg>