<?xml version="1.0" encoding="UTF-8" standalone="no"?>
<svg xmlns:svg="http://www.w3.org/2000/svg" xmlns="http://www.w3.org/2000/svg" version="1.1" width="1792" height="1792" viewBox="0 0 1792 1792">
  <path fill="blue" d="M 176,552 C 79.603023,552 0,631.60302 0,728 l 0,336 c 0,96.397 79.603023,176 176,176 l 1440,0 c 96.397,0 176,-79.603 176,-176 l 0,-336 c 0,-96.39698 -79.603,-176 -176,-176 l -1440,0 z m 0,128 1440,0 c 27.699,0 48,20.30098 48,48 l 0,336 c 0,27.699 -20.301,48 -48,48 l -1440,0 c -27.69902,0 -48,-20.301 -48,-48 l 0,-336 c 0,-27.69902 20.30098,-48 48,-48 z" />
  <path fill="blue" d="m 1012.3374,964.88428 q -9.0332,44.18942 -35.40036,68.11522 -26.36719,23.6817 -58.34961,23.6817 -38.08593,0 -66.40625,-31.9825 -28.32031,-31.98239 -28.32031,-86.42575 0,-52.73438 31.25,-85.69336 31.49414,-32.95898 75.43945,-32.95898 32.95899,0 54.19922,17.57812 21.24026,17.33398 21.24026,36.13281 0,9.27735 -6.10354,15.13672 -5.85937,5.61524 -16.60156,5.61524 -14.4043,0 -21.72852,-9.27735 -4.15039,-5.12695 -5.61523,-19.53125 -1.2207,-14.40429 -9.76563,-21.97265 -8.54492,-7.32422 -23.68164,-7.32422 -24.41406,0 -39.30664,18.0664 -19.77539,23.92578 -19.77539,63.23243 0,40.03906 19.53125,70.80078 19.77539,30.51756 53.22266,30.51756 23.92578,0 42.96875,-16.3574 13.42773,-11.23048 26.12309,-40.77149 l 7.08,3.41797 z M 633.67532,864.78662 q 32.47071,-45.16601 70.06836,-45.16601 34.42383,0 60.0586,29.54101 25.63476,29.29688 25.63476,80.32227 0,59.57031 -39.55078,95.94731 -33.93555,31.25 -75.68359,31.25 -19.53125,0 -39.79492,-7.0801 -20.01954,-7.0801 -41.01563,-21.2403 l 0,-231.68941 q 0,-38.08594 -1.95312,-46.875 -1.70899,-8.78907 -5.61524,-11.96289 -3.90625,-3.17383 -9.76562,-3.17383 -6.83594,0 -17.08985,3.90625 l -3.41797,-8.54492 67.13868,-27.34375 10.98632,0 0,162.10937 z m 0,15.625 0,133.78908 q 12.45118,12.207 25.63477,18.5547 13.42773,6.1035 27.34375,6.1035 22.2168,0 41.25976,-24.4141 19.28711,-24.41404 19.28711,-71.0449 0,-42.96875 -19.28711,-65.91797 -19.04296,-23.19336 -43.45703,-23.19336 -12.93945,0 -25.8789,6.5918 -9.76563,4.88281 -24.90235,19.53125 z m -209.47265,58.59375 -128.17383,0 -22.46094,52.24609 q -8.30078,19.28714 -8.30078,28.80864 0,7.5683 7.08008,13.4277 7.32422,5.6152 31.25,7.3242 l 0,9.0332 -104.24805,0 0,-9.0332 q 20.75195,-3.6621 26.85547,-9.5215 12.45117,-11.7187 27.58789,-47.60739 l 116.45508,-272.46094 8.54492,0 115.23438,275.39062 q 13.91601,33.20311 25.14648,43.21291 11.47461,9.7656 31.73828,10.9863 l 0,9.0332 -130.61523,0 0,-9.0332 q 19.77539,-0.9766 26.61133,-6.5918 7.08007,-5.6152 7.08007,-13.6719 0,-10.7421 -9.76562,-33.93551 l -20.01953,-47.60742 z m -6.83594,-18.06641 -56.15234,-133.78906 -57.61719,133.78906 113.76953,0 z" />
  <path fill="blue" d="m 1606,818.22223 q 0,9.02777 -6.6798,15.625 l -157.5,155.55553 Q 1435.1406,996 1426,996 q -9.1406,0 -15.8204,-6.59724 L 1252.6797,833.84723 Q 1246,827.25 1246,818.22223 q 0,-9.02779 6.6797,-15.62501 Q 1259.3594,796 1268.5,796 l 315,0 q 9.1405,0 15.8202,6.59722 6.6798,6.59722 6.6798,15.62501 z" />
</svg>
