<?xml version="1.0" encoding="UTF-8" standalone="no"?><!DOCTYPE svg PUBLIC "-//W3C//DTD SVG 1.1//EN" "http://www.w3.org/Graphics/SVG/1.1/DTD/svg11.dtd"><svg width="100%" height="100%" viewBox="0 0 80 80" version="1.1" xmlns="http://www.w3.org/2000/svg" xmlns:xlink="http://www.w3.org/1999/xlink" xml:space="preserve" style="fill-rule:evenodd;clip-rule:evenodd;stroke-linejoin:round;stroke-miterlimit:1.41421;"><rect x="0" y="0" width="80" height="80" style="fill:#de4d3b;"/><path d="M27.862,36.965l0,7.279l12.055,0c-0.484,3.129 -3.642,9.164 -12.043,9.164c-7.245,0 -13.16,-6.006 -13.16,-13.41c0,-7.404 5.902,-13.41 13.148,-13.41c4.129,0 6.891,1.76 8.467,3.278l5.765,-5.548c-3.7,-3.462 -8.497,-5.547 -14.224,-5.547c-11.75,-0.004 -21.24,9.506 -21.24,21.227c0,11.721 9.494,21.231 21.232,21.231c12.263,0 20.389,-8.613 20.389,-20.747c0,-1.393 -0.151,-2.461 -0.334,-3.517l-20.055,0Zm45.508,0l-6.07,0l0,-6.069l-6.069,0l0,6.069l-6.065,0l0,6.065l6.07,0l0,6.069l6.09,0l0,-6.069l6.044,0" style="fill:#fff;"/></svg>