<?xml version="1.0" encoding="UTF-8" standalone="no"?><!DOCTYPE svg PUBLIC "-//W3C//DTD SVG 1.1//EN" "http://www.w3.org/Graphics/SVG/1.1/DTD/svg11.dtd"><svg width="100%" height="100%" viewBox="0 0 80 80" version="1.1" xmlns="http://www.w3.org/2000/svg" xmlns:xlink="http://www.w3.org/1999/xlink" xml:space="preserve" style="fill-rule:evenodd;clip-rule:evenodd;stroke-linejoin:round;stroke-miterlimit:1.41421;"><rect x="0" y="0" width="80" height="80" style="fill:#0077b9;"/><path d="M24.422,20.028c0,3.065 -2.463,5.548 -5.503,5.548c-3.04,0 -5.504,-2.483 -5.504,-5.548c0,-3.062 2.464,-5.547 5.504,-5.547c3.04,0 5.503,2.485 5.503,5.547Zm0.044,9.986l-11.095,0l0,35.505l11.095,0l0,-35.505Zm17.713,0l-11.024,0l0,35.505l11.026,0l0,-18.638c0,-10.363 13.379,-11.21 13.379,0l0,18.638l11.069,0l0,-22.481c0,-17.486 -19.799,-16.85 -24.45,-8.242l0,-4.782Z" style="fill:#fff;fill-rule:nonzero;"/></svg>