<?xml version="1.0" encoding="UTF-8" standalone="no"?><!DOCTYPE svg PUBLIC "-//W3C//DTD SVG 1.1//EN" "http://www.w3.org/Graphics/SVG/1.1/DTD/svg11.dtd"><svg width="100%" height="100%" viewBox="0 0 80 80" version="1.1" xmlns="http://www.w3.org/2000/svg" xmlns:xlink="http://www.w3.org/1999/xlink" xml:space="preserve" style="fill-rule:evenodd;clip-rule:evenodd;stroke-linejoin:round;stroke-miterlimit:1.41421;"><rect x="0" y="0" width="80" height="80" style="fill:#cb2027;"/><path d="M37.012,8.677c-9.92,1.17 -19.806,9.649 -20.214,21.761c-0.256,7.395 1.731,12.943 8.394,14.501c2.891,-5.388 -0.933,-6.576 -1.527,-10.474c-2.443,-15.973 17.439,-26.865 27.844,-15.714c7.198,7.722 2.459,31.478 -9.152,29.008c-11.121,-2.358 5.444,-21.268 -3.433,-24.981c-7.216,-3.017 -11.051,9.23 -7.63,15.314c-2.005,10.462 -6.324,20.32 -4.575,33.442c5.671,-4.348 7.583,-12.673 9.151,-21.355c2.85,1.829 4.372,3.732 8.009,4.027c13.412,1.096 20.902,-14.144 19.071,-28.201c-1.626,-12.463 -13.4,-18.806 -25.938,-17.328Z" style="fill:#fff;fill-rule:nonzero;"/></svg>