<?xml version="1.0" encoding="UTF-8" standalone="no"?><!DOCTYPE svg PUBLIC "-//W3C//DTD SVG 1.1//EN" "http://www.w3.org/Graphics/SVG/1.1/DTD/svg11.dtd"><svg width="100%" height="100%" viewBox="0 0 80 80" version="1.1" xmlns="http://www.w3.org/2000/svg" xmlns:xlink="http://www.w3.org/1999/xlink" xml:space="preserve" style="fill-rule:evenodd;clip-rule:evenodd;stroke-linejoin:round;stroke-miterlimit:1.41421;"><rect x="0" y="0" width="80" height="80" style="fill:#1da1f3;"/><path d="M67.462,22.928c-2.032,0.896 -4.201,1.505 -6.492,1.781c2.332,-1.402 4.126,-3.616 4.97,-6.255c-2.183,1.275 -4.605,2.205 -7.181,2.721c-2.059,-2.204 -4.993,-3.582 -8.251,-3.582c-6.241,0 -11.304,5.063 -11.304,11.297c0,0.895 0.104,1.756 0.293,2.583c-9.395,-0.448 -17.726,-4.96 -23.302,-11.779c-0.978,1.657 -1.529,3.585 -1.529,5.686c0,3.926 1.998,7.381 5.028,9.409c-1.853,-0.058 -3.599,-0.568 -5.121,-1.412l0,0.138c0,5.476 3.892,10.05 9.068,11.09c-0.95,0.254 -1.949,0.392 -2.979,0.392c-0.723,0 -1.412,-0.069 -2.101,-0.2c1.447,4.491 5.614,7.76 10.573,7.853c-3.857,3.03 -8.747,4.835 -14.017,4.835c-0.895,0 -1.791,-0.052 -2.686,-0.155c5.028,3.203 10.952,5.077 17.358,5.077c20.801,0 32.166,-17.22 32.166,-32.133c0,-0.482 0,-0.964 -0.034,-1.446c2.204,-1.584 4.133,-3.582 5.648,-5.855l-0.107,-0.045l0,0Z" style="fill:#fff;fill-rule:nonzero;"/></svg>