<svg height="80" viewBox="0 0 92 43" width="115" xmlns="http://www.w3.org/2000/svg"><g fill="none" fill-rule="evenodd"><path d="m32 25h60v8h-60z" fill="#d8d8d8" opacity=".672828"/><path d="m32 35h52v8h-52z" fill="#d8d8d8" opacity=".672828"/><g fill-rule="nonzero"><path d="m35.5068359 5.67041016c0 .43978084-.1595036.78271361-.4785156 1.02880859s-.7519504.36914063-1.2988281.36914063c-.5924509 0-1.0481755-.07633388-1.3671875-.22900391v-.56054688c.2050791.08658898.4283842.15494767.6699219.20507813.2415376.05013046.480793.07519531.7177734.07519531.3873717 0 .6790355-.07348559.875-.22045898s.2939453-.35147981.2939453-.61352539c0-.17317795-.034749-.31502224-.104248-.42553711-.0694991-.11051488-.1857089-.21248326-.3486328-.30590821-.162924-.09342494-.4107243-.19938091-.7434083-.31787109-.464846-.16634198-.7969553-.36344287-.9963378-.59130859-.1993825-.22786573-.2990723-.52522603-.2990723-.89208985 0-.38509307.1446926-.69156787.434082-.91943359.2893895-.22786572.6721982-.34179688 1.1484375-.34179688.4967473 0 .9536112.09114493 1.3706055.2734375l-.1811523.50585938c-.412437-.17317795-.8134747-.25976563-1.203125-.25976563-.3076188 0-.5480135.06608007-.7211915.19824219-.1731779.13216212-.2597656.31559128-.2597656.55029297 0 .17317795.0319007.31502223.0957031.42553711.0638024.11051487.1714674.2119136.3229981.30419922s.3833806.194254.6955566.3059082c.5240912.18684989.8846833.38736872 1.0817871.6015625.1971039.21419378.2956543.49218579.2956543.83398438zm1.6447266-2.41650391v2.43017578c0 .30534007.069498.53320237.2084961.68359375s.3566066.22558594.652832.22558594c.3919291 0 .6784659-.10709528.8596192-.32128906.1811532-.21419378.2717285-.56396242.2717285-1.04931641v-1.96875h.5673828v3.74609375h-.4682617l-.0820313-.50244141h-.0307617c-.1162115.18457124-.2774241.32584587-.4836426.42382813s-.4414863.14697266-.7058105.14697266c-.4557315 0-.7969553-.1082346-1.0236817-.32470704-.2267264-.21647243-.3400879-.56282314-.3400879-1.0390625v-2.45068359zm5.6813477-.06152344c.4921899 0 .8744289.16804845 1.1467285.50415039.2722995.33610194.4084472.81176451.4084472 1.42700196s-.137287 1.09317863-.4118652 1.43383789c-.2745782.34065925-.6556779.51098633-1.1433105.51098633-.2438164 0-.4665518-.04500281-.6682129-.13500977-.2016612-.09000696-.370849-.22843331-.5075684-.4152832h-.0410156l-.1196289.48193359h-.4067383v-5.31835938h.5673828v1.29199219c0 .28938947-.0091145.5491525-.0273437.77929688h.0273437c.2643242-.37369979.6562474-.56054688 1.1757813-.56054688zm-.0820313.47509766c-.3873717 0-.666503.11108287-.8374023.33325195s-.2563477.59643292-.2563477 1.12280274.087727.90291227.2631836 1.12963867c.1754566.22672639.4568666.34008789.8442383.34008789.3486345 0 .6083976-.12703324.7792969-.38110352.1708992-.25407028.2563476-.61921962.2563476-1.09545898 0-.48763265-.0854484-.85107302-.2563476-1.09033203-.1708993-.23925901-.4352196-.35888672-.7929688-.35888672zm4.0133789 2.93261719c.1002609 0 .1971024-.00740553.2905274-.0222168.0934249-.01481127.1674802-.03019198.2221679-.04614258v.43408203c-.0615237.02962255-.152099.05411774-.2717285.07348633s-.2272944.02905274-.322998.02905274c-.724613 0-1.0869141-.38166937-1.0869141-1.14501954v-2.22851562h-.5366211v-.2734375l.5366211-.23583984.2392578-.79980469h.328125v.86816406h1.0869141v.44091797h-1.0869141v2.20458984c0 .22558707.0535477.39876242.1606445.51953125.1070969.12076884.2540681.18115235.440918.18115235zm2.0036133.39990234h-.5673828v-3.74609375h.5673828zm-.6152344-4.76123047c0-.12988346.0319007-.22501597.0957031-.28540039s.1435543-.09057617.2392579-.09057617c.0911462 0 .1697587.03076141.2358398.09228515.0660811.06152375.0991211.15608661.0991211.28369141 0 .12760481-.03304.22273732-.0991211.28540039-.0660811.06266308-.1446936.09399414-.2358398.09399414-.0957036 0-.1754555-.03133106-.2392579-.09399414-.0638024-.06266307-.0957031-.15779558-.0957031-.28540039zm3.2033203 4.36132813c.1002609 0 .1971024-.00740553.2905274-.0222168.0934249-.01481127.1674802-.03019198.2221679-.04614258v.43408203c-.0615237.02962255-.152099.05411774-.2717285.07348633s-.2272944.02905274-.322998.02905274c-.724613 0-1.0869141-.38166937-1.0869141-1.14501954v-2.22851562h-.5366211v-.2734375l.5366211-.23583984.2392578-.79980469h.328125v.86816406h1.0869141v.44091797h-1.0869141v2.20458984c0 .22558707.0535477.39876242.1606446.51953125.1070969.12076884.254068.18115235.4409179.18115235zm2.0036133.39990234h-.5673828v-5.31835938h.5673828zm2.9606445.06835938c-.5537137 0-.9906396-.16861811-1.310791-.50585938-.3201513-.33724127-.4802246-.80549831-.4802246-1.40478516 0-.60384416.1486802-1.08349431.4460449-1.43896484.2973648-.35547053.6966935-.53320312 1.1979981-.53320312.4694034 0 .8408189.15437671 1.1142578.46313476s.4101563.71606192.4101563 1.22192383v.35888672h-2.5805665c.0113933.43978084.1224762.77359912.333252 1.00146484s.5075664.34179688.8903809.34179688c.4033223 0 .8020813-.08430906 1.196289-.25292969v.50585937c-.2005218.08658898-.3902172.14868146-.5690918.1862793s-.3947741.05639649-.6477051.05639649zm-.1538085-3.40771485c-.3007828 0-.5406079.09798079-.7194825.29394531-.1788746.19596453-.2842609.46712067-.3161621.81347657h1.9584961c0-.35774919-.0797518-.63175361-.2392578-.82202149s-.3873683-.28540039-.6835937-.28540039z" fill="#a6a6a6"/><path d="m33.9101562 17h-1.1914062v-5.7109375h3.2734375v.9921875h-2.0820313v1.4726562h1.9375v.9882813h-1.9375zm5.0807293-3.6015625c-.2526055 0-.4505202.0800773-.59375.2402344-.1432299.160157-.2252604.3873683-.2460938.6816406h1.671875c-.0052084-.2942723-.0820305-.5214836-.2304687-.6816406-.1484383-.1601571-.3489571-.2402344-.6015625-.2402344zm.1679687 3.6796875c-.7031285 0-1.2526022-.1940085-1.6484375-.5820312-.3958353-.3880228-.59375-.9374965-.59375-1.6484376 0-.7317744.1829409-1.297524.5488281-1.6972656.3658873-.3997416.8717416-.5996094 1.5175782-.5996094.6171905 0 1.0976545.1757795 1.4414062.5273438s.515625.8372365.515625 1.4570312v.578125h-2.8164062c.0130208.3385434.1132803.6028637.3007812.7929688s.4505191.2851562.7890625.2851562c.2630221 0 .5117176-.0273434.7460938-.0820312.2343761-.0546878.4791653-.1419265.734375-.2617188v.921875c-.2083344.1041672-.4309884.1816404-.6679688.2324219s-.52604.0761719-.8671875.0761719zm5.6901042-.078125-.2304687-.59375h-.03125c-.2005219.2526054-.4069.4277339-.6191407.5253906-.2122406.0976568-.4889306.1464844-.8300781.1464844-.4192729 0-.7493478-.1197905-.9902344-.359375s-.3613281-.580727-.3613281-1.0234375c0-.463544.1621078-.8053374.4863281-1.0253906.3242204-.2200532.8131478-.3417968 1.4667969-.3652344l.7578125-.0234375v-.1914062c0-.4427106-.2265602-.6640626-.6796875-.6640626-.3489601 0-.7591122.1054677-1.2304687.3164063l-.3945313-.8046875c.5026067-.2630221 1.0598928-.3945312 1.671875-.3945312.5859404 0 1.0351547.1276028 1.3476563.3828124.3125015.2552097.46875.6432266.46875 1.1640626v2.9101562zm-.3515625-2.0234375-.4609375.015625c-.3463559.0104167-.6041658.0729161-.7734375.1875s-.2539062.2890613-.2539062.5234375c0 .3359392.1927064.5039062.578125.5039062.276043 0 .4967439-.0794262.6621093-.2382812s.2480469-.3697904.2480469-.6328125zm4.4166667 1.1523437c.2083344 0 .4583319-.0455724.75-.1367187v.8867187c-.2968765.1328132-.6614562.1992188-1.09375.1992188-.4765649 0-.8235666-.1204415-1.0410156-.3613281s-.3261719-.6022112-.3261719-1.0839844v-2.1054687h-.5703125v-.5039063l.65625-.3984375.34375-.921875h.7617188v.9296875h1.2226562v.8945313h-1.2226562v2.1054687c0 .1692717.0475255.2942704.1425781.375.0950525.0807296.2207023.1210937.3769531.1210937zm4.8932292.8710938-.1601562-.5585938h-.0625c-.1276049.2031261-.3085926.3600255-.5429688.4707032-.2343762.1106776-.5013006.1660156-.8007812.1660156-.5130234 0-.8997383-.1373684-1.1601563-.4121094-.260418-.2747409-.390625-.6699193-.390625-1.1855468v-2.8476563h1.1914063v2.5507813c0 .3151057.055989.5514315.1679687.7089843.1119797.1575529.2903634.2363281.5351563.2363281.3333349 0 .574218-.111327.7226562-.3339843.1484382-.2226574.2226563-.5917943.2226563-1.1074219v-2.0546875h1.1914062v4.3671875zm4.7682292-4.4492188c.1614591 0 .2955724.0117187.4023438.0351563l-.0898438 1.1171875c-.0963546-.0260418-.213541-.0390625-.3515625-.0390625-.3802102 0-.6764312.0976553-.8886719.2929687-.2122406.1953135-.3183593.4687483-.3183593.8203126v2.2226562h-1.1914063v-4.3671875h.9023438l.1757812.734375h.0585938c.1354173-.2447929.3183582-.4420565.5488281-.5917969.2304699-.1497403.4811184-.2246094.7519531-.2246094zm3.0104167.8476563c-.2526054 0-.4505201.0800773-.59375.2402344-.1432299.160157-.2252603.3873683-.2460937.6816406h1.671875c-.0052084-.2942723-.0820306-.5214836-.2304688-.6816406-.1484382-.1601571-.3489571-.2402344-.6015625-.2402344zm.1679688 3.6796875c-.7031286 0-1.2526022-.1940085-1.6484375-.5820312-.3958354-.3880228-.59375-.9374965-.59375-1.6484376 0-.7317744.1829408-1.297524.5488281-1.6972656.3658872-.3997416.8717415-.5996094 1.5175781-.5996094.6171906 0 1.0976545.1757795 1.4414063.5273438.3437517.3515643.515625.8372365.515625 1.4570312v.578125h-2.8164063c.0130209.3385434.1132803.6028637.3007813.7929688.1875009.1901051.4505191.2851562.7890625.2851562.2630221 0 .5117175-.0273434.7460937-.0820312s.4791654-.1419265.734375-.2617188v.921875c-.2083344.1041672-.4309884.1816404-.6679687.2324219-.2369804.0507815-.52604.0761719-.8671875.0761719zm7.4583334-.078125h-1.2109375v-4.703125h-1.5507813v-1.0078125h4.3125v1.0078125h-1.5507812zm2.4518229-5.4960938c0-.3880227.2161437-.5820312.6484375-.5820312s.6484375.1940085.6484375.5820312c0 .1848968-.0540359.3287756-.1621094.4316407-.1080734.1028651-.2701812.1542969-.4863281.1542969-.4322938 0-.6484375-.1953106-.6484375-.5859376zm1.2421875 5.4960938h-1.1914062v-4.3671875h1.1914062zm3.2565105-.8710938c.2083343 0 .4583318-.0455724.75-.1367187v.8867187c-.2968765.1328132-.6614562.1992188-1.09375.1992188-.4765649 0-.8235667-.1204415-1.0410157-.3613281s-.3261718-.6022112-.3261718-1.0839844v-2.1054687h-.5703125v-.5039063l.65625-.3984375.34375-.921875h.7617187v.9296875h1.2226563v.8945313h-1.2226563v2.1054687c0 .1692717.0475256.2942704.1425781.375.0950526.0807296.2207024.1210937.3769532.1210937zm2.9908854.8710938h-1.1914063v-6.078125h1.1914063zm3.2252605-3.6015625c-.2526055 0-.4505202.0800773-.59375.2402344-.1432299.160157-.2252604.3873683-.2460938.6816406h1.671875c-.0052084-.2942723-.0820305-.5214836-.2304687-.6816406-.1484383-.1601571-.3489571-.2402344-.6015625-.2402344zm.1679687 3.6796875c-.7031285 0-1.2526022-.1940085-1.6484375-.5820312-.3958353-.3880228-.59375-.9374965-.59375-1.6484376 0-.7317744.1829409-1.297524.5488281-1.6972656.3658873-.3997416.8717416-.5996094 1.5175782-.5996094.6171905 0 1.0976545.1757795 1.4414062.5273438s.515625.8372365.515625 1.4570312v.578125h-2.8164062c.0130208.3385434.1132803.6028637.3007812.7929688s.4505191.2851562.7890625.2851562c.2630221 0 .5117176-.0273434.7460938-.0820312.2343761-.0546878.4791653-.1419265.734375-.2617188v.921875c-.2083344.1041672-.4309884.1816404-.6679688.2324219s-.52604.0761719-.8671875.0761719z" fill="#4a4a4a"/><g fill="#b4b4b4"><circle cx="6.8" cy="2.266667" r="2.266667"/><path d="m21.4895485 16.512805-6.9462136-11.81078701c-.0576536-.09809514-.1639306-.16141409-.2823636-.16830371-.1226007-.00524924-.2323508.04396237-.3021603.13451174l-4.63625026 6.02218908 2.35511376 3.1492151-6.25089766-4.64163927c-.07710297-.05806971-.17643383-.08234743-.27402813-.06725587-.09724699.01541964-.18303273.06889625-.23617126.14730676l-4.86234953 7.21770318c-.0680729.1013759-.07224062.228998-.01146126.3343109.06112669.1046567.17782307.1699441.30459147.1699441h20.83864087c.122948 0 .2368659-.0616786.2993818-.1617422s.0639051-.2240768.0041677-.3254528z"/></g></g></g></svg>