<svg height="80" viewBox="0 0 93 43" width="115" xmlns="http://www.w3.org/2000/svg"><g fill="none" fill-rule="evenodd" transform="translate(-134)"><path d="m134 25h60v8h-60z" fill="#d8d8d8" opacity=".672828"/><path d="m134 35h52v8h-52z" fill="#d8d8d8" opacity=".672828"/><g fill-rule="nonzero"><path d="m137.506836 5.67041016c0 .43978084-.159504.78271361-.478516 1.02880859s-.75195.36914063-1.298828.36914063c-.592451 0-1.048175-.07633388-1.367187-.22900391v-.56054688c.205079.08658898.428384.15494767.669922.20507813.241537.05013046.480793.07519531.717773.07519531.387372 0 .679035-.07348559.875-.22045898s.293945-.35147981.293945-.61352539c0-.17317795-.034749-.31502224-.104248-.42553711-.069499-.11051488-.185709-.21248326-.348633-.30590821-.162924-.09342494-.410724-.19938091-.743408-.31787109-.464846-.16634198-.796955-.36344287-.996338-.59130859-.199382-.22786573-.299072-.52522603-.299072-.89208985 0-.38509307.144693-.69156787.434082-.91943359.28939-.22786572.672198-.34179688 1.148438-.34179688.496747 0 .953611.09114493 1.370605.2734375l-.181152.50585938c-.412437-.17317795-.813475-.25976563-1.203125-.25976563-.307619 0-.548014.06608007-.721192.19824219s-.259765.31559128-.259765.55029297c0 .17317795.0319.31502223.095703.42553711.063802.11051487.171467.2119136.322998.30419922s.38338.194254.695557.3059082c.524091.18684989.884683.38736872 1.081787.6015625.197103.21419378.295654.49218579.295654.83398438zm1.644727-2.41650391v2.43017578c0 .30534007.069498.53320237.208496.68359375s.356606.22558594.652832.22558594c.391929 0 .678466-.10709528.859619-.32128906s.271728-.56396242.271728-1.04931641v-1.96875h.567383v3.74609375h-.468262l-.082031-.50244141h-.030762c-.116211.18457124-.277424.32584587-.483642.42382813-.206219.09798226-.441486.14697266-.705811.14697266-.455731 0-.796955-.1082346-1.023681-.32470704-.226727-.21647243-.340088-.56282314-.340088-1.0390625v-2.45068359zm5.681347-.06152344c.49219 0 .874429.16804845 1.146729.50415039.272299.33610194.408447.81176451.408447 1.42700196s-.137287 1.09317863-.411865 1.43383789c-.274578.34065925-.655678.51098633-1.143311.51098633-.243816 0-.466552-.04500281-.668213-.13500977s-.370849-.22843331-.507568-.4152832h-.041016l-.119629.48193359h-.406738v-5.31835938h.567383v1.29199219c0 .28938947-.009115.5491525-.027344.77929688h.027344c.264324-.37369979.656247-.56054688 1.175781-.56054688zm-.082031.47509766c-.387372 0-.666503.11108287-.837402.33325195-.1709.22216908-.256348.59643292-.256348 1.12280274s.087727.90291227.263183 1.12963867c.175457.22672639.456867.34008789.844239.34008789.348634 0 .608397-.12703324.779297-.38110352.170899-.25407028.256347-.61921962.256347-1.09545898 0-.48763265-.085448-.85107302-.256347-1.09033203-.1709-.23925901-.43522-.35888672-.792969-.35888672zm4.013379 2.93261719c.100261 0 .197102-.00740553.290527-.0222168s.16748-.03019198.222168-.04614258v.43408203c-.061524.02962255-.152099.05411774-.271728.07348633-.11963.01936859-.227295.02905274-.322998.02905274-.724613 0-1.086914-.38166937-1.086914-1.14501954v-2.22851562h-.536622v-.2734375l.536622-.23583984.239257-.79980469h.328125v.86816406h1.086914v.44091797h-1.086914v2.20458984c0 .22558707.053548.39876242.160645.51953125.107097.12076884.254068.18115235.440918.18115235zm2.003613.39990234h-.567383v-3.74609375h.567383zm-.615234-4.76123047c0-.12988346.0319-.22501597.095703-.28540039.063802-.06038442.143554-.09057617.239258-.09057617.091146 0 .169758.03076141.235839.09228515.066082.06152375.099122.15608661.099122.28369141 0 .12760481-.03304.22273732-.099122.28540039-.066081.06266308-.144693.09399414-.235839.09399414-.095704 0-.175456-.03133106-.239258-.09399414-.063803-.06266307-.095703-.15779558-.095703-.28540039zm3.20332 4.36132813c.100261 0 .197102-.00740553.290527-.0222168s.167481-.03019198.222168-.04614258v.43408203c-.061523.02962255-.152099.05411774-.271728.07348633-.11963.01936859-.227295.02905274-.322998.02905274-.724613 0-1.086914-.38166937-1.086914-1.14501954v-2.22851562h-.536621v-.2734375l.536621-.23583984.239258-.79980469h.328125v.86816406h1.086914v.44091797h-1.086914v2.20458984c0 .22558707.053547.39876242.160644.51953125.107097.12076884.254068.18115235.440918.18115235zm2.003613.39990234h-.567382v-5.31835938h.567382zm2.960645.06835938c-.553714 0-.99064-.16861811-1.310791-.50585938-.320152-.33724127-.480225-.80549831-.480225-1.40478516 0-.60384416.14868-1.08349431.446045-1.43896484s.696694-.53320312 1.197998-.53320312c.469404 0 .840819.15437671 1.114258.46313476s.410156.71606192.410156 1.22192383v.35888672h-2.580566c.011393.43978084.122476.77359912.333252 1.00146484s.507566.34179688.890381.34179688c.403322 0 .802081-.08430906 1.196289-.25292969v.50585937c-.200522.08658898-.390217.14868146-.569092.1862793s-.394774.05639649-.647705.05639649zm-.153809-3.40771485c-.300783 0-.540608.09798079-.719482.29394531-.178875.19596453-.284261.46712067-.316162.81347657h1.958496c0-.35774919-.079752-.63175361-.239258-.82202149s-.387368-.28540039-.683594-.28540039z" fill="#a6a6a6"/><path d="m135.910156 17h-1.191406v-5.7109375h3.273438v.9921875h-2.082032v1.4726562h1.9375v.9882813h-1.9375zm5.080729-3.6015625c-.252605 0-.45052.0800773-.59375.2402344-.143229.160157-.22526.3873683-.246093.6816406h1.671875c-.005209-.2942723-.082031-.5214836-.230469-.6816406-.148438-.1601571-.348957-.2402344-.601563-.2402344zm.167969 3.6796875c-.703128 0-1.252602-.1940085-1.648437-.5820312-.395836-.3880228-.59375-.9374965-.59375-1.6484376 0-.7317744.182941-1.297524.548828-1.6972656s.871741-.5996094 1.517578-.5996094c.617191 0 1.097654.1757795 1.441406.5273438s.515625.8372365.515625 1.4570312v.578125h-2.816406c.013021.3385434.11328.6028637.300781.7929688s.450519.2851562.789063.2851562c.263022 0 .511717-.0273434.746093-.0820312.234377-.0546878.479166-.1419265.734375-.2617188v.921875c-.208334.1041672-.430988.1816404-.667968.2324219-.236981.0507815-.52604.0761719-.867188.0761719zm5.690104-.078125-.230468-.59375h-.03125c-.200522.2526054-.4069.4277339-.619141.5253906-.212241.0976568-.488931.1464844-.830078.1464844-.419273 0-.749348-.1197905-.990234-.359375-.240887-.2395845-.361329-.580727-.361329-1.0234375 0-.463544.162108-.8053374.486329-1.0253906.32422-.2200532.813147-.3417968 1.466796-.3652344l.757813-.0234375v-.1914062c0-.4427106-.22656-.6640626-.679688-.6640626-.34896 0-.759112.1054677-1.230468.3164063l-.394532-.8046875c.502607-.2630221 1.059893-.3945312 1.671875-.3945312.585941 0 1.035155.1276028 1.347657.3828124.312501.2552097.46875.6432266.46875 1.1640626v2.9101562zm-.351562-2.0234375-.460938.015625c-.346355.0104167-.604165.0729161-.773437.1875s-.253906.2890613-.253906.5234375c0 .3359392.192706.5039062.578125.5039062.276043 0 .496744-.0794262.662109-.2382812s.248047-.3697904.248047-.6328125zm4.416667 1.1523437c.208334 0 .458331-.0455724.75-.1367187v.8867187c-.296877.1328132-.661457.1992188-1.09375.1992188-.476565 0-.823567-.1204415-1.041016-.3613281s-.326172-.6022112-.326172-1.0839844v-2.1054687h-.570312v-.5039063l.65625-.3984375.34375-.921875h.761718v.9296875h1.222657v.8945313h-1.222657v2.1054687c0 .1692717.047526.2942704.142578.375.095053.0807296.220703.1210937.376954.1210937zm4.893229.8710938-.160156-.5585938h-.0625c-.127605.2031261-.308593.3600255-.542969.4707032-.234376.1106776-.501301.1660156-.800781.1660156-.513024 0-.899739-.1373684-1.160157-.4121094-.260418-.2747409-.390625-.6699193-.390625-1.1855468v-2.8476563h1.191407v2.5507813c0 .3151057.055989.5514315.167968.7089843.11198.1575529.290364.2363281.535157.2363281.333335 0 .574218-.111327.722656-.3339843.148438-.2226574.222656-.5917943.222656-1.1074219v-2.0546875h1.191406v4.3671875zm4.768229-4.4492188c.161459 0 .295572.0117187.402344.0351563l-.089844 1.1171875c-.096355-.0260418-.213541-.0390625-.351562-.0390625-.380211 0-.676432.0976553-.888672.2929687-.212241.1953135-.31836.4687483-.31836.8203126v2.2226562h-1.191406v-4.3671875h.902344l.175781.734375h.058594c.135417-.2447929.318358-.4420565.548828-.5917969.23047-.1497403.481118-.2246094.751953-.2246094zm3.010417.8476563c-.252606 0-.45052.0800773-.59375.2402344-.14323.160157-.225261.3873683-.246094.6816406h1.671875c-.005208-.2942723-.082031-.5214836-.230469-.6816406-.148438-.1601571-.348957-.2402344-.601562-.2402344zm.167968 3.6796875c-.703128 0-1.252602-.1940085-1.648437-.5820312-.395835-.3880228-.59375-.9374965-.59375-1.6484376 0-.7317744.182941-1.297524.548828-1.6972656s.871742-.5996094 1.517578-.5996094c.617191 0 1.097655.1757795 1.441406.5273438.343752.3515643.515625.8372365.515625 1.4570312v.578125h-2.816406c.013021.3385434.113281.6028637.300781.7929688.187501.1901051.45052.2851562.789063.2851562.263022 0 .511718-.0273434.746094-.0820312s.479165-.1419265.734375-.2617188v.921875c-.208335.1041672-.430989.1816404-.667969.2324219s-.52604.0761719-.867188.0761719zm7.458334-.078125h-1.210938v-4.703125h-1.550781v-1.0078125h4.3125v1.0078125h-1.550781zm2.451823-5.4960938c0-.3880227.216143-.5820312.648437-.5820312s.648438.1940085.648438.5820312c0 .1848968-.054036.3287756-.16211.4316407-.108073.1028651-.270181.1542969-.486328.1542969-.432294 0-.648437-.1953106-.648437-.5859376zm1.242187 5.4960938h-1.191406v-4.3671875h1.191406zm3.256511-.8710938c.208334 0 .458332-.0455724.75-.1367187v.8867187c-.296877.1328132-.661456.1992188-1.09375.1992188-.476565 0-.823567-.1204415-1.041016-.3613281s-.326172-.6022112-.326172-1.0839844v-2.1054687h-.570312v-.5039063l.65625-.3984375.34375-.921875h.761719v.9296875h1.222656v.8945313h-1.222656v2.1054687c0 .1692717.047525.2942704.142578.375.095052.0807296.220702.1210937.376953.1210937zm2.990885.8710938h-1.191406v-6.078125h1.191406zm3.225261-3.6015625c-.252606 0-.45052.0800773-.59375.2402344-.14323.160157-.225261.3873683-.246094.6816406h1.671875c-.005208-.2942723-.082031-.5214836-.230469-.6816406-.148438-.1601571-.348957-.2402344-.601562-.2402344zm.167968 3.6796875c-.703128 0-1.252602-.1940085-1.648437-.5820312-.395835-.3880228-.59375-.9374965-.59375-1.6484376 0-.7317744.182941-1.297524.548828-1.6972656s.871742-.5996094 1.517578-.5996094c.617191 0 1.097655.1757795 1.441406.5273438.343752.3515643.515625.8372365.515625 1.4570312v.578125h-2.816406c.013021.3385434.11328.6028637.300781.7929688s.45052.2851562.789063.2851562c.263022 0 .511717-.0273434.746094-.0820312.234376-.0546878.479165-.1419265.734375-.2617188v.921875c-.208335.1041672-.430989.1816404-.667969.2324219s-.52604.0761719-.867188.0761719z" fill="#4a4a4a"/><g fill="#b4b4b4" transform="translate(205)"><circle cx="6.8" cy="2.266667" r="2.266667"/><path d="m21.4895485 16.512805-6.9462136-11.81078701c-.0576536-.09809514-.1639306-.16141409-.2823636-.16830371-.1226007-.00524924-.2323508.04396237-.3021603.13451174l-4.63625026 6.02218908 2.35511376 3.1492151-6.25089766-4.64163927c-.07710297-.05806971-.17643383-.08234743-.27402813-.06725587-.09724699.01541964-.18303273.06889625-.23617126.14730676l-4.86234953 7.21770318c-.0680729.1013759-.07224062.228998-.01146126.3343109.06112669.1046567.17782307.1699441.30459147.1699441h20.83864087c.122948 0 .2368659-.0616786.2993818-.1617422s.0639051-.2240768.0041677-.3254528z"/></g></g></g></svg>