<svg height="80" viewBox="0 0 92 66" width="115" xmlns="http://www.w3.org/2000/svg"><g fill="none" fill-rule="evenodd"><path d="m0 48h92v8h-92z" fill="#d8d8d8" opacity=".672828"/><path d="m6 58h79v8h-79z" fill="#d8d8d8" opacity=".672828"/><g fill-rule="nonzero"><path d="m36.8876465 14.6704102c0 .4397808-.1595036.7827136-.4785156 1.0288086-.3190121.2460949-.7519504.3691406-1.2988282.3691406-.5924508 0-1.0481755-.0763339-1.3671875-.2290039v-.5605469c.2050792.086589.4283842.1549477.6699219.2050781.2415377.0501305.4807931.0751953.7177734.0751953.3873718 0 .6790355-.0734856.875-.220459.1959646-.1469733.2939454-.3514798.2939454-.6135253 0-.173178-.034749-.3150223-.1042481-.4255372-.069499-.1105148-.1857088-.2124832-.3486328-.3059082-.162924-.0934249-.4107242-.1993809-.7434082-.3178711-.4648461-.1663419-.7969554-.3634428-.9963379-.5913085-.1993825-.2278658-.2990723-.5252261-.2990723-.8920899 0-.3850931.1446926-.6915679.4340821-.9194336.2893894-.2278657.6721981-.3417969 1.1484375-.3417969.4967472 0 .9536112.091145 1.3706054.2734375l-.1811523.5058594c-.412437-.1731779-.8134746-.2597656-1.203125-.2597656-.3076187 0-.5480135.0660801-.7211914.1982422-.173178.1321621-.2597656.3155913-.2597656.550293 0 .1731779.0319007.3150222.0957031.4255371.0638024.1105148.1714673.2119136.322998.3041992s.3833806.194254.6955567.3059082c.5240911.1868499.8846832.3873687 1.0817871.6015625.1971038.2141938.2956543.4921858.2956543.8339844zm1.6447265-2.416504v2.4301758c0 .3053401.069498.5332024.2084961.6835938s.3566066.2255859.6528321.2255859c.391929 0 .6784659-.1070953.8596191-.321289.1811533-.2141938.2717285-.5639625.2717285-1.0493165v-1.96875h.5673828v3.7460938h-.4682617l-.0820312-.5024414h-.0307617c-.1162116.1845712-.2774241.3258459-.4836426.4238281-.2062185.0979823-.4414863.1469727-.7058106.1469727-.4557314 0-.7969552-.1082346-1.0236816-.3247071-.2267264-.2164724-.3400879-.5628231-.3400879-1.0390625v-2.4506836zm5.6813477-.0615234c.49219 0 .874429.1680485 1.1467285.5041504.2722996.3361019.4084473.8117645.4084473 1.427002 0 .6152374-.1372871 1.0931786-.4118652 1.4338378-.2745782.3406593-.655678.5109864-1.1433106.5109864-.2438163 0-.4665517-.0450028-.6682129-.1350098s-.3708489-.2284333-.5075683-.4152832h-.0410157l-.1196289.4819336h-.4067383v-5.3183594h.5673829v1.2919922c0 .2893895-.0091145.5491525-.0273438.7792969h.0273438c.2643242-.3736998.6562474-.5605469 1.1757812-.5605469zm-.0820312.4750977c-.3873718 0-.6665031.1110828-.8374024.3332519s-.2563476.5964329-.2563476 1.1228028c0 .5263698.0877269.9029122.2631835 1.1296386.1754567.2267264.4568666.3400879.8442383.3400879.3486346 0 .6083976-.1270332.7792969-.3811035s.2563477-.6192196.2563477-1.095459c0-.4876326-.0854484-.851073-.2563477-1.090332s-.4352196-.3588867-.7929687-.3588867zm4.0133789 2.9326172c.1002609 0 .1971024-.0074056.2905273-.0222168.0934249-.0148113.1674802-.030192.222168-.0461426v.434082c-.0615238.0296226-.152099.0541178-.2717285.0734863-.1196295.0193686-.2272945.0290528-.3229981.0290528-.724613 0-1.0869141-.3816694-1.0869141-1.1450196v-2.2285156h-.536621v-.2734375l.536621-.2358398.2392579-.7998047h.328125v.868164h1.086914v.440918h-1.086914v2.2045899c0 .225587.0535476.3987624.1606445.5195312s.2540681.1811524.440918.1811524zm2.0036132.3999023h-.5673828v-3.7460938h.5673828zm-.6152343-4.7612305c0-.1298834.0319007-.2250159.0957031-.2854004.0638024-.0603844.1435542-.0905761.2392578-.0905761.0911463 0 .1697588.0307614.2358398.0922851.0660811.0615238.0991211.1560866.0991211.2836914s-.03304.2227373-.0991211.2854004c-.066081.0626631-.1446935.0939942-.2358398.0939942-.0957036 0-.1754554-.0313311-.2392578-.0939942s-.0957031-.1577956-.0957031-.2854004zm3.2033203 4.3613282c.1002609 0 .1971024-.0074056.2905273-.0222168.093425-.0148113.1674802-.030192.222168-.0461426v.434082c-.0615238.0296226-.152099.0541178-.2717285.0734863-.1196295.0193686-.2272945.0290528-.3229981.0290528-.724613 0-1.086914-.3816694-1.086914-1.1450196v-2.2285156h-.5366211v-.2734375l.5366211-.2358398.2392578-.7998047h.328125v.868164h1.086914v.440918h-1.086914v2.2045899c0 .225587.0535476.3987624.1606445.5195312s.2540681.1811524.440918.1811524zm2.0036133.3999023h-.5673829v-5.3183594h.5673829zm2.9606445.0683594c-.5537137 0-.9906397-.1686181-1.310791-.5058594-.3201514-.3372413-.4802246-.8054983-.4802246-1.4047852 0-.6038441.1486801-1.0834943.4460449-1.4389648s.6966934-.5332031 1.197998-.5332031c.4694034 0 .840819.1543767 1.1142578.4631347.2734389.3087581.4101563.716062.4101563 1.2219239v.3588867h-2.5805664c.0113933.4397808.1224762.7735991.3332519 1.0014648.2107758.2278658.5075665.3417969.8903809.3417969.4033223 0 .8020814-.084309 1.1962891-.2529297v.5058594c-.2005219.086589-.3902172.1486814-.5690918.1862793-.1788746.0375978-.3947742.0563965-.6477051.0563965zm-.1538086-3.4077149c-.3007828 0-.5406078.0979808-.7194824.2939453-.1788746.1959646-.2842609.4671207-.3161621.8134766h1.9584961c0-.3577492-.0797518-.6317536-.2392579-.8220215-.159506-.1902679-.3873683-.2854004-.6835937-.2854004z" fill="#a6a6a6"/><path d="m21.9908852 7h-1.1914063v-5.7109375h3.2734375v.9921875h-2.0820312v1.47265625h1.9375v.98828125h-1.9375zm5.0807292-3.6015625c-.2526054 0-.4505201.08007732-.59375.24023438-.1432299.16015705-.2252603.38736832-.2460938.68164062h1.671875c-.0052083-.2942723-.0820305-.52148357-.2304687-.68164062-.1484382-.16015706-.3489571-.24023438-.6015625-.24023438zm.1679687 3.6796875c-.7031285 0-1.2526021-.19400848-1.6484375-.58203125-.3958353-.38802277-.59375-.93749645-.59375-1.6484375 0-.73177449.1829409-1.29752404.5488282-1.69726563.3658872-.39974158.8717415-.59960937 1.5175781-.59960937.6171906 0 1.0976545.17577949 1.4414062.52734375.3437518.35156426.515625.83723648.515625 1.45703125v.578125h-2.8164062c.0130209.33854336.1132803.60286363.3007812.79296875.187501.19010512.4505192.28515625.7890625.28515625.2630222 0 .5117176-.02734348.7460938-.08203125s.4791654-.14192648.734375-.26171875v.921875c-.2083344.10416719-.4309884.18164037-.6679688.23242187-.2369803.05078151-.5260399.07617188-.8671875.07617188zm5.6901042-.078125-.2304687-.59375h-.03125c-.2005218.25260543-.4069.42773389-.6191406.52539062-.2122407.09765674-.4889306.14648438-.8300782.14648438-.4192729 0-.7493477-.11979047-.9902343-.359375s-.3613282-.58072695-.3613282-1.0234375c0-.46354398.1621078-.80533744.4863282-1.02539062.3242203-.22005319.8131477-.34179676 1.4667968-.36523438l.7578125-.0234375v-.19140625c0-.44271055-.2265602-.6640625-.6796875-.6640625-.34896 0-.7591122.1054677-1.2304687.31640625l-.3945313-.8046875c.5026067-.26302215 1.0598928-.39453125 1.671875-.39453125.5859405 0 1.0351547.12760289 1.3476563.3828125s.46875.64322656.46875 1.1640625v2.91015625zm-.3515625-2.0234375-.4609375.015625c-.3463558.01041672-.6041658.07291609-.7734375.1875-.1692716.11458391-.2539062.28906133-.2539062.5234375 0 .33593918.1927064.50390625.578125.50390625.276043 0 .496744-.07942629.6621094-.23828125s.2480468-.36979035.2480468-.6328125zm4.4166667 1.15234375c.2083344 0 .4583319-.04557246.75-.13671875v.88671875c-.2968764.13281316-.6614561.19921875-1.09375.19921875-.4765648 0-.8235666-.1204415-1.0410156-.36132812-.217449-.24088663-.3261719-.60221114-.3261719-1.08398438v-2.10546875h-.5703125v-.50390625l.65625-.3984375.34375-.921875h.7617188v.9296875h1.2226562v.89453125h-1.2226562v2.10546875c0 .16927168.0475256.29427043.1425781.375.0950526.08072957.2207024.12109375.3769531.12109375zm4.8932292.87109375-.1601562-.55859375h-.0625c-.1276048.20312602-.3085926.36002549-.5429688.47070313-.2343761.11067763-.5013005.16601562-.8007812.16601562-.5130234 0-.8997383-.13736842-1.1601563-.41210938-.2604179-.27474095-.390625-.66991929-.390625-1.18554687v-2.84765625h1.1914063v2.55078125c0 .31510574.055989.5514315.1679687.70898437.1119798.15755288.2903634.23632813.5351563.23632813.333335 0 .574218-.11132701.7226562-.33398437.1484383-.22265737.2226563-.5917943.2226563-1.10742188v-2.0546875h1.1914062v4.3671875zm4.7682292-4.44921875c.1614592 0 .2955724.01171863.4023438.03515625l-.0898438 1.1171875c-.0963546-.0260418-.2135409-.0390625-.3515625-.0390625-.3802102 0-.6764312.09765527-.8886718.29296875-.2122407.19531348-.3183594.46874824-.3183594.8203125v2.22265625h-1.1914063v-4.3671875h.9023438l.1757812.734375h.0585938c.1354173-.24479289.3183582-.44205654.5488281-.59179688.2304699-.14974033.4811185-.22460937.7519531-.22460937zm3.0104167.84765625c-.2526054 0-.4505201.08007732-.59375.24023438-.1432298.16015705-.2252603.38736832-.2460937.68164062h1.671875c-.0052084-.2942723-.0820305-.52148357-.2304688-.68164062-.1484382-.16015706-.348957-.24023438-.6015625-.24023438zm.1679688 3.6796875c-.7031285 0-1.2526022-.19400848-1.6484375-.58203125s-.59375-.93749645-.59375-1.6484375c0-.73177449.1829409-1.29752404.5488281-1.69726563.3658873-.39974158.8717416-.59960937 1.5175781-.59960937.6171906 0 1.0976546.17577949 1.4414063.52734375s.515625.83723648.515625 1.45703125v.578125h-2.8164063c.0130209.33854336.1132804.60286363.3007813.79296875s.4505191.28515625.7890625.28515625c.2630221 0 .5117176-.02734348.7460937-.08203125.2343762-.05468777.4791654-.14192648.734375-.26171875v.921875c-.2083343.10416719-.4309883.18164037-.6679687.23242187-.2369804.05078151-.52604.07617188-.8671875.07617188zm7.4583334-.078125h-1.2109375v-4.703125h-1.5507813v-1.0078125h4.3125v1.0078125h-1.5507812zm2.4518229-5.49609375c0-.38802277.2161437-.58203125.6484375-.58203125.4322939 0 .6484375.19400848.6484375.58203125 0 .18489676-.0540359.32877553-.1621093.43164063-.1080735.10286509-.2701812.15429687-.4863282.15429687-.4322938 0-.6484375-.19531055-.6484375-.5859375zm1.2421875 5.49609375h-1.1914062v-4.3671875h1.1914062zm3.2565105-.87109375c.2083344 0 .4583319-.04557246.75-.13671875v.88671875c-.2968765.13281316-.6614562.19921875-1.09375.19921875-.4765649 0-.8235666-.1204415-1.0410156-.36132812-.217449-.24088663-.3261719-.60221114-.3261719-1.08398438v-2.10546875h-.5703125v-.50390625l.65625-.3984375.34375-.921875h.7617187v.9296875h1.2226563v.89453125h-1.2226563v2.10546875c0 .16927168.0475256.29427043.1425782.375.0950525.08072957.2207023.12109375.3769531.12109375zm2.9908854.87109375h-1.1914062v-6.078125h1.1914062zm3.2252605-3.6015625c-.2526054 0-.4505201.08007732-.59375.24023438-.1432299.16015705-.2252603.38736832-.2460938.68164062h1.671875c-.0052083-.2942723-.0820305-.52148357-.2304687-.68164062-.1484382-.16015706-.3489571-.24023438-.6015625-.24023438zm.1679687 3.6796875c-.7031285 0-1.2526021-.19400848-1.6484375-.58203125-.3958353-.38802277-.59375-.93749645-.59375-1.6484375 0-.73177449.1829409-1.29752404.5488282-1.69726563.3658872-.39974158.8717415-.59960937 1.5175781-.59960937.6171906 0 1.0976545.17577949 1.4414062.52734375.3437518.35156426.515625.83723648.515625 1.45703125v.578125h-2.8164062c.0130209.33854336.1132803.60286363.3007812.79296875.187501.19010512.4505192.28515625.7890625.28515625.2630222 0 .5117176-.02734348.7460938-.08203125s.4791654-.14192648.734375-.26171875v.921875c-.2083344.10416719-.4309884.18164037-.6679688.23242187-.2369803.05078151-.5260399.07617188-.8671875.07617188z" fill="#4a4a4a"/><g fill="#b4b4b4" transform="translate(35 26)"><circle cx="6.8" cy="2.266667" r="2.266667"/><path d="m21.4895485 16.512805-6.9462136-11.81078701c-.0576536-.09809514-.1639306-.16141409-.2823636-.16830371-.1226007-.00524924-.2323508.04396237-.3021603.13451174l-4.63625026 6.02218908 2.35511376 3.1492151-6.25089766-4.64163927c-.07710297-.05806971-.17643383-.08234743-.27402813-.06725587-.09724699.01541964-.18303273.06889625-.23617126.14730676l-4.86234953 7.21770318c-.0680729.1013759-.07224062.228998-.01146126.3343109.06112669.1046567.17782307.1699441.30459147.1699441h20.83864087c.122948 0 .2368659-.0616786.2993818-.1617422s.0639051-.2240768.0041677-.3254528z"/></g></g></g></svg>