<svg height="80" viewBox="0 0 92 65" width="115" xmlns="http://www.w3.org/2000/svg"><g fill="none" fill-rule="evenodd"><path d="m0 47h92v8h-92z" fill="#d8d8d8" opacity=".672828"/><path d="m6 57h79v8h-79z" fill="#d8d8d8" opacity=".672828"/><g fill-rule="nonzero"><path d="m36.8876465 38.6704102c0 .4397808-.1595036.7827136-.4785156 1.0288086-.3190121.2460949-.7519504.3691406-1.2988282.3691406-.5924508 0-1.0481755-.0763339-1.3671875-.2290039v-.5605469c.2050792.086589.4283842.1549477.6699219.2050781.2415377.0501305.4807931.0751953.7177734.0751953.3873718 0 .6790355-.0734856.875-.220459.1959646-.1469733.2939454-.3514798.2939454-.6135253 0-.173178-.034749-.3150223-.1042481-.4255372-.069499-.1105148-.1857088-.2124832-.3486328-.3059082-.162924-.0934249-.4107242-.1993809-.7434082-.3178711-.4648461-.1663419-.7969554-.3634428-.9963379-.5913085-.1993825-.2278658-.2990723-.5252261-.2990723-.8920899 0-.3850931.1446926-.6915679.4340821-.9194336.2893894-.2278657.6721981-.3417969 1.1484375-.3417969.4967472 0 .9536112.091145 1.3706054.2734375l-.1811523.5058594c-.412437-.1731779-.8134746-.2597656-1.203125-.2597656-.3076187 0-.5480135.0660801-.7211914.1982422-.173178.1321621-.2597656.3155913-.2597656.550293 0 .1731779.0319007.3150222.0957031.4255371.0638024.1105148.1714673.2119136.322998.3041992s.3833806.194254.6955567.3059082c.5240911.1868499.8846832.3873687 1.0817871.6015625.1971038.2141938.2956543.4921858.2956543.8339844zm1.6447265-2.416504v2.4301758c0 .3053401.069498.5332024.2084961.6835938s.3566066.2255859.6528321.2255859c.391929 0 .6784659-.1070953.8596191-.321289.1811533-.2141938.2717285-.5639625.2717285-1.0493165v-1.96875h.5673828v3.7460938h-.4682617l-.0820312-.5024414h-.0307617c-.1162116.1845712-.2774241.3258459-.4836426.4238281-.2062185.0979823-.4414863.1469727-.7058106.1469727-.4557314 0-.7969552-.1082346-1.0236816-.3247071-.2267264-.2164724-.3400879-.5628231-.3400879-1.0390625v-2.4506836zm5.6813477-.0615234c.49219 0 .874429.1680485 1.1467285.5041504.2722996.3361019.4084473.8117645.4084473 1.427002 0 .6152374-.1372871 1.0931786-.4118652 1.4338378-.2745782.3406593-.655678.5109864-1.1433106.5109864-.2438163 0-.4665517-.0450028-.6682129-.1350098s-.3708489-.2284333-.5075683-.4152832h-.0410157l-.1196289.4819336h-.4067383v-5.3183594h.5673829v1.2919922c0 .2893895-.0091145.5491525-.0273438.7792969h.0273438c.2643242-.3736998.6562474-.5605469 1.1757812-.5605469zm-.0820312.4750977c-.3873718 0-.6665031.1110828-.8374024.3332519s-.2563476.5964329-.2563476 1.1228028c0 .5263698.0877269.9029122.2631835 1.1296386.1754567.2267264.4568666.3400879.8442383.3400879.3486346 0 .6083976-.1270332.7792969-.3811035s.2563477-.6192196.2563477-1.095459c0-.4876326-.0854484-.851073-.2563477-1.090332s-.4352196-.3588867-.7929687-.3588867zm4.0133789 2.9326172c.1002609 0 .1971024-.0074056.2905273-.0222168.0934249-.0148113.1674802-.030192.222168-.0461426v.434082c-.0615238.0296226-.152099.0541178-.2717285.0734863-.1196295.0193686-.2272945.0290528-.3229981.0290528-.724613 0-1.0869141-.3816694-1.0869141-1.1450196v-2.2285156h-.536621v-.2734375l.536621-.2358398.2392579-.7998047h.328125v.868164h1.086914v.440918h-1.086914v2.2045899c0 .225587.0535476.3987624.1606445.5195312s.2540681.1811524.440918.1811524zm2.0036132.3999023h-.5673828v-3.7460938h.5673828zm-.6152343-4.7612305c0-.1298834.0319007-.2250159.0957031-.2854004.0638024-.0603844.1435542-.0905761.2392578-.0905761.0911463 0 .1697588.0307614.2358398.0922851.0660811.0615238.0991211.1560866.0991211.2836914s-.03304.2227373-.0991211.2854004c-.066081.0626631-.1446935.0939942-.2358398.0939942-.0957036 0-.1754554-.0313311-.2392578-.0939942s-.0957031-.1577956-.0957031-.2854004zm3.2033203 4.3613282c.1002609 0 .1971024-.0074056.2905273-.0222168.093425-.0148113.1674802-.030192.222168-.0461426v.434082c-.0615238.0296226-.152099.0541178-.2717285.0734863-.1196295.0193686-.2272945.0290528-.3229981.0290528-.724613 0-1.086914-.3816694-1.086914-1.1450196v-2.2285156h-.5366211v-.2734375l.5366211-.2358398.2392578-.7998047h.328125v.868164h1.086914v.440918h-1.086914v2.2045899c0 .225587.0535476.3987624.1606445.5195312s.2540681.1811524.440918.1811524zm2.0036133.3999023h-.5673829v-5.3183594h.5673829zm2.9606445.0683594c-.5537137 0-.9906397-.1686181-1.310791-.5058594-.3201514-.3372413-.4802246-.8054983-.4802246-1.4047852 0-.6038441.1486801-1.0834943.4460449-1.4389648s.6966934-.5332031 1.197998-.5332031c.4694034 0 .840819.1543767 1.1142578.4631347.2734389.3087581.4101563.716062.4101563 1.2219239v.3588867h-2.5805664c.0113933.4397808.1224762.7735991.3332519 1.0014648.2107758.2278658.5075665.3417969.8903809.3417969.4033223 0 .8020814-.084309 1.1962891-.2529297v.5058594c-.2005219.086589-.3902172.1486814-.5690918.1862793-.1788746.0375978-.3947742.0563965-.6477051.0563965zm-.1538086-3.4077149c-.3007828 0-.5406078.0979808-.7194824.2939453-.1788746.1959646-.2842609.4671207-.3161621.8134766h1.9584961c0-.3577492-.0797518-.6317536-.2392579-.8220215-.159506-.1902679-.3873683-.2854004-.6835937-.2854004z" fill="#a6a6a6"/><path d="m25.0545243 31h-1.0424805v-4.9970703h2.8642579v.8681641h-1.8217774v1.2885742h1.6953125v.8647461h-1.6953125zm4.4456381-3.1513672c-.2210298 0-.3942051.0700677-.5195313.2102051-.1253261.1401374-.1971027.3389473-.215332.5964355h1.4628906c-.0045573-.2574882-.0717767-.4562981-.2016601-.5964355-.1298835-.1401374-.3053375-.2102051-.5263672-.2102051zm.1469727 3.2197266c-.6152375 0-1.096027-.1697574-1.4423829-.5092774-.3463559-.3395199-.5195312-.8203094-.5195312-1.4423828 0-.6403027.1600733-1.1353335.4802246-1.4851074s.7627739-.5246582 1.3278809-.5246582c.5400417 0 .9604477.153807 1.2612304.4614258.3007828.3076187.4511719.7325819.4511719 1.2749023v.5058594h-2.4643555c.0113933.2962254.0991203.5275057.2631836.6938477.1640633.1663419.3942043.2495117.6904297.2495117.2301444 0 .4477529-.0239256.652832-.0717774.2050792-.0478518.4192698-.1241856.6425782-.2290039v.8066406c-.1822926.0911463-.3771149.1589354-.5844727.2033692s-.460285.0666504-.758789.0666504zm4.9788412-.0683594-.2016602-.5195312h-.0273437c-.1754567.2210297-.3560375.3742671-.5417481.4597167-.1857106.0854497-.4278143.1281739-.7263183.1281739-.3668639 0-.6556793-.1048167-.8664551-.3144532-.2107758-.2096364-.3161621-.508136-.3161621-.8955078 0-.4056009.1418442-.7046702.4255371-.8972168.2836928-.1925465.7115043-.2990721 1.2834472-.31958l.663086-.0205078v-.1674805c0-.3873717-.1982402-.5810547-.5947266-.5810547-.3053401 0-.6642232.0922842-1.0766601.2768555l-.3452149-.7041016c.4397809-.2301444.9274062-.3452148 1.4628906-.3452148.5126979 0 .9057604.1116525 1.1791993.3349609.2734388.2233084.4101562.5628232.4101562 1.0185547v2.5463867zm-.3076172-1.7705078-.4033203.0136719c-.3030614.0091146-.5286451.0638015-.6767578.1640625-.1481128.1002609-.222168.2529286-.222168.4580078 0 .2939468.1686181.4409179.5058594.4409179.2415376 0 .4346509-.069498.5793457-.2084961.1446947-.138998.217041-.3235665.217041-.5537109zm3.8645834 1.0083008c.1822926 0 .4010404-.0398759.65625-.1196289v.7758789c-.2597669.1162115-.5787742.1743164-.9570313.1743164-.4169942 0-.7206208-.1053863-.9108886-.3161621-.1902679-.2107758-.2854004-.5269348-.2854004-.9484864v-1.8422851h-.4990235v-.440918l.5742188-.3486328.3007812-.8066406h.6665039v.8134765h1.0698243v.7827149h-1.0698243v1.8422851c0 .1481128.0415849.2574867.1247559.328125.083171.0706384.1931145.1059571.329834.1059571zm4.2815756.762207-.1401368-.4887695h-.0546875c-.1116542.1777352-.2700185.3150223-.4750976.4118652-.2050792.0968429-.438638.1452637-.7006836.1452637-.4488955 0-.787271-.1201974-1.0151367-.3605957-.2278657-.2403984-.3417969-.5861794-.3417969-1.0373535v-2.4916993h1.0424805v2.2319336c0 .2757176.0489904.4825026.1469726.6203614.0979823.1378587.254068.2067871.4682617.2067871.2916682 0 .5024408-.0974112.6323243-.2922364.1298834-.1948252.1948242-.51782.1948242-.9689941v-1.7978516h1.0424805v3.8212891zm4.1722006-3.8930664c.1412767 0 .2586258.0102538.3520507.0307617l-.0786132.9775391c-.0843104-.0227866-.1868484-.0341797-.3076172-.0341797-.332684 0-.5918774.0854484-.7775879.2563476-.1857106.1708993-.2785645.4101548-.2785645.7177735v1.9448242h-1.0424804v-3.8212891h.7895507l.1538086.6425782h.0512696c.1184901-.2141938.2785634-.3867995.4802246-.5178223.2016611-.1310228.4209786-.1965332.657959-.1965332zm2.6341146.7416992c-.2210298 0-.3942051.0700677-.5195312.2102051-.1253262.1401374-.1971028.3389473-.2153321.5964355h1.4628906c-.0045573-.2574882-.0717767-.4562981-.2016601-.5964355-.1298835-.1401374-.3053374-.2102051-.5263672-.2102051zm.1469727 3.2197266c-.6152375 0-1.096027-.1697574-1.4423829-.5092774-.3463559-.3395199-.5195312-.8203094-.5195312-1.4423828 0-.6403027.1600733-1.1353335.4802246-1.4851074s.7627739-.5246582 1.3278809-.5246582c.5400417 0 .9604477.153807 1.2612304.4614258.3007828.3076187.4511719.7325819.4511719 1.2749023v.5058594h-2.4643555c.0113933.2962254.0991203.5275057.2631836.6938477.1640634.1663419.3942043.2495117.6904297.2495117.2301444 0 .4477529-.0239256.6528321-.0717774.2050791-.0478518.4192697-.1241856.6425781-.2290039v.8066406c-.1822926.0911463-.3771149.1589354-.5844727.2033692s-.4602849.0666504-.758789.0666504zm6.5260418-.0683594h-1.0595704v-4.1152344h-1.3569335v-.8818359h3.7734375v.8818359h-1.3569336zm2.1453451-4.809082c0-.33952.1891257-.5092774.5673828-.5092774s.5673828.1697574.5673828.5092774c0 .1617846-.0472814.2876786-.1418457.3776855-.0945643.090007-.2364086.1350098-.4255371.1350098-.3782571 0-.5673828-.1708967-.5673828-.5126953zm1.086914 4.809082h-1.0424804v-3.8212891h1.0424804zm2.8494467-.762207c.1822926 0 .4010404-.0398759.65625-.1196289v.7758789c-.2597669.1162115-.5787741.1743164-.9570312.1743164-.4169943 0-.7206208-.1053863-.9108887-.3161621s-.2854004-.5269348-.2854004-.9484864v-1.8422851h-.4990234v-.440918l.5742187-.3486328.3007813-.8066406h.6665039v.8134765h1.0698242v.7827149h-1.0698242v1.8422851c0 .1481128.0415848.2574867.1247558.328125.083171.0706384.1931146.1059571.329834.1059571zm2.6170248.762207h-1.0424804v-5.3183594h1.0424804zm2.822103-3.1513672c-.2210298 0-.3942051.0700677-.5195313.2102051-.1253261.1401374-.1971028.3389473-.215332.5964355h1.4628906c-.0045573-.2574882-.0717767-.4562981-.2016602-.5964355-.1298834-.1401374-.3053374-.2102051-.5263671-.2102051zm.1469726 3.2197266c-.6152374 0-1.0960269-.1697574-1.4423828-.5092774-.3463559-.3395199-.5195312-.8203094-.5195312-1.4423828 0-.6403027.1600732-1.1353335.4802246-1.4851074.3201513-.3497739.7627738-.5246582 1.3278808-.5246582.5400418 0 .9604477.153807 1.2612305.4614258.3007827.3076187.4511719.7325819.4511719 1.2749023v.5058594h-2.4643555c.0113933.2962254.0991203.5275057.2631836.6938477.1640633.1663419.3942042.2495117.6904297.2495117.2301444 0 .4477529-.0239256.652832-.0717774.2050792-.0478518.4192697-.1241856.6425781-.2290039v.8066406c-.1822925.0911463-.3771148.1589354-.5844726.2033692s-.460285.0666504-.7587891.0666504z" fill="#4a4a4a"/><g fill="#b4b4b4" transform="translate(35)"><circle cx="6.8" cy="2.266667" r="2.266667"/><path d="m21.4895485 16.512805-6.9462136-11.81078701c-.0576536-.09809514-.1639306-.16141409-.2823636-.16830371-.1226007-.00524924-.2323508.04396237-.3021603.13451174l-4.63625026 6.02218908 2.35511376 3.1492151-6.25089766-4.64163927c-.07710297-.05806971-.17643383-.08234743-.27402813-.06725587-.09724699.01541964-.18303273.06889625-.23617126.14730676l-4.86234953 7.21770318c-.0680729.1013759-.07224062.228998-.01146126.3343109.06112669.1046567.17782307.1699441.30459147.1699441h20.83864087c.122948 0 .2368659-.0616786.2993818-.1617422s.0639051-.2240768.0041677-.3254528z"/></g></g></g></svg>