<?xml version="1.0" encoding="UTF-8" standalone="no"?>
<svg
    xmlns:svg="http://www.w3.org/2000/svg"
    xmlns="http://www.w3.org/2000/svg"
    width="512"
    height="256"
    viewBox="0 0 256 128"
    version="1.1">
  <filter id="f1">
    <feGaussianBlur stdDeviation="2"/>
  </filter>
  <rect
    fill="gray"
    x="0"
    y="0"
    width="100%"
    height="100%"></rect>
  <path
    fill="#fff"
    opacity="0.25"
    filter="url(#f1)"
    d="m 146.55537,67.68204 c -0.42121,4.740745 -2.49943,9.186352 -5.87518,12.567836 l 0.006,0.0059 -14.35857,14.387193 -0.007,-17.756829 1.07324,-1.075471 -0.0102,-0.01009 c 1.13785,-1.134533 1.74315,-2.803317 1.52604,-4.757025 -0.21558,-1.937986 -1.19068,-3.779422 -2.59389,-5.196958 l 0,-0.0482 -0.0477,0 c -1.41531,-1.409646 -3.2566,-2.389472 -5.19379,-2.60576 -1.94999,-0.217794 -3.61532,0.388526 -4.74779,1.529105 l -0.0106,-0.01175 -1.08126,1.083539 -17.719097,-0.0068 14.077667,-14.10601 c 3.3819,-3.54398 7.9509,-5.742364 12.85015,-6.182924 38.45225,-37.6027066 55.41234,-33.35343 55.41234,-33.35343 0,0 4.24367,16.995592 -33.30055,55.537915 z M 129.73243,55.708841 c 2.61915,1.783765 4.87371,4.043908 6.64424,6.660747 26.90766,-27.019623 28.42598,-35.143562 28.42598,-35.143562 0,0 -8.12487,1.540082 -35.07022,28.48241 l 0,4.05e-4 z m -11.2566,11.277787 c 0.0385,-0.04169 0.0783,-0.08169 0.11978,-0.120033 l 0.15686,-0.157228 0.0119,0.01193 c 0.56517,-0.421676 1.3642,-0.58314 2.30811,-0.394065 2.16396,0.433371 4.26847,2.542394 4.70096,4.710572 0.18876,0.945856 0.0275,1.746392 -0.39327,2.312804 l 8.1e-4,7.02e-4 -0.20319,0.240373 -0.0203,0.01134 c -0.27811,0.266876 -0.6211,0.457836 -0.99562,0.554311 l -8.94747,4.978251 2.21565,2.220187 -18.821068,9.977863 9.961998,-9.982295 -2.21557,-2.22009 12.12046,-12.144536 z M 97.330994,36.90285 c -15.90768,15.93968 -15.90768,41.783249 0,57.723131 7.601246,7.648759 17.976346,11.954989 28.803446,11.954989 10.82709,0 21.2022,-4.30623 28.80345,-11.954989 11.47929,-11.502538 14.67137,-28.161214 9.58253,-42.535107 2.47585,-3.14589 4.60627,-6.080836 6.44411,-8.812693 9.40353,18.816471 6.28561,42.31136 -9.37916,58.008559 C 152.2297,110.70026 139.46031,116 126.13469,116 c -13.32563,0 -26.09501,-5.29974 -35.450688,-14.71326 -19.578669,-19.618626 -19.578669,-51.426023 0,-71.044237 15.274858,-15.367847 38.840648,-19.114052 58.191168,-9.250505 -2.72038,1.833775 -5.64202,3.958814 -8.77467,6.429547 -14.89668,-5.440918 -31.62449,-1.732632 -42.769506,9.481305 l 0,0 z" />
  <text
    font-size="20"
    font-family="sans-serif"
    line-height="100%"
    fill="#fff"
    text-align="center"
    text-anchor="middle"
    style="text-shadow: 0 0 12px black">
    <tspan x="50%" y="50%" dy="-24">choose</tspan>
    <tspan x="50%" y="50%" dy="6">your</tspan>
    <tspan x="50%" y="50%" dy="36">image</tspan>
  </text>
</svg>
