<svg height="70" viewBox="0 0 101 57" width="101" xmlns="http://www.w3.org/2000/svg" xmlns:xlink="http://www.w3.org/1999/xlink"><defs><circle id="a" cx="7.868852" cy="7.868852" r="7.868852"/><mask id="b" fill="#fff"><use fill="none" xlink:href="#a"/></mask></defs><g fill="none" fill-rule="evenodd"><path d="m4.68798828 45-.36230469-1.1894531h-1.82177734l-.36230469 1.1894531h-1.14160156l1.76367188-5.0175781h1.29541015l1.77050781 5.0175781zm-.61523437-2.078125c-.33496262-1.0778049-.52351867-1.6873365-.56567383-1.8286133-.04215516-.1412767-.07234692-.2529293-.09057617-.3349609-.07519569.2916681-.29052557 1.0128523-.6459961 2.1635742zm5.15657558 2.078125-.14013672-.4887695h-.0546875c-.1116542.1777352-.2700185.3150223-.47509765.4118652s-.43863801.1452637-.7006836.1452637c-.44889547 0-.78727099-.1201974-1.01513671-.3605957-.22786573-.2403984-.34179688-.5861794-.34179688-1.0373535v-2.4916993h1.04248047v2.2319336c0 .2757176.0489904.4825026.14697266.6203614.09798226.1378587.25406794.2067871.46826171.2067871.29166813 0 .50244076-.0974112.63232422-.2922364.12988347-.1948252.19482422-.51782.19482422-.9689941v-1.7978516h1.04248049v3.8212891zm3.64925141-.762207c.1822925 0 .4010404-.0398759.65625-.1196289v.7758789c-.259767.1162115-.5787742.1743164-.9570313.1743164-.4169943 0-.7206208-.1053863-.9108887-.3161621-.1902678-.2107758-.2854003-.5269348-.2854003-.9484864v-1.8422851h-.4990235v-.440918l.5742188-.3486328.3007812-.8066406h.6665039v.8134765h1.0698242v.7827149h-1.0698242v1.8422851c0 .1481128.0415849.2574867.1247559.328125.083171.0706384.1931145.1059571.329834.1059571zm5.101888.762207h-1.0424804v-2.2319336c0-.551435-.2050761-.8271484-.6152344-.8271484-.2916681 0-.5024408.0991201-.6323242.2973632-.1298835.1982432-.1948242.5195291-.1948242.9638672v1.7978516h-1.0424805v-5.3183594h1.0424805v1.0834961c0 .0843103-.0079752.2825505-.0239258.5947266l-.0239258.3076172h.0546875c.232423-.3736998.60156-.5605469 1.1074219-.5605469.4488955 0 .7895496.120767 1.0219726.3623047.2324231.2415376.3486328.5878884.3486328 1.0390625zm2.049642-1.9174805c0 .3782571.0620925.6642243.1862793.8579102.1241869.1936859.3264147.2905273.6066895.2905273.2779962 0 .4779453-.0962718.5998535-.2888183.1219082-.1925466.1828613-.4790834.1828613-.8596192 0-.3782571-.0615228-.6619456-.1845703-.8510742-.1230475-.1891285-.3247056-.2836914-.6049804-.2836914-.2779962 0-.4785151.0939932-.6015625.2819824-.1230475.1879892-.1845704.4722475-.1845704.8527832zm2.6420899 0c0 .6220735-.1640609 1.1085595-.4921875 1.4594727-.3281267.3509132-.7849906.5263672-1.3706055.5263672-.3668638 0-.6904283-.0803215-.9707031-.2409668-.2802748-.1606454-.4956047-.3913559-.6459961-.6921387-.1503914-.3007827-.2255859-.6516907-.2255859-1.0527344 0-.624352.1629215-1.1096988.4887695-1.4560547s.7838512-.5195312 1.3740234-.5195312c.3668638 0 .6904283.0797518.9707032.2392578.2802748.159506.4956047.3885076.6459961.6870117.1503913.2985041.2255859.6482728.2255859 1.0493164zm3.139974-1.9755859c.1412768 0 .2586258.0102538.3520508.0307617l-.0786133.9775391c-.0843103-.0227866-.1868483-.0341797-.3076172-.0341797-.3326839 0-.5918773.0854484-.7775879.2563476-.1857105.1708993-.2785644.4101548-.2785644.7177735v1.9448242h-1.0424805v-3.8212891h.7895508l.1538086.6425782h.0512695c.1184902-.2141938.2785635-.3867995.4802246-.5178223.2016612-.1310228.4209787-.1965332.657959-.1965332zm7.6710613 3.8930664h-1.3466796l-2.1738282-3.7802734h-.0307617c.0432945.6676465.0649414 1.1438787.0649414 1.4287109v2.3515625h-.9467773v-4.9970703h1.3364258l2.1704101 3.7426758h.0239258c-.0341799-.6494173-.0512695-1.1085599-.0512695-1.3774414v-2.3652344h.9536132zm3.7483725 0-.2016602-.5195312h-.0273437c-.1754566.2210297-.3560375.3742671-.541748.4597167-.1857106.0854497-.4278143.1281739-.7263184.1281739-.3668638 0-.6556793-.1048167-.8664551-.3144532-.2107758-.2096364-.3161621-.508136-.3161621-.8955078 0-.4056009.1418443-.7046702.4255371-.8972168.2836928-.1925465.7115043-.2990721 1.2834473-.31958l.6630859-.0205078v-.1674805c0-.3873717-.1982402-.5810547-.5947265-.5810547-.3053401 0-.6642232.0922842-1.0766602.2768555l-.3452148-.7041016c.4397808-.2301444.9274061-.3452148 1.4628906-.3452148.5126979 0 .9057603.1116525 1.1791992.3349609s.4101562.5628232.4101562 1.0185547v2.5463867zm-.3076172-1.7705078-.4033203.0136719c-.3030614.0091146-.5286451.0638015-.6767578.1640625-.1481127.1002609-.222168.2529286-.222168.4580078 0 .2939468.1686181.4409179.5058594.4409179.2415377 0 .434651-.069498.5793457-.2084961.1446947-.138998.217041-.3235665.217041-.5537109zm5.6761069 1.7705078h-1.0424805v-2.2319336c0-.2757175-.0461421-.4825026-.1384277-.6203613-.0922857-.1378588-.2375479-.2067871-.4357911-.2067871-.2666029 0-.4602858.0979808-.5810546.2939453-.1207689.1959645-.1811524.5183897-.1811524.9672851v1.7978516h-1.0424805v-3.8212891h.7963868l.1401367.4887696h.0581054c.1025396-.1754566.2506501-.3127437.444336-.4118653.1936858-.0991216.4158516-.1486816.6665039-.1486816.571943 0 .9593089.1868471 1.1621094.5605469h.0922851c.1025396-.1777353.2534984-.315592.4528809-.4135743.1993825-.0979822.4243965-.1469726.6750488-.1469726.4329449 0 .7604969.1110829.982666.3332519.2221691.2221691.333252.578204.333252 1.0681153v2.4916992h-1.0458985v-2.2319336c0-.2757175-.0461421-.4825026-.1384277-.6203613-.0922856-.1378588-.2375478-.2067871-.435791-.2067871-.2552096 0-.4460443.0911449-.5725098.2734375-.1264655.1822925-.1896972.4716777-.1896972.868164zm5.1805013-3.1513672c-.2210297 0-.3942051.0700677-.5195312.2102051-.1253262.1401374-.1971028.3389473-.2153321.5964355h1.4628907c-.0045573-.2574882-.0717767-.4562981-.2016602-.5964355-.1298834-.1401374-.3053374-.2102051-.5263672-.2102051zm.1469727 3.2197266c-.6152375 0-1.0960269-.1697574-1.4423828-.5092774-.3463559-.3395199-.5195313-.8203094-.5195313-1.4423828 0-.6403027.1600733-1.1353335.4802246-1.4851074.3201514-.3497739.7627739-.5246582 1.3278809-.5246582.5400418 0 .9604477.153807 1.2612305.4614258.3007827.3076187.4511718.7325819.4511718 1.2749023v.5058594h-2.4643554c.0113932.2962254.0991202.5275057.2631836.6938477.1640633.1663419.3942042.2495117.6904296.2495117.2301444 0 .4477529-.0239256.6528321-.0717774.2050791-.0478518.4192697-.1241856.6425781-.2290039v.8066406c-.1822926.0911463-.3771148.1589354-.5844727.2033692-.2073578.0444338-.4602849.0666504-.758789.0666504z" fill="#4a4a4a" fill-rule="nonzero"/><path d="m3.82666016 50.4506836c-.5491564 0-.98266443.1828595-1.30053711.548584-.31787269.3657245-.47680664.8664519-.47680664 1.5021972 0 .6539747.1532374 1.1592593.45971679 1.5158692.3064794.3566098.74340537.5349121 1.31079102.5349121.34863455 0 .74625428-.0626621 1.19287109-.1879883v.5092774c-.3463559.1298834-.77359772.1948242-1.28173828.1948242-.73600628 0-1.30395308-.2233051-1.70385742-.6699219s-.59985352-1.0812133-.59985352-1.9038086c0-.5149765.09627183-.9661439.28881836-1.3535156.19254654-.3873717.47053855-.6858714.83398438-.8955078.36344583-.2096365.7912573-.3144532 1.28344726-.3144532.52409117 0 .9820944.0957022 1.37402344.2871094l-.24609375.4990235c-.3782571-.1777353-.75650852-.2666016-1.13476562-.2666016zm5.5993164 2.6728516c0 .6106801-.15380705 1.087482-.46142578 1.4304199-.30761872.3429379-.73258192.5144043-1.27490234.5144043-.33496261 0-.63232292-.0786125-.89208985-.2358399-.25976692-.1572273-.46028575-.382811-.6015625-.6767578-.14127674-.2939468-.21191406-.6380188-.21191406-1.0322265 0-.6106802.15266775-1.0863427.45800781-1.427002.30534007-.3406593.72916396-.5109863 1.27148438-.5109863.52409116 0 .94050952.1743146 1.24926758.5229492.30875805.3486345.46313476.8203095.46313476 1.4150391zm-2.8540039 0c0 .478518.09570216.8430977.28710937 1.09375s.47281715.3759765.84423828.3759765.65340073-.1247546.84594727-.3742676c.19254653-.2495129.28881836-.6146623.28881836-1.0954589 0-.4762394-.09627183-.8379708-.28881836-1.0852051-.19254654-.2472343-.47680476-.3708496-.85278321-.3708496-.37142112 0-.65169176.1219063-.84082031.3657226s-.2836914.6072567-.2836914 1.0903321zm8.79853514 1.8764648v-2.4370117c0-.2985041-.0638014-.5223788-.1914062-.6716309-.1276048-.149252-.325845-.2238769-.5947266-.2238769-.3531919 0-.6140942.1013987-.7827148.3041992-.1686207.2028005-.2529297.5149718-.2529297.9365234v2.0917969h-.5673828v-2.4370117c0-.2985041-.0638015-.5223788-.1914063-.6716309-.1276048-.149252-.3269843-.2238769-.5981445-.2238769-.3554706 0-.6158032.1065256-.7810059.31958-.1652026.2130545-.2478027.5622535-.2478027 1.0476075v1.965332h-.5673828v-3.7460938h.4614257l.0922852.5126954h.0273438c.1070968-.1822926.2580556-.3247066.4528808-.4272461.1948252-.1025396.4130034-.1538086.654541-.1538086.5856149 0 .9684236.2119119 1.1484375.6357422h.0273438c.1116542-.1959646.2734364-.3509109.4853515-.4648438.2119152-.1139328.4534492-.1708984.7246094-.1708984.4238303 0 .7411285.1088042.9519043.326416s.3161621.5656714.3161621 1.0441894v2.4438477zm3.6544922.0683594c-.2438163 0-.4665517-.0450028-.6682129-.1350098s-.3708489-.2284333-.5075683-.4152832h-.0410157c.0273439.2187511.0410157.4261058.0410157.6220703v1.5415039h-.5673829v-5.4277344h.4614258l.0786133.5126954h.0273438c.145834-.2050792.3155914-.3531897.5092773-.444336s.4158516-.1367187.6665039-.1367187c.4967473 0 .8801256.1697574 1.1501465.5092773s.4050293.8157522.4050293 1.428711c0 .6152374-.1372871 1.0931786-.4118653 1.4338378-.2745781.3406593-.6556779.5109864-1.1433105.5109864zm-.0820312-3.4008789c-.3828145 0-.6596672.1059559-.8305665.3178711-.1708992.2119151-.2586262.5491513-.2631835 1.0117187v.1264649c0 .5263698.0877269.9029122.2631835 1.1296386.1754567.2267264.4568666.3400879.8442383.3400879.3235694 0 .5770662-.1310208.7604981-.3930664s.2751465-.6232073.2751465-1.0834961c0-.4671247-.0917146-.8254382-.2751465-1.0749512-.1834319-.2495129-.441486-.3742675-.7741699-.3742675zm5.1071289 3.3325195-.112793-.5332031h-.0273438c-.1868499.2347017-.3731273.3936356-.5588379.4768066-.1857105.083171-.4175604.1247559-.6955566.1247559-.3714211 0-.6625152-.0957022-.873291-.2871094s-.3161621-.4637027-.3161621-.8168945c0-.7565142.6049744-1.1529946 1.8149414-1.1894532l.6357422-.0205078v-.2324218c0-.2939468-.0632318-.5109857-.1896973-.6511231s-.3286933-.2102051-.6066894-.2102051c-.3121761 0-.6653627.0957022-1.0595704.2871094l-.1743164-.434082c.1845713-.1002609.3867991-.1788734.6066895-.2358399.2198904-.0569664.4403472-.0854492.6613769-.0854492.4466169 0 .7775869.0991201.99292.2973633s.322998.5161111.322998.9536133v2.5566406zm-1.2817383-.3999023c.3531918 0 .6306142-.0968415.8322754-.2905274.2016611-.1936859.3024902-.464842.3024902-.8134765v-.338379l-.5673828.0239258c-.4511741.0159506-.7764476.0860183-.9758301.2102051s-.2990723.3173001-.2990723.5793457c0 .2050792.0620925.3611648.1862793.4682617.1241869.1070969.2979319.1606446.5212403.1606446zm5.6095703.3999023v-2.4233398c0-.3053401-.069498-.5332024-.2084961-.6835938s-.3566066-.2255859-.652832-.2255859c-.3919291 0-.6790356.1059559-.8613282.3178711-.1822925.2119151-.2734375.5616837-.2734375 1.0493164v1.965332h-.5673828v-3.7460938h.4614258l.0922852.5126954h.0273437c.1162115-.1845713.2791331-.3275549.4887695-.4289551.2096365-.1014003.4431954-.1520996.7006836-.1520996.4511742 0 .790689.1088042 1.0185547.326416s.3417969.5656714.3417969 1.0441894v2.4438477zm1.3131836-3.7460938h.6083984l.8203125 2.1362305c.1800139.4876327.2916665.8396799.334961 1.0561524h.0273437c.0296226-.1162116.091715-.3150214.1862793-.5964356s.4038874-1.1467213.9279785-2.5959473h.6083985l-1.6098633 4.265625c-.159506.4215516-.3457835.7206209-.5588379.8972168-.2130545.176596-.4745265.2648926-.7844238.2648926-.173178 0-.3440747-.0193683-.5126954-.0581054v-.4545899c.1253262.0273439.2654615.0410156.4204102.0410156.3896504 0 .6676424-.2187478.8339844-.65625l.2084961-.5332031zm6.1940429-1.2509765-1.8627929 4.9970703h-.5673828l1.8627929-4.9970703zm4.1022461 1.4560547c0 .5058619-.1726057.8949368-.5178222 1.1672363-.3452166.2722995-.8391081.4084473-1.4816895.4084473h-.5878906v1.965332h-.5810547v-4.9970703h1.2954102c1.2487041 0 1.8730468.4853467 1.8730468 1.4560547zm-2.5874023 1.0766601h.5229492c.5149766 0 .8875314-.0831697 1.1176758-.2495117s.3452148-.4329409.3452148-.7998047c0-.3304053-.1082346-.5764966-.324707-.7382812-.2164724-.1617847-.5537086-.2426758-1.0117187-.2426758h-.6494141zm6.95625.5878907c0 .6106801-.1538071 1.087482-.4614258 1.4304199s-.7325819.5144043-1.2749023.5144043c-.3349626 0-.6323229-.0786125-.8920899-.2358399-.2597669-.1572273-.4602857-.382811-.6015625-.6767578-.1412767-.2939468-.211914-.6380188-.211914-1.0322265 0-.6106802.1526677-1.0863427.4580078-1.427002.30534-.3406593.7291639-.5109863 1.2714844-.5109863.5240911 0 .9405095.1743146 1.2492675.5229492.3087581.3486345.4631348.8203095.4631348 1.4150391zm-2.8540039 0c0 .478518.0957022.8430977.2871094 1.09375s.4728171.3759765.8442383.3759765c.3714211 0 .6534007-.1247546.8459472-.3742676.1925466-.2495129.2888184-.6146623.2888184-1.0954589 0-.4762394-.0962718-.8379708-.2888184-1.0852051-.1925465-.2472343-.4768047-.3708496-.8527832-.3708496-.3714211 0-.6516918.1219063-.8408203.3657226s-.2836914.6072567-.2836914 1.0903321zm6.4401367.8544921c0 .3486346-.1298815.6175121-.3896484.8066407-.2597669.1891285-.6243466.2836914-1.09375.2836914-.4967473 0-.8841132-.0786125-1.1621094-.2358399v-.5263672c.1800139.0911463.3731272.162923.5793457.2153321s.4050283.0786133.5964355.0786133c.2962255 0 .5240878-.0472815.6835938-.1418457.159506-.0945643.2392578-.2386872.2392578-.4323731 0-.1458341-.0632318-.2705887-.1896973-.3742676-.1264654-.1036789-.3731264-.2261549-.7399902-.3674316-.3486345-.1298835-.5964348-.243245-.7434082-.3400879s-.2563473-.2067865-.328125-.329834-.107666-.2700187-.107666-.440918c0-.30534.1241849-.5463044.3725586-.7229003.2483736-.176596.5890278-.2648926 1.0219726-.2648926.4033224 0 .7975242.0820304 1.1826172.2460937l-.2016601.4614258c-.3759785-.1549487-.7166326-.2324219-1.0219727-.2324219-.2688815 0-.471679.0421546-.6083984.1264649-.1367195.0843103-.2050781.2005201-.2050781.3486328 0 .1002609.0256345.1857093.0769043.2563476.0512697.0706384.1338698.1378578.2478027.2016602.1139328.0638024.3326807.1560866.65625.2768555.4443381.1617846.7445467.3247062.9006348.4887695.156088.1640633.2341308.3702787.2341308.6186523zm1.6652344 1.0219727h-.5673828v-3.7460938h.5673828zm-.6152344-4.7612305c0-.1298834.0319007-.2250159.0957031-.2854004.0638024-.0603844.1435542-.0905761.2392578-.0905761.0911463 0 .1697588.0307614.2358399.0922851.0660811.0615238.0991211.1560866.0991211.2836914s-.03304.2227373-.0991211.2854004-.1446936.0939942-.2358399.0939942c-.0957036 0-.1754554-.0313311-.2392578-.0939942s-.0957031-.1577956-.0957031-.2854004zm3.2033203 4.3613282c.1002609 0 .1971024-.0074056.2905274-.0222168.0934249-.0148113.1674802-.030192.2221679-.0461426v.434082c-.0615237.0296226-.152099.0541178-.2717285.0734863-.1196295.0193686-.2272944.0290528-.322998.0290528-.724613 0-1.0869141-.3816694-1.0869141-1.1450196v-2.2285156h-.5366211v-.2734375l.5366211-.2358398.2392578-.7998047h.328125v.868164h1.0869141v.440918h-1.0869141v2.2045899c0 .225587.0535477.3987624.1606446.5195312.1070968.1207688.254068.1811524.4409179.1811524zm2.0036133.3999023h-.5673828v-3.7460938h.5673828zm-.6152344-4.7612305c0-.1298834.0319008-.2250159.0957032-.2854004.0638024-.0603844.1435542-.0905761.2392578-.0905761.0911463 0 .1697588.0307614.2358398.0922851.0660811.0615238.0991211.1560866.0991211.2836914s-.03304.2227373-.0991211.2854004c-.066081.0626631-.1446935.0939942-.2358398.0939942-.0957036 0-.1754554-.0313311-.2392578-.0939942s-.0957032-.1577956-.0957032-.2854004zm5.2267578 2.8847657c0 .6106801-.153807 1.087482-.4614257 1.4304199-.3076188.3429379-.732582.5144043-1.2749024.5144043-.3349626 0-.6323229-.0786125-.8920898-.2358399-.2597669-.1572273-.4602858-.382811-.6015625-.6767578-.1412768-.2939468-.2119141-.6380188-.2119141-1.0322265 0-.6106802.1526678-1.0863427.4580078-1.427002.3053401-.3406593.729164-.5109863 1.2714844-.5109863.5240912 0 .9405095.1743146 1.2492676.5229492.308758.3486345.4631347.8203095.4631347 1.4150391zm-2.8540039 0c0 .478518.0957022.8430977.2871094 1.09375s.4728172.3759765.8442383.3759765.6534007-.1247546.8459473-.3742676c.1925465-.2495129.2888183-.6146623.2888183-1.0954589 0-.4762394-.0962718-.8379708-.2888183-1.0852051-.1925466-.2472343-.4768048-.3708496-.8527832-.3708496-.3714212 0-.6516918.1219063-.8408204.3657226-.1891285.2438163-.2836914.6072567-.2836914 1.0903321zm6.5871094 1.8764648v-2.4233398c0-.3053401-.069498-.5332024-.2084961-.6835938s-.3566066-.2255859-.652832-.2255859c-.3919291 0-.6790356.1059559-.8613281.3178711-.1822926.2119151-.2734375.5616837-.2734375 1.0493164v1.965332h-.5673828v-3.7460938h.4614257l.0922852.5126954h.0273437c.1162116-.1845713.2791331-.3275549.4887696-.4289551.2096364-.1014003.4431953-.1520996.7006836-.1520996.4511741 0 .7906889.1088042 1.0185546.326416.2278658.2176118.3417969.5656714.3417969 1.0441894v2.4438477z" fill="#a6a6a6" fill-rule="nonzero"/><g fill-rule="evenodd" transform="translate(85 17)"><use fill="#c9c9c9" xlink:href="#a"/><path d="m3.19573901 16c0-2.6509668 2.14617164-4.8 4.79360853-4.8 2.64743686 0 4.79360856 2.1490332 4.79360856 4.8zm4.79360853-6.08c-1.58846213 0-2.87616512-1.28941992-2.87616512-2.88s1.28770299-2.88 2.87616512-2.88 2.87616506 1.28941992 2.87616506 2.88-1.28770293 2.88-2.87616506 2.88z" fill="#bababa" mask="url(#b)"/></g><path d="m0 13h73v8h-73z" fill="#d8d8d8" opacity=".672828"/><path d="m0 24h63v8h-63z" fill="#d8d8d8" opacity=".672828"/><path d="m3.55664062 6h-1.05957031v-4.11523438h-1.35693359v-.88183593h3.7734375v.88183593h-1.3569336zm3.28352872-3.15136719c-.22102975 0-.39420511.07006766-.51953125.21020508-.12532615.14013742-.19710278.33894728-.21533203.59643555h1.46289062c-.00455731-.25748827-.07177669-.45629813-.20166016-.59643555-.12988346-.14013742-.30533743-.21020508-.52636718-.21020508zm.14697265 3.21972657c-.61523745 0-1.09602691-.16975742-1.44238281-.50927735s-.51953125-.82030939-.51953125-1.44238281c0-.64030268.16007327-1.13533354.48022461-1.48510742.32015134-.34977389.76277387-.52465821 1.32788086-.52465821.54004176 0 .96044771.15380706 1.26123047.46142579.30078275.30761872.45117187.73258192.45117187 1.27490234v.50585937h-2.46435547c.01139329.29622544.09912028.52750568.2631836.69384766s.39420425.24951172.69042969.24951172c.23014438 0 .44775288-.02392554.65283203-.07177735.20507915-.0478518.41926971-.12418567.64257812-.2290039v.80664062c-.18229258.09114629-.37711485.15893533-.58447265.20336914-.20735781.04443382-.46028497.0666504-.75878907.0666504zm5.21809901-1.203125c0 .39192904-.1361477.69042866-.4084472.89550781-.2722996.20507915-.6796035.30761719-1.2219239.30761719-.2779962 0-.514973-.01879865-.71093747-.05639649-.19596453-.03759784-.37939368-.09285445-.55029297-.16577148v-.86132813c.19368586.09114629.41186402.16748016.65454101.22900391.24267703.06152374.45629793.09228515.64086913.09228515.3782571 0 .5673828-.1093739.5673828-.328125 0-.08203166-.0250648-.14868138-.0751953-.19995117-.0501304-.05126979-.1367181-.10937467-.2597656-.1743164-.1230475-.06494174-.2871084-.14070595-.4921875-.22729493-.2939468-.12304749-.50984633-.23697864-.64770509-.34179687s-.23811818-.2250156-.30078125-.3605957c-.06266307-.13558011-.09399414-.30248925-.09399414-.50073243 0-.33951992.13159048-.60213123.39477539-.78784179.26318491-.18571057.63630939-.27856446 1.11938479-.27856446.4602887 0 .9080382.10025942 1.3432617.30078125l-.3144531.75195313c-.1914072-.08203166-.3702791-.14925104-.5366211-.20166016-.166342-.05240911-.3360994-.07861328-.5092774-.07861328-.3076187 0-.4614257.08316974-.4614257.24951172 0 .09342495.04956.17431606.1486816.24267578s.3161604.16975844.651123.30419922c.2985041.12076883.5172519.23356067.65625.33837891.1389981.10481823.2415362.22558525.3076172.36230468.0660811.13671944.0991211.29964099.0991211.48876954zm2.5691733.37255859c.1822925 0 .4010404-.0398759.65625-.11962891v.77587891c-.259767.11621152-.5787742.17431641-.9570313.17431641-.4169943 0-.7206208-.10538632-.9108887-.31616211-.1902678-.2107758-.2854004-.52693475-.2854004-.94848633v-1.84228516h-.4990234v-.44091797l.5742188-.34863281.3007812-.80664062h.6665039v.81347656h1.0698242v.78271484h-1.0698242v1.84228516c0 .14811272.0415849.25748662.1247559.328125.083171.07063837.1931145.10595703.329834.10595703zm1.5301107-4.046875c0-.33951993.1891257-.50927734.5673828-.50927734s.5673828.16975741.5673828.50927734c0 .16178466-.0472814.28767859-.1418457.37768555-.0945642.09000696-.2364085.13500976-.4255371.13500976-.3782571 0-.5673828-.17089673-.5673828-.51269531zm1.0869141 4.80908203h-1.0424805v-3.82128906h1.0424805zm4.6609701 0h-1.0424805v-2.23193359c0-.27571753-.0461421-.48250257-.1384277-.62036133s-.2375479-.20678711-.435791-.20678711c-.2666029 0-.4602859.09798079-.5810547.29394531-.1207689.19596452-.1811524.51838968-.1811524.96728516v1.79785156h-1.0424804v-3.82128906h.7963867l.1401367.48876953h.0581055c.1025396-.17545661.25065-.31274365.4443359-.41186524.1936859-.09912158.4158516-.14868164.6665039-.14868164.571943 0 .9593089.18684709 1.1621094.56054688h.0922851c.1025396-.17773526.2534984-.31559196.4528809-.41357422s.4243965-.14697266.6750488-.14697266c.4329449 0 .760497.11108288.9826661.33325196.222169.22216908.3332519.57820393.3332519 1.06811523v2.49169922h-1.0458984v-2.23193359c0-.27571753-.0461421-.48250257-.1384278-.62036133-.0922856-.13785876-.2375478-.20678711-.435791-.20678711-.2552096 0-.4460443.09114492-.5725097.2734375-.1264655.18229258-.1896973.4716777-.1896973.86816406zm4.4285482-1.91748047c0 .3782571.0620925.66422429.1862793.85791016.1241868.19368586.3264146.29052734.6066895.29052734.2779962 0 .4779453-.09627182.5998535-.28881836.1219082-.19254653.1828613-.47908338.1828613-.85961914 0-.3782571-.0615228-.66194567-.1845703-.85107422s-.3247056-.2836914-.6049805-.2836914c-.2779961 0-.478515.0939932-.6015625.28198242-.1230474.18798922-.1845703.47224744-.1845703.8527832zm2.6420899 0c0 .62207342-.1640609 1.10855944-.4921875 1.45947266-.3281267.35091321-.7849906.52636719-1.3706055.52636719-.3668638 0-.6904283-.08032147-.9707031-.2409668-.2802749-.16064534-.4956047-.39135592-.6459961-.69213867-.1503914-.30078276-.2255859-.65169071-.2255859-1.05273438 0-.62435208.1629215-1.10969879.4887695-1.45605469.325848-.34635589.7838512-.51953125 1.3740234-.51953125.3668638 0 .6904283.07975181.9707031.23925782.2802749.159506.4956048.38850762.6459961.68701171.1503914.2985041.225586.64827274.225586 1.04931641zm4.5345052 1.91748047h-1.0424804v-2.23193359c0-.27571753-.0489904-.48250257-.1469727-.62036133-.0979822-.13785876-.2540679-.20678711-.4682617-.20678711-.2916681 0-.5024408.09741113-.6323242.29223633-.1298835.19482519-.1948242.51782001-.1948242.96899414v1.79785156h-1.0424805v-3.82128906h.7963867l.1401367.48876953h.0581055c.1162115-.18457124.2762848-.3241369.4802246-.41870117.2039398-.09456428.4357897-.14184571.6955567-.14184571.4443381 0 .7815743.12019737 1.0117187.36059571.2301444.24039833.3452148.58731869.3452148 1.04077148zm1.174642-4.80908203c0-.33951993.1891258-.50927734.5673829-.50927734s.5673828.16975741.5673828.50927734c0 .16178466-.0472815.28767859-.1418457.37768555-.0945643.09000696-.2364086.13500976-.4255371.13500976-.3782571 0-.5673829-.17089673-.5673829-.51269531zm1.0869141 4.80908203h-1.0424805v-3.82128906h1.0424805zm3.6663412 0-.2016601-.51953125h-.0273438c-.1754566.22102975-.3560375.37426715-.541748.4597168-.1857106.08544964-.4278143.12817383-.7263184.12817383-.3668638 0-.6556793-.10481667-.8664551-.31445313s-.3161621-.50813608-.3161621-.89550781c0-.40560099.1418443-.70467026.4255371-.8972168.2836929-.19254654.7115043-.29907216 1.2834473-.31958008l.6630859-.02050781v-.16748047c0-.38737173-.1982402-.58105469-.5947265-.58105469-.3053401 0-.6642232.09228424-1.0766602.27685547l-.3452148-.70410156c.4397808-.23014438.9274061-.34521484 1.4628906-.34521484.5126979 0 .9057603.11165253 1.1791992.33496093.2734389.22330841.4101563.56282325.4101563 1.01855469v2.54638672zm-.3076172-1.77050781-.4033203.01367187c-.3030614.00911463-.5286451.06380158-.6767578.1640625s-.222168.25292866-.222168.45800782c0 .29394678.1686181.44091796.5058594.44091796.2415377 0 .434651-.069498.5793457-.20849609s.217041-.32356656.217041-.55371094zm3.2972006 1.77050781h-1.0424805v-5.31835937h1.0424805zm5.2135418 0h-1.0595703v-4.11523438h-1.3569336v-.88183593h3.7734375v.88183593h-1.3569336zm2.1453451-4.80908203c0-.33951993.1891258-.50927734.5673829-.50927734.378257 0 .5673828.16975741.5673828.50927734 0 .16178466-.0472815.28767859-.1418457.37768555-.0945643.09000696-.2364086.13500976-.4255371.13500976-.3782571 0-.5673829-.17089673-.5673829-.51269531zm1.0869141 4.80908203h-1.0424805v-3.82128906h1.0424805zm2.8494467-.76220703c.1822926 0 .4010404-.0398759.65625-.11962891v.77587891c-.2597669.11621152-.5787742.17431641-.9570313.17431641-.4169942 0-.7206208-.10538632-.9108886-.31616211-.1902679-.2107758-.2854004-.52693475-.2854004-.94848633v-1.84228516h-.4990235v-.44091797l.5742188-.34863281.3007812-.80664062h.6665039v.81347656h1.0698243v.78271484h-1.0698243v1.84228516c0 .14811272.0415849.25748662.1247559.328125.083171.07063837.1931145.10595703.329834.10595703zm2.6170248.76220703h-1.0424805v-5.31835937h1.0424805zm2.8221029-3.15136719c-.2210297 0-.3942051.07006766-.5195312.21020508-.1253262.14013742-.1971028.33894728-.2153321.59643555h1.4628907c-.0045574-.25748827-.0717767-.45629813-.2016602-.59643555s-.3053374-.21020508-.5263672-.21020508zm.1469727 3.21972657c-.6152375 0-1.0960269-.16975742-1.4423828-.50927735s-.5195313-.82030939-.5195313-1.44238281c0-.64030268.1600733-1.13533354.4802246-1.48510742.3201514-.34977389.7627739-.52465821 1.3278809-.52465821.5400417 0 .9604477.15380706 1.2612305.46142579.3007827.30761872.4511718.73258192.4511718 1.27490234v.50585937h-2.4643554c.0113932.29622544.0991202.52750568.2631836.69384766.1640633.16634198.3942042.24951172.6904296.24951172.2301444 0 .4477529-.02392554.6528321-.07177735.2050791-.0478518.4192697-.12418567.6425781-.2290039v.80664062c-.1822926.09114629-.3771149.15893533-.5844727.20336914-.2073578.04443382-.4602849.0666504-.758789.0666504z" fill="#4a4a4a" fill-rule="nonzero"/></g></svg>