<svg xmlns="http://www.w3.org/2000/svg" viewBox="0 0 400 32">
    <path d="m 318.18353,10.349076 c 5.61174,3.687539 11.40122,9.411069 16.56687,11.942869 54.30953,26.61844 82.14435,-9.342794 54.29423,-19.677284 -4.29736,-1.59459 -13.20278,-2.551755 -19.58267,3.7976 7.80679,-4.40804 16.46938,-2.89453 20.04785,-0.61536 9.5261,6.067185 6.18544,14.676054 -5.01706,18.607774 -17.64542,4.988745 -33.58308,-0.34817 -47.5296,-7.74879 -9.961,-4.419599 -12.51728,-6.482114 -20.54326,-9.182709 4.55989,-0.140245 2.16441,4.29716 6.50358,6.379509 l -4.73994,-3.503609 z m -6.5294,4.445159 c -3.69287,3.89136 -2.53642,9.605385 0.62007,11.25388 5.56849,3.01151 11.65509,-3.2738 8.86559,-9.5272 C 318.35593,10.084076 311.38677,5.584306 301.89933,4.297661 281.31647,1.589876 240.60417,18.27351 214.78468,23.37873 195.60449,27.17118 183.888,21.472465 177.56597,15.16091 c 12.99372,6.85327 24.83648,4.46971 37.0244,2.78705 27.96484,-3.86076 56.89069,-20.252649 87.54168,-17.674299 14.31018,1.59181 24.33682,12.17254 23.51236,20.469294 -0.0733,0.73733 -0.23222,1.456555 -0.4815,2.14991 -1.88371,4.916935 -5.19344,6.93354 -8.12549,7.53172 -7.97014,1.62593 -15.86543,-9.190345 -5.3833,-15.63035 z M 77.973064,23.01372 C 72.624917,19.29678 67.10741,13.527646 62.184464,10.975676 10.426167,-15.854939 -16.101111,20.392915 10.440741,30.809715 c 4.095462,1.607385 12.582533,2.57223 18.662736,-3.82779 -7.440044,4.44318 -15.695708,2.917605 -19.106074,0.62026 -9.07857797,-6.115535 -5.89489,-14.793029 4.781569,-18.756099 16.816321,-5.02852 32.005289,0.350935 45.296639,7.810559 9.492933,4.45483 11.929159,6.533785 19.578213,9.2559 -4.34568,0.141365 -2.06272,-4.331415 -6.198,-6.430355 l 4.517253,3.53153 0,0 0,0 0,0 -1.3e-5,0 z m 2.720753,-6.034595 C 84.175664,13.120201 83.085324,7.453926 80.10917,5.819201 74.858857,2.832856 69.12015,9.065636 71.750237,15.26684 c 2.624867,6.38309 9.195667,10.84529 18.140939,12.121245 19.406524,2.68512 57.792344,-13.859179 82.136234,-18.921764 18.08418,-3.76079 29.1311,1.890335 35.09188,8.149174 C 194.86809,9.819456 183.70204,12.183126 172.21059,13.85172 145.84397,17.68025 118.57113,33.93525 89.671746,31.378415 76.179337,29.79992 66.725677,19.30755 67.50307,11.080081 c 0.06905,-0.731125 0.218914,-1.444405 0.453947,-2.13197 1.77606,-4.875885 4.896653,-6.87568 7.66114,-7.4688 7.514687,-1.61238 14.958799,9.113595 5.07566,15.499814 z" fill="currentColor" />
</svg>
