<svg xmlns="http://www.w3.org/2000/svg" viewBox="0 0 400 64">
    <path d="m 378.84274,28.981941 c -11.38247,10.860344 5.37215,35.168864 14.12929,16.226975 5.36855,-17.94654 -12.31907,-34.678277 -28.83153,-36.7897895 -25.73223,-2.5181254 -50.19234,8.9528315 -74.02477,17.1667505 -24.51311,8.46711 -48.43225,21.116187 -74.66152,22.601592 -14.8009,0.364117 -29.71395,-6.370941 -38.70668,-18.487205 18.74269,14.035155 42.87947,8.343537 63.72253,3.769132 C 281.87275,23.093705 320.33104,-3.8987408 364.49124,0.53609745 384.97043,3.3293206 404.71103,24.9103 398.6461,46.587372 c -2.77337,19.428309 -30.37247,14.79938 -27.34159,-4.271766 0.37512,-5.341607 3.44223,-10.128524 7.53823,-13.333665 z M 19.948138,35.260108 C 30.670502,24.805048 15.117831,0.41894769 6.6262798,19.168584 1.1620872,38.664533 21.279571,56.753677 39.617512,56.210804 69.674255,55.078636 97.051203,40.384498 124.81961,30.120063 c 21.72253,-8.009559 46.34373,-20.519569 69.23514,-9.537071 6.70566,2.092173 23.65855,19.470176 9.58777,9.775626 -18.65023,-9.43131 -39.86909,-2.458566 -58.85187,2.029447 C 108.05694,43.533386 73.301117,67.616628 33.479509,63.468366 11.999332,60.413911 -7.2846529,34.78027 3.0990122,13.37488 10.56025,-5.8967301 34.540909,12.168678 25.744063,27.5416 c -1.24344,3.026493 -3.320273,5.646624 -5.795925,7.718508 z" fill="currentColor" />
</svg>
